<?xml version="1.0" encoding="UTF-8" standalone="no"?>
<!DOCTYPE svg PUBLIC "-//W3C//DTD SVG 1.1//EN" "http://www.w3.org/Graphics/SVG/1.1/DTD/svg11.dtd">
<svg width="100%" height="100%" viewBox="0 0 564 738" version="1.1" xmlns="http://www.w3.org/2000/svg" xmlns:xlink="http://www.w3.org/1999/xlink" xml:space="preserve" xmlns:serif="http://www.serif.com/" style="fill-rule:evenodd;clip-rule:evenodd;stroke-linecap:round;stroke-linejoin:round;stroke-miterlimit:1.5;">
    <g transform="matrix(0.518727,0,0,0.759197,-122.534,-481.839)">
        <rect id="Artboard1" x="236.22" y="634.669" width="1086.61" height="971.63" style="fill:none;"/>
        <g id="Artboard11" serif:id="Artboard1">
            <g id="Turtle" transform="matrix(1.9278,0,0,1.31718,-700.473,-383.441)">
                <g id="Legs" transform="matrix(1,0,0,1,8.92699,0)">
                    <g transform="matrix(0.236477,-1.14485,0.979326,0.202287,-435.952,1407.54)">
                        <path d="M389.043,1086.61C389.043,1060.52 367.891,1039.37 341.799,1039.37C320.505,1039.37 302.501,1053.46 296.6,1072.82C295.629,1075.97 296.032,1079.48 297.68,1082.22C299.328,1084.96 302.014,1086.6 304.88,1086.6C329.391,1086.61 389.043,1086.61 389.043,1086.61Z" style="fill:rgb(113,166,111);stroke:black;stroke-width:15.56px;"/>
                    </g>
                    <g transform="matrix(-0.236477,-1.14485,-0.979326,0.202287,1953.53,1407.54)">
                        <path d="M389.043,1086.61C389.043,1060.52 367.891,1039.37 341.799,1039.37C320.505,1039.37 302.501,1053.46 296.6,1072.82C295.629,1075.97 296.032,1079.48 297.68,1082.22C299.328,1084.96 302.014,1086.6 304.88,1086.6C329.391,1086.61 389.043,1086.61 389.043,1086.61Z" style="fill:rgb(113,166,111);stroke:black;stroke-width:15.56px;"/>
                    </g>
                </g>
                <g id="Arms" transform="matrix(1,0,0,1,11.811,0)">
                    <g transform="matrix(0.788892,-1.08349,0.808416,0.588612,-530.729,831.288)">
                        <path d="M446.137,1060.6C437.059,1027.15 406.701,1003.94 372.047,1003.94C337.394,1003.94 307.036,1027.15 297.957,1060.6L446.137,1060.6Z" style="fill:rgb(113,166,111);stroke:black;stroke-width:14.32px;"/>
                    </g>
                    <g transform="matrix(-0.788892,-1.08349,-0.808416,0.588612,2042.54,831.288)">
                        <path d="M446.137,1060.6C437.059,1027.15 406.701,1003.94 372.047,1003.94C337.394,1003.94 307.036,1027.15 297.957,1060.6L446.137,1060.6Z" style="fill:rgb(113,166,111);stroke:black;stroke-width:14.32px;"/>
                    </g>
                </g>
                <g id="Shell" transform="matrix(-0.954545,-1.16898e-16,1.32744e-16,-1.08394,1139.76,2329.36)">
                    <path d="M513.112,1209.86C514.8,1226.74 508.36,1243.47 495.361,1255.97C482.362,1268.47 464,1275.59 444.754,1275.59L334.774,1275.59C315.527,1275.59 297.165,1268.47 284.167,1255.97C271.168,1243.47 264.727,1226.74 266.416,1209.86C270.709,1166.93 276.251,1111.5 280.314,1070.88C283.434,1039.68 313.106,1015.75 348.672,1015.75L430.856,1015.75C466.422,1015.75 496.094,1039.68 499.214,1070.88C503.276,1111.5 508.819,1166.93 513.112,1209.86Z" style="fill:rgb(235,235,235);"/>
                    <clipPath id="_clip1">
                        <path d="M513.112,1209.86C514.8,1226.74 508.36,1243.47 495.361,1255.97C482.362,1268.47 464,1275.59 444.754,1275.59L334.774,1275.59C315.527,1275.59 297.165,1268.47 284.167,1255.97C271.168,1243.47 264.727,1226.74 266.416,1209.86C270.709,1166.93 276.251,1111.5 280.314,1070.88C283.434,1039.68 313.106,1015.75 348.672,1015.75L430.856,1015.75C466.422,1015.75 496.094,1039.68 499.214,1070.88C503.276,1111.5 508.819,1166.93 513.112,1209.86Z"/>
                    </clipPath>
                    <g clip-path="url(#_clip1)">
                        <g transform="matrix(-0.972907,-0.494655,0.52381,-0.798961,198.278,2202.85)">
                            <g transform="matrix(1,0,5.55112e-16,1.49467,-403.17,-459.7)">
                                <rect x="636.915" y="930.828" width="285.94" height="40.508" style="fill:rgb(242,184,133);stroke:black;stroke-width:13.01px;"/>
                            </g>
                            <g transform="matrix(1,0,5.55112e-16,1.49467,-403.17,-399.154)">
                                <rect x="636.915" y="930.828" width="285.94" height="40.508" style="fill:rgb(242,184,133);stroke:black;stroke-width:13.01px;"/>
                            </g>
                            <g transform="matrix(1,0,5.55112e-16,1.49467,-403.17,-338.608)">
                                <rect x="636.915" y="930.828" width="285.94" height="40.508" style="fill:rgb(242,184,133);stroke:black;stroke-width:13.01px;"/>
                            </g>
                            <g transform="matrix(1,0,5.55112e-16,1.49467,-403.17,-278.061)">
                                <rect x="636.915" y="930.828" width="285.94" height="40.508" style="fill:rgb(242,184,133);stroke:black;stroke-width:13.01px;"/>
                            </g>
                            <g transform="matrix(1,0,5.55112e-16,1.49467,-403.17,-217.515)">
                                <rect x="636.915" y="930.828" width="285.94" height="40.508" style="fill:rgb(242,184,133);stroke:black;stroke-width:13.01px;"/>
                            </g>
                        </g>
                        <g transform="matrix(-0.972907,0.494655,-0.52381,-0.798961,1312.1,1825.39)">
                            <g transform="matrix(1,0,5.55112e-16,1.49467,-403.17,-399.154)">
                                <rect x="636.915" y="930.828" width="285.94" height="40.508" style="fill:rgb(242,184,133);stroke:black;stroke-width:13.01px;"/>
                            </g>
                            <g transform="matrix(1,0,5.55112e-16,1.49467,-403.17,-338.608)">
                                <rect x="636.915" y="930.828" width="285.94" height="40.508" style="fill:rgb(242,184,133);stroke:black;stroke-width:13.01px;"/>
                            </g>
                            <g transform="matrix(1,0,5.55112e-16,1.49467,-403.17,-278.061)">
                                <rect x="636.915" y="930.828" width="285.94" height="40.508" style="fill:rgb(242,184,133);stroke:black;stroke-width:13.01px;"/>
                            </g>
                        </g>
                    </g>
                    <path d="M513.112,1209.86C514.8,1226.74 508.36,1243.47 495.361,1255.97C482.362,1268.47 464,1275.59 444.754,1275.59L334.774,1275.59C315.527,1275.59 297.165,1268.47 284.167,1255.97C271.168,1243.47 264.727,1226.74 266.416,1209.86C270.709,1166.93 276.251,1111.5 280.314,1070.88C283.434,1039.68 313.106,1015.75 348.672,1015.75L430.856,1015.75C466.422,1015.75 496.094,1039.68 499.214,1070.88C503.276,1111.5 508.819,1166.93 513.112,1209.86Z" style="fill:none;stroke:black;stroke-width:16.57px;"/>
                </g>
                <g id="Head" transform="matrix(1,0,0,1.12647,-2.27374e-13,-76.5612)">
                    <path d="M822.591,907.651C825.353,900.707 826.772,893.301 826.772,885.827C826.772,853.233 787.402,823.772 767.717,823.772C748.031,823.772 708.661,853.233 708.661,885.827C708.661,893.301 710.08,900.707 712.842,907.651L822.591,907.651Z" style="fill:rgb(113,166,111);stroke:black;stroke-width:15.89px;"/>
                </g>
                <g id="Needle" transform="matrix(0.970522,-0.241014,0.241014,0.970522,-201.98,232.952)">
                    <g transform="matrix(-1.29756,1.54637,-0.965213,-0.80991,3464.31,-401.946)">
                        <path d="M1428.09,712.454L1430.72,813.812L1432.95,812.436L1437.88,1002.46L1435.67,1004.6L1436.09,1020.6L1438.37,1021.24L1439.56,1066.8C1438.8,1066.7 1438.04,1066.57 1437.27,1066.42L1438.9,1128.92C1438.9,1135.73 1436.66,1141.72 1433.3,1145.09C1432.03,1145.83 1430.65,1146.24 1429.22,1146.24C1422.65,1146.24 1417.32,1137.7 1417.32,1127.17L1428.09,712.454Z" style="fill-opacity:0.13;"/>
                    </g>
                    <g transform="matrix(0.970522,0.241014,-0.241014,0.970522,252.171,-177.405)">
                        <path d="M1039.21,1224.75L509.699,992.618C497.789,986.795 492.847,972.398 498.67,960.488C504.493,948.577 518.889,943.635 530.8,949.458L1039.21,1224.75ZM565.745,984.298L530.699,967.164C526.502,965.112 521.43,966.854 519.378,971.05C517.326,975.247 519.068,980.319 523.264,982.371L558.31,999.505C562.507,1001.56 567.579,999.815 569.631,995.618C571.683,991.422 569.941,986.349 565.745,984.298Z"/>
                    </g>
                    <g id="Needle-Shadow" serif:id="Needle Shadow" transform="matrix(0.970522,0.241014,-0.241014,0.970522,252.171,-177.405)">
                        <path d="M873.638,1152.17L873.214,1156.98L653.746,1060.77L653.288,1055.57L873.638,1152.17ZM632.049,1051.26L579.428,1028.19C580.218,1026.87 581.034,1025.56 581.876,1024.26L634.808,1047.46L632.049,1051.26Z" style="fill-opacity:0.13;"/>
                    </g>
                </g>
                <g id="Top-thread" serif:id="Top thread" transform="matrix(-0.954545,-1.11022e-16,2.22045e-16,-1.08394,1139.76,2329.36)">
                    <path d="M497.172,1254.16C496.812,1254.54 496.447,1254.91 496.076,1255.28C495.84,1255.51 495.601,1255.74 495.361,1255.97C482.362,1268.47 464,1275.59 444.754,1275.59L334.774,1275.59C323.919,1275.59 313.346,1273.33 303.858,1269.11C296.522,1265.85 289.834,1261.42 284.167,1255.97C283.548,1255.38 282.944,1254.77 282.356,1254.16C282,1253.79 281.649,1253.41 281.304,1253.04C270.232,1240.92 264.856,1225.45 266.416,1209.86L280.314,1070.88C281.654,1057.47 287.894,1045.41 297.396,1036.02C308.064,1025.46 322.844,1018.27 339.418,1016.29C342.448,1015.93 345.537,1015.75 348.672,1015.75L430.856,1015.75C433.991,1015.75 437.08,1015.93 440.109,1016.29C456.684,1018.27 471.464,1025.46 482.132,1036.02C488.527,1042.34 493.445,1049.87 496.386,1058.21C497.814,1062.26 498.776,1066.5 499.214,1070.88L513.112,1209.86C513.237,1211.11 513.318,1212.37 513.354,1213.62C513.783,1228.41 508.034,1242.84 497.172,1254.16Z" style="fill:none;"/>
                    <clipPath id="_clip2">
                        <path d="M497.172,1254.16C496.812,1254.54 496.447,1254.91 496.076,1255.28C495.84,1255.51 495.601,1255.74 495.361,1255.97C482.362,1268.47 464,1275.59 444.754,1275.59L334.774,1275.59C323.919,1275.59 313.346,1273.33 303.858,1269.11C296.522,1265.85 289.834,1261.42 284.167,1255.97C283.548,1255.38 282.944,1254.77 282.356,1254.16C282,1253.79 281.649,1253.41 281.304,1253.04C270.232,1240.92 264.856,1225.45 266.416,1209.86L280.314,1070.88C281.654,1057.47 287.894,1045.41 297.396,1036.02C308.064,1025.46 322.844,1018.27 339.418,1016.29C342.448,1015.93 345.537,1015.75 348.672,1015.75L430.856,1015.75C433.991,1015.75 437.08,1015.93 440.109,1016.29C456.684,1018.27 471.464,1025.46 482.132,1036.02C488.527,1042.34 493.445,1049.87 496.386,1058.21C497.814,1062.26 498.776,1066.5 499.214,1070.88L513.112,1209.86C513.237,1211.11 513.318,1212.37 513.354,1213.62C513.783,1228.41 508.034,1242.84 497.172,1254.16Z"/>
                    </clipPath>
                    <g clip-path="url(#_clip2)">
                        <g transform="matrix(-0.972907,0.494655,-0.52381,-0.798961,1312.1,1825.39)">
                            <g transform="matrix(1,0,5.55112e-16,1.49467,-403.17,-338.608)">
                                <rect x="636.915" y="930.828" width="285.94" height="40.508" style="fill:rgb(242,184,133);stroke:black;stroke-width:13.01px;"/>
                            </g>
                            <g transform="matrix(0.807595,0.5,-0.466265,0.866025,128.705,432.034)">
                                <path d="M415.23,493.919L438.142,533.604L696.328,384.539L703.69,397.289L438.142,550.604L407.868,498.169L415.23,493.919Z" style="fill-opacity:0.1;"/>
                            </g>
                        </g>
                    </g>
                    <path d="M497.172,1254.16C496.812,1254.54 496.447,1254.91 496.076,1255.28C495.84,1255.51 495.601,1255.74 495.361,1255.97C482.362,1268.47 464,1275.59 444.754,1275.59L334.774,1275.59C323.919,1275.59 313.346,1273.33 303.858,1269.11C296.522,1265.85 289.834,1261.42 284.167,1255.97C283.548,1255.38 282.944,1254.77 282.356,1254.16C282,1253.79 281.649,1253.41 281.304,1253.04C270.232,1240.92 264.856,1225.45 266.416,1209.86L280.314,1070.88C281.654,1057.47 287.894,1045.41 297.396,1036.02C308.064,1025.46 322.844,1018.27 339.418,1016.29C342.448,1015.93 345.537,1015.75 348.672,1015.75L430.856,1015.75C433.991,1015.75 437.08,1015.93 440.109,1016.29C456.684,1018.27 471.464,1025.46 482.132,1036.02C488.527,1042.34 493.445,1049.87 496.386,1058.21C497.814,1062.26 498.776,1066.5 499.214,1070.88L513.112,1209.86C513.237,1211.11 513.318,1212.37 513.354,1213.62C513.783,1228.41 508.034,1242.84 497.172,1254.16Z" style="fill:none;stroke:black;stroke-width:16.57px;"/>
                </g>
                <g transform="matrix(1,0,0,1,222.846,655.885)">
                    <path d="M443.095,526.435C441.732,522.047 440.814,517.453 440.395,512.704L427.129,362.058C427.009,360.697 426.932,359.336 426.898,357.979C426.489,341.953 431.976,326.307 442.345,314.036C442.688,313.63 443.037,313.227 443.391,312.828C443.616,312.575 443.844,312.322 444.073,312.072C456.481,298.523 474.008,290.808 492.38,290.808L597.361,290.808C607.722,290.808 617.815,293.262 626.872,297.832C620.88,296.28 614.664,295.474 608.361,295.474L503.38,295.474C485.297,295.474 467.94,302.105 454.517,313.955C452.567,315.676 450.701,317.507 448.928,319.443C438.595,330.726 432.113,344.831 430.165,359.748C429.959,361.323 429.804,362.906 429.7,364.496C429.612,365.844 429.561,367.196 429.547,368.551C429.522,370.956 429.615,373.371 429.828,375.789L443.095,526.435Z" style="fill:none;"/>
                </g>
                <g id="Shell-dropshadow" serif:id="Shell dropshadow" transform="matrix(1,0,0,1,218.846,651.885)">
                    <path d="M626.872,297.832C639.037,300.983 650.279,307.21 659.459,316.012C660.61,317.115 661.729,318.26 662.813,319.443C676.799,334.716 683.729,355.159 681.913,375.789L680.138,395.943L661.841,370.813L662.612,362.058C664.1,345.154 658.969,328.392 648.4,315.254C648.071,314.845 647.736,314.439 647.396,314.036C646.834,313.371 646.258,312.716 645.667,312.072C640.257,306.164 633.874,301.366 626.872,297.832ZM633.04,550.493C636.656,556.432 639.376,563.21 640.902,570.595C641.349,572.76 641.681,574.919 641.903,577.062C629.689,587.079 614.234,593.229 597.453,593.758C595.976,586.619 594.43,579.142 592.927,571.869C608.748,569.731 622.856,561.931 633.04,550.493ZM493.076,589.947C476.214,584.267 462.006,572.654 453.042,557.481C447.599,548.268 444.09,537.742 443.095,526.435C445.902,535.47 450.596,543.635 456.701,550.493C466.884,561.931 480.992,569.731 496.813,571.869C495.576,577.857 494.309,583.984 493.076,589.947Z" style="fill-opacity:0.1;"/>
                </g>
                <g id="Shell-shadows" serif:id="Shell shadows" transform="matrix(1,0,0,1,222.846,655.885)">
                    <path d="M636.909,304.094C640.041,306.466 642.975,309.131 645.667,312.072C658.075,325.62 664.223,343.757 662.612,362.058L649.345,512.704C646.367,546.523 618.044,572.461 584.094,572.461L505.646,572.461C483.658,572.461 464.03,561.58 452.119,544.725C463.148,553.09 476.88,558.02 491.682,558.02L570.129,558.02C604.079,558.02 632.402,532.082 635.381,498.263L648.647,347.617C650.014,332.09 645.796,316.682 636.909,304.094Z" style="fill-opacity:0.1;"/>
                </g>
            </g>
            <g transform="matrix(2.11387,0,0,1.74313,-857.737,-924.953)">
                <g id="Text">
                    <g>
                        <g transform="matrix(1,0,0,1,-4.57728,-1.51705)">
                            <path d="M539.778,1367.75L532.275,1362.12L542.404,1353.5L572.789,1358.37L605.687,1358.69L572.789,1358.37L553.125,1423.03L560.54,1429.09L576.187,1423.03L586.559,1391.29L576.187,1423.03L583.79,1429.09L603.924,1422.89L614.032,1391.29L603.924,1422.89L607.524,1429.09L623.186,1423.03L635.04,1391.29L641.061,1399.26L650.064,1398.51L642.34,1423.03L647.623,1429.09L661.318,1422.89L686.239,1358.3L673.508,1391.29L692.96,1391.29L673.508,1391.29L661.318,1422.89L671.396,1429.09L695.454,1423.27L722.487,1358.3L695.556,1423.03L696.731,1429.09L707.925,1423.03L747.285,1402.59L738.663,1391.29L725.854,1394.86L719.925,1423.03L730.755,1429.09L762.749,1423.03" style="fill:none;stroke:black;stroke-width:10.29px;"/>
                        </g>
                        <g transform="matrix(1,0,0,1,-5.57728,-1.51705)">
                            <path d="M756.87,1372.16L750.041,1366.27L752.601,1358.3L812.983,1358.3L790.303,1358.3L765.253,1423.43L786.424,1429.09L803.545,1423.03L826.424,1366.91L816.484,1391.29L840.13,1395.67L829.939,1423.03L839.223,1429.09L848.177,1423.03L862.142,1391.29L866.402,1399.46L874.771,1400.23L865.702,1423.03L871.413,1429.09L914.512,1400.17L904.542,1391.48L894.607,1396.2L895.425,1423.03L906.063,1429.09L923.476,1413.92L940.9,1391.29L955.812,1393L940.9,1391.29L923.476,1413.92L924.617,1424.57L930.11,1429.09L961.138,1393.38L948.584,1423.43L953.362,1429.09L969.887,1414.68L992.271,1391.29L1005.65,1396.42L992.271,1391.29L969.887,1414.68L976.355,1429.09L993.093,1424.19L1023.17,1358.3L993.093,1424.19L1006.28,1429.09L1026.95,1418.49" style="fill:none;stroke:black;stroke-width:10.29px;"/>
                        </g>
                    </g>
                </g>
            </g>
        </g>
    </g>
</svg>
