<?xml version="1.0" encoding="UTF-8" standalone="no"?>
<!-- Created with Inkscape (http://www.inkscape.org/) -->

<svg
   version="1.1"
   id="svg1"
   width="193.09399"
   height="172.16066"
   viewBox="0 0 193.09399 172.16066"
   sodipodi:docname="01.pdf"
   xmlns:inkscape="http://www.inkscape.org/namespaces/inkscape"
   xmlns:sodipodi="http://sodipodi.sourceforge.net/DTD/sodipodi-0.dtd"
   xmlns="http://www.w3.org/2000/svg"
   xmlns:svg="http://www.w3.org/2000/svg">
  <defs
     id="defs1" />
  <sodipodi:namedview
     id="namedview1"
     pagecolor="#ffffff"
     bordercolor="#000000"
     borderopacity="0.25"
     inkscape:showpageshadow="2"
     inkscape:pageopacity="0.0"
     inkscape:pagecheckerboard="0"
     inkscape:deskcolor="#d1d1d1">
    <inkscape:page
       x="-1344.0396"
       y="-1355.8397"
       inkscape:label="1"
       id="page1"
       width="2878.6667"
       height="2878.6667"
       margin="0"
       bleed="0" />
  </sodipodi:namedview>
  <g
     id="g1"
     inkscape:groupmode="layer"
     inkscape:label="1"
     transform="translate(-1344.0396,-1355.8397)">
    <path
       id="path1"
       d="m 10804.4,10775.6 v 0 -36"
       style="fill:none;stroke:#0000ff;stroke-width:7.205;stroke-linecap:round;stroke-linejoin:round;stroke-miterlimit:10;stroke-dasharray:none;stroke-opacity:1"
       transform="matrix(0.13333333,0,0,-0.13333333,0,2878.6667)" />
    <path
       id="path2"
       d="m 10804.4,10775.6 v 36"
       style="fill:none;stroke:#0000ff;stroke-width:7.205;stroke-linecap:round;stroke-linejoin:round;stroke-miterlimit:10;stroke-dasharray:none;stroke-opacity:1"
       transform="matrix(0.13333333,0,0,-0.13333333,0,2878.6667)" />
    <path
       id="path3"
       d="m 10804.4,10775.6 h 180.1 v -36"
       style="fill:none;stroke:#0000ff;stroke-width:7.205;stroke-linecap:round;stroke-linejoin:round;stroke-miterlimit:10;stroke-dasharray:none;stroke-opacity:1"
       transform="matrix(0.13333333,0,0,-0.13333333,0,2878.6667)" />
    <path
       id="path4"
       d="m 10984.5,10775.6 v 36"
       style="fill:none;stroke:#0000ff;stroke-width:7.205;stroke-linecap:round;stroke-linejoin:round;stroke-miterlimit:10;stroke-dasharray:none;stroke-opacity:1"
       transform="matrix(0.13333333,0,0,-0.13333333,0,2878.6667)" />
    <path
       id="path5"
       d="m 10984.5,10775.6 h 180.2 v -36"
       style="fill:none;stroke:#0000ff;stroke-width:7.205;stroke-linecap:round;stroke-linejoin:round;stroke-miterlimit:10;stroke-dasharray:none;stroke-opacity:1"
       transform="matrix(0.13333333,0,0,-0.13333333,0,2878.6667)" />
    <path
       id="path6"
       d="m 11164.7,10775.6 v 36"
       style="fill:none;stroke:#0000ff;stroke-width:7.205;stroke-linecap:round;stroke-linejoin:round;stroke-miterlimit:10;stroke-dasharray:none;stroke-opacity:1"
       transform="matrix(0.13333333,0,0,-0.13333333,0,2878.6667)" />
    <path
       id="path7"
       d="m 11164.7,10775.6 h 180.1 v -36"
       style="fill:none;stroke:#0000ff;stroke-width:7.205;stroke-linecap:round;stroke-linejoin:round;stroke-miterlimit:10;stroke-dasharray:none;stroke-opacity:1"
       transform="matrix(0.13333333,0,0,-0.13333333,0,2878.6667)" />
    <path
       id="path8"
       d="m 11344.8,10775.6 v 36"
       style="fill:none;stroke:#0000ff;stroke-width:7.205;stroke-linecap:round;stroke-linejoin:round;stroke-miterlimit:10;stroke-dasharray:none;stroke-opacity:1"
       transform="matrix(0.13333333,0,0,-0.13333333,0,2878.6667)" />
    <path
       id="path9"
       d="m 11344.8,10775.6 h 180.1 v -36"
       style="fill:none;stroke:#0000ff;stroke-width:7.205;stroke-linecap:round;stroke-linejoin:round;stroke-miterlimit:10;stroke-dasharray:none;stroke-opacity:1"
       transform="matrix(0.13333333,0,0,-0.13333333,0,2878.6667)" />
    <path
       id="path10"
       d="m 11524.9,10775.6 v 36"
       style="fill:none;stroke:#0000ff;stroke-width:7.205;stroke-linecap:round;stroke-linejoin:round;stroke-miterlimit:10;stroke-dasharray:none;stroke-opacity:1"
       transform="matrix(0.13333333,0,0,-0.13333333,0,2878.6667)" />
    <path
       id="path11"
       d="m 11524.9,10775.6 h -180.1 v 36"
       style="fill:none;stroke:#0000ff;stroke-width:7.205;stroke-linecap:round;stroke-linejoin:round;stroke-miterlimit:10;stroke-dasharray:none;stroke-opacity:1"
       transform="matrix(0.13333333,0,0,-0.13333333,0,2878.6667)" />
    <path
       id="path12"
       d="m 11344.8,10775.6 v -36"
       style="fill:none;stroke:#0000ff;stroke-width:7.205;stroke-linecap:round;stroke-linejoin:round;stroke-miterlimit:10;stroke-dasharray:none;stroke-opacity:1"
       transform="matrix(0.13333333,0,0,-0.13333333,0,2878.6667)" />
    <path
       id="path13"
       d="m 11344.8,10775.6 h -180.1 v 36"
       style="fill:none;stroke:#0000ff;stroke-width:7.205;stroke-linecap:round;stroke-linejoin:round;stroke-miterlimit:10;stroke-dasharray:none;stroke-opacity:1"
       transform="matrix(0.13333333,0,0,-0.13333333,0,2878.6667)" />
    <path
       id="path14"
       d="m 11164.7,10775.6 v -36"
       style="fill:none;stroke:#0000ff;stroke-width:7.205;stroke-linecap:round;stroke-linejoin:round;stroke-miterlimit:10;stroke-dasharray:none;stroke-opacity:1"
       transform="matrix(0.13333333,0,0,-0.13333333,0,2878.6667)" />
    <path
       id="path15"
       d="m 11164.7,10775.6 h -180.2 v 36"
       style="fill:none;stroke:#0000ff;stroke-width:7.205;stroke-linecap:round;stroke-linejoin:round;stroke-miterlimit:10;stroke-dasharray:none;stroke-opacity:1"
       transform="matrix(0.13333333,0,0,-0.13333333,0,2878.6667)" />
    <path
       id="path16"
       d="m 10984.5,10775.6 v -36"
       style="fill:none;stroke:#0000ff;stroke-width:7.205;stroke-linecap:round;stroke-linejoin:round;stroke-miterlimit:10;stroke-dasharray:none;stroke-opacity:1"
       transform="matrix(0.13333333,0,0,-0.13333333,0,2878.6667)" />
    <path
       id="path17"
       d="m 10984.5,10775.6 h -180.1 v 36"
       style="fill:none;stroke:#0000ff;stroke-width:7.205;stroke-linecap:round;stroke-linejoin:round;stroke-miterlimit:10;stroke-dasharray:none;stroke-opacity:1"
       transform="matrix(0.13333333,0,0,-0.13333333,0,2878.6667)" />
    <path
       id="path18"
       d="m 10804.4,10775.6 v -36"
       style="fill:none;stroke:#0000ff;stroke-width:7.205;stroke-linecap:round;stroke-linejoin:round;stroke-miterlimit:10;stroke-dasharray:none;stroke-opacity:1"
       transform="matrix(0.13333333,0,0,-0.13333333,0,2878.6667)" />
    <path
       id="path19"
       d="m 10804.4,10775.6 90.1,-156 -31.2,-18"
       style="fill:none;stroke:#0000ff;stroke-width:7.205;stroke-linecap:round;stroke-linejoin:round;stroke-miterlimit:10;stroke-dasharray:none;stroke-opacity:1"
       transform="matrix(0.13333333,0,0,-0.13333333,0,2878.6667)" />
    <path
       id="path20"
       d="m 10894.5,10619.6 31.2,18"
       style="fill:none;stroke:#0000ff;stroke-width:7.205;stroke-linecap:round;stroke-linejoin:round;stroke-miterlimit:10;stroke-dasharray:none;stroke-opacity:1"
       transform="matrix(0.13333333,0,0,-0.13333333,0,2878.6667)" />
    <path
       id="path21"
       d="m 10894.5,10619.6 90,-156 -31.2,-18"
       style="fill:none;stroke:#0000ff;stroke-width:7.205;stroke-linecap:round;stroke-linejoin:round;stroke-miterlimit:10;stroke-dasharray:none;stroke-opacity:1"
       transform="matrix(0.13333333,0,0,-0.13333333,0,2878.6667)" />
    <path
       id="path22"
       d="m 10984.5,10463.6 31.2,18"
       style="fill:none;stroke:#0000ff;stroke-width:7.205;stroke-linecap:round;stroke-linejoin:round;stroke-miterlimit:10;stroke-dasharray:none;stroke-opacity:1"
       transform="matrix(0.13333333,0,0,-0.13333333,0,2878.6667)" />
    <path
       id="path23"
       d="m 10984.5,10463.6 90.1,-156 -31.2,-18"
       style="fill:none;stroke:#0000ff;stroke-width:7.205;stroke-linecap:round;stroke-linejoin:round;stroke-miterlimit:10;stroke-dasharray:none;stroke-opacity:1"
       transform="matrix(0.13333333,0,0,-0.13333333,0,2878.6667)" />
    <path
       id="path24"
       d="m 11074.6,10307.6 31.2,18"
       style="fill:none;stroke:#0000ff;stroke-width:7.205;stroke-linecap:round;stroke-linejoin:round;stroke-miterlimit:10;stroke-dasharray:none;stroke-opacity:1"
       transform="matrix(0.13333333,0,0,-0.13333333,0,2878.6667)" />
    <path
       id="path25"
       d="m 11074.6,10307.6 90.1,-156 -31.2,-18"
       style="fill:none;stroke:#0000ff;stroke-width:7.205;stroke-linecap:round;stroke-linejoin:round;stroke-miterlimit:10;stroke-dasharray:none;stroke-opacity:1"
       transform="matrix(0.13333333,0,0,-0.13333333,0,2878.6667)" />
    <path
       id="path26"
       d="m 11164.7,10151.6 31.2,18"
       style="fill:none;stroke:#0000ff;stroke-width:7.205;stroke-linecap:round;stroke-linejoin:round;stroke-miterlimit:10;stroke-dasharray:none;stroke-opacity:1"
       transform="matrix(0.13333333,0,0,-0.13333333,0,2878.6667)" />
    <path
       id="path27"
       d="m 11164.7,10151.6 -90.1,156 31.2,18"
       style="fill:none;stroke:#0000ff;stroke-width:7.205;stroke-linecap:round;stroke-linejoin:round;stroke-miterlimit:10;stroke-dasharray:none;stroke-opacity:1"
       transform="matrix(0.13333333,0,0,-0.13333333,0,2878.6667)" />
    <path
       id="path28"
       d="m 11074.6,10307.6 -31.2,-18"
       style="fill:none;stroke:#0000ff;stroke-width:7.205;stroke-linecap:round;stroke-linejoin:round;stroke-miterlimit:10;stroke-dasharray:none;stroke-opacity:1"
       transform="matrix(0.13333333,0,0,-0.13333333,0,2878.6667)" />
    <path
       id="path29"
       d="m 11074.6,10307.6 -90.1,156 31.2,18"
       style="fill:none;stroke:#0000ff;stroke-width:7.205;stroke-linecap:round;stroke-linejoin:round;stroke-miterlimit:10;stroke-dasharray:none;stroke-opacity:1"
       transform="matrix(0.13333333,0,0,-0.13333333,0,2878.6667)" />
    <path
       id="path30"
       d="m 10984.5,10463.6 -31.2,-18"
       style="fill:none;stroke:#0000ff;stroke-width:7.205;stroke-linecap:round;stroke-linejoin:round;stroke-miterlimit:10;stroke-dasharray:none;stroke-opacity:1"
       transform="matrix(0.13333333,0,0,-0.13333333,0,2878.6667)" />
    <path
       id="path31"
       d="m 10984.5,10463.6 -90,156 31.2,18"
       style="fill:none;stroke:#0000ff;stroke-width:7.205;stroke-linecap:round;stroke-linejoin:round;stroke-miterlimit:10;stroke-dasharray:none;stroke-opacity:1"
       transform="matrix(0.13333333,0,0,-0.13333333,0,2878.6667)" />
    <path
       id="path32"
       d="m 10894.5,10619.6 -31.2,-18"
       style="fill:none;stroke:#0000ff;stroke-width:7.205;stroke-linecap:round;stroke-linejoin:round;stroke-miterlimit:10;stroke-dasharray:none;stroke-opacity:1"
       transform="matrix(0.13333333,0,0,-0.13333333,0,2878.6667)" />
    <path
       id="path33"
       d="m 10894.5,10619.6 -90.1,156 31.2,18"
       style="fill:none;stroke:#0000ff;stroke-width:7.205;stroke-linecap:round;stroke-linejoin:round;stroke-miterlimit:10;stroke-dasharray:none;stroke-opacity:1"
       transform="matrix(0.13333333,0,0,-0.13333333,0,2878.6667)" />
    <path
       id="path34"
       d="m 10804.4,10775.6 -31.2,-18"
       style="fill:none;stroke:#0000ff;stroke-width:7.205;stroke-linecap:round;stroke-linejoin:round;stroke-miterlimit:10;stroke-dasharray:none;stroke-opacity:1"
       transform="matrix(0.13333333,0,0,-0.13333333,0,2878.6667)" />
    <path
       id="path35"
       d="m 10804.4,10775.6 -90.1,-156 -31.2,18"
       style="fill:none;stroke:#0000ff;stroke-width:7.205;stroke-linecap:round;stroke-linejoin:round;stroke-miterlimit:10;stroke-dasharray:none;stroke-opacity:1"
       transform="matrix(0.13333333,0,0,-0.13333333,0,2878.6667)" />
    <path
       id="path36"
       d="m 10714.3,10619.6 31.2,-18"
       style="fill:none;stroke:#0000ff;stroke-width:7.205;stroke-linecap:round;stroke-linejoin:round;stroke-miterlimit:10;stroke-dasharray:none;stroke-opacity:1"
       transform="matrix(0.13333333,0,0,-0.13333333,0,2878.6667)" />
    <path
       id="path37"
       d="m 10714.3,10619.6 -90,-156 -31.2,18"
       style="fill:none;stroke:#0000ff;stroke-width:7.205;stroke-linecap:round;stroke-linejoin:round;stroke-miterlimit:10;stroke-dasharray:none;stroke-opacity:1"
       transform="matrix(0.13333333,0,0,-0.13333333,0,2878.6667)" />
    <path
       id="path38"
       d="m 10624.3,10463.6 31.2,-18"
       style="fill:none;stroke:#0000ff;stroke-width:7.205;stroke-linecap:round;stroke-linejoin:round;stroke-miterlimit:10;stroke-dasharray:none;stroke-opacity:1"
       transform="matrix(0.13333333,0,0,-0.13333333,0,2878.6667)" />
    <path
       id="path39"
       d="m 10624.3,10463.6 -90.1,-156 -31.2,18"
       style="fill:none;stroke:#0000ff;stroke-width:7.205;stroke-linecap:round;stroke-linejoin:round;stroke-miterlimit:10;stroke-dasharray:none;stroke-opacity:1"
       transform="matrix(0.13333333,0,0,-0.13333333,0,2878.6667)" />
    <path
       id="path40"
       d="m 10534.2,10307.6 31.2,-18"
       style="fill:none;stroke:#0000ff;stroke-width:7.205;stroke-linecap:round;stroke-linejoin:round;stroke-miterlimit:10;stroke-dasharray:none;stroke-opacity:1"
       transform="matrix(0.13333333,0,0,-0.13333333,0,2878.6667)" />
    <path
       id="path41"
       d="m 10534.2,10307.6 -90,-156 -31.2,18"
       style="fill:none;stroke:#0000ff;stroke-width:7.205;stroke-linecap:round;stroke-linejoin:round;stroke-miterlimit:10;stroke-dasharray:none;stroke-opacity:1"
       transform="matrix(0.13333333,0,0,-0.13333333,0,2878.6667)" />
    <path
       id="path42"
       d="m 10444.2,10151.6 31.2,-18"
       style="fill:none;stroke:#0000ff;stroke-width:7.205;stroke-linecap:round;stroke-linejoin:round;stroke-miterlimit:10;stroke-dasharray:none;stroke-opacity:1"
       transform="matrix(0.13333333,0,0,-0.13333333,0,2878.6667)" />
    <path
       id="path43"
       d="m 10444.2,10151.6 90,156 31.2,-18"
       style="fill:none;stroke:#0000ff;stroke-width:7.205;stroke-linecap:round;stroke-linejoin:round;stroke-miterlimit:10;stroke-dasharray:none;stroke-opacity:1"
       transform="matrix(0.13333333,0,0,-0.13333333,0,2878.6667)" />
    <path
       id="path44"
       d="m 10534.2,10307.6 -31.2,18"
       style="fill:none;stroke:#0000ff;stroke-width:7.205;stroke-linecap:round;stroke-linejoin:round;stroke-miterlimit:10;stroke-dasharray:none;stroke-opacity:1"
       transform="matrix(0.13333333,0,0,-0.13333333,0,2878.6667)" />
    <path
       id="path45"
       d="m 10534.2,10307.6 90.1,156 31.2,-18"
       style="fill:none;stroke:#0000ff;stroke-width:7.205;stroke-linecap:round;stroke-linejoin:round;stroke-miterlimit:10;stroke-dasharray:none;stroke-opacity:1"
       transform="matrix(0.13333333,0,0,-0.13333333,0,2878.6667)" />
    <path
       id="path46"
       d="m 10624.3,10463.6 -31.2,18"
       style="fill:none;stroke:#0000ff;stroke-width:7.205;stroke-linecap:round;stroke-linejoin:round;stroke-miterlimit:10;stroke-dasharray:none;stroke-opacity:1"
       transform="matrix(0.13333333,0,0,-0.13333333,0,2878.6667)" />
    <path
       id="path47"
       d="m 10624.3,10463.6 90,156 31.2,-18"
       style="fill:none;stroke:#0000ff;stroke-width:7.205;stroke-linecap:round;stroke-linejoin:round;stroke-miterlimit:10;stroke-dasharray:none;stroke-opacity:1"
       transform="matrix(0.13333333,0,0,-0.13333333,0,2878.6667)" />
    <path
       id="path48"
       d="m 10714.3,10619.6 -31.2,18"
       style="fill:none;stroke:#0000ff;stroke-width:7.205;stroke-linecap:round;stroke-linejoin:round;stroke-miterlimit:10;stroke-dasharray:none;stroke-opacity:1"
       transform="matrix(0.13333333,0,0,-0.13333333,0,2878.6667)" />
    <path
       id="path49"
       d="m 10714.3,10619.6 90.1,156 31.2,-18"
       style="fill:none;stroke:#0000ff;stroke-width:7.205;stroke-linecap:round;stroke-linejoin:round;stroke-miterlimit:10;stroke-dasharray:none;stroke-opacity:1"
       transform="matrix(0.13333333,0,0,-0.13333333,0,2878.6667)" />
    <path
       id="path50"
       d="m 10804.4,10775.6 -31.2,18"
       style="fill:none;stroke:#0000ff;stroke-width:7.205;stroke-linecap:round;stroke-linejoin:round;stroke-miterlimit:10;stroke-dasharray:none;stroke-opacity:1"
       transform="matrix(0.13333333,0,0,-0.13333333,0,2878.6667)" />
    <path
       id="path51"
       d="m 10804.4,10775.6 h -180.1 v 36"
       style="fill:none;stroke:#0000ff;stroke-width:7.205;stroke-linecap:round;stroke-linejoin:round;stroke-miterlimit:10;stroke-dasharray:none;stroke-opacity:1"
       transform="matrix(0.13333333,0,0,-0.13333333,0,2878.6667)" />
    <path
       id="path52"
       d="m 10624.3,10775.6 v -36"
       style="fill:none;stroke:#0000ff;stroke-width:7.205;stroke-linecap:round;stroke-linejoin:round;stroke-miterlimit:10;stroke-dasharray:none;stroke-opacity:1"
       transform="matrix(0.13333333,0,0,-0.13333333,0,2878.6667)" />
    <path
       id="path53"
       d="m 10624.3,10775.6 h -180.1 v 36"
       style="fill:none;stroke:#0000ff;stroke-width:7.205;stroke-linecap:round;stroke-linejoin:round;stroke-miterlimit:10;stroke-dasharray:none;stroke-opacity:1"
       transform="matrix(0.13333333,0,0,-0.13333333,0,2878.6667)" />
    <path
       id="path54"
       d="m 10444.2,10775.6 v -36"
       style="fill:none;stroke:#0000ff;stroke-width:7.205;stroke-linecap:round;stroke-linejoin:round;stroke-miterlimit:10;stroke-dasharray:none;stroke-opacity:1"
       transform="matrix(0.13333333,0,0,-0.13333333,0,2878.6667)" />
    <path
       id="path55"
       d="M 10444.2,10775.6 H 10264 v 36"
       style="fill:none;stroke:#0000ff;stroke-width:7.205;stroke-linecap:round;stroke-linejoin:round;stroke-miterlimit:10;stroke-dasharray:none;stroke-opacity:1"
       transform="matrix(0.13333333,0,0,-0.13333333,0,2878.6667)" />
    <path
       id="path56"
       d="m 10264,10775.6 v -36"
       style="fill:none;stroke:#0000ff;stroke-width:7.205;stroke-linecap:round;stroke-linejoin:round;stroke-miterlimit:10;stroke-dasharray:none;stroke-opacity:1"
       transform="matrix(0.13333333,0,0,-0.13333333,0,2878.6667)" />
    <path
       id="path57"
       d="m 10264,10775.6 h -180.1 v 36"
       style="fill:none;stroke:#0000ff;stroke-width:7.205;stroke-linecap:round;stroke-linejoin:round;stroke-miterlimit:10;stroke-dasharray:none;stroke-opacity:1"
       transform="matrix(0.13333333,0,0,-0.13333333,0,2878.6667)" />
    <path
       id="path58"
       d="m 10083.9,10775.6 v -36"
       style="fill:none;stroke:#0000ff;stroke-width:7.205;stroke-linecap:round;stroke-linejoin:round;stroke-miterlimit:10;stroke-dasharray:none;stroke-opacity:1"
       transform="matrix(0.13333333,0,0,-0.13333333,0,2878.6667)" />
    <path
       id="path59"
       d="m 10083.9,10775.6 h 180.1 v -36"
       style="fill:none;stroke:#0000ff;stroke-width:7.205;stroke-linecap:round;stroke-linejoin:round;stroke-miterlimit:10;stroke-dasharray:none;stroke-opacity:1"
       transform="matrix(0.13333333,0,0,-0.13333333,0,2878.6667)" />
    <path
       id="path60"
       d="m 10264,10775.6 v 36"
       style="fill:none;stroke:#0000ff;stroke-width:7.205;stroke-linecap:round;stroke-linejoin:round;stroke-miterlimit:10;stroke-dasharray:none;stroke-opacity:1"
       transform="matrix(0.13333333,0,0,-0.13333333,0,2878.6667)" />
    <path
       id="path61"
       d="m 10264,10775.6 h 180.2 v -36"
       style="fill:none;stroke:#0000ff;stroke-width:7.205;stroke-linecap:round;stroke-linejoin:round;stroke-miterlimit:10;stroke-dasharray:none;stroke-opacity:1"
       transform="matrix(0.13333333,0,0,-0.13333333,0,2878.6667)" />
    <path
       id="path62"
       d="m 10444.2,10775.6 v 36"
       style="fill:none;stroke:#0000ff;stroke-width:7.205;stroke-linecap:round;stroke-linejoin:round;stroke-miterlimit:10;stroke-dasharray:none;stroke-opacity:1"
       transform="matrix(0.13333333,0,0,-0.13333333,0,2878.6667)" />
    <path
       id="path63"
       d="m 10444.2,10775.6 h 180.1 v -36"
       style="fill:none;stroke:#0000ff;stroke-width:7.205;stroke-linecap:round;stroke-linejoin:round;stroke-miterlimit:10;stroke-dasharray:none;stroke-opacity:1"
       transform="matrix(0.13333333,0,0,-0.13333333,0,2878.6667)" />
    <path
       id="path64"
       d="m 10624.3,10775.6 v 36"
       style="fill:none;stroke:#0000ff;stroke-width:7.205;stroke-linecap:round;stroke-linejoin:round;stroke-miterlimit:10;stroke-dasharray:none;stroke-opacity:1"
       transform="matrix(0.13333333,0,0,-0.13333333,0,2878.6667)" />
    <path
       id="path65"
       d="m 10624.3,10775.6 h 180.1 v -36"
       style="fill:none;stroke:#0000ff;stroke-width:7.205;stroke-linecap:round;stroke-linejoin:round;stroke-miterlimit:10;stroke-dasharray:none;stroke-opacity:1"
       transform="matrix(0.13333333,0,0,-0.13333333,0,2878.6667)" />
    <path
       id="path66"
       d="m 10804.4,10775.6 v 36"
       style="fill:none;stroke:#0000ff;stroke-width:7.205;stroke-linecap:round;stroke-linejoin:round;stroke-miterlimit:10;stroke-dasharray:none;stroke-opacity:1"
       transform="matrix(0.13333333,0,0,-0.13333333,0,2878.6667)" />
    <path
       id="path67"
       d="m 10804.4,10775.6 -90.1,156 31.2,18"
       style="fill:none;stroke:#0000ff;stroke-width:7.205;stroke-linecap:round;stroke-linejoin:round;stroke-miterlimit:10;stroke-dasharray:none;stroke-opacity:1"
       transform="matrix(0.13333333,0,0,-0.13333333,0,2878.6667)" />
    <path
       id="path68"
       d="m 10714.3,10931.6 -31.2,-18"
       style="fill:none;stroke:#0000ff;stroke-width:7.205;stroke-linecap:round;stroke-linejoin:round;stroke-miterlimit:10;stroke-dasharray:none;stroke-opacity:1"
       transform="matrix(0.13333333,0,0,-0.13333333,0,2878.6667)" />
    <path
       id="path69"
       d="m 10714.3,10931.6 -90,156 31.2,18"
       style="fill:none;stroke:#0000ff;stroke-width:7.205;stroke-linecap:round;stroke-linejoin:round;stroke-miterlimit:10;stroke-dasharray:none;stroke-opacity:1"
       transform="matrix(0.13333333,0,0,-0.13333333,0,2878.6667)" />
    <path
       id="path70"
       d="m 10624.3,11087.6 -31.2,-18"
       style="fill:none;stroke:#0000ff;stroke-width:7.205;stroke-linecap:round;stroke-linejoin:round;stroke-miterlimit:10;stroke-dasharray:none;stroke-opacity:1"
       transform="matrix(0.13333333,0,0,-0.13333333,0,2878.6667)" />
    <path
       id="path71"
       d="m 10624.3,11087.6 -90.1,156 31.2,18"
       style="fill:none;stroke:#0000ff;stroke-width:7.205;stroke-linecap:round;stroke-linejoin:round;stroke-miterlimit:10;stroke-dasharray:none;stroke-opacity:1"
       transform="matrix(0.13333333,0,0,-0.13333333,0,2878.6667)" />
    <path
       id="path72"
       d="m 10534.2,11243.6 -31.2,-18"
       style="fill:none;stroke:#0000ff;stroke-width:7.205;stroke-linecap:round;stroke-linejoin:round;stroke-miterlimit:10;stroke-dasharray:none;stroke-opacity:1"
       transform="matrix(0.13333333,0,0,-0.13333333,0,2878.6667)" />
    <path
       id="path73"
       d="m 10534.2,11243.6 -90,156 31.2,18"
       style="fill:none;stroke:#0000ff;stroke-width:7.205;stroke-linecap:round;stroke-linejoin:round;stroke-miterlimit:10;stroke-dasharray:none;stroke-opacity:1"
       transform="matrix(0.13333333,0,0,-0.13333333,0,2878.6667)" />
    <path
       id="path74"
       d="m 10444.2,11399.6 -31.2,-18"
       style="fill:none;stroke:#0000ff;stroke-width:7.205;stroke-linecap:round;stroke-linejoin:round;stroke-miterlimit:10;stroke-dasharray:none;stroke-opacity:1"
       transform="matrix(0.13333333,0,0,-0.13333333,0,2878.6667)" />
    <path
       id="path75"
       d="m 10444.2,11399.6 90,-156 -31.2,-18"
       style="fill:none;stroke:#0000ff;stroke-width:7.205;stroke-linecap:round;stroke-linejoin:round;stroke-miterlimit:10;stroke-dasharray:none;stroke-opacity:1"
       transform="matrix(0.13333333,0,0,-0.13333333,0,2878.6667)" />
    <path
       id="path76"
       d="m 10534.2,11243.6 31.2,18"
       style="fill:none;stroke:#0000ff;stroke-width:7.205;stroke-linecap:round;stroke-linejoin:round;stroke-miterlimit:10;stroke-dasharray:none;stroke-opacity:1"
       transform="matrix(0.13333333,0,0,-0.13333333,0,2878.6667)" />
    <path
       id="path77"
       d="m 10534.2,11243.6 90.1,-156 -31.2,-18"
       style="fill:none;stroke:#0000ff;stroke-width:7.205;stroke-linecap:round;stroke-linejoin:round;stroke-miterlimit:10;stroke-dasharray:none;stroke-opacity:1"
       transform="matrix(0.13333333,0,0,-0.13333333,0,2878.6667)" />
    <path
       id="path78"
       d="m 10624.3,11087.6 31.2,18"
       style="fill:none;stroke:#0000ff;stroke-width:7.205;stroke-linecap:round;stroke-linejoin:round;stroke-miterlimit:10;stroke-dasharray:none;stroke-opacity:1"
       transform="matrix(0.13333333,0,0,-0.13333333,0,2878.6667)" />
    <path
       id="path79"
       d="m 10624.3,11087.6 90,-156 -31.2,-18"
       style="fill:none;stroke:#0000ff;stroke-width:7.205;stroke-linecap:round;stroke-linejoin:round;stroke-miterlimit:10;stroke-dasharray:none;stroke-opacity:1"
       transform="matrix(0.13333333,0,0,-0.13333333,0,2878.6667)" />
    <path
       id="path80"
       d="m 10714.3,10931.6 31.2,18"
       style="fill:none;stroke:#0000ff;stroke-width:7.205;stroke-linecap:round;stroke-linejoin:round;stroke-miterlimit:10;stroke-dasharray:none;stroke-opacity:1"
       transform="matrix(0.13333333,0,0,-0.13333333,0,2878.6667)" />
    <path
       id="path81"
       d="m 10714.3,10931.6 90.1,-156 -31.2,-18"
       style="fill:none;stroke:#0000ff;stroke-width:7.205;stroke-linecap:round;stroke-linejoin:round;stroke-miterlimit:10;stroke-dasharray:none;stroke-opacity:1"
       transform="matrix(0.13333333,0,0,-0.13333333,0,2878.6667)" />
    <path
       id="path82"
       d="m 10804.4,10775.6 31.2,18"
       style="fill:none;stroke:#0000ff;stroke-width:7.205;stroke-linecap:round;stroke-linejoin:round;stroke-miterlimit:10;stroke-dasharray:none;stroke-opacity:1"
       transform="matrix(0.13333333,0,0,-0.13333333,0,2878.6667)" />
    <path
       id="path83"
       d="m 10804.4,10775.6 90.1,156 31.2,-18"
       style="fill:none;stroke:#0000ff;stroke-width:7.205;stroke-linecap:round;stroke-linejoin:round;stroke-miterlimit:10;stroke-dasharray:none;stroke-opacity:1"
       transform="matrix(0.13333333,0,0,-0.13333333,0,2878.6667)" />
    <path
       id="path84"
       d="m 10894.5,10931.6 -31.2,18"
       style="fill:none;stroke:#0000ff;stroke-width:7.205;stroke-linecap:round;stroke-linejoin:round;stroke-miterlimit:10;stroke-dasharray:none;stroke-opacity:1"
       transform="matrix(0.13333333,0,0,-0.13333333,0,2878.6667)" />
    <path
       id="path85"
       d="m 10894.5,10931.6 90,156 31.2,-18"
       style="fill:none;stroke:#0000ff;stroke-width:7.205;stroke-linecap:round;stroke-linejoin:round;stroke-miterlimit:10;stroke-dasharray:none;stroke-opacity:1"
       transform="matrix(0.13333333,0,0,-0.13333333,0,2878.6667)" />
    <path
       id="path86"
       d="m 10984.5,11087.6 -31.2,18"
       style="fill:none;stroke:#0000ff;stroke-width:7.205;stroke-linecap:round;stroke-linejoin:round;stroke-miterlimit:10;stroke-dasharray:none;stroke-opacity:1"
       transform="matrix(0.13333333,0,0,-0.13333333,0,2878.6667)" />
    <path
       id="path87"
       d="m 10984.5,11087.6 90.1,156 31.2,-18"
       style="fill:none;stroke:#0000ff;stroke-width:7.205;stroke-linecap:round;stroke-linejoin:round;stroke-miterlimit:10;stroke-dasharray:none;stroke-opacity:1"
       transform="matrix(0.13333333,0,0,-0.13333333,0,2878.6667)" />
    <path
       id="path88"
       d="m 11074.6,11243.6 -31.2,18"
       style="fill:none;stroke:#0000ff;stroke-width:7.205;stroke-linecap:round;stroke-linejoin:round;stroke-miterlimit:10;stroke-dasharray:none;stroke-opacity:1"
       transform="matrix(0.13333333,0,0,-0.13333333,0,2878.6667)" />
    <path
       id="path89"
       d="m 11074.6,11243.6 90.1,156 31.2,-18"
       style="fill:none;stroke:#0000ff;stroke-width:7.205;stroke-linecap:round;stroke-linejoin:round;stroke-miterlimit:10;stroke-dasharray:none;stroke-opacity:1"
       transform="matrix(0.13333333,0,0,-0.13333333,0,2878.6667)" />
    <path
       id="path90"
       d="m 11164.7,11399.6 -31.2,18"
       style="fill:none;stroke:#0000ff;stroke-width:7.205;stroke-linecap:round;stroke-linejoin:round;stroke-miterlimit:10;stroke-dasharray:none;stroke-opacity:1"
       transform="matrix(0.13333333,0,0,-0.13333333,0,2878.6667)" />
    <path
       id="path91"
       d="m 11164.7,11399.6 -90.1,-156 -31.2,18"
       style="fill:none;stroke:#0000ff;stroke-width:7.205;stroke-linecap:round;stroke-linejoin:round;stroke-miterlimit:10;stroke-dasharray:none;stroke-opacity:1"
       transform="matrix(0.13333333,0,0,-0.13333333,0,2878.6667)" />
    <path
       id="path92"
       d="m 11074.6,11243.6 31.2,-18"
       style="fill:none;stroke:#0000ff;stroke-width:7.205;stroke-linecap:round;stroke-linejoin:round;stroke-miterlimit:10;stroke-dasharray:none;stroke-opacity:1"
       transform="matrix(0.13333333,0,0,-0.13333333,0,2878.6667)" />
    <path
       id="path93"
       d="m 11074.6,11243.6 -90.1,-156 -31.2,18"
       style="fill:none;stroke:#0000ff;stroke-width:7.205;stroke-linecap:round;stroke-linejoin:round;stroke-miterlimit:10;stroke-dasharray:none;stroke-opacity:1"
       transform="matrix(0.13333333,0,0,-0.13333333,0,2878.6667)" />
    <path
       id="path94"
       d="m 10984.5,11087.6 31.2,-18"
       style="fill:none;stroke:#0000ff;stroke-width:7.205;stroke-linecap:round;stroke-linejoin:round;stroke-miterlimit:10;stroke-dasharray:none;stroke-opacity:1"
       transform="matrix(0.13333333,0,0,-0.13333333,0,2878.6667)" />
    <path
       id="path95"
       d="m 10984.5,11087.6 -90,-156 -31.2,18"
       style="fill:none;stroke:#0000ff;stroke-width:7.205;stroke-linecap:round;stroke-linejoin:round;stroke-miterlimit:10;stroke-dasharray:none;stroke-opacity:1"
       transform="matrix(0.13333333,0,0,-0.13333333,0,2878.6667)" />
    <path
       id="path96"
       d="m 10894.5,10931.6 31.2,-18"
       style="fill:none;stroke:#0000ff;stroke-width:7.205;stroke-linecap:round;stroke-linejoin:round;stroke-miterlimit:10;stroke-dasharray:none;stroke-opacity:1"
       transform="matrix(0.13333333,0,0,-0.13333333,0,2878.6667)" />
    <path
       id="path97"
       d="m 10894.5,10931.6 -90.1,-156 -31.2,18"
       style="fill:none;stroke:#0000ff;stroke-width:7.205;stroke-linecap:round;stroke-linejoin:round;stroke-miterlimit:10;stroke-dasharray:none;stroke-opacity:1"
       transform="matrix(0.13333333,0,0,-0.13333333,0,2878.6667)" />
    <path
       id="path98"
       d="m 10804.4,10775.6 31.2,-18"
       style="fill:none;stroke:#0000ff;stroke-width:7.205;stroke-linecap:round;stroke-linejoin:round;stroke-miterlimit:10;stroke-dasharray:none;stroke-opacity:1"
       transform="matrix(0.13333333,0,0,-0.13333333,0,2878.6667)" />
    <path
       id="path99"
       d="m 10804.4,10775.6 63.6,38.1 -38.4,5.6 -24,30.5 -1.2,-74.2"
       style="fill:#0000ff;fill-opacity:1;fill-rule:evenodd;stroke:#0000ff;stroke-width:7.205;stroke-linecap:round;stroke-linejoin:round;stroke-miterlimit:10;stroke-dasharray:none;stroke-opacity:1"
       transform="matrix(0.13333333,0,0,-0.13333333,0,2878.6667)" />
  </g>
</svg>
