<?xml version="1.0" encoding="UTF-8" standalone="no"?>
<!-- Created with Inkscape (http://www.inkscape.org/) -->

<svg
   version="1.1"
   id="svg1"
   width="187.68066"
   height="151.93399"
   viewBox="0 0 187.68066 151.93399"
   sodipodi:docname="04.pdf"
   xmlns:inkscape="http://www.inkscape.org/namespaces/inkscape"
   xmlns:sodipodi="http://sodipodi.sourceforge.net/DTD/sodipodi-0.dtd"
   xmlns="http://www.w3.org/2000/svg"
   xmlns:svg="http://www.w3.org/2000/svg">
  <defs
     id="defs1" />
  <sodipodi:namedview
     id="namedview1"
     pagecolor="#ffffff"
     bordercolor="#000000"
     borderopacity="0.25"
     inkscape:showpageshadow="2"
     inkscape:pageopacity="0.0"
     inkscape:pagecheckerboard="0"
     inkscape:deskcolor="#d1d1d1">
    <inkscape:page
       x="-1348.9463"
       y="-1361.733"
       inkscape:label="1"
       id="page1"
       width="2878.6667"
       height="2878.6667"
       margin="0"
       bleed="0" />
  </sodipodi:namedview>
  <g
     id="g1"
     inkscape:groupmode="layer"
     inkscape:label="1"
     transform="translate(-1348.9463,-1361.7331)">
    <path
       id="path1"
       d="m 10804.4,10775.6 v 0 -36"
       style="fill:none;stroke:#0000ff;stroke-width:7.205;stroke-linecap:round;stroke-linejoin:round;stroke-miterlimit:10;stroke-dasharray:none;stroke-opacity:1"
       transform="matrix(0.13333333,0,0,-0.13333333,0,2878.6667)" />
    <path
       id="path2"
       d="m 10804.4,10775.6 v 36"
       style="fill:none;stroke:#0000ff;stroke-width:7.205;stroke-linecap:round;stroke-linejoin:round;stroke-miterlimit:10;stroke-dasharray:none;stroke-opacity:1"
       transform="matrix(0.13333333,0,0,-0.13333333,0,2878.6667)" />
    <path
       id="path3"
       d="m 10804.4,10775.6 h 180.1 v -36"
       style="fill:none;stroke:#0000ff;stroke-width:7.205;stroke-linecap:round;stroke-linejoin:round;stroke-miterlimit:10;stroke-dasharray:none;stroke-opacity:1"
       transform="matrix(0.13333333,0,0,-0.13333333,0,2878.6667)" />
    <path
       id="path4"
       d="m 10984.5,10775.6 v 36"
       style="fill:none;stroke:#0000ff;stroke-width:7.205;stroke-linecap:round;stroke-linejoin:round;stroke-miterlimit:10;stroke-dasharray:none;stroke-opacity:1"
       transform="matrix(0.13333333,0,0,-0.13333333,0,2878.6667)" />
    <path
       id="path5"
       d="m 10984.5,10775.6 h 180.2 v -36"
       style="fill:none;stroke:#0000ff;stroke-width:7.205;stroke-linecap:round;stroke-linejoin:round;stroke-miterlimit:10;stroke-dasharray:none;stroke-opacity:1"
       transform="matrix(0.13333333,0,0,-0.13333333,0,2878.6667)" />
    <path
       id="path6"
       d="m 11164.7,10775.6 v 36"
       style="fill:none;stroke:#0000ff;stroke-width:7.205;stroke-linecap:round;stroke-linejoin:round;stroke-miterlimit:10;stroke-dasharray:none;stroke-opacity:1"
       transform="matrix(0.13333333,0,0,-0.13333333,0,2878.6667)" />
    <path
       id="path7"
       d="m 11164.7,10775.6 h 170.5 v -36"
       style="fill:none;stroke:#0000ff;stroke-width:7.205;stroke-linecap:round;stroke-linejoin:round;stroke-miterlimit:10;stroke-dasharray:none;stroke-opacity:1"
       transform="matrix(0.13333333,0,0,-0.13333333,0,2878.6667)" />
    <path
       id="path8"
       d="m 11335.2,10775.6 v 36"
       style="fill:none;stroke:#0000ff;stroke-width:7.205;stroke-linecap:round;stroke-linejoin:round;stroke-miterlimit:10;stroke-dasharray:none;stroke-opacity:1"
       transform="matrix(0.13333333,0,0,-0.13333333,0,2878.6667)" />
    <path
       id="path9"
       d="m 11335.2,10775.6 h -180.1 v 36"
       style="fill:none;stroke:#0000ff;stroke-width:7.205;stroke-linecap:round;stroke-linejoin:round;stroke-miterlimit:10;stroke-dasharray:none;stroke-opacity:1"
       transform="matrix(0.13333333,0,0,-0.13333333,0,2878.6667)" />
    <path
       id="path10"
       d="m 11155.1,10775.6 v -36"
       style="fill:none;stroke:#0000ff;stroke-width:7.205;stroke-linecap:round;stroke-linejoin:round;stroke-miterlimit:10;stroke-dasharray:none;stroke-opacity:1"
       transform="matrix(0.13333333,0,0,-0.13333333,0,2878.6667)" />
    <path
       id="path11"
       d="M 11155.1,10775.6 H 10975 v 36"
       style="fill:none;stroke:#0000ff;stroke-width:7.205;stroke-linecap:round;stroke-linejoin:round;stroke-miterlimit:10;stroke-dasharray:none;stroke-opacity:1"
       transform="matrix(0.13333333,0,0,-0.13333333,0,2878.6667)" />
    <path
       id="path12"
       d="m 10975,10775.6 v -36"
       style="fill:none;stroke:#0000ff;stroke-width:7.205;stroke-linecap:round;stroke-linejoin:round;stroke-miterlimit:10;stroke-dasharray:none;stroke-opacity:1"
       transform="matrix(0.13333333,0,0,-0.13333333,0,2878.6667)" />
    <path
       id="path13"
       d="m 10975,10775.6 h -170.6 v 36"
       style="fill:none;stroke:#0000ff;stroke-width:7.205;stroke-linecap:round;stroke-linejoin:round;stroke-miterlimit:10;stroke-dasharray:none;stroke-opacity:1"
       transform="matrix(0.13333333,0,0,-0.13333333,0,2878.6667)" />
    <path
       id="path14"
       d="m 10804.4,10775.6 v -36"
       style="fill:none;stroke:#0000ff;stroke-width:7.205;stroke-linecap:round;stroke-linejoin:round;stroke-miterlimit:10;stroke-dasharray:none;stroke-opacity:1"
       transform="matrix(0.13333333,0,0,-0.13333333,0,2878.6667)" />
    <path
       id="path15"
       d="m 10804.4,10775.6 145.7,105.9 21.2,-29.2"
       style="fill:none;stroke:#0000ff;stroke-width:7.205;stroke-linecap:round;stroke-linejoin:round;stroke-miterlimit:10;stroke-dasharray:none;stroke-opacity:1"
       transform="matrix(0.13333333,0,0,-0.13333333,0,2878.6667)" />
    <path
       id="path16"
       d="m 10950.1,10881.5 -21.1,29.1"
       style="fill:none;stroke:#0000ff;stroke-width:7.205;stroke-linecap:round;stroke-linejoin:round;stroke-miterlimit:10;stroke-dasharray:none;stroke-opacity:1"
       transform="matrix(0.13333333,0,0,-0.13333333,0,2878.6667)" />
    <path
       id="path17"
       d="m 10950.1,10881.5 145.8,105.8 21.1,-29.1"
       style="fill:none;stroke:#0000ff;stroke-width:7.205;stroke-linecap:round;stroke-linejoin:round;stroke-miterlimit:10;stroke-dasharray:none;stroke-opacity:1"
       transform="matrix(0.13333333,0,0,-0.13333333,0,2878.6667)" />
    <path
       id="path18"
       d="m 11095.9,10987.3 -21.2,29.2"
       style="fill:none;stroke:#0000ff;stroke-width:7.205;stroke-linecap:round;stroke-linejoin:round;stroke-miterlimit:10;stroke-dasharray:none;stroke-opacity:1"
       transform="matrix(0.13333333,0,0,-0.13333333,0,2878.6667)" />
    <path
       id="path19"
       d="m 11095.9,10987.3 125.3,91.1 21.1,-29.2"
       style="fill:none;stroke:#0000ff;stroke-width:7.205;stroke-linecap:round;stroke-linejoin:round;stroke-miterlimit:10;stroke-dasharray:none;stroke-opacity:1"
       transform="matrix(0.13333333,0,0,-0.13333333,0,2878.6667)" />
    <path
       id="path20"
       d="m 11221.2,11078.4 -21.2,29.1"
       style="fill:none;stroke:#0000ff;stroke-width:7.205;stroke-linecap:round;stroke-linejoin:round;stroke-miterlimit:10;stroke-dasharray:none;stroke-opacity:1"
       transform="matrix(0.13333333,0,0,-0.13333333,0,2878.6667)" />
    <path
       id="path21"
       d="m 11221.2,11078.4 -145.8,-105.9 -21.1,29.1"
       style="fill:none;stroke:#0000ff;stroke-width:7.205;stroke-linecap:round;stroke-linejoin:round;stroke-miterlimit:10;stroke-dasharray:none;stroke-opacity:1"
       transform="matrix(0.13333333,0,0,-0.13333333,0,2878.6667)" />
    <path
       id="path22"
       d="m 11075.4,10972.5 21.2,-29.1"
       style="fill:none;stroke:#0000ff;stroke-width:7.205;stroke-linecap:round;stroke-linejoin:round;stroke-miterlimit:10;stroke-dasharray:none;stroke-opacity:1"
       transform="matrix(0.13333333,0,0,-0.13333333,0,2878.6667)" />
    <path
       id="path23"
       d="m 11075.4,10972.5 -145.7,-105.9 -21.2,29.2"
       style="fill:none;stroke:#0000ff;stroke-width:7.205;stroke-linecap:round;stroke-linejoin:round;stroke-miterlimit:10;stroke-dasharray:none;stroke-opacity:1"
       transform="matrix(0.13333333,0,0,-0.13333333,0,2878.6667)" />
    <path
       id="path24"
       d="m 10929.7,10866.6 21.2,-29.1"
       style="fill:none;stroke:#0000ff;stroke-width:7.205;stroke-linecap:round;stroke-linejoin:round;stroke-miterlimit:10;stroke-dasharray:none;stroke-opacity:1"
       transform="matrix(0.13333333,0,0,-0.13333333,0,2878.6667)" />
    <path
       id="path25"
       d="m 10929.7,10866.6 -125.3,-91 -21.2,29.1"
       style="fill:none;stroke:#0000ff;stroke-width:7.205;stroke-linecap:round;stroke-linejoin:round;stroke-miterlimit:10;stroke-dasharray:none;stroke-opacity:1"
       transform="matrix(0.13333333,0,0,-0.13333333,0,2878.6667)" />
    <path
       id="path26"
       d="m 10804.4,10775.6 21.2,-29.2"
       style="fill:none;stroke:#0000ff;stroke-width:7.205;stroke-linecap:round;stroke-linejoin:round;stroke-miterlimit:10;stroke-dasharray:none;stroke-opacity:1"
       transform="matrix(0.13333333,0,0,-0.13333333,0,2878.6667)" />
    <path
       id="path27"
       d="m 10804.4,10775.6 55.7,171.3 34.2,-11.1"
       style="fill:none;stroke:#0000ff;stroke-width:7.205;stroke-linecap:round;stroke-linejoin:round;stroke-miterlimit:10;stroke-dasharray:none;stroke-opacity:1"
       transform="matrix(0.13333333,0,0,-0.13333333,0,2878.6667)" />
    <path
       id="path28"
       d="m 10860.1,10946.9 -34.3,11.1"
       style="fill:none;stroke:#0000ff;stroke-width:7.205;stroke-linecap:round;stroke-linejoin:round;stroke-miterlimit:10;stroke-dasharray:none;stroke-opacity:1"
       transform="matrix(0.13333333,0,0,-0.13333333,0,2878.6667)" />
    <path
       id="path29"
       d="m 10860.1,10946.9 39.8,122.6 34.3,-11.2"
       style="fill:none;stroke:#0000ff;stroke-width:7.205;stroke-linecap:round;stroke-linejoin:round;stroke-miterlimit:10;stroke-dasharray:none;stroke-opacity:1"
       transform="matrix(0.13333333,0,0,-0.13333333,0,2878.6667)" />
    <path
       id="path30"
       d="m 10899.9,11069.5 -34.3,11.1"
       style="fill:none;stroke:#0000ff;stroke-width:7.205;stroke-linecap:round;stroke-linejoin:round;stroke-miterlimit:10;stroke-dasharray:none;stroke-opacity:1"
       transform="matrix(0.13333333,0,0,-0.13333333,0,2878.6667)" />
    <path
       id="path31"
       d="m 10899.9,11069.5 -55.7,-171.3 -34.2,11.1"
       style="fill:none;stroke:#0000ff;stroke-width:7.205;stroke-linecap:round;stroke-linejoin:round;stroke-miterlimit:10;stroke-dasharray:none;stroke-opacity:1"
       transform="matrix(0.13333333,0,0,-0.13333333,0,2878.6667)" />
    <path
       id="path32"
       d="m 10844.2,10898.2 34.3,-11.2"
       style="fill:none;stroke:#0000ff;stroke-width:7.205;stroke-linecap:round;stroke-linejoin:round;stroke-miterlimit:10;stroke-dasharray:none;stroke-opacity:1"
       transform="matrix(0.13333333,0,0,-0.13333333,0,2878.6667)" />
    <path
       id="path33"
       d="m 10844.2,10898.2 -39.8,-122.6 -34.3,11.1"
       style="fill:none;stroke:#0000ff;stroke-width:7.205;stroke-linecap:round;stroke-linejoin:round;stroke-miterlimit:10;stroke-dasharray:none;stroke-opacity:1"
       transform="matrix(0.13333333,0,0,-0.13333333,0,2878.6667)" />
    <path
       id="path34"
       d="m 10804.4,10775.6 34.3,-11.1"
       style="fill:none;stroke:#0000ff;stroke-width:7.205;stroke-linecap:round;stroke-linejoin:round;stroke-miterlimit:10;stroke-dasharray:none;stroke-opacity:1"
       transform="matrix(0.13333333,0,0,-0.13333333,0,2878.6667)" />
    <path
       id="path35"
       d="m 10804.4,10775.6 -55.6,171.3 34.2,11.1"
       style="fill:none;stroke:#0000ff;stroke-width:7.205;stroke-linecap:round;stroke-linejoin:round;stroke-miterlimit:10;stroke-dasharray:none;stroke-opacity:1"
       transform="matrix(0.13333333,0,0,-0.13333333,0,2878.6667)" />
    <path
       id="path36"
       d="m 10748.8,10946.9 -34.3,-11.1"
       style="fill:none;stroke:#0000ff;stroke-width:7.205;stroke-linecap:round;stroke-linejoin:round;stroke-miterlimit:10;stroke-dasharray:none;stroke-opacity:1"
       transform="matrix(0.13333333,0,0,-0.13333333,0,2878.6667)" />
    <path
       id="path37"
       d="m 10748.8,10946.9 -55.7,171.3 34.2,11.1"
       style="fill:none;stroke:#0000ff;stroke-width:7.205;stroke-linecap:round;stroke-linejoin:round;stroke-miterlimit:10;stroke-dasharray:none;stroke-opacity:1"
       transform="matrix(0.13333333,0,0,-0.13333333,0,2878.6667)" />
    <path
       id="path38"
       d="m 10693.1,11118.2 -34.3,-11.1"
       style="fill:none;stroke:#0000ff;stroke-width:7.205;stroke-linecap:round;stroke-linejoin:round;stroke-miterlimit:10;stroke-dasharray:none;stroke-opacity:1"
       transform="matrix(0.13333333,0,0,-0.13333333,0,2878.6667)" />
    <path
       id="path39"
       d="m 10693.1,11118.2 -79.3,244.1 34.2,11.1"
       style="fill:none;stroke:#0000ff;stroke-width:7.205;stroke-linecap:round;stroke-linejoin:round;stroke-miterlimit:10;stroke-dasharray:none;stroke-opacity:1"
       transform="matrix(0.13333333,0,0,-0.13333333,0,2878.6667)" />
    <path
       id="path40"
       d="m 10613.8,11362.3 -34.3,-11.2"
       style="fill:none;stroke:#0000ff;stroke-width:7.205;stroke-linecap:round;stroke-linejoin:round;stroke-miterlimit:10;stroke-dasharray:none;stroke-opacity:1"
       transform="matrix(0.13333333,0,0,-0.13333333,0,2878.6667)" />
    <path
       id="path41"
       d="m 10613.8,11362.3 55.6,-171.3 -34.2,-11.2"
       style="fill:none;stroke:#0000ff;stroke-width:7.205;stroke-linecap:round;stroke-linejoin:round;stroke-miterlimit:10;stroke-dasharray:none;stroke-opacity:1"
       transform="matrix(0.13333333,0,0,-0.13333333,0,2878.6667)" />
    <path
       id="path42"
       d="m 10669.4,11191 34.3,11.1"
       style="fill:none;stroke:#0000ff;stroke-width:7.205;stroke-linecap:round;stroke-linejoin:round;stroke-miterlimit:10;stroke-dasharray:none;stroke-opacity:1"
       transform="matrix(0.13333333,0,0,-0.13333333,0,2878.6667)" />
    <path
       id="path43"
       d="m 10669.4,11191 55.7,-171.3 -34.3,-11.2"
       style="fill:none;stroke:#0000ff;stroke-width:7.205;stroke-linecap:round;stroke-linejoin:round;stroke-miterlimit:10;stroke-dasharray:none;stroke-opacity:1"
       transform="matrix(0.13333333,0,0,-0.13333333,0,2878.6667)" />
    <path
       id="path44"
       d="m 10725.1,11019.7 34.3,11.1"
       style="fill:none;stroke:#0000ff;stroke-width:7.205;stroke-linecap:round;stroke-linejoin:round;stroke-miterlimit:10;stroke-dasharray:none;stroke-opacity:1"
       transform="matrix(0.13333333,0,0,-0.13333333,0,2878.6667)" />
    <path
       id="path45"
       d="m 10725.1,11019.7 79.3,-244.1 -34.3,-11.1"
       style="fill:none;stroke:#0000ff;stroke-width:7.205;stroke-linecap:round;stroke-linejoin:round;stroke-miterlimit:10;stroke-dasharray:none;stroke-opacity:1"
       transform="matrix(0.13333333,0,0,-0.13333333,0,2878.6667)" />
    <path
       id="path46"
       d="m 10804.4,10775.6 34.3,11.1"
       style="fill:none;stroke:#0000ff;stroke-width:7.205;stroke-linecap:round;stroke-linejoin:round;stroke-miterlimit:10;stroke-dasharray:none;stroke-opacity:1"
       transform="matrix(0.13333333,0,0,-0.13333333,0,2878.6667)" />
    <path
       id="path47"
       d="m 10804.4,10775.6 -145.7,105.9 21.2,29.1"
       style="fill:none;stroke:#0000ff;stroke-width:7.205;stroke-linecap:round;stroke-linejoin:round;stroke-miterlimit:10;stroke-dasharray:none;stroke-opacity:1"
       transform="matrix(0.13333333,0,0,-0.13333333,0,2878.6667)" />
    <path
       id="path48"
       d="m 10658.7,10881.5 -21.2,-29.2"
       style="fill:none;stroke:#0000ff;stroke-width:7.205;stroke-linecap:round;stroke-linejoin:round;stroke-miterlimit:10;stroke-dasharray:none;stroke-opacity:1"
       transform="matrix(0.13333333,0,0,-0.13333333,0,2878.6667)" />
    <path
       id="path49"
       d="m 10658.7,10881.5 -145.7,105.8 21.1,29.2"
       style="fill:none;stroke:#0000ff;stroke-width:7.205;stroke-linecap:round;stroke-linejoin:round;stroke-miterlimit:10;stroke-dasharray:none;stroke-opacity:1"
       transform="matrix(0.13333333,0,0,-0.13333333,0,2878.6667)" />
    <path
       id="path50"
       d="m 10513,10987.3 -21.2,-29.1"
       style="fill:none;stroke:#0000ff;stroke-width:7.205;stroke-linecap:round;stroke-linejoin:round;stroke-miterlimit:10;stroke-dasharray:none;stroke-opacity:1"
       transform="matrix(0.13333333,0,0,-0.13333333,0,2878.6667)" />
    <path
       id="path51"
       d="m 10513,10987.3 -145.8,105.9 21.2,29.2"
       style="fill:none;stroke:#0000ff;stroke-width:7.205;stroke-linecap:round;stroke-linejoin:round;stroke-miterlimit:10;stroke-dasharray:none;stroke-opacity:1"
       transform="matrix(0.13333333,0,0,-0.13333333,0,2878.6667)" />
    <path
       id="path52"
       d="m 10367.2,11093.2 -21.1,-29.1"
       style="fill:none;stroke:#0000ff;stroke-width:7.205;stroke-linecap:round;stroke-linejoin:round;stroke-miterlimit:10;stroke-dasharray:none;stroke-opacity:1"
       transform="matrix(0.13333333,0,0,-0.13333333,0,2878.6667)" />
    <path
       id="path53"
       d="m 10367.2,11093.2 -138.2,100.5 21.1,29.1"
       style="fill:none;stroke:#0000ff;stroke-width:7.205;stroke-linecap:round;stroke-linejoin:round;stroke-miterlimit:10;stroke-dasharray:none;stroke-opacity:1"
       transform="matrix(0.13333333,0,0,-0.13333333,0,2878.6667)" />
    <path
       id="path54"
       d="m 10229,11193.7 -21.2,-29.2"
       style="fill:none;stroke:#0000ff;stroke-width:7.205;stroke-linecap:round;stroke-linejoin:round;stroke-miterlimit:10;stroke-dasharray:none;stroke-opacity:1"
       transform="matrix(0.13333333,0,0,-0.13333333,0,2878.6667)" />
    <path
       id="path55"
       d="m 10229,11193.7 145.7,-105.9 -21.2,-29.1"
       style="fill:none;stroke:#0000ff;stroke-width:7.205;stroke-linecap:round;stroke-linejoin:round;stroke-miterlimit:10;stroke-dasharray:none;stroke-opacity:1"
       transform="matrix(0.13333333,0,0,-0.13333333,0,2878.6667)" />
    <path
       id="path56"
       d="m 10374.7,11087.8 21.2,29.2"
       style="fill:none;stroke:#0000ff;stroke-width:7.205;stroke-linecap:round;stroke-linejoin:round;stroke-miterlimit:10;stroke-dasharray:none;stroke-opacity:1"
       transform="matrix(0.13333333,0,0,-0.13333333,0,2878.6667)" />
    <path
       id="path57"
       d="m 10374.7,11087.8 145.7,-105.9 -21.2,-29.1"
       style="fill:none;stroke:#0000ff;stroke-width:7.205;stroke-linecap:round;stroke-linejoin:round;stroke-miterlimit:10;stroke-dasharray:none;stroke-opacity:1"
       transform="matrix(0.13333333,0,0,-0.13333333,0,2878.6667)" />
    <path
       id="path58"
       d="m 10520.4,10981.9 21.2,29.2"
       style="fill:none;stroke:#0000ff;stroke-width:7.205;stroke-linecap:round;stroke-linejoin:round;stroke-miterlimit:10;stroke-dasharray:none;stroke-opacity:1"
       transform="matrix(0.13333333,0,0,-0.13333333,0,2878.6667)" />
    <path
       id="path59"
       d="m 10520.4,10981.9 145.7,-105.8 -21.1,-29.2"
       style="fill:none;stroke:#0000ff;stroke-width:7.205;stroke-linecap:round;stroke-linejoin:round;stroke-miterlimit:10;stroke-dasharray:none;stroke-opacity:1"
       transform="matrix(0.13333333,0,0,-0.13333333,0,2878.6667)" />
    <path
       id="path60"
       d="m 10666.1,10876.1 21.2,29.1"
       style="fill:none;stroke:#0000ff;stroke-width:7.205;stroke-linecap:round;stroke-linejoin:round;stroke-miterlimit:10;stroke-dasharray:none;stroke-opacity:1"
       transform="matrix(0.13333333,0,0,-0.13333333,0,2878.6667)" />
    <path
       id="path61"
       d="m 10666.1,10876.1 138.3,-100.5 -21.2,-29.2"
       style="fill:none;stroke:#0000ff;stroke-width:7.205;stroke-linecap:round;stroke-linejoin:round;stroke-miterlimit:10;stroke-dasharray:none;stroke-opacity:1"
       transform="matrix(0.13333333,0,0,-0.13333333,0,2878.6667)" />
    <path
       id="path62"
       d="m 10804.4,10775.6 21.2,29.1"
       style="fill:none;stroke:#0000ff;stroke-width:7.205;stroke-linecap:round;stroke-linejoin:round;stroke-miterlimit:10;stroke-dasharray:none;stroke-opacity:1"
       transform="matrix(0.13333333,0,0,-0.13333333,0,2878.6667)" />
    <path
       id="path63"
       d="m 10804.4,10775.6 h -180.1 v 36"
       style="fill:none;stroke:#0000ff;stroke-width:7.205;stroke-linecap:round;stroke-linejoin:round;stroke-miterlimit:10;stroke-dasharray:none;stroke-opacity:1"
       transform="matrix(0.13333333,0,0,-0.13333333,0,2878.6667)" />
    <path
       id="path64"
       d="m 10624.3,10775.6 v -36"
       style="fill:none;stroke:#0000ff;stroke-width:7.205;stroke-linecap:round;stroke-linejoin:round;stroke-miterlimit:10;stroke-dasharray:none;stroke-opacity:1"
       transform="matrix(0.13333333,0,0,-0.13333333,0,2878.6667)" />
    <path
       id="path65"
       d="m 10624.3,10775.6 h -180.1 v 36"
       style="fill:none;stroke:#0000ff;stroke-width:7.205;stroke-linecap:round;stroke-linejoin:round;stroke-miterlimit:10;stroke-dasharray:none;stroke-opacity:1"
       transform="matrix(0.13333333,0,0,-0.13333333,0,2878.6667)" />
    <path
       id="path66"
       d="m 10444.2,10775.6 v -36"
       style="fill:none;stroke:#0000ff;stroke-width:7.205;stroke-linecap:round;stroke-linejoin:round;stroke-miterlimit:10;stroke-dasharray:none;stroke-opacity:1"
       transform="matrix(0.13333333,0,0,-0.13333333,0,2878.6667)" />
    <path
       id="path67"
       d="M 10444.2,10775.6 H 10264 v 36"
       style="fill:none;stroke:#0000ff;stroke-width:7.205;stroke-linecap:round;stroke-linejoin:round;stroke-miterlimit:10;stroke-dasharray:none;stroke-opacity:1"
       transform="matrix(0.13333333,0,0,-0.13333333,0,2878.6667)" />
    <path
       id="path68"
       d="m 10264,10775.6 v -36"
       style="fill:none;stroke:#0000ff;stroke-width:7.205;stroke-linecap:round;stroke-linejoin:round;stroke-miterlimit:10;stroke-dasharray:none;stroke-opacity:1"
       transform="matrix(0.13333333,0,0,-0.13333333,0,2878.6667)" />
    <path
       id="path69"
       d="m 10264,10775.6 h -143.3 v 36"
       style="fill:none;stroke:#0000ff;stroke-width:7.205;stroke-linecap:round;stroke-linejoin:round;stroke-miterlimit:10;stroke-dasharray:none;stroke-opacity:1"
       transform="matrix(0.13333333,0,0,-0.13333333,0,2878.6667)" />
    <path
       id="path70"
       d="m 10120.7,10775.6 v -36"
       style="fill:none;stroke:#0000ff;stroke-width:7.205;stroke-linecap:round;stroke-linejoin:round;stroke-miterlimit:10;stroke-dasharray:none;stroke-opacity:1"
       transform="matrix(0.13333333,0,0,-0.13333333,0,2878.6667)" />
    <path
       id="path71"
       d="m 10120.7,10775.6 h 180.1 v -36"
       style="fill:none;stroke:#0000ff;stroke-width:7.205;stroke-linecap:round;stroke-linejoin:round;stroke-miterlimit:10;stroke-dasharray:none;stroke-opacity:1"
       transform="matrix(0.13333333,0,0,-0.13333333,0,2878.6667)" />
    <path
       id="path72"
       d="m 10300.8,10775.6 v 36"
       style="fill:none;stroke:#0000ff;stroke-width:7.205;stroke-linecap:round;stroke-linejoin:round;stroke-miterlimit:10;stroke-dasharray:none;stroke-opacity:1"
       transform="matrix(0.13333333,0,0,-0.13333333,0,2878.6667)" />
    <path
       id="path73"
       d="m 10300.8,10775.6 h 180.1 v -36"
       style="fill:none;stroke:#0000ff;stroke-width:7.205;stroke-linecap:round;stroke-linejoin:round;stroke-miterlimit:10;stroke-dasharray:none;stroke-opacity:1"
       transform="matrix(0.13333333,0,0,-0.13333333,0,2878.6667)" />
    <path
       id="path74"
       d="m 10480.9,10775.6 v 36"
       style="fill:none;stroke:#0000ff;stroke-width:7.205;stroke-linecap:round;stroke-linejoin:round;stroke-miterlimit:10;stroke-dasharray:none;stroke-opacity:1"
       transform="matrix(0.13333333,0,0,-0.13333333,0,2878.6667)" />
    <path
       id="path75"
       d="m 10480.9,10775.6 h 180.2 v -36"
       style="fill:none;stroke:#0000ff;stroke-width:7.205;stroke-linecap:round;stroke-linejoin:round;stroke-miterlimit:10;stroke-dasharray:none;stroke-opacity:1"
       transform="matrix(0.13333333,0,0,-0.13333333,0,2878.6667)" />
    <path
       id="path76"
       d="m 10661.1,10775.6 v 36"
       style="fill:none;stroke:#0000ff;stroke-width:7.205;stroke-linecap:round;stroke-linejoin:round;stroke-miterlimit:10;stroke-dasharray:none;stroke-opacity:1"
       transform="matrix(0.13333333,0,0,-0.13333333,0,2878.6667)" />
    <path
       id="path77"
       d="m 10661.1,10775.6 h 143.3 v -36"
       style="fill:none;stroke:#0000ff;stroke-width:7.205;stroke-linecap:round;stroke-linejoin:round;stroke-miterlimit:10;stroke-dasharray:none;stroke-opacity:1"
       transform="matrix(0.13333333,0,0,-0.13333333,0,2878.6667)" />
    <path
       id="path78"
       d="m 10804.4,10775.6 v 36"
       style="fill:none;stroke:#0000ff;stroke-width:7.205;stroke-linecap:round;stroke-linejoin:round;stroke-miterlimit:10;stroke-dasharray:none;stroke-opacity:1"
       transform="matrix(0.13333333,0,0,-0.13333333,0,2878.6667)" />
    <path
       id="path79"
       d="m 10804.4,10775.6 -145.7,-105.9 -21.2,29.2"
       style="fill:none;stroke:#0000ff;stroke-width:7.205;stroke-linecap:round;stroke-linejoin:round;stroke-miterlimit:10;stroke-dasharray:none;stroke-opacity:1"
       transform="matrix(0.13333333,0,0,-0.13333333,0,2878.6667)" />
    <path
       id="path80"
       d="m 10658.7,10669.7 21.2,-29.1"
       style="fill:none;stroke:#0000ff;stroke-width:7.205;stroke-linecap:round;stroke-linejoin:round;stroke-miterlimit:10;stroke-dasharray:none;stroke-opacity:1"
       transform="matrix(0.13333333,0,0,-0.13333333,0,2878.6667)" />
    <path
       id="path81"
       d="m 10658.7,10669.7 -145.7,-105.9 -21.2,29.2"
       style="fill:none;stroke:#0000ff;stroke-width:7.205;stroke-linecap:round;stroke-linejoin:round;stroke-miterlimit:10;stroke-dasharray:none;stroke-opacity:1"
       transform="matrix(0.13333333,0,0,-0.13333333,0,2878.6667)" />
    <path
       id="path82"
       d="m 10513,10563.8 21.1,-29.1"
       style="fill:none;stroke:#0000ff;stroke-width:7.205;stroke-linecap:round;stroke-linejoin:round;stroke-miterlimit:10;stroke-dasharray:none;stroke-opacity:1"
       transform="matrix(0.13333333,0,0,-0.13333333,0,2878.6667)" />
    <path
       id="path83"
       d="m 10513,10563.8 -145.8,-105.8 -21.1,29.1"
       style="fill:none;stroke:#0000ff;stroke-width:7.205;stroke-linecap:round;stroke-linejoin:round;stroke-miterlimit:10;stroke-dasharray:none;stroke-opacity:1"
       transform="matrix(0.13333333,0,0,-0.13333333,0,2878.6667)" />
    <path
       id="path84"
       d="m 10367.2,10458 21.2,-29.2"
       style="fill:none;stroke:#0000ff;stroke-width:7.205;stroke-linecap:round;stroke-linejoin:round;stroke-miterlimit:10;stroke-dasharray:none;stroke-opacity:1"
       transform="matrix(0.13333333,0,0,-0.13333333,0,2878.6667)" />
    <path
       id="path85"
       d="m 10367.2,10458 -73,-53.1 -21.2,29.1"
       style="fill:none;stroke:#0000ff;stroke-width:7.205;stroke-linecap:round;stroke-linejoin:round;stroke-miterlimit:10;stroke-dasharray:none;stroke-opacity:1"
       transform="matrix(0.13333333,0,0,-0.13333333,0,2878.6667)" />
    <path
       id="path86"
       d="m 10294.2,10404.9 21.1,-29.2"
       style="fill:none;stroke:#0000ff;stroke-width:7.205;stroke-linecap:round;stroke-linejoin:round;stroke-miterlimit:10;stroke-dasharray:none;stroke-opacity:1"
       transform="matrix(0.13333333,0,0,-0.13333333,0,2878.6667)" />
    <path
       id="path87"
       d="m 10294.2,10404.9 145.7,105.9 21.2,-29.2"
       style="fill:none;stroke:#0000ff;stroke-width:7.205;stroke-linecap:round;stroke-linejoin:round;stroke-miterlimit:10;stroke-dasharray:none;stroke-opacity:1"
       transform="matrix(0.13333333,0,0,-0.13333333,0,2878.6667)" />
    <path
       id="path88"
       d="m 10439.9,10510.8 -21.2,29.1"
       style="fill:none;stroke:#0000ff;stroke-width:7.205;stroke-linecap:round;stroke-linejoin:round;stroke-miterlimit:10;stroke-dasharray:none;stroke-opacity:1"
       transform="matrix(0.13333333,0,0,-0.13333333,0,2878.6667)" />
    <path
       id="path89"
       d="m 10439.9,10510.8 145.7,105.8 21.2,-29.1"
       style="fill:none;stroke:#0000ff;stroke-width:7.205;stroke-linecap:round;stroke-linejoin:round;stroke-miterlimit:10;stroke-dasharray:none;stroke-opacity:1"
       transform="matrix(0.13333333,0,0,-0.13333333,0,2878.6667)" />
    <path
       id="path90"
       d="m 10585.6,10616.6 -21.2,29.2"
       style="fill:none;stroke:#0000ff;stroke-width:7.205;stroke-linecap:round;stroke-linejoin:round;stroke-miterlimit:10;stroke-dasharray:none;stroke-opacity:1"
       transform="matrix(0.13333333,0,0,-0.13333333,0,2878.6667)" />
    <path
       id="path91"
       d="m 10585.6,10616.6 145.7,105.9 21.2,-29.1"
       style="fill:none;stroke:#0000ff;stroke-width:7.205;stroke-linecap:round;stroke-linejoin:round;stroke-miterlimit:10;stroke-dasharray:none;stroke-opacity:1"
       transform="matrix(0.13333333,0,0,-0.13333333,0,2878.6667)" />
    <path
       id="path92"
       d="m 10731.3,10722.5 -21.1,29.1"
       style="fill:none;stroke:#0000ff;stroke-width:7.205;stroke-linecap:round;stroke-linejoin:round;stroke-miterlimit:10;stroke-dasharray:none;stroke-opacity:1"
       transform="matrix(0.13333333,0,0,-0.13333333,0,2878.6667)" />
    <path
       id="path93"
       d="m 10731.3,10722.5 73.1,53.1 21.2,-29.2"
       style="fill:none;stroke:#0000ff;stroke-width:7.205;stroke-linecap:round;stroke-linejoin:round;stroke-miterlimit:10;stroke-dasharray:none;stroke-opacity:1"
       transform="matrix(0.13333333,0,0,-0.13333333,0,2878.6667)" />
    <path
       id="path94"
       d="m 10804.4,10775.6 -21.2,29.1"
       style="fill:none;stroke:#0000ff;stroke-width:7.205;stroke-linecap:round;stroke-linejoin:round;stroke-miterlimit:10;stroke-dasharray:none;stroke-opacity:1"
       transform="matrix(0.13333333,0,0,-0.13333333,0,2878.6667)" />
    <path
       id="path95"
       d="m 10804.4,10775.6 -55.6,-171.3 -34.3,11.1"
       style="fill:none;stroke:#0000ff;stroke-width:7.205;stroke-linecap:round;stroke-linejoin:round;stroke-miterlimit:10;stroke-dasharray:none;stroke-opacity:1"
       transform="matrix(0.13333333,0,0,-0.13333333,0,2878.6667)" />
    <path
       id="path96"
       d="m 10748.8,10604.3 34.2,-11.2"
       style="fill:none;stroke:#0000ff;stroke-width:7.205;stroke-linecap:round;stroke-linejoin:round;stroke-miterlimit:10;stroke-dasharray:none;stroke-opacity:1"
       transform="matrix(0.13333333,0,0,-0.13333333,0,2878.6667)" />
    <path
       id="path97"
       d="m 10748.8,10604.3 -55.7,-171.3 -34.3,11.1"
       style="fill:none;stroke:#0000ff;stroke-width:7.205;stroke-linecap:round;stroke-linejoin:round;stroke-miterlimit:10;stroke-dasharray:none;stroke-opacity:1"
       transform="matrix(0.13333333,0,0,-0.13333333,0,2878.6667)" />
    <path
       id="path98"
       d="m 10693.1,10433 34.2,-11.2"
       style="fill:none;stroke:#0000ff;stroke-width:7.205;stroke-linecap:round;stroke-linejoin:round;stroke-miterlimit:10;stroke-dasharray:none;stroke-opacity:1"
       transform="matrix(0.13333333,0,0,-0.13333333,0,2878.6667)" />
    <path
       id="path99"
       d="m 10693.1,10433 -30.2,-92.9 -34.3,11.1"
       style="fill:none;stroke:#0000ff;stroke-width:7.205;stroke-linecap:round;stroke-linejoin:round;stroke-miterlimit:10;stroke-dasharray:none;stroke-opacity:1"
       transform="matrix(0.13333333,0,0,-0.13333333,0,2878.6667)" />
    <path
       id="path100"
       d="m 10662.9,10340.1 34.3,-11.2"
       style="fill:none;stroke:#0000ff;stroke-width:7.205;stroke-linecap:round;stroke-linejoin:round;stroke-miterlimit:10;stroke-dasharray:none;stroke-opacity:1"
       transform="matrix(0.13333333,0,0,-0.13333333,0,2878.6667)" />
    <path
       id="path101"
       d="m 10662.9,10340.1 55.7,171.3 34.2,-11.2"
       style="fill:none;stroke:#0000ff;stroke-width:7.205;stroke-linecap:round;stroke-linejoin:round;stroke-miterlimit:10;stroke-dasharray:none;stroke-opacity:1"
       transform="matrix(0.13333333,0,0,-0.13333333,0,2878.6667)" />
    <path
       id="path102"
       d="m 10718.6,10511.4 -34.3,11.1"
       style="fill:none;stroke:#0000ff;stroke-width:7.205;stroke-linecap:round;stroke-linejoin:round;stroke-miterlimit:10;stroke-dasharray:none;stroke-opacity:1"
       transform="matrix(0.13333333,0,0,-0.13333333,0,2878.6667)" />
    <path
       id="path103"
       d="m 10718.6,10511.4 55.6,171.3 34.3,-11.1"
       style="fill:none;stroke:#0000ff;stroke-width:7.205;stroke-linecap:round;stroke-linejoin:round;stroke-miterlimit:10;stroke-dasharray:none;stroke-opacity:1"
       transform="matrix(0.13333333,0,0,-0.13333333,0,2878.6667)" />
    <path
       id="path104"
       d="m 10774.2,10682.7 -34.2,11.1"
       style="fill:none;stroke:#0000ff;stroke-width:7.205;stroke-linecap:round;stroke-linejoin:round;stroke-miterlimit:10;stroke-dasharray:none;stroke-opacity:1"
       transform="matrix(0.13333333,0,0,-0.13333333,0,2878.6667)" />
    <path
       id="path105"
       d="m 10774.2,10682.7 30.2,92.9 34.3,-11.1"
       style="fill:none;stroke:#0000ff;stroke-width:7.205;stroke-linecap:round;stroke-linejoin:round;stroke-miterlimit:10;stroke-dasharray:none;stroke-opacity:1"
       transform="matrix(0.13333333,0,0,-0.13333333,0,2878.6667)" />
    <path
       id="path106"
       d="m 10804.4,10775.6 -34.3,11.1"
       style="fill:none;stroke:#0000ff;stroke-width:7.205;stroke-linecap:round;stroke-linejoin:round;stroke-miterlimit:10;stroke-dasharray:none;stroke-opacity:1"
       transform="matrix(0.13333333,0,0,-0.13333333,0,2878.6667)" />
    <path
       id="path107"
       d="m 10804.4,10775.6 55.7,-171.3 -34.3,-11.2"
       style="fill:none;stroke:#0000ff;stroke-width:7.205;stroke-linecap:round;stroke-linejoin:round;stroke-miterlimit:10;stroke-dasharray:none;stroke-opacity:1"
       transform="matrix(0.13333333,0,0,-0.13333333,0,2878.6667)" />
    <path
       id="path108"
       d="m 10860.1,10604.3 34.2,11.1"
       style="fill:none;stroke:#0000ff;stroke-width:7.205;stroke-linecap:round;stroke-linejoin:round;stroke-miterlimit:10;stroke-dasharray:none;stroke-opacity:1"
       transform="matrix(0.13333333,0,0,-0.13333333,0,2878.6667)" />
    <path
       id="path109"
       d="m 10860.1,10604.3 55.6,-171.3 -34.2,-11.2"
       style="fill:none;stroke:#0000ff;stroke-width:7.205;stroke-linecap:round;stroke-linejoin:round;stroke-miterlimit:10;stroke-dasharray:none;stroke-opacity:1"
       transform="matrix(0.13333333,0,0,-0.13333333,0,2878.6667)" />
    <path
       id="path110"
       d="m 10915.7,10433 34.3,11.1"
       style="fill:none;stroke:#0000ff;stroke-width:7.205;stroke-linecap:round;stroke-linejoin:round;stroke-miterlimit:10;stroke-dasharray:none;stroke-opacity:1"
       transform="matrix(0.13333333,0,0,-0.13333333,0,2878.6667)" />
    <path
       id="path111"
       d="m 10915.7,10433 35.6,-109.6 -34.2,-11.1"
       style="fill:none;stroke:#0000ff;stroke-width:7.205;stroke-linecap:round;stroke-linejoin:round;stroke-miterlimit:10;stroke-dasharray:none;stroke-opacity:1"
       transform="matrix(0.13333333,0,0,-0.13333333,0,2878.6667)" />
    <path
       id="path112"
       d="m 10951.3,10323.4 34.3,11.1"
       style="fill:none;stroke:#0000ff;stroke-width:7.205;stroke-linecap:round;stroke-linejoin:round;stroke-miterlimit:10;stroke-dasharray:none;stroke-opacity:1"
       transform="matrix(0.13333333,0,0,-0.13333333,0,2878.6667)" />
    <path
       id="path113"
       d="m 10951.3,10323.4 -55.6,171.3 34.2,11.1"
       style="fill:none;stroke:#0000ff;stroke-width:7.205;stroke-linecap:round;stroke-linejoin:round;stroke-miterlimit:10;stroke-dasharray:none;stroke-opacity:1"
       transform="matrix(0.13333333,0,0,-0.13333333,0,2878.6667)" />
    <path
       id="path114"
       d="m 10895.7,10494.7 -34.3,-11.1"
       style="fill:none;stroke:#0000ff;stroke-width:7.205;stroke-linecap:round;stroke-linejoin:round;stroke-miterlimit:10;stroke-dasharray:none;stroke-opacity:1"
       transform="matrix(0.13333333,0,0,-0.13333333,0,2878.6667)" />
    <path
       id="path115"
       d="m 10895.7,10494.7 -55.7,171.3 34.3,11.1"
       style="fill:none;stroke:#0000ff;stroke-width:7.205;stroke-linecap:round;stroke-linejoin:round;stroke-miterlimit:10;stroke-dasharray:none;stroke-opacity:1"
       transform="matrix(0.13333333,0,0,-0.13333333,0,2878.6667)" />
    <path
       id="path116"
       d="m 10840,10666 -34.2,-11.1"
       style="fill:none;stroke:#0000ff;stroke-width:7.205;stroke-linecap:round;stroke-linejoin:round;stroke-miterlimit:10;stroke-dasharray:none;stroke-opacity:1"
       transform="matrix(0.13333333,0,0,-0.13333333,0,2878.6667)" />
    <path
       id="path117"
       d="m 10840,10666 -35.6,109.6 34.3,11.1"
       style="fill:none;stroke:#0000ff;stroke-width:7.205;stroke-linecap:round;stroke-linejoin:round;stroke-miterlimit:10;stroke-dasharray:none;stroke-opacity:1"
       transform="matrix(0.13333333,0,0,-0.13333333,0,2878.6667)" />
    <path
       id="path118"
       d="m 10804.4,10775.6 -34.3,-11.1"
       style="fill:none;stroke:#0000ff;stroke-width:7.205;stroke-linecap:round;stroke-linejoin:round;stroke-miterlimit:10;stroke-dasharray:none;stroke-opacity:1"
       transform="matrix(0.13333333,0,0,-0.13333333,0,2878.6667)" />
    <path
       id="path119"
       d="m 10804.4,10775.6 145.7,-105.9 -21.1,-29.1"
       style="fill:none;stroke:#0000ff;stroke-width:7.205;stroke-linecap:round;stroke-linejoin:round;stroke-miterlimit:10;stroke-dasharray:none;stroke-opacity:1"
       transform="matrix(0.13333333,0,0,-0.13333333,0,2878.6667)" />
    <path
       id="path120"
       d="m 10950.1,10669.7 21.2,29.2"
       style="fill:none;stroke:#0000ff;stroke-width:7.205;stroke-linecap:round;stroke-linejoin:round;stroke-miterlimit:10;stroke-dasharray:none;stroke-opacity:1"
       transform="matrix(0.13333333,0,0,-0.13333333,0,2878.6667)" />
    <path
       id="path121"
       d="m 10950.1,10669.7 145.8,-105.9 -21.2,-29.1"
       style="fill:none;stroke:#0000ff;stroke-width:7.205;stroke-linecap:round;stroke-linejoin:round;stroke-miterlimit:10;stroke-dasharray:none;stroke-opacity:1"
       transform="matrix(0.13333333,0,0,-0.13333333,0,2878.6667)" />
    <path
       id="path122"
       d="m 11095.9,10563.8 21.1,29.2"
       style="fill:none;stroke:#0000ff;stroke-width:7.205;stroke-linecap:round;stroke-linejoin:round;stroke-miterlimit:10;stroke-dasharray:none;stroke-opacity:1"
       transform="matrix(0.13333333,0,0,-0.13333333,0,2878.6667)" />
    <path
       id="path123"
       d="m 11095.9,10563.8 145.7,-105.8 -21.2,-29.2"
       style="fill:none;stroke:#0000ff;stroke-width:7.205;stroke-linecap:round;stroke-linejoin:round;stroke-miterlimit:10;stroke-dasharray:none;stroke-opacity:1"
       transform="matrix(0.13333333,0,0,-0.13333333,0,2878.6667)" />
    <path
       id="path124"
       d="m 11241.6,10458 21.2,29.1"
       style="fill:none;stroke:#0000ff;stroke-width:7.205;stroke-linecap:round;stroke-linejoin:round;stroke-miterlimit:10;stroke-dasharray:none;stroke-opacity:1"
       transform="matrix(0.13333333,0,0,-0.13333333,0,2878.6667)" />
    <path
       id="path125"
       d="m 11241.6,10458 145.7,-105.9 -21.2,-29.2"
       style="fill:none;stroke:#0000ff;stroke-width:7.205;stroke-linecap:round;stroke-linejoin:round;stroke-miterlimit:10;stroke-dasharray:none;stroke-opacity:1"
       transform="matrix(0.13333333,0,0,-0.13333333,0,2878.6667)" />
    <path
       id="path126"
       d="m 11387.3,10352.1 21.2,29.1"
       style="fill:none;stroke:#0000ff;stroke-width:7.205;stroke-linecap:round;stroke-linejoin:round;stroke-miterlimit:10;stroke-dasharray:none;stroke-opacity:1"
       transform="matrix(0.13333333,0,0,-0.13333333,0,2878.6667)" />
    <path
       id="path127"
       d="m 11387.3,10352.1 112.6,-81.8 -21.2,-29.2"
       style="fill:none;stroke:#0000ff;stroke-width:7.205;stroke-linecap:round;stroke-linejoin:round;stroke-miterlimit:10;stroke-dasharray:none;stroke-opacity:1"
       transform="matrix(0.13333333,0,0,-0.13333333,0,2878.6667)" />
    <path
       id="path128"
       d="m 11499.9,10270.3 21.2,29.1"
       style="fill:none;stroke:#0000ff;stroke-width:7.205;stroke-linecap:round;stroke-linejoin:round;stroke-miterlimit:10;stroke-dasharray:none;stroke-opacity:1"
       transform="matrix(0.13333333,0,0,-0.13333333,0,2878.6667)" />
    <path
       id="path129"
       d="m 11499.9,10270.3 -145.7,105.8 21.2,29.2"
       style="fill:none;stroke:#0000ff;stroke-width:7.205;stroke-linecap:round;stroke-linejoin:round;stroke-miterlimit:10;stroke-dasharray:none;stroke-opacity:1"
       transform="matrix(0.13333333,0,0,-0.13333333,0,2878.6667)" />
    <path
       id="path130"
       d="M 11354.2,10376.1 11333,10347"
       style="fill:none;stroke:#0000ff;stroke-width:7.205;stroke-linecap:round;stroke-linejoin:round;stroke-miterlimit:10;stroke-dasharray:none;stroke-opacity:1"
       transform="matrix(0.13333333,0,0,-0.13333333,0,2878.6667)" />
    <path
       id="path131"
       d="m 11354.2,10376.1 -145.7,105.9 21.1,29.2"
       style="fill:none;stroke:#0000ff;stroke-width:7.205;stroke-linecap:round;stroke-linejoin:round;stroke-miterlimit:10;stroke-dasharray:none;stroke-opacity:1"
       transform="matrix(0.13333333,0,0,-0.13333333,0,2878.6667)" />
    <path
       id="path132"
       d="m 11208.5,10482 -21.2,-29.1"
       style="fill:none;stroke:#0000ff;stroke-width:7.205;stroke-linecap:round;stroke-linejoin:round;stroke-miterlimit:10;stroke-dasharray:none;stroke-opacity:1"
       transform="matrix(0.13333333,0,0,-0.13333333,0,2878.6667)" />
    <path
       id="path133"
       d="m 11208.5,10482 -145.8,105.9 21.2,29.1"
       style="fill:none;stroke:#0000ff;stroke-width:7.205;stroke-linecap:round;stroke-linejoin:round;stroke-miterlimit:10;stroke-dasharray:none;stroke-opacity:1"
       transform="matrix(0.13333333,0,0,-0.13333333,0,2878.6667)" />
    <path
       id="path134"
       d="m 11062.7,10587.9 -21.1,-29.1"
       style="fill:none;stroke:#0000ff;stroke-width:7.205;stroke-linecap:round;stroke-linejoin:round;stroke-miterlimit:10;stroke-dasharray:none;stroke-opacity:1"
       transform="matrix(0.13333333,0,0,-0.13333333,0,2878.6667)" />
    <path
       id="path135"
       d="m 11062.7,10587.9 -145.7,105.9 21.2,29.1"
       style="fill:none;stroke:#0000ff;stroke-width:7.205;stroke-linecap:round;stroke-linejoin:round;stroke-miterlimit:10;stroke-dasharray:none;stroke-opacity:1"
       transform="matrix(0.13333333,0,0,-0.13333333,0,2878.6667)" />
    <path
       id="path136"
       d="m 10917,10693.8 -21.2,-29.2"
       style="fill:none;stroke:#0000ff;stroke-width:7.205;stroke-linecap:round;stroke-linejoin:round;stroke-miterlimit:10;stroke-dasharray:none;stroke-opacity:1"
       transform="matrix(0.13333333,0,0,-0.13333333,0,2878.6667)" />
    <path
       id="path137"
       d="m 10917,10693.8 -112.6,81.8 21.2,29.1"
       style="fill:none;stroke:#0000ff;stroke-width:7.205;stroke-linecap:round;stroke-linejoin:round;stroke-miterlimit:10;stroke-dasharray:none;stroke-opacity:1"
       transform="matrix(0.13333333,0,0,-0.13333333,0,2878.6667)" />
    <path
       id="path138"
       d="m 10804.4,10775.6 -21.2,-29.2"
       style="fill:none;stroke:#0000ff;stroke-width:7.205;stroke-linecap:round;stroke-linejoin:round;stroke-miterlimit:10;stroke-dasharray:none;stroke-opacity:1"
       transform="matrix(0.13333333,0,0,-0.13333333,0,2878.6667)" />
    <path
       id="path139"
       d="m 10804.4,10775.6 31.3,-67.3 9.5,37.6 32.8,20.7 -73.6,9"
       style="fill:#0000ff;fill-opacity:1;fill-rule:evenodd;stroke:#0000ff;stroke-width:7.205;stroke-linecap:round;stroke-linejoin:round;stroke-miterlimit:10;stroke-dasharray:none;stroke-opacity:1"
       transform="matrix(0.13333333,0,0,-0.13333333,0,2878.6667)" />
  </g>
</svg>
