<?xml version="1.0" encoding="UTF-8" standalone="no"?>
<!-- Created with Inkscape (http://www.inkscape.org/) -->

<svg
   version="1.1"
   id="svg1"
   width="142.56067"
   height="101.09399"
   viewBox="0 0 142.56067 101.09399"
   sodipodi:docname="04.pdf"
   xmlns:inkscape="http://www.inkscape.org/namespaces/inkscape"
   xmlns:sodipodi="http://sodipodi.sourceforge.net/DTD/sodipodi-0.dtd"
   xmlns="http://www.w3.org/2000/svg"
   xmlns:svg="http://www.w3.org/2000/svg">
  <defs
     id="defs1" />
  <sodipodi:namedview
     id="namedview1"
     pagecolor="#ffffff"
     bordercolor="#000000"
     borderopacity="0.25"
     inkscape:showpageshadow="2"
     inkscape:pageopacity="0.0"
     inkscape:pagecheckerboard="0"
     inkscape:deskcolor="#d1d1d1">
    <inkscape:page
       x="-1402.1329"
       y="-1402.2665"
       inkscape:label="1"
       id="page1"
       width="2878.6667"
       height="2878.6667"
       margin="0"
       bleed="0" />
  </sodipodi:namedview>
  <g
     id="g1"
     inkscape:groupmode="layer"
     inkscape:label="1"
     transform="translate(-1402.133,-1402.2664)">
    <path
       id="path1"
       d="m 10804.4,10775.6 v 0 -36"
       style="fill:none;stroke:#0000ff;stroke-width:7.205;stroke-linecap:round;stroke-linejoin:round;stroke-miterlimit:10;stroke-dasharray:none;stroke-opacity:1"
       transform="matrix(0.13333333,0,0,-0.13333333,0,2878.6667)" />
    <path
       id="path2"
       d="m 10804.4,10775.6 v 36"
       style="fill:none;stroke:#0000ff;stroke-width:7.205;stroke-linecap:round;stroke-linejoin:round;stroke-miterlimit:10;stroke-dasharray:none;stroke-opacity:1"
       transform="matrix(0.13333333,0,0,-0.13333333,0,2878.6667)" />
    <path
       id="path3"
       d="m 10804.4,10775.6 h 180.1 v -36"
       style="fill:none;stroke:#0000ff;stroke-width:7.205;stroke-linecap:round;stroke-linejoin:round;stroke-miterlimit:10;stroke-dasharray:none;stroke-opacity:1"
       transform="matrix(0.13333333,0,0,-0.13333333,0,2878.6667)" />
    <path
       id="path4"
       d="m 10984.5,10775.6 v 36"
       style="fill:none;stroke:#0000ff;stroke-width:7.205;stroke-linecap:round;stroke-linejoin:round;stroke-miterlimit:10;stroke-dasharray:none;stroke-opacity:1"
       transform="matrix(0.13333333,0,0,-0.13333333,0,2878.6667)" />
    <path
       id="path5"
       d="m 10984.5,10775.6 h 180.2 v -36"
       style="fill:none;stroke:#0000ff;stroke-width:7.205;stroke-linecap:round;stroke-linejoin:round;stroke-miterlimit:10;stroke-dasharray:none;stroke-opacity:1"
       transform="matrix(0.13333333,0,0,-0.13333333,0,2878.6667)" />
    <path
       id="path6"
       d="m 11164.7,10775.6 v 36"
       style="fill:none;stroke:#0000ff;stroke-width:7.205;stroke-linecap:round;stroke-linejoin:round;stroke-miterlimit:10;stroke-dasharray:none;stroke-opacity:1"
       transform="matrix(0.13333333,0,0,-0.13333333,0,2878.6667)" />
    <path
       id="path7"
       d="m 11164.7,10775.6 h 180.1 v -36"
       style="fill:none;stroke:#0000ff;stroke-width:7.205;stroke-linecap:round;stroke-linejoin:round;stroke-miterlimit:10;stroke-dasharray:none;stroke-opacity:1"
       transform="matrix(0.13333333,0,0,-0.13333333,0,2878.6667)" />
    <path
       id="path8"
       d="m 11344.8,10775.6 v 36"
       style="fill:none;stroke:#0000ff;stroke-width:7.205;stroke-linecap:round;stroke-linejoin:round;stroke-miterlimit:10;stroke-dasharray:none;stroke-opacity:1"
       transform="matrix(0.13333333,0,0,-0.13333333,0,2878.6667)" />
    <path
       id="path9"
       d="m 11344.8,10775.6 h 236.8 v -36"
       style="fill:none;stroke:#0000ff;stroke-width:7.205;stroke-linecap:round;stroke-linejoin:round;stroke-miterlimit:10;stroke-dasharray:none;stroke-opacity:1"
       transform="matrix(0.13333333,0,0,-0.13333333,0,2878.6667)" />
    <path
       id="path10"
       d="m 11581.6,10775.6 v 36"
       style="fill:none;stroke:#0000ff;stroke-width:7.205;stroke-linecap:round;stroke-linejoin:round;stroke-miterlimit:10;stroke-dasharray:none;stroke-opacity:1"
       transform="matrix(0.13333333,0,0,-0.13333333,0,2878.6667)" />
    <path
       id="path11"
       d="m 11581.6,10775.6 h -180.2 v 36"
       style="fill:none;stroke:#0000ff;stroke-width:7.205;stroke-linecap:round;stroke-linejoin:round;stroke-miterlimit:10;stroke-dasharray:none;stroke-opacity:1"
       transform="matrix(0.13333333,0,0,-0.13333333,0,2878.6667)" />
    <path
       id="path12"
       d="m 11401.4,10775.6 v -36"
       style="fill:none;stroke:#0000ff;stroke-width:7.205;stroke-linecap:round;stroke-linejoin:round;stroke-miterlimit:10;stroke-dasharray:none;stroke-opacity:1"
       transform="matrix(0.13333333,0,0,-0.13333333,0,2878.6667)" />
    <path
       id="path13"
       d="m 11401.4,10775.6 h -180.1 v 36"
       style="fill:none;stroke:#0000ff;stroke-width:7.205;stroke-linecap:round;stroke-linejoin:round;stroke-miterlimit:10;stroke-dasharray:none;stroke-opacity:1"
       transform="matrix(0.13333333,0,0,-0.13333333,0,2878.6667)" />
    <path
       id="path14"
       d="m 11221.3,10775.6 v -36"
       style="fill:none;stroke:#0000ff;stroke-width:7.205;stroke-linecap:round;stroke-linejoin:round;stroke-miterlimit:10;stroke-dasharray:none;stroke-opacity:1"
       transform="matrix(0.13333333,0,0,-0.13333333,0,2878.6667)" />
    <path
       id="path15"
       d="m 11221.3,10775.6 h -180.1 v 36"
       style="fill:none;stroke:#0000ff;stroke-width:7.205;stroke-linecap:round;stroke-linejoin:round;stroke-miterlimit:10;stroke-dasharray:none;stroke-opacity:1"
       transform="matrix(0.13333333,0,0,-0.13333333,0,2878.6667)" />
    <path
       id="path16"
       d="m 11041.2,10775.6 v -36"
       style="fill:none;stroke:#0000ff;stroke-width:7.205;stroke-linecap:round;stroke-linejoin:round;stroke-miterlimit:10;stroke-dasharray:none;stroke-opacity:1"
       transform="matrix(0.13333333,0,0,-0.13333333,0,2878.6667)" />
    <path
       id="path17"
       d="m 11041.2,10775.6 h -236.8 v 36"
       style="fill:none;stroke:#0000ff;stroke-width:7.205;stroke-linecap:round;stroke-linejoin:round;stroke-miterlimit:10;stroke-dasharray:none;stroke-opacity:1"
       transform="matrix(0.13333333,0,0,-0.13333333,0,2878.6667)" />
    <path
       id="path18"
       d="m 10804.4,10775.6 v -36"
       style="fill:none;stroke:#0000ff;stroke-width:7.205;stroke-linecap:round;stroke-linejoin:round;stroke-miterlimit:10;stroke-dasharray:none;stroke-opacity:1"
       transform="matrix(0.13333333,0,0,-0.13333333,0,2878.6667)" />
    <path
       id="path19"
       d="m 10804.4,10775.6 -90.1,156 31.2,18"
       style="fill:none;stroke:#0000ff;stroke-width:7.205;stroke-linecap:round;stroke-linejoin:round;stroke-miterlimit:10;stroke-dasharray:none;stroke-opacity:1"
       transform="matrix(0.13333333,0,0,-0.13333333,0,2878.6667)" />
    <path
       id="path20"
       d="m 10714.3,10931.6 -31.2,-18"
       style="fill:none;stroke:#0000ff;stroke-width:7.205;stroke-linecap:round;stroke-linejoin:round;stroke-miterlimit:10;stroke-dasharray:none;stroke-opacity:1"
       transform="matrix(0.13333333,0,0,-0.13333333,0,2878.6667)" />
    <path
       id="path21"
       d="m 10714.3,10931.6 -69.1,119.8 31.2,18"
       style="fill:none;stroke:#0000ff;stroke-width:7.205;stroke-linecap:round;stroke-linejoin:round;stroke-miterlimit:10;stroke-dasharray:none;stroke-opacity:1"
       transform="matrix(0.13333333,0,0,-0.13333333,0,2878.6667)" />
    <path
       id="path22"
       d="m 10645.2,11051.4 -31.2,-18"
       style="fill:none;stroke:#0000ff;stroke-width:7.205;stroke-linecap:round;stroke-linejoin:round;stroke-miterlimit:10;stroke-dasharray:none;stroke-opacity:1"
       transform="matrix(0.13333333,0,0,-0.13333333,0,2878.6667)" />
    <path
       id="path23"
       d="m 10645.2,11051.4 90,-156 -31.2,-18"
       style="fill:none;stroke:#0000ff;stroke-width:7.205;stroke-linecap:round;stroke-linejoin:round;stroke-miterlimit:10;stroke-dasharray:none;stroke-opacity:1"
       transform="matrix(0.13333333,0,0,-0.13333333,0,2878.6667)" />
    <path
       id="path24"
       d="m 10735.2,10895.4 31.2,18"
       style="fill:none;stroke:#0000ff;stroke-width:7.205;stroke-linecap:round;stroke-linejoin:round;stroke-miterlimit:10;stroke-dasharray:none;stroke-opacity:1"
       transform="matrix(0.13333333,0,0,-0.13333333,0,2878.6667)" />
    <path
       id="path25"
       d="m 10735.2,10895.4 69.2,-119.8 -31.2,-18"
       style="fill:none;stroke:#0000ff;stroke-width:7.205;stroke-linecap:round;stroke-linejoin:round;stroke-miterlimit:10;stroke-dasharray:none;stroke-opacity:1"
       transform="matrix(0.13333333,0,0,-0.13333333,0,2878.6667)" />
    <path
       id="path26"
       d="m 10804.4,10775.6 31.2,18"
       style="fill:none;stroke:#0000ff;stroke-width:7.205;stroke-linecap:round;stroke-linejoin:round;stroke-miterlimit:10;stroke-dasharray:none;stroke-opacity:1"
       transform="matrix(0.13333333,0,0,-0.13333333,0,2878.6667)" />
    <path
       id="path27"
       d="m 10804.4,10775.6 -90.1,-156 -31.2,18"
       style="fill:none;stroke:#0000ff;stroke-width:7.205;stroke-linecap:round;stroke-linejoin:round;stroke-miterlimit:10;stroke-dasharray:none;stroke-opacity:1"
       transform="matrix(0.13333333,0,0,-0.13333333,0,2878.6667)" />
    <path
       id="path28"
       d="m 10714.3,10619.6 31.2,-18"
       style="fill:none;stroke:#0000ff;stroke-width:7.205;stroke-linecap:round;stroke-linejoin:round;stroke-miterlimit:10;stroke-dasharray:none;stroke-opacity:1"
       transform="matrix(0.13333333,0,0,-0.13333333,0,2878.6667)" />
    <path
       id="path29"
       d="m 10714.3,10619.6 -90,-156 -31.2,18"
       style="fill:none;stroke:#0000ff;stroke-width:7.205;stroke-linecap:round;stroke-linejoin:round;stroke-miterlimit:10;stroke-dasharray:none;stroke-opacity:1"
       transform="matrix(0.13333333,0,0,-0.13333333,0,2878.6667)" />
    <path
       id="path30"
       d="m 10624.3,10463.6 31.2,-18"
       style="fill:none;stroke:#0000ff;stroke-width:7.205;stroke-linecap:round;stroke-linejoin:round;stroke-miterlimit:10;stroke-dasharray:none;stroke-opacity:1"
       transform="matrix(0.13333333,0,0,-0.13333333,0,2878.6667)" />
    <path
       id="path31"
       d="m 10624.3,10463.6 -73.5,-127.2 -31.2,18"
       style="fill:none;stroke:#0000ff;stroke-width:7.205;stroke-linecap:round;stroke-linejoin:round;stroke-miterlimit:10;stroke-dasharray:none;stroke-opacity:1"
       transform="matrix(0.13333333,0,0,-0.13333333,0,2878.6667)" />
    <path
       id="path32"
       d="m 10550.8,10336.4 31.2,-18"
       style="fill:none;stroke:#0000ff;stroke-width:7.205;stroke-linecap:round;stroke-linejoin:round;stroke-miterlimit:10;stroke-dasharray:none;stroke-opacity:1"
       transform="matrix(0.13333333,0,0,-0.13333333,0,2878.6667)" />
    <path
       id="path33"
       d="m 10550.8,10336.4 90.1,156 31.2,-18"
       style="fill:none;stroke:#0000ff;stroke-width:7.205;stroke-linecap:round;stroke-linejoin:round;stroke-miterlimit:10;stroke-dasharray:none;stroke-opacity:1"
       transform="matrix(0.13333333,0,0,-0.13333333,0,2878.6667)" />
    <path
       id="path34"
       d="m 10640.9,10492.4 -31.2,18"
       style="fill:none;stroke:#0000ff;stroke-width:7.205;stroke-linecap:round;stroke-linejoin:round;stroke-miterlimit:10;stroke-dasharray:none;stroke-opacity:1"
       transform="matrix(0.13333333,0,0,-0.13333333,0,2878.6667)" />
    <path
       id="path35"
       d="m 10640.9,10492.4 90.1,156 31.2,-18"
       style="fill:none;stroke:#0000ff;stroke-width:7.205;stroke-linecap:round;stroke-linejoin:round;stroke-miterlimit:10;stroke-dasharray:none;stroke-opacity:1"
       transform="matrix(0.13333333,0,0,-0.13333333,0,2878.6667)" />
    <path
       id="path36"
       d="m 10731,10648.4 -31.2,18"
       style="fill:none;stroke:#0000ff;stroke-width:7.205;stroke-linecap:round;stroke-linejoin:round;stroke-miterlimit:10;stroke-dasharray:none;stroke-opacity:1"
       transform="matrix(0.13333333,0,0,-0.13333333,0,2878.6667)" />
    <path
       id="path37"
       d="m 10731,10648.4 73.4,127.2 31.2,-18"
       style="fill:none;stroke:#0000ff;stroke-width:7.205;stroke-linecap:round;stroke-linejoin:round;stroke-miterlimit:10;stroke-dasharray:none;stroke-opacity:1"
       transform="matrix(0.13333333,0,0,-0.13333333,0,2878.6667)" />
    <path
       id="path38"
       d="m 10804.4,10775.6 -31.2,18"
       style="fill:none;stroke:#0000ff;stroke-width:7.205;stroke-linecap:round;stroke-linejoin:round;stroke-miterlimit:10;stroke-dasharray:none;stroke-opacity:1"
       transform="matrix(0.13333333,0,0,-0.13333333,0,2878.6667)" />
    <path
       id="path39"
       d="m 10804.4,10775.6 -63.6,-38.2 38.4,-5.5 24,-30.5 1.2,74.2"
       style="fill:#0000ff;fill-opacity:1;fill-rule:evenodd;stroke:#0000ff;stroke-width:7.205;stroke-linecap:round;stroke-linejoin:round;stroke-miterlimit:10;stroke-dasharray:none;stroke-opacity:1"
       transform="matrix(0.13333333,0,0,-0.13333333,0,2878.6667)" />
  </g>
</svg>
