<svg version="1.1" xmlns="http://www.w3.org/2000/svg" xmlns:xlink="http://www.w3.org/1999/xlink" xmlns:ev="http://www.w3.org/2001/xml-events" width="838.0813480004529" height="838.0813480004533" viewBox="-419.04067400022586 -419.04067400022706 838.0813480004529 838.0813480004533"><path d="M 0,0 30.0,0.0 60.0,0.0 90.0,0.0 120.0,0.0 150.0,0.0 180.0,0.0 210.0,0.0 240.0,0.0 270.0,0.0 300.0,0.0 300.0,30.0 300.0,60.0 300.0,90.0 300.0,120.0 300.0,150.0 300.0,180.0 300.0,210.0 300.0,240.0 300.0,270.0 300.0,300.0 270.0,300.0 240.0,300.0 210.0,300.0 180.0,300.0 150.0,300.0 120.0,300.0 90.0,300.0 60.0,300.0 30.0,300.0 0.0,300.00000000000006 -4.824367949029909e-15,270.00000000000006 -9.648735898059818e-15,240.00000000000006 -1.4473103847089727e-14,210.00000000000006 -1.9297471796119635e-14,180.00000000000006 -2.4121839745149544e-14,150.00000000000006 -2.8946207694179453e-14,120.00000000000006 -3.377057564320936e-14,90.00000000000006 -3.859494359223927e-14,60.00000000000006 -4.341931154126918e-14,30.000000000000057 -5.510910596163089e-14,5.684341886080802e-14 24.27050983124837,17.633557568774243 48.541019662496794,35.26711513754843 72.81152949374521,52.90067270632262 97.08203932499364,70.5342302750968 121.35254915624208,88.167787843871 145.6230589874905,105.80134541264519 169.89356881873894,123.43490298141938 194.16407864998737,141.06846055019358 218.4345884812358,158.70201811896777 242.7050983124842,176.33557568774194 225.07154074371002,200.60608551899037 207.43798317493582,224.8765953502388 189.80442560616163,249.14710518148723 172.17086803738744,273.41761501273567 154.53731046861324,297.6881248439841 136.90375289983905,321.95863467523253 119.27019533106485,346.22914450648096 101.63663776229066,370.4996543377294 84.00308019351647,394.77016416897783 66.36952262474233,419.0406740002262 42.0990127934939,401.40711643145204 17.82850296224547,383.7735588626779 -6.4420068690029595,366.1400012939037 -30.71251670025139,348.50644372512954 -54.98302653149982,330.8728861563554 -79.25353636274825,313.2393285875812 -103.52404619399668,295.60577101880705 -127.79455602524511,277.9722134500329 -152.06506585649353,260.3386558812587 -176.33557568774197,242.70509831248435 -158.70201811896777,218.43458848123592 -141.06846055019358,194.1640786499875 -123.4349029814194,169.89356881873906 -105.80134541264522,145.62305898749062 -88.16778784387104,121.35254915624219 -70.53423027509686,97.08203932499376 -52.90067270632268,72.81152949374533 -35.2671151375485,48.54101966249689 -17.633557568774318,24.270509831248464 -1.1368683772161603e-13,5.684341886080802e-14 9.270509831248322,28.53169548885466 18.54101966249676,57.06339097770926 27.811529493745194,85.59508646656386 37.08203932499363,114.12678195541847 46.35254915624206,142.65847744427307 55.623058987490495,171.19017293312768 64.89356881873893,199.7218684219823 74.16407864998736,228.2535639108369 83.43458848123579,256.7852593996915 92.70509831248427,285.3169548885461 64.17340282362966,294.5874647197945 35.641707334775056,303.85797455104296 7.110011845920454,313.1284843822914 -21.42168364293415,322.3989942135398 -49.95337913178875,331.66950404478825 -78.48507462064336,340.9400138760367 -107.01677010949797,350.2105237072851 -135.54846559835258,359.48103353853355 -164.0801610872072,368.751543369782 -192.61185657606177,378.0220532010305 -201.8823664073102,349.49035771217586 -211.15287623855863,320.95866222332126 -220.42338606980707,292.42696673446665 -229.6938959010555,263.89527124561204 -238.96440573230393,235.36357575675743 -248.23491556355236,206.83188026790282 -257.5054253948008,178.3001847790482 -266.7759352260492,149.7684892901936 -276.04644505729766,121.236793801339 -285.3169548885462,92.70509831248444 -256.7852593996916,83.43458848123605 -228.253563910837,74.16407864998766 -199.72186842198238,64.89356881873927 -171.19017293312777,55.62305898749088 -142.65847744427316,46.35254915624249 -114.12678195541855,37.0820393249941 -85.59508646656394,27.81152949374571 -57.063390977709325,18.54101966249732 -28.53169548885471,9.270509831248928 -5.684341886080802e-14,5.258016244624741e-13 -9.270509831248459,28.53169548885514 -18.54101966249686,57.06339097770975 -27.81152949374526,85.59508646656437 -37.082039324993666,114.12678195541898 -46.35254915624207,142.6584774442736 -55.623058987490474,171.1901729331282 -64.89356881873887,199.7218684219828 -74.16407864998727,228.2535639108374 -83.43458848123568,256.78525939969205 -92.70509831248405,285.31695488854666 -121.23679380133865,276.04644505729823 -149.76848929019326,266.7759352260498 -178.30018477904787,257.50542539480136 -206.83188026790248,248.2349155635529 -235.3635757567571,238.96440573230444 -263.8952712456117,229.69389590105598 -292.4269667344663,220.42338606980752 -320.9586622233209,211.15287623855906 -349.4903577121755,201.8823664073106 -378.02205320103,192.61185657606217 -368.75154336978164,164.08016108720756 -359.48103353853327,135.54846559835295 -350.2105237072849,107.01677010949834 -340.9400138760365,78.48507462064373 -331.66950404478814,49.95337913178911 -322.39899421353977,21.421683642934497 -313.1284843822914,-7.11001184592012 -303.857974551043,-35.641707334774736 -294.58746471979464,-64.17340282362935 -285.31695488854604,-92.70509831248398 -256.7852593996914,-83.43458848123554 -228.25356391083682,-74.16407864998709 -199.7218684219822,-64.89356881873864 -171.1901729331276,-55.6230589874902 -142.658477444273,-46.35254915624175 -114.1267819554184,-37.0820393249933 -85.5950864665638,-27.811529493744857 -57.063390977709204,-18.54101966249641 -28.531695488854606,-9.270509831247963 -5.684341886080802e-14,4.689582056016661e-13 -24.270509831248464,17.633557568774687 -48.54101966249687,35.267115137548906 -72.81152949374528,52.90067270632312 -97.08203932499369,70.53423027509734 -121.35254915624209,88.16778784387157 -145.6230589874905,105.80134541264579 -169.8935688187389,123.43490298142001 -194.16407864998732,141.06846055019423 -218.43458848123572,158.70201811896845 -242.7050983124841,176.33557568774268 -260.33865588125826,152.06506585649424 -277.9722134500324,127.79455602524581 -295.6057710188066,103.52404619399738 -313.23932858758076,79.25353636274895 -330.8728861563549,54.983026531500514 -348.5064437251291,30.71251670025208 -366.14000129390325,6.442006869003649 -383.7735588626774,-17.828502962244784 -401.4071164314516,-42.099012793493216 -419.04067400022586,-66.36952262474165 -394.7701641689775,-84.00308019351587 -370.4996543377291,-101.63663776229009 -346.22914450648074,-119.27019533106431 -321.95863467523236,-136.90375289983854 -297.688124843984,-154.53731046861276 -273.4176150127356,-172.17086803738698 -249.1471051814872,-189.8044256061612 -224.8765953502388,-207.43798317493543 -200.6060855189904,-225.07154074370965 -176.33557568774185,-242.7050983124839 -158.70201811896757,-218.43458848123552 -141.0684605501933,-194.16407864998715 -123.43490298141903,-169.89356881873877 -105.80134541264476,-145.6230589874904 -88.1677878438705,-121.35254915624202 -70.53423027509623,-97.08203932499364 -52.90067270632197,-72.81152949374527 -35.267115137547705,-48.5410196624969 -17.633557568773437,-24.270509831248532 8.242295734817162e-13,-1.9895196601282805e-13 -29.999999999999176,-2.692392878877795e-13 -59.999999999999176,-3.3952660976273095e-13 -89.99999999999918,-4.098139316376824e-13 -119.99999999999918,-4.801012535126338e-13 -149.99999999999918,-5.503885753875852e-13 -179.99999999999918,-6.206758972625366e-13 -209.99999999999918,-6.90963219137488e-13 -239.99999999999918,-7.612505410124394e-13 -269.9999999999992,-8.315378628873908e-13 -299.9999999999992,-8.606326259343517e-13 -299.9999999999993,-30.00000000000086 -299.99999999999943,-60.00000000000086 -299.99999999999955,-90.00000000000085 -299.99999999999966,-120.00000000000085 -299.9999999999998,-150.00000000000085 -299.9999999999999,-180.00000000000085 -300.0,-210.00000000000085 -300.0000000000001,-240.00000000000085 -300.0000000000002,-270.00000000000085 -300.00000000000017,-300.00000000000085 -270.00000000000017,-300.0000000000009 -240.00000000000017,-300.00000000000097 -210.00000000000017,-300.000000000001 -180.00000000000017,-300.0000000000011 -150.00000000000017,-300.00000000000114 -120.00000000000017,-300.0000000000012 -90.00000000000017,-300.00000000000125 -60.00000000000017,-300.0000000000013 -30.00000000000017,-300.00000000000136 -1.7053025658242404e-13,-300.0000000000013 -1.7535462453145396e-13,-270.0000000000013 -1.8017899248048387e-13,-240.0000000000013 -1.8500336042951378e-13,-210.0000000000013 -1.898277283785437e-13,-180.0000000000013 -1.946520963275736e-13,-150.0000000000013 -1.9947646427660352e-13,-120.00000000000131 -2.0430083222563343e-13,-90.00000000000131 -2.0912520017466334e-13,-60.00000000000131 -2.1394956812369325e-13,-30.000000000001307 -2.441947587222417e-13,-1.3073986337985843e-12 -24.2705098312487,-17.633557568775462 -48.54101966249715,-35.26711513754962 -72.81152949374561,-52.900672706323775 -97.08203932499407,-70.53423027509793 -121.35254915624253,-88.16778784387208 -145.623058987491,-105.80134541264623 -169.89356881873945,-123.43490298142038 -194.1640786499879,-141.06846055019454 -218.43458848123637,-158.7020181189687 -242.70509831248475,-176.33557568774285 -225.07154074371056,-200.60608551899128 -207.43798317493636,-224.8765953502397 -189.80442560616217,-249.14710518148814 -172.17086803738798,-273.4176150127366 -154.53731046861378,-297.688124843985 -136.9037528998396,-321.95863467523344 -119.2701953310654,-346.2291445064819 -101.6366377622912,-370.4996543377303 -84.00308019351701,-394.77016416897874 -66.36952262474279,-419.04067400022706 -42.099012793494396,-401.40711643145283 -17.828502962246006,-383.7735588626786 6.442006869002384,-366.1400012939044 30.712516700250774,-348.50644372513017 54.98302653149916,-330.87288615635595 79.25353636274755,-313.2393285875817 103.52404619399594,-295.6057710188075 127.79455602524433,-277.9722134500333 152.0650658564927,-260.33865588125906 176.3355756877411,-242.7050983124847 158.702018118967,-218.4345884812362 141.0684605501929,-194.16407864998772 123.43490298141879,-169.89356881873923 105.80134541264468,-145.62305898749074 88.16778784387057,-121.35254915624225 70.53423027509646,-97.08203932499376 52.900672706322354,-72.81152949374527 35.267115137548245,-48.54101966249678 17.63355756877414,-24.270509831248294 2.842170943040401e-14,1.7053025658242404e-13 -9.270509831248349,-28.531695488854453 -18.541019662496726,-57.063390977709076 -27.811529493745105,-85.5950864665637 -37.08203932499348,-114.12678195541832 -46.35254915624186,-142.65847744427293 -55.62305898749023,-171.19017293312754 -64.89356881873861,-199.72186842198215 -74.16407864998699,-228.25356391083676 -83.43458848123537,-256.78525939969137 -92.70509831248373,-285.31695488854604 -64.17340282362915,-294.5874647197946 -35.64170733477457,-303.8579745510431 -7.110011845919999,-313.1284843822917 21.421683642934575,-322.3989942135402 49.95337913178915,-331.66950404478877 78.48507462064373,-340.9400138760373 107.01677010949831,-350.21052370728586 135.5484655983529,-359.4810335385344 164.08016108720747,-368.75154336978295 192.61185657606202,-378.0220532010313 201.8823664073105,-349.4903577121767 211.152876238559,-320.9586622233221 220.4233860698075,-292.4269667344675 229.69389590105598,-263.8952712456129 238.96440573230447,-235.3635757567583 248.23491556355296,-206.83188026790373 257.5054253948014,-178.30018477904915 266.7759352260499,-149.76848929019457 276.0464450572984,-121.23679380133999 285.31695488854683,-92.70509831248546 256.7852593996922,-83.43458848123703 228.2535639108376,-74.1640786499886 199.721868421983,-64.89356881874016 171.1901729331284,-55.623058987491724 142.65847744427379,-46.352549156243285 114.12678195541918,-37.082039324994845 85.59508646656457,-27.811529493746406 57.063390977709965,-18.541019662497966 28.531695488855362,-9.270509831249528 7.958078640513122e-13,-1.1368683772161603e-12 9.270509831249155,-28.531695488855764 18.541019662497515,-57.06339097771039 27.811529493745873,-85.59508646656502 37.082039324994234,-114.12678195541964 46.352549156242596,-142.65847744427427 55.62305898749096,-171.1901729331289 64.89356881873931,-199.72186842198354 74.16407864998767,-228.25356391083818 83.43458848123603,-256.7852593996928 92.70509831248441,-285.3169548885474 121.23679380133902,-276.04644505729897 149.76848929019363,-266.77593522605054 178.30018477904824,-257.5054253948021 206.83188026790285,-248.2349155635537 235.36357575675746,-238.9644057323053 263.8952712456121,-229.6938959010569 292.4269667344667,-220.4233860698085 320.9586622233213,-211.15287623856008 349.4903577121759,-201.88236640731168 378.02205320103053,-192.6118565760633 368.7515433697821,-164.0801610872087 359.48103353853367,-135.54846559835408 350.21052370728523,-107.01677010949949 340.9400138760368,-78.4850746206449 331.66950404478837,-49.9533791317903 322.39899421353994,-21.421683642935704 313.1284843822915,7.110011845918891 303.85797455104307,35.641707334773486 294.58746471979464,64.17340282362808 285.316954888546,92.70509831248268 256.7852593996913,83.43458848123436 228.25356391083668,74.16407864998604 199.72186842198204,64.89356881873772 171.1901729331274,55.62305898748941 142.65847744427276,46.352549156241096 114.12678195541812,37.082039324992785 85.59508646656349,27.811529493744473 57.06339097770885,18.54101966249616 28.531695488854208,9.27050983124785 -4.547473508864641e-13,-3.836930773104541e-13 24.27050983124799,-17.633557568774552 48.54101966249643,-35.26711513754872 72.81152949374487,-52.900672706322894 97.08203932499332,-70.53423027509706 121.35254915624176,-88.16778784387122 145.6230589874902,-105.80134541264539 169.89356881873863,-123.43490298141955 194.16407864998706,-141.06846055019372 218.4345884812355,-158.70201811896789 242.70509831248398,-176.33557568774205 260.33865588125826,-152.0650658564937 277.97221345003254,-127.79455602524536 295.6057710188068,-103.52404619399701 313.2393285875811,-79.25353636274866 330.8728861563554,-54.983026531500315 348.50644372512966,-30.712516700251967 366.14000129390394,-6.44200686900362 383.7735588626782,17.828502962244727 401.4071164314525,42.099012793493074 419.04067400022694,66.36952262474142 394.77016416897857,84.00308019351567 370.4996543377302,101.63663776228992 346.2291445064818,119.27019533106417 321.95863467523344,136.90375289983842 297.68812484398507,154.53731046861267 273.4176150127367,172.17086803738692 249.1471051814883,189.80442560616117 224.87659535023994,207.43798317493543 200.60608551899156,225.07154074370968 176.3355756877432,242.70509831248395 158.7020181189688,218.43458848123566 141.0684605501944,194.16407864998737 123.43490298142001,169.89356881873908 105.80134541264562,145.6230589874908 88.16778784387122,121.3525491562425 70.53423027509683,97.08203932499421 52.900672706322446,72.81152949374592 35.26711513754806,48.54101966249764 17.633557568773675,24.270509831249356 -6.821210263296962e-13,1.1084466677857563e-12" fill="none" stroke="#dc4abf" stroke-width="3" /></svg>