<svg version="1.1" xmlns="http://www.w3.org/2000/svg" xmlns:xlink="http://www.w3.org/1999/xlink" xmlns:ev="http://www.w3.org/2001/xml-events" width="4620.0" height="200.0" viewBox="0.0 0.0 4620.0 200.0"><path d="M 0.0,0.0 30.0,0.0 30.000000000000004,30.0 30.000000000000007,60.0 30.00000000000001,90.0 30.000000000000014,120.0 30.000000000000018,150.0 30.00000000000002,180.0 30.00000000000001,200.0 60.000000000000014,200.0 90.00000000000001,200.0 90.00000000000001,170.0 90.00000000000001,140.0 90.00000000000001,110.0 90.00000000000001,80.0 90.00000000000001,50.0 90.00000000000001,20.0 90.00000000000003,0.0 120.00000000000003,0.0 150.00000000000003,0.0 150.00000000000003,30.0 150.00000000000003,60.0 150.00000000000003,90.0 150.00000000000003,120.0 150.00000000000003,150.0 150.00000000000003,180.0 150.00000000000003,200.0 180.00000000000003,200.0 210.00000000000003,200.0 210.00000000000003,170.0 210.00000000000003,140.0 210.00000000000003,110.0 210.00000000000003,80.0 210.00000000000003,50.0 210.00000000000003,20.0 210.00000000000003,0.0 240.00000000000003,0.0 270.0,0.0 270.0,30.0 270.0,60.0 270.0,90.0 270.0,120.0 270.0,150.0 270.0,180.0 270.0,200.0 300.0,200.0 330.0,200.0 330.0,170.0 330.0,140.0 330.0,110.0 330.0,80.0 330.0,50.0 330.0,20.0 330.0,0.0 360.0,0.0 390.0,0.0 390.0,30.0 390.0,60.0 390.0,90.0 390.0,120.0 390.0,150.0 390.0,180.0 390.0,200.0 420.0,200.0 450.0,200.0 450.0,170.0 450.0,140.0 450.0,110.0 450.0,80.0 450.0,50.0 450.0,20.0 450.0,0.0 480.0,0.0 510.0,0.0 540.0,0.0 570.0,0.0 600.0,0.0 630.0,0.0 630.0,30.0 630.0,60.0 630.0,90.0 630.0,120.0 630.0,150.0 630.0,180.0 630.0,200.0 660.0,200.0 690.0,200.0 690.0,170.0 690.0,140.0 690.0,110.0 690.0,80.0 690.0,50.0 690.0,20.0 690.0,0.0 720.0,0.0 750.0,0.0 780.0,0.0 810.0,0.0 840.0,0.0 870.0,0.0 870.0,30.0 870.0,60.0 870.0,90.0 870.0,120.0 870.0,150.0 870.0,180.0 870.0,200.0 900.0,200.0 930.0,200.0 930.0,170.0 930.0,140.0 930.0,110.0 930.0,80.0 930.0,50.0 930.0,20.0 930.0,0.0 960.0,0.0 990.0,0.0 990.0,30.0 990.0,60.0 990.0,90.0 990.0,120.0 990.0,150.0 990.0,180.0 990.0,200.0 1020.0,200.0 1050.0,200.0 1050.0,170.0 1050.0,140.0 1050.0,110.0 1050.0,80.0 1050.0,50.0 1050.0,20.0 1050.0,0.0 1080.0,0.0 1110.0,0.0 1140.0,0.0 1170.0,0.0 1200.0,0.0 1230.0,0.0 1260.0,0.0 1290.0,0.0 1320.0,0.0 1350.0,0.0 1380.0,0.0 1410.0,0.0 1440.0,0.0 1470.0,0.0 1500.0,0.0 1530.0,0.0 1560.0,0.0 1590.0,0.0 1620.0,0.0 1650.0,0.0 1680.0,0.0 1710.0,0.0 1710.0,30.0 1710.0,60.0 1710.0,90.0 1710.0,120.0 1710.0,150.0 1710.0,180.0 1710.0,200.0 1740.0,200.0 1770.0,200.0 1770.0,170.0 1770.0,140.0 1770.0,110.0 1770.0,80.0 1770.0,50.0 1770.0,20.0 1770.0,0.0 1800.0,0.0 1830.0,0.0 1830.0,30.0 1830.0,60.0 1830.0,90.0 1830.0,120.0 1830.0,150.0 1830.0,180.0 1830.0,200.0 1860.0,200.0 1890.0,200.0 1890.0,170.0 1890.0,140.0 1890.0,110.0 1890.0,80.0 1890.0,50.0 1890.0,20.0 1890.0,0.0 1920.0,0.0 1950.0,0.0 1950.0,30.0 1950.0,60.0 1950.0,90.0 1950.0,120.0 1950.0,150.0 1950.0,180.0 1950.0,200.0 1980.0,200.0 2010.0,200.0 2010.0,170.0 2010.0,140.0 2010.0,110.0 2010.0,80.0 2010.0,50.0 2010.0,20.0 2010.0,0.0 2040.0,0.0 2070.0,0.0 2070.0,30.0 2070.0,60.0 2070.0,90.0 2070.0,120.0 2070.0,150.0 2070.0,180.0 2070.0,200.0 2100.0,200.0 2130.0,200.0 2160.0,200.0 2190.0,200.0 2220.0,200.0 2250.0,200.0 2250.0,170.0 2250.0,140.0 2250.0,110.0 2250.0,80.0 2250.0,50.0 2250.0,20.0 2250.0,0.0 2280.0,0.0 2310.0,0.0 2340.0,0.0 2370.0,0.0 2400.0,0.0 2430.0,0.0 2430.0,30.0 2430.0,60.0 2430.0,90.0 2430.0,120.0 2430.0,150.0 2430.0,180.0 2430.0,200.0 2460.0,200.0 2490.0,200.0 2490.0,170.0 2490.0,140.0 2490.0,110.0 2490.0,80.0 2490.0,50.0 2490.0,20.0 2490.0,0.0 2520.0,0.0 2550.0,0.0 2580.0,0.0 2610.0,0.0 2640.0,0.0 2670.0,0.0 2670.0,30.0 2670.0,60.0 2670.0,90.0 2670.0,120.0 2670.0,150.0 2670.0,180.0 2670.0,200.0 2700.0,200.0 2730.0,200.0 2730.0,170.0 2730.0,140.0 2730.0,110.0 2730.0,80.0 2730.0,50.0 2730.0,20.0 2730.0,0.0 2760.0,0.0 2790.0,0.0 2790.0,30.0 2790.0,60.0 2790.0,90.0 2790.0,120.0 2790.0,150.0 2790.0,180.0 2790.0,200.0 2820.0,200.0 2850.0,200.0 2880.0,200.0 2910.0,200.0 2940.0,200.0 2970.0,200.0 2970.0,170.0 2970.0,140.0 2970.0,110.0 2970.0,80.0 2970.0,50.0 2970.0,20.0 2970.0,0.0 3000.0,0.0 3030.0,0.0 3030.0,30.0 3030.0,60.0 3030.0,90.0 3030.0,120.0 3030.0,150.0 3030.0,180.0 3030.0,200.0 3060.0,200.0 3090.0,200.0 3090.0,170.0 3090.0,140.0 3090.0,110.0 3090.0,80.0 3090.0,50.0 3090.0,20.0 3090.0,0.0 3120.0,0.0 3150.0,0.0 3180.0,0.0 3210.0,0.0 3240.0,0.0 3270.0,0.0 3270.0,30.0 3270.0,60.0 3270.0,90.0 3270.0,120.0 3270.0,150.0 3270.0,180.0 3270.0,200.0 3300.0,200.0 3330.0,200.0 3360.0,200.0 3390.0,200.0 3420.0,200.0 3450.0,200.0 3450.0,170.0 3450.0,140.0 3450.0,110.0 3450.0,80.0 3450.0,50.0 3450.0,20.0 3450.0,0.0 3480.0,0.0 3510.0,0.0 3510.0,30.0 3510.0,60.0 3510.0,90.0 3510.0,120.0 3510.0,150.0 3510.0,180.0 3510.0,200.0 3540.0,200.0 3570.0,200.0 3570.0,170.0 3570.0,140.0 3570.0,110.0 3570.0,80.0 3570.0,50.0 3570.0,20.0 3570.0,0.0 3600.0,0.0 3630.0,0.0 3630.0,30.0 3630.0,60.0 3630.0,90.0 3630.0,120.0 3630.0,150.0 3630.0,180.0 3630.0,200.0 3660.0,200.0 3690.0,200.0 3690.0,170.0 3690.0,140.0 3690.0,110.0 3690.0,80.0 3690.0,50.0 3690.0,20.0 3690.0,0.0 3720.0,0.0 3750.0,0.0 3780.0,0.0 3810.0,0.0 3840.0,0.0 3870.0,0.0 3870.0,30.0 3870.0,60.0 3870.0,90.0 3870.0,120.0 3870.0,150.0 3870.0,180.0 3870.0,200.0 3900.0,200.0 3930.0,200.0 3930.0,170.0 3930.0,140.0 3930.0,110.0 3930.0,80.0 3930.0,50.0 3930.0,20.0 3930.0,0.0 3960.0,0.0 3990.0,0.0 4020.0,0.0 4050.0,0.0 4080.0,0.0 4110.0,0.0 4110.0,30.0 4110.0,60.0 4110.0,90.0 4110.0,120.0 4110.0,150.0 4110.0,180.0 4110.0,200.0 4140.0,200.0 4170.0,200.0 4200.0,200.0 4230.0,200.0 4260.0,200.0 4290.0,200.0 4290.0,170.0 4290.0,140.0 4290.0,110.0 4290.0,80.0 4290.0,50.0 4290.0,20.0 4290.0,0.0 4320.0,0.0 4350.0,0.0 4350.0,30.0 4350.0,60.0 4350.0,90.0 4350.0,120.0 4350.0,150.0 4350.0,180.0 4350.0,200.0 4380.0,200.0 4410.0,200.0 4410.0,170.0 4410.0,140.0 4410.0,110.0 4410.0,80.0 4410.0,50.0 4410.0,20.0 4410.0,0.0 4440.0,0.0 4470.0,0.0 4500.0,0.0 4530.0,0.0 4560.0,0.0 4590.0,0.0 4620.0,0.0" fill="none" stroke="#de4c4c" stroke-width="3" /></svg>