<svg version="1.1" xmlns="http://www.w3.org/2000/svg" xmlns:xlink="http://www.w3.org/1999/xlink" xmlns:ev="http://www.w3.org/2001/xml-events" width="848.5281374238554" height="848.5281374238568" viewBox="-424.2640687119276 -424.2640687119284 848.5281374238554 848.5281374238568"><path d="M 0,0 30.0,0.0 60.0,0.0 90.0,0.0 120.0,0.0 150.0,0.0 180.0,0.0 210.0,0.0 240.0,0.0 270.0,0.0 300.0,0.0 300.0,30.0 300.0,60.0 300.0,90.0 300.0,120.0 300.0,150.0 300.0,180.0 300.0,210.0 300.0,240.0 300.0,270.0 300.0,300.0 270.0,300.0 240.0,300.0 210.0,300.0 180.0,300.0 150.0,300.0 120.0,300.0 90.0,300.0 60.0,300.0 30.0,300.0 0.0,300.00000000000006 -4.824367949029909e-15,270.00000000000006 -9.648735898059818e-15,240.00000000000006 -1.4473103847089727e-14,210.00000000000006 -1.9297471796119635e-14,180.00000000000006 -2.4121839745149544e-14,150.00000000000006 -2.8946207694179453e-14,120.00000000000006 -3.377057564320936e-14,90.00000000000006 -3.859494359223927e-14,60.00000000000006 -4.341931154126918e-14,30.000000000000057 -5.510910596163089e-14,5.684341886080802e-14 21.213203435596373,21.213203435596476 42.4264068711928,42.426406871192896 63.63961030678924,63.639610306789315 84.85281374238566,84.85281374238573 106.06601717798209,106.06601717798216 127.27922061357852,127.27922061357859 148.49242404917496,148.492424049175 169.70562748477138,169.70562748477144 190.9188309203678,190.91883092036787 212.13203435596424,212.13203435596427 190.9188309203678,233.3452377915607 169.70562748477138,254.55844122715712 148.49242404917496,275.77164466275354 127.27922061357853,296.98484809834997 106.0660171779821,318.1980515339464 84.85281374238568,339.4112549695428 63.639610306789244,360.62445840513925 42.42640687119281,381.8376618407357 21.213203435596377,403.0508652763321 -1.4210854715202004e-13,424.2640687119284 -21.213203435596554,403.050865276332 -42.42640687119297,381.83766184073556 -63.63961030678938,360.62445840513914 -84.85281374238579,339.4112549695427 -106.0660171779822,318.1980515339463 -127.27922061357862,296.98484809834986 -148.49242404917504,275.77164466275343 -169.70562748477147,254.558441227157 -190.9188309203679,233.34523779156058 -212.1320343559643,212.13203435596404 -190.91883092036787,190.9188309203676 -169.70562748477144,169.70562748477118 -148.492424049175,148.49242404917476 -127.27922061357859,127.27922061357835 -106.06601717798216,106.06601717798193 -84.85281374238573,84.85281374238552 -63.6396103067893,63.63961030678911 -42.42640687119287,42.4264068711927 -21.213203435596434,21.21320343559628 5.684341886080802e-14,-1.4210854715202004e-13 7.200306535503092e-14,29.999999999999858 8.716271184925383e-14,59.99999999999986 1.0232235834347673e-13,89.99999999999986 1.1748200483769964e-13,119.99999999999986 1.3264165133192254e-13,149.99999999999986 1.4780129782614545e-13,179.99999999999986 1.6296094432036835e-13,209.99999999999986 1.7812059081459126e-13,239.99999999999986 1.9328023730881417e-13,269.9999999999999 2.221707367457007e-13,299.9999999999999 -29.999999999999776,299.9999999999999 -59.99999999999977,299.9999999999999 -89.99999999999977,299.9999999999999 -119.99999999999977,299.9999999999999 -149.99999999999977,299.9999999999999 -179.99999999999977,299.9999999999999 -209.99999999999977,299.9999999999999 -239.99999999999977,299.9999999999999 -269.9999999999998,299.9999999999999 -299.9999999999998,300.00000000000006 -299.9999999999997,270.00000000000006 -299.99999999999966,240.00000000000006 -299.9999999999996,210.00000000000006 -299.99999999999955,180.00000000000006 -299.9999999999995,150.00000000000006 -299.99999999999943,120.00000000000006 -299.9999999999994,90.00000000000006 -299.9999999999993,60.00000000000006 -299.99999999999926,30.000000000000057 -299.99999999999943,5.684341886080802e-14 -269.99999999999943,3.479977647615566e-14 -239.99999999999943,1.2756134091503308e-14 -209.99999999999943,-9.287508293149047e-15 -179.99999999999943,-3.1331150677801405e-14 -149.99999999999943,-5.337479306245376e-14 -119.99999999999943,-7.541843544710611e-14 -89.99999999999943,-9.746207783175846e-14 -59.99999999999943,-1.1950572021641083e-13 -29.99999999999943,-1.4154936260106318e-13 5.684341886080801e-13,-1.6359300498571555e-13 -21.21320343559582,21.2132034355963 -42.426406871192206,42.42640687119276 -63.6396103067886,63.63961030678922 -84.85281374238498,84.85281374238568 -106.06601717798137,106.06601717798213 -127.27922061357775,127.27922061357859 -148.49242404917413,148.49242404917504 -169.70562748477053,169.7056274847715 -190.91883092036693,190.91883092036795 -212.13203435596333,212.13203435596444 -233.34523779155975,190.918830920368 -254.55844122715618,169.70562748477158 -275.7716446627526,148.49242404917516 -296.984848098349,127.27922061357873 -318.19805153394543,106.0660171779823 -339.41125496954186,84.85281374238588 -360.6244584051383,63.63961030678945 -381.8376618407347,42.426406871193024 -403.05086527633114,21.213203435596597 -424.2640687119276,1.7053025658242404e-13 -403.05086527633125,-21.21320343559629 -381.8376618407349,-42.426406871192754 -360.6244584051385,-63.639610306789216 -339.41125496954214,-84.85281374238568 -318.1980515339458,-106.06601717798213 -296.9848480983494,-127.27922061357859 -275.77164466275303,-148.49242404917504 -254.55844122715664,-169.7056274847715 -233.34523779156024,-190.91883092036795 -212.13203435596375,-212.13203435596446 -190.91883092036733,-190.91883092036804 -169.7056274847709,-169.7056274847716 -148.49242404917447,-148.49242404917518 -127.27922061357805,-127.27922061357876 -106.06601717798162,-106.06601717798233 -84.8528137423852,-84.8528137423859 -63.63961030678877,-63.63961030678948 -42.42640687119234,-42.42640687119305 -21.213203435595915,-21.21320343559663 5.115907697472721e-13,-2.2737367544323206e-13 -29.99999999999949,-1.9705438245478625e-13 -59.99999999999949,-1.6673508946634044e-13 -89.99999999999949,-1.3641579647789463e-13 -119.99999999999949,-1.0609650348944881e-13 -149.9999999999995,-7.5777210501003e-14 -179.9999999999995,-4.5457917512557185e-14 -209.9999999999995,-1.5138624524111367e-14 -239.9999999999995,1.518066846433445e-14 -269.9999999999995,4.549996145278027e-14 -299.9999999999995,1.032809603265533e-13 -299.9999999999995,-29.999999999999897 -299.9999999999995,-59.9999999999999 -299.9999999999995,-89.9999999999999 -299.9999999999995,-119.9999999999999 -299.9999999999995,-149.9999999999999 -299.9999999999995,-179.9999999999999 -299.9999999999995,-209.9999999999999 -299.9999999999995,-239.9999999999999 -299.9999999999995,-269.9999999999999 -299.9999999999993,-299.9999999999999 -269.9999999999993,-299.99999999999994 -239.99999999999932,-300.0 -209.99999999999932,-300.00000000000006 -179.99999999999932,-300.0000000000001 -149.99999999999932,-300.00000000000017 -119.99999999999932,-300.0000000000002 -89.99999999999932,-300.0000000000003 -59.99999999999932,-300.00000000000034 -29.999999999999318,-300.0000000000004 6.821210263296962e-13,-300.0000000000002 6.706353202329153e-13,-270.0000000000002 6.591496141361344e-13,-240.00000000000023 6.476639080393535e-13,-210.00000000000023 6.361782019425727e-13,-180.00000000000023 6.246924958457918e-13,-150.00000000000023 6.132067897490109e-13,-120.00000000000023 6.0172108365223e-13,-90.00000000000023 5.902353775554492e-13,-60.00000000000023 5.787496714586683e-13,-30.000000000000227 5.349777162410373e-13,-2.2737367544323206e-13 -21.213203435595748,-21.213203435596796 -42.42640687119203,-42.426406871193365 -63.63961030678831,-63.63961030678993 -84.8528137423846,-84.8528137423865 -106.06601717798088,-106.06601717798307 -127.27922061357717,-127.27922061357964 -148.49242404917345,-148.4924240491762 -169.70562748476974,-169.70562748477278 -190.91883092036602,-190.91883092036934 -212.1320343559623,-212.13203435596589 -190.9188309203657,-233.34523779156214 -169.7056274847691,-254.5584412271584 -148.4924240491725,-275.7716446627546 -127.27922061357592,-296.9848480983509 -106.06601717797932,-318.19805153394714 -84.85281374238272,-339.4112549695434 -63.639610306786125,-360.62445840513965 -42.42640687118953,-381.8376618407359 -21.213203435592927,-403.05086527633216 3.723243935382925e-12,-424.2640687119284 21.213203435599933,-403.05086527633176 42.42640687119614,-381.8376618407351 63.63961030679235,-360.62445840513845 84.85281374238856,-339.4112549695418 106.06601717798478,-318.19805153394515 127.27922061358099,-296.9848480983485 148.4924240491772,-275.77164466275184 169.7056274847734,-254.55844122715519 190.9188309203696,-233.34523779155853 212.13203435596586,-212.13203435596202 190.91883092036932,-190.9188309203657 169.70562748477278,-169.7056274847694 148.49242404917624,-148.49242404917308 127.27922061357971,-127.27922061357675 106.06601717798318,-106.06601717798043 84.85281374238666,-84.8528137423841 63.63961030679013,-63.63961030678777 42.426406871193606,-42.426406871191446 21.21320343559708,-21.213203435595123 6.252776074688882e-13,1.2505552149377763e-12 7.336959880316242e-13,-29.99999999999875 8.421143685943602e-13,-59.99999999999875 9.505327491570963e-13,-89.99999999999875 1.0589511297198323e-12,-119.99999999999875 1.1673695102825683e-12,-149.99999999999875 1.2757878908453043e-12,-179.99999999999875 1.3842062714080404e-12,-209.99999999999875 1.4926246519707764e-12,-239.99999999999875 1.6010430325335124e-12,-269.99999999999875 1.7280168092744356e-12,-299.99999999999875 30.000000000001727,-299.9999999999986 60.00000000000173,-299.9999999999984 90.00000000000173,-299.99999999999824 120.00000000000173,-299.99999999999807 150.00000000000173,-299.9999999999979 180.00000000000173,-299.9999999999977 210.00000000000173,-299.99999999999756 240.00000000000173,-299.9999999999974 270.0000000000017,-299.9999999999972 300.0000000000017,-299.99999999999716 300.0000000000015,-269.99999999999716 300.00000000000125,-239.99999999999716 300.000000000001,-209.99999999999716 300.0000000000008,-179.99999999999716 300.00000000000057,-149.99999999999716 300.00000000000034,-119.99999999999716 300.0000000000001,-89.99999999999716 299.9999999999999,-59.99999999999716 299.99999999999966,-29.999999999997158 299.99999999999955,2.8421709430404007e-12 269.99999999999955,2.572043476732921e-12 239.99999999999955,2.3019160104254416e-12 209.99999999999955,2.031788544117962e-12 179.99999999999955,1.7616610778104824e-12 149.99999999999955,1.4915336115030029e-12 119.99999999999955,1.2214061451955233e-12 89.99999999999955,9.512786788880437e-13 59.999999999999545,6.811512125805642e-13 29.999999999999545,4.1102374627308453e-13 -4.547473508864641e-13,1.9581969173625898e-13 21.213203435596288,-21.21320343559591 42.42640687119303,-42.426406871192015 63.63961030678978,-63.63961030678812 84.85281374238652,-84.85281374238423 106.06601717798326,-106.06601717798034 127.27922061358,-127.27922061357646 148.49242404917675,-148.49242404917257 169.7056274847735,-169.70562748476868 190.91883092037023,-190.9188309203648 212.132034355967,-212.13203435596088 233.34523779156308,-190.91883092036412 254.55844122715916,-169.70562748476735 275.77164466275525,-148.49242404917058 296.98484809835134,-127.2792206135738 318.1980515339474,-106.06601717797702 339.4112549695435,-84.85281374238023 360.6244584051396,-63.63961030678345 381.8376618407357,-42.42640687118667 403.05086527633176,-21.213203435589893 424.26406871192773,6.906475391588174e-12 403.0508652763309,21.21320343560294 381.8376618407341,42.42640687119897 360.62445840513726,63.63961030679501 339.41125496954044,84.85281374239104 318.1980515339436,106.06601717798706 296.9848480983468,127.27922061358309 275.77164466274996,148.49242404917914 254.55844122715314,169.70562748477516 233.34523779155631,190.9188309203712 212.13203435595958,212.13203435596728 190.91883092036358,190.91883092037043 169.70562748476758,169.70562748477357 148.49242404917158,148.49242404917672 127.27922061357557,127.27922061357987 106.06601717797957,106.06601717798301 84.85281374238357,84.85281374238616 63.639610306787574,63.63961030678931 42.426406871191574,42.426406871192455 21.213203435595574,21.213203435595606 -4.263256414560601e-13,-1.2505552149377763e-12" fill="none" stroke="#5ff506" stroke-width="3" /></svg>