<svg version="1.1" xmlns="http://www.w3.org/2000/svg" xmlns:xlink="http://www.w3.org/1999/xlink" xmlns:ev="http://www.w3.org/2001/xml-events" width="515.3679833442449" height="956.6264590910681" viewBox="-15.367983344244838 0 515.3679833442449 956.6264590910681"><path d="M 0,0 10.0,0.0 20.0,0.0 30.0,0.0 40.0,0.0 50.0,0.0 60.0,0.0 70.0,0.0 80.0,0.0 90.0,0.0 100.0,0.0 110.0,0.0 120.0,0.0 130.0,0.0 140.0,0.0 150.0,0.0 160.0,0.0 170.0,0.0 180.0,0.0 190.0,0.0 200.0,0.0 210.0,0.0 220.0,0.0 230.0,0.0 240.0,0.0 250.0,0.0 260.0,0.0 270.0,0.0 280.0,0.0 290.0,0.0 300.0,0.0 310.0,0.0 320.0,0.0 330.0,0.0 340.0,0.0 350.0,0.0 360.0,0.0 370.0,0.0 380.0,0.0 390.0,0.0 400.0,0.0 410.0,0.0 420.0,0.0 430.0,0.0 440.0,0.0 450.0,0.0 460.0,0.0 470.0,0.0 480.0,0.0 490.0,0.0 500.0,0.0 500.0,10.0 500.0,20.0 490.0,20.0 480.0,20.0 470.0,20.0 460.0,20.0 450.0,20.0 440.0,20.0 430.0,20.0 420.0,20.0 410.0,20.0 400.0,20.0 390.0,20.0 380.0,20.0 370.0,20.0 360.0,20.0 350.0,20.0 340.0,20.0 330.0,20.0 320.0,20.0 310.0,20.0 300.0,20.0 290.0,20.0 280.0,20.0 270.0,20.0 260.0,20.0 250.0,20.0 240.0,20.0 230.0,20.0 220.0,20.0 210.0,20.0 200.0,20.0 190.0,20.0 180.0,20.0 170.0,20.0 160.0,20.0 150.0,20.0 140.0,20.0 130.0,20.0 120.0,20.0 110.0,20.0 100.0,20.0 90.0,20.0 80.0,20.0 70.0,20.0 60.0,20.0 50.0,20.0 40.0,20.0 30.0,20.0 20.0,20.0 10.0,20.0 0.0,20.0 6.123233995736766e-16,30.0 1.2246467991473533e-15,40.0 9.999965258056893,39.97364022657181 19.996879881781922,40.22203105964068 29.995864811180184,40.3645104675087 39.99514202218349,40.48474048668015 49.98654577695646,40.0701913229992 59.98577591184639,40.19427480098549 69.98530532441833,40.2912878264435 79.98484471760145,40.195309057025185 89.98424521953771,40.08581201653259 99.98424521140718,40.085408766619146 109.97971406775807,40.38641099538078 119.97801855801993,40.20227159164156 129.97773980825835,40.12760622128687 139.97491544061128,40.36526012066337 149.97461227084,40.28739290346827 159.97441018963775,40.2238194561148 169.97439562860254,40.24088463973951 179.97204894882896,40.02425572069716 189.97197526806974,40.06264334572423 199.96974680828575,39.85154093065771 209.9685533774537,40.00603103507759 219.96855336204368,40.0065861933778 229.96061294670508,40.40501467701835 239.96049281894287,40.45403039708686 249.95765223183096,40.69236560913736 259.95506538453054,40.46492274987427 269.9550426630965,40.44360542911281 279.95488361802074,40.500004686370666 289.95024230591486,40.80464332531736 299.94593916488213,40.51131023200609 309.94444455508795,40.68419736867468 319.943911936913,40.78740628213059 329.940330209438,41.055028629345706 339.9395572631621,41.17936015420035 349.93955313345134,41.1884482892041 359.93913867635416,41.09740450759959 369.9367658726787,40.87957328092982 379.9367077059519,40.91368092160775 389.9366517361306,40.880223586183895 399.9304359304635,41.23275369426359 409.92986728924285,41.126111765078456 419.92971094333626,41.18203039960867 429.9259616944358,40.90822221649093 439.9257234987987,40.83920152390823 449.92561962715666,40.8847802695182 459.9245856057591,41.02858346402624 469.92139186441847,41.28129798048391 479.9213888958282,41.27359267088941 489.9194877837379,41.078609011115624 499.9191685052754,41.15851813018973 499.82893845908444,51.15811104884219 499.7431289434099,61.157742878415704 489.7438758603834,61.27996309599777 479.7458322936435,61.08216310213732 469.74584406054174,61.06682237771118 459.74658999003043,60.94468297635983 449.74906225851163,60.722333572240835 439.74962764255054,60.615997495958766 429.7497526746945,60.565991223892674 419.75681063306916,60.19034597539723 409.75690109086094,60.14781189902811 399.7570345051153,60.19946717260868 389.7570535994696,60.17992525045142 379.76040207633065,59.921162183295436 369.7604235406633,59.90044296052554 359.76083439539053,59.80979570053979 349.7630119861967,59.601116343100195 339.7634125919131,59.690625861270156 329.76795263672875,59.991923528546415 319.76808918761003,59.939664567785854 309.7681695731087,59.89956838951622 299.76873261714593,60.00568419289094 289.7698883004041,59.85365679549423 279.77045052464035,59.74761827122567 269.77195835808163,59.921268480739144 259.7723673808755,59.83082353296684 249.7724259544148,59.86505023826409 239.77577559025838,60.12385807587872 229.77608807114098,60.04480417017005 219.77609118488292,60.05269561040714 209.7769371665049,60.18276834680826 199.7773536854208,60.09149839101692 189.77771653594596,60.00631107480806 179.7782245561261,60.107108621992346 169.77846867839108,60.03723455166776 159.78003796053224,59.86008156643564 149.78081151695218,59.98446215177465 139.78103248136986,59.917984790755 129.78103249293642,59.91750382156257 119.78885222537747,59.522113507308866 109.79413408891466,59.8470894643601 99.7948703702567,59.72574250423871 89.79501321418178,59.779192088869145 79.79502850528513,59.79667985125065 69.8005355445934,59.464850891267574 59.80053565653866,59.466347188429715 49.8081833640302,59.075328439006064 39.80848111819587,59.15249705086236 29.80866824209973,59.091321540551114 19.809035199164335,59.17698954294726 9.809761778960636,59.29753442258899 -0.19023227469302562,59.28662906191537 -0.14091443972004863,69.28650744873356 -0.1762558146313381,79.28644499789952 9.79676026681138,78.5523126942342 19.772340645163244,79.25073671661694 29.772170742430042,79.19244412877713 39.75366960396099,79.80045767900157 49.7474909246727,79.44898163474241 59.74696956346037,79.55109408466465 69.68600541630062,80.65362132512459 79.68139734214725,80.35007520223749 89.66777842229594,79.82835408703495 99.66595885950335,79.63759784193925 109.66459880210341,79.8025199394355 119.66167022883126,80.0445176437671 129.6515279022598,80.49478830086196 139.6511254726137,80.40507525291278 149.63548922671168,79.8460757664601 159.63433626626312,79.69422755391409 169.62496676985666,80.12701172722277 179.62364572372064,80.28955149945483 189.60032348007022,79.60698212865108 199.6003159949603,79.59474684596864 209.58840858526935,80.08260584958953 219.56087037334555,80.82422966619752 229.55894834846822,81.02028272882808 239.55836551182674,81.12824750609927 249.5489962726429,80.69546927070195 259.5446645690238,80.40116448187601 269.5446511591728,80.41754119825328 279.5431085676866,80.59318131364695 289.5410578698713,80.79568995777142 299.53966468314155,80.62877143385992 309.5315814033472,80.22677609001325 319.5278960965109,79.95531236271253 329.51974204978353,79.55156188770404 339.517220073576,79.77613518038527 349.4846641362773,78.96987290486861 359.48398744092714,78.85353955158564 369.482754432745,79.0105702598333 379.468644688513,79.54160302695618 389.4686137172007,79.56649128296692 399.4625063361177,79.91593415606083 409.46153642404414,79.77665996339735 419.45816061653466,79.51684319312679 429.45538990806773,79.28145735558896 439.4411813203878,79.8143455893072 449.43515978655796,80.16132457675027 459.43371254305185,80.33145034084488 469.36622024843786,81.49131700665087 479.36621387605913,81.48002774034495 489.3638694267612,81.69655369610147 499.36329301960103,81.80392134000729 499.4407449623297,91.80362139533733 498.63312916465003,101.77095587970868 488.6469547436408,101.24529397964301 478.6588844987148,101.73361025259021 468.6598585097834,101.87317841756642 458.66097626546286,101.72366633039255 448.6647129327031,101.45031786758037 438.67578866253496,101.92084090085967 428.7067678304239,102.70736721887886 418.728900687104,103.37232381164027 408.72893149512055,103.39714636957342 398.72899638402055,103.43317099710862 388.7297224394913,103.31266961845192 378.7333313251067,103.5813044789077 368.742460890828,104.00851398893302 358.76738475377874,104.71410314706303 348.7680449396883,104.59919761044195 338.768879213864,104.47002800294442 328.7748858898903,104.12347722691139 318.7786955456866,103.84747251236911 308.7789171384009,103.91404431708125 298.7900062399284,103.44323749642456 288.79011953262653,103.49083834860106 278.7927799720106,103.72149330680419 268.7944309646649,103.90319946330385 258.796514503849,104.10732305955412 248.82507654256213,104.86258790330608 238.8252254259966,104.80802008749085 228.82560584693164,104.72079466699599 218.8264053748656,104.84724592019056 208.8295096900451,105.0963978152608 198.8303518727917,104.96661744054649 188.84830457649676,104.36767522753219 178.84831349238348,104.35432166415953 168.84988340001158,104.53150994806097 158.8520144874478,104.7379493028134 148.8520441325608,104.7622988691538 138.86178806488834,105.20364193563817 128.8618836551446,105.24736602496516 118.86190646043767,105.22600940206993 108.88263058185741,104.58253994732766 98.88805315143128,104.25326500565019 88.89456648343608,103.89239907957493 78.89766303763089,104.14123938026665 68.90039712776552,103.90741395939973 58.9083051257993,104.30502862744252 48.90889802409559,104.19613595368817 38.90996624288664,104.04997428043029 28.913544573730945,104.31746972419431 18.93788897197237,103.62012094839929 8.939850113244269,103.42208312533789 -1.0381014079893145,104.08577238991313 -1.231073935802059,114.08391029671905 -1.088865176439672,124.08289907902902 8.911134797598196,124.08361966394477 18.908161221652286,124.32746936512214 28.906070641362398,124.53193754179465 38.84912590879524,123.46626782336587 48.830739748649236,122.8601447731235 58.82255802915111,123.26457950139066 68.79935791107985,123.94536148994985 78.74974951333161,124.94020165894062 88.70521290742654,125.88293630285466 98.64735024537518,124.80873652936396 108.63923492692804,125.2115274311347 118.58893985626449,124.20984294032033 128.55327002493766,125.05371751018824 138.55239019112082,125.18636705684894 148.53454431789436,124.5892079580002 158.47922004671418,125.63964817458668 168.4735359881032,125.97676664589436 178.4245509096293,124.98818077124042 188.423370370039,125.1418342714664 198.41604355568282,124.75910381159237 208.41587376217782,124.8173776588148 218.41290746175466,124.5738264126152 228.38705907015455,125.2923663855142 238.35930345630797,124.54782498113737 248.35792248313828,124.71401028827 258.3128402515305,125.6624891886938 268.30346746522713,125.22962907625121 278.30285921775305,125.33992222887791 288.302299881466,125.44568806874835 298.2957799465718,125.08463933473512 308.29002643475184,125.4238105798336 318.28989732474145,125.47462576986794 328.27769032566306,124.98067134814384 338.2351619373141,125.90195257728254 348.22657312530015,126.31632254794498 358.22619034156344,126.22882667255423 368.22063434068326,125.89552628482963 378.21220215842953,125.48495041683765 388.19143909842774,126.12902346811023 398.1911449873965,126.05232839575741 408.18825164043557,126.29286647540815 418.1877852466591,126.19628667417166 428.18257728050605,126.5189818866379 438.1823928954972,126.45825572934488 448.17439584339996,126.8581020612049 458.17393572819907,126.76217452443043 468.16450330777946,127.19640883656758 478.1583066534108,127.5483956102497 488.15812025766087,127.4873392407585 498.14798894329215,127.03731297058756 498.64003585336394,137.02520012645235 499.02778751465456,147.01767973109335 489.04107037541087,147.53292800206194 479.0513440178009,147.0797533116031 469.0513737880158,147.1041542011596 459.0851474228743,146.28297697378537 449.15627959192955,145.0923537774589 439.15628763467055,145.07967092466367 429.18911840203214,145.88932362054385 419.19111291145157,146.08903894374347 409.1911907357026,146.1284911802392 399.221544422815,146.90704907527723 389.2224045311828,147.03820328821146 379.2235331839879,146.88796420459627 369.2264264005002,147.12849686255416 359.2345194589235,147.53073518851386 349.2424101542014,147.9279147983715 339.28613676898703,146.99377333217265 329.2864861354718,147.07736285088612 319.2959263519572,147.51177649249973 309.2978324027526,147.7070132279733 299.310314469746,147.20752795504538 289.3167399593147,147.56595298829265 279.3199224203027,147.3136850915996 269.3271841513211,146.93265768099667 259.3348756653867,146.5405210696944 249.36171918584157,145.8082985389653 239.3658727736427,146.0964903218656 229.3834558530616,145.50374043895008 219.39207155926962,145.91875838285972 209.39422694688048,146.12637125943888 199.41383122988918,145.50051078596107 189.42310038969487,145.07004908175253 179.42310045000525,145.06895080682966 169.44255188633068,145.69236909989894 159.44687585633335,145.39832709042258 149.45232242036784,145.72832953833802 139.4640205984172,146.2118858573099 129.46977838439972,146.5511830243347 119.47061124835263,146.4221226299616 109.5322161570115,147.5304109536421 99.53400017275973,147.34152704153672 89.5344147557302,147.25046943597712 79.53909794395503,147.55647896564005 69.55383318262852,147.01381180594532 59.55895752866718,146.69371703583698 49.563995819114616,147.01111335682725 39.57014891750876,147.3618612823564 29.576772275046153,146.99796118358913 19.608262787537022,147.79094201402603 9.609779346621153,147.96509390672657 -0.3847624401255647,148.2954489777846 -0.42135012390107995,158.29538204463037 -0.5318934610295363,168.29477103449452 9.468073558653034,168.32045381590308 19.436705113629152,169.11189864729337 29.435437621284045,169.27110995457195 39.43301978460771,169.0512216020098 49.397311392139216,168.20689183226511 59.384615989314696,168.71062478059943 69.37781919062888,169.07925708689353 79.32656914914583,170.09038233279995 89.31295733278874,169.56879720494726 99.31294032508083,169.5872404657481 109.31285637671316,169.54626534761263 119.31266932605196,169.48510181079524 129.31266669521784,169.49235554606457 139.24111480411457,168.29823739908537 149.2245335515978,168.87386758627173 159.21413747147508,169.3297332726008 169.18301027666453,170.1181335478128 179.05994016248187,171.68218470766925 189.0574609211086,171.4595220012558 199.057429086675,171.4342893307972 209.05742675408192,171.44111954722555 218.9656440921436,172.7928699612199 228.89269491910053,171.58719094961958 238.88694501171167,171.92625596748817 248.83427191408953,170.90122548148804 258.6723010439866,169.10869017101385 268.57294712054806,167.70255814781424 278.5264550888478,166.739397141028 288.49861829519324,167.48502505494395 298.4802481857755,166.8791663854227 308.47898741327555,166.7203776564411 318.4460151910724,165.90898547221326 328.43692043826945,166.33538005652443 338.4073428078282,165.5668244159863 348.3650623174781,166.4854223515044 358.341037425327,165.7926592985208 368.32678566674394,165.25896270021954 378.3264185352001,165.34465106635855 388.3264036541692,165.36190274442646 398.27698084016095,166.35488495253563 408.27662753684393,166.43894410740063 418.2410969742373,165.5967156162811 428.23344655447386,165.20562756181528 438.22545247391025,164.80585549432118 448.21264455443577,165.31181433324815 458.2090552288168,165.57972034124518 468.20870786421875,165.49637064839422 478.19028498089733,166.10309815213733 488.1834791751555,165.73422175570502 498.18302689153484,165.63911409117043 498.0568356724228,175.63831784828125 496.991986606107,185.58146103672857 486.99222320244087,185.65024963098344 476.99522194706856,185.89512898920714 467.0218647441455,186.6246124385754 457.03333243562395,186.1458407585222 447.0417466670414,186.55597955095678 437.04462502688966,186.31606516620894 427.1326183319875,187.63974310294986 417.1591263377223,186.91210484094879 407.2023279185088,187.84063337532345 397.21704978266496,188.3830543832488 387.2443455526647,187.64469786981206 377.28771148502926,188.57498709537677 367.28786533111787,188.63045688989672 357.2879997028143,188.57861659791428 347.3122889688045,189.27517625175722 337.35620623268295,188.33900503264053 327.41089816223297,187.2945686373334 317.5054792406288,188.66667504265547 307.55660094192933,189.6765367151963 297.57251576421595,189.11258355742174 287.613863347566,190.0210118949104 277.61754385043224,190.292298664258 267.6179528572975,190.20185547757058 257.6296151592973,189.71904078153477 247.6308297472232,189.87489418475002 237.63105070427545,189.80841793167465 227.64574949888075,190.35041409175625 217.68642362050025,189.44939908176997 207.69240170985995,189.79512447806232 197.69521425527668,189.55796841568346 187.70159283927794,189.9150832343222 177.7018683263234,189.84085611652884 167.7025574563388,189.9582534138073 157.70320067001077,190.07167237040406 147.72823590092466,190.7788342015931 137.74368877606102,190.22311960634008 127.79237620823419,189.23753441092987 117.79381691649482,189.0677931679382 107.80688373998322,188.55674940475143 97.823994890896,187.97200140195866 87.84497344052565,187.32459820993034 77.84721595791434,187.1128310762916 67.8483138558394,186.9646529634637 57.86650030177796,186.3618278047689 47.866615761038744,186.31377396116886 37.88972164253492,186.99317351089192 27.889735502478352,186.97652422632632 17.97651370734455,188.29107115986812 7.976514555711788,188.29519030346884 -2.019321572010014,188.0066420272106 -2.8811285626288,197.96943725299542 -2.9867380623224644,207.96887956912357 6.980478527800267,208.77794906279033 16.980478516798954,208.7774799931697 26.940619035344646,207.88551539139203 36.86486541269545,206.65696590454206 46.82907957929413,205.811722719326 56.75809800636137,204.62235604964033 66.74281065725333,205.17508860623343 76.74116942890903,204.99392052611066 86.72878703766982,205.49140871810258 96.72858171957228,205.5554892907859 106.68710479791766,206.4653343864272 116.6443362377614,207.38920778326656 126.62848276350906,206.82634176688163 136.62561762142582,206.58697879433618 146.61480921833277,206.122165670292 156.5148843983967,204.7120197810019 166.49752934272215,205.30091698385974 176.44376566187077,206.33647629343554 186.44376408836138,206.33086646406272 196.43450367998446,205.90060792274727 206.38922324266753,206.8511648270593 216.1805722778089,204.8190516235108 226.17937296797228,204.973921757456 236.17859124238606,205.09895735490622 246.16618530241936,204.60099662152714 256.09254019348384,205.81239192308664 266.0566804839004,206.65850555192026 276.0540836144552,206.4306225881576 286.05379742034114,206.35496678617335 296.0480649694084,206.01641670470661 306.0380802519064,205.56965652803845 315.97298620695085,204.43051489311222 325.9005650302165,205.63183862460463 335.8603526460664,206.52773518513075 345.8361046437188,207.22370363365067 355.7905391618649,206.27016631191586 365.62612070220376,208.07608318800544 375.47718916687046,209.79551626447252 385.47584257871847,209.95961973713526 395.4447262582183,209.17135697345668 405.4161552949716,208.41597431215612 415.4094855639971,208.78114568860602 425.3777614139815,207.98523326966867 435.3777168490724,207.95537868550272 445.3326237154964,208.90397200237973 455.2462933088879,207.59280641670208 465.09350150123646,209.33421125663554 475.00018370335926,210.6971667754047 484.94196767217164,209.61970145463354 494.8659713899842,208.38919334460664 495.11327839973956,218.38613483903012 496.0119067255254,228.3456763511729 486.014554825867,228.57579587315178 476.2671739888796,230.8093058504591 466.26916553545306,231.00887279464246 456.39267238707527,229.4420661409528 446.44010884113715,230.41493759395343 436.4429479920483,230.6532125558029 426.5273198843394,231.94948383513193 416.54282650438444,231.39280444299067 406.5447595723125,231.5894198589935 396.6878326868159,229.90389549726675 386.6894616815402,229.7234038330205 376.6947355896631,230.04813502701222 366.70626313671227,229.56811621837835 356.7160194642605,230.0097397741785 346.784242549498,231.1758475373765 336.7877139384127,230.91237889075512 326.7888782815048,231.06497478240072 316.78993150424577,230.91984261663032 306.79529869556063,230.5922529044078 296.8052133501755,231.03744364097105 286.8119799156619,230.6696318367569 276.9267371950121,229.15901065530858 266.97342987897036,230.124242996473 257.0881514273981,228.61385565049827 247.09039612320157,228.82572560450393 237.11276635996904,229.4942346230342 227.33625676869437,227.39188826438763 217.33717181430129,227.25661049522355 207.40859573569205,226.0635568286736 197.43403802297277,225.35067644906383 187.5413905358539,226.81202024694332 177.5419463575593,226.70658721051453 167.55245232771097,227.16485462984983 157.62092846587586,228.33311563741623 147.74021334197462,229.87307298757545 137.7406117520302,229.7838090957663 127.75387485512282,229.26894391734683 117.75968569319978,228.9280876489577 107.76324688230206,229.19494172889225 97.78751618585127,229.89121543361583 87.82457644459787,230.75135013943438 77.83630966061226,231.235629657822 67.87691822658782,232.13591975766798 57.878491556534954,232.31330105199038 47.8785115020626,232.33327378728322 37.90906409145508,233.11437450238404 27.911114373251955,233.31686260643485 17.933118203613212,233.97988028242443 7.93311896524847,233.98378319218193 -2.057091545291671,233.54141009727982 -2.2125288761345443,243.5402019861122 -2.624441669859878,253.53171477699453 7.226288660398285,251.81034556600812 17.21842630082509,251.41387945804195 27.214227369592976,251.7036396927512 37.19169534310407,252.37455908996702 47.05200419065806,250.70893325237668 57.0506149270592,250.8756166106456 66.9709169962071,252.13561933161884 76.9691678363422,251.94858955394253 86.96867550614971,251.84936072012516 96.95755170645599,252.3209031412865 106.95420349859961,252.57965581592342 116.92925827729158,253.2855468571575 126.92897075693114,253.36137775152733 136.92769568314912,253.5210644755431 146.89414578060484,252.70260711261892 156.89255302968934,252.52413447758815 166.80657437256264,253.83263774967145 176.8042888078924,253.61884797068467 186.80273088104892,253.44233703693462 196.78948794247387,252.92786313470157 206.75553042850893,253.75126896814223 216.7155043121016,252.85744558617435 226.67008294624836,253.80947721200852 236.62198425039392,252.82985461501212 246.56069634895377,251.72441270249914 256.5583709923883,251.94005528648069 266.5574418002858,252.07637468587652 276.55258742523046,252.38792554231887 286.4907477294542,253.49831726038565 296.48141950218445,253.06648681962065 306.4706611874949,253.53022225330653 316.42530808114253,252.5789046287503 326.33849884030315,253.89368558864163 336.31657418488373,254.55551065455614 346.3007950631335,255.11705624871695 356.2988596781852,255.31378945194044 366.2650388202789,254.49203930274928 376.25916302568186,254.14928375286217 386.24536067450776,254.67450420046896 396.2453404949875,254.65441465098212 406.2445008917322,254.78399613180645 416.14328335270943,253.36480418205144 426.1414852178893,253.5544339874982 436.11524555416247,252.8304831918056 446.0509637291596,251.69844770339014 456.0496517820278,251.53646862625067 465.8612648329781,249.60456559079006 475.8345191677843,250.33545407289233 485.79474222018587,251.22649657828103 495.79458565485413,251.17053871804157 496.83339444435757,261.1164361787462 497.8217660445592,271.06747238508746 487.82301826161915,271.22572147087106 478.1433974743192,273.7366857107738 468.1451833737366,273.54770211648395 458.1693799062935,272.8524718100743 448.1747133170856,273.17902926378116 438.1881129010334,273.6965349450108 428.1899284192178,273.50599080948865 418.1966692190757,273.13887971080527 408.2622395197503,271.9955921051865 398.2622580766738,271.976327159681 388.28833350574195,272.6980117537815 378.29999740842067,273.1808595630842 368.30181249729173,272.99033795571626 358.4343067098466,271.36789241433814 348.439930485822,271.7032189606358 338.5006116264751,272.8031919658641 328.5420947731968,273.7131051941293 318.78209055361214,275.89079149699506 308.7880536189465,275.5455006796556 298.88949491777976,276.9662524664068 288.97280705974043,278.2543914054253 279.1861397039792,280.3089332199616 269.25459478705454,281.4770152218379 259.27230522363374,280.882124415034 249.36644748032757,282.2510591722015 239.53383015634492,284.07304615352615 229.5355725155859,283.8863802782203 219.54195406293897,284.2435780146563 209.55219412435642,283.79114418580275 199.58225003154826,283.01640888501953 189.58225399210073,283.0253089430866 179.67445762613573,284.3801414680029 169.67529797994848,284.5097808526843 159.68901685718066,283.98614993586284 149.70764686351845,284.59627537347325 139.82073037951227,286.0959028066335 129.88731748774688,284.9438141287491 119.89677056391425,285.3785234140171 109.90595168526247,285.8069369221785 99.90596565585757,285.79022130951023 89.96413289550465,284.7132062840007 79.96794316376294,284.4371793885327 69.9740309710292,284.78606201052423 59.99953337502825,284.07234098143 50.25122627150529,281.84287723079314 40.35664260285878,280.394701128189 30.38145745591626,279.6906547630841 20.45043855728391,280.86320055536993 11.212468478177218,277.03437451890267 1.2911453117634792,278.2863116689154 1.6803980369878833,288.2787329128335 2.4126642842984642,298.2518861826399 12.215781412699062,300.22644804970275 22.20260429731089,300.7396426242975 32.05098854319562,299.0049012183786 42.045645204100865,299.3317623978149 52.023330862088116,299.99943665251965 62.01576186042034,299.61043441143437 71.9048517440736,298.125206727533 81.86564571285767,297.24056922469083 91.85140668115707,296.70711080645344 101.85136811753343,296.7348825724352 111.83120159328573,296.10011978504616 121.79088685002077,296.9971535563026 131.72361513565207,295.8391773890953 141.50072589800502,293.73962859454866 151.45995252296035,292.83751716419147 161.32446753166838,294.4780486765295 171.2999605681556,293.7783782691268 180.89380654886028,296.59939214688717 190.87578427812676,297.19949264882666 200.77476318061127,295.7816715429863 210.72286227846604,294.7641626539533 220.71844218220215,295.06145440968584 230.61511858734664,293.6276496350193 240.19724413615728,296.48822125041903 250.12405579092155,295.28057462543444 260.08947042105564,296.11154469078514 269.93077960130915,297.88598364962763 279.9298896568737,297.75257414206436 289.85596614754826,296.5388997618133 299.85040176621436,296.20534817009343 309.84061168808745,296.6477345587947 319.78342843654525,297.7156273935806 329.7831883628353,297.7849196483014 339.63722109051963,296.0825568779948 349.63708740285193,296.13426505415396 359.6032678280477,295.31253046656235 369.24964057691307,292.67672076365375 379.2133477063077,291.82552146874644 389.06060114341574,290.0843724959807 399.0349092856528,290.8007362888287 408.7541435164951,293.15371014461704 418.4974012803213,295.4051381687032 428.47288983421817,294.7054038540717 438.4565905039509,294.1346841880556 448.4212047787752,294.97519733725005 458.33726325543796,296.26817231280205 468.32418011318777,295.75680974437097 478.32266177765484,295.5825558912848 487.9613642212485,298.24627794958246 497.9605025537733,298.1150049248094 498.55308718486,308.0974316565716 498.4065898567993,318.0963585256346 488.43165957287573,317.38871042745006 478.50945503557267,318.63364300390657 468.51405972645114,318.93707769933695 458.6154162030576,320.3572383933356 448.62119439075104,320.6971359755818 438.882958781476,318.4240835744594 428.92398921807774,317.5191386947533 418.92462837234746,317.6321991957094 408.98953932622834,318.76974288528083 398.9967758143026,319.1501077032203 389.0790586691254,317.86991762817 379.1025950040691,318.5556090600923 369.2591878969697,316.7928451723565 359.3996777130821,318.46319212248886 349.4059555497616,318.81747636198594 339.63177264577297,316.7043392250786 329.93113668511853,319.13284945953467 320.03635531712996,317.68602477087813 310.2910724794183,319.92867106777885 300.29167805968723,320.0387221407027 290.2938996186181,320.24949747914155 280.3445657197411,319.2441343762491 271.07808493512283,323.0034340275539 261.35132484490936,325.3251011327675 251.37522526932298,326.0160694808018 241.3753268605163,325.9709938383123 231.43481133168615,327.0600994443426 221.43845178980885,327.3299066153351 211.5432748449453,328.7740233799497 201.55528956460338,329.2640744381807 191.60875343938002,330.29675014217827 181.61319713321473,329.99866604283875 171.63841555521904,329.2889249130753 161.79126411112736,327.54719920644897 151.82340439644517,328.3483063830589 141.83095007152215,328.73670896328645 131.8311202024065,328.67837725027465 121.837610731872,329.03861114975814 111.83781246077858,329.1021291585196 102.01939059782691,330.99912470967746 92.0297029891879,330.54509664688385 82.0921472210713,331.6608857647608 72.1604148871322,332.8273731616017 62.348055980401526,334.75548433202295 52.448484765514614,333.3418048204707 42.44996025800747,333.5135827957151 32.54841095900481,332.1138251454699 22.553944223263684,331.7812072443218 12.769701901634988,333.84726682517856 2.8572207519956745,335.16738706896143 1.9325549155504131,345.12454495115406 2.866649083047442,355.0808227740278 12.750986508790875,353.5642893408165 22.747850149351457,353.31385501402036 32.744797562754286,353.0667873842942 42.645158556186935,351.65864953602886 52.63479158739446,351.2034222281841 62.61248188643907,350.53581733279236 71.9656928839726,346.99781732775875 81.94107327342512,347.69909194281763 91.8769695321165,346.56862056479764 101.71156338363386,348.3799084424408 111.58289829906502,346.7809253320267 121.34066330757746,344.5932274464286 131.2034907585896,346.2438741898481 140.95958611912172,344.04874245890267 150.9201611520741,343.1616432463419 160.88540022355681,343.9947160211907 170.87480954163075,343.5346057344362 180.6088510575124,341.2436592559927 190.60540471657305,341.50617581074846 200.60172405331164,341.2348831312563 210.44148313487383,343.0178977741615 220.4077255459376,343.8388802367718 229.52278406193503,347.9517512838559 239.259880627849,345.6738244926559 249.2598348334137,345.64356087408873 259.14913439563935,344.15972996439456 269.01943439094714,345.7650891150605 278.9536685281266,346.91007475151946 288.89829658344007,347.9609662023707 298.8394540475141,346.87773572159347 308.7853783462908,345.8391839207658 318.38649012589747,343.0429985557553 328.10297249196606,345.40731038583993 338.0778058793027,346.11632300552617 348.0711734670065,345.7521743311759 357.9863467456858,347.05192001928714 367.93143199620874,348.0984759708878 377.8388603306833,349.45599716676327 387.58302015074713,347.2084764435987 397.53339041330696,346.2134228581244 407.52966723809334,346.48627747552877 417.51735598937137,346.9823353427118 427.4281703103391,348.3149116051828 437.32916571968593,346.911241450163 447.3275883630391,347.0888495718305 456.8572320711643,350.1196730236652 466.81060038237723,351.0842761862878 476.7368150211099,352.29682018376104 486.7367791346317,352.270029732558 496.67939531979096,353.3397883009318 494.1871010578747,363.02423300943315 494.03820625611206,373.02312446489 484.183884581982,371.3224350920853 474.2584467843027,372.5413216841842 464.29237089124456,371.71832029062216 454.3719635081749,370.45914700868815 444.42703733530976,371.50721352197 434.5443531726193,369.97994349328894 424.58876593520694,370.9213694108588 414.651904840588,372.0433282275043 404.65190497917195,372.0449930637065 395.01354722869206,369.3800240444186 385.0228622547937,368.94849912935376 375.1081013287203,367.6456116519378 365.16025788826875,368.66561698734813 355.1608433187967,368.5574122377726 345.2954768597214,370.1928157439914 335.32725354448206,370.9893858523423 325.39524449300916,369.82525690696707 315.3953882090289,369.87886940309664 305.59999983159247,367.8663171590088 295.60399345744094,368.148906203245 285.6078122523159,368.4252417136406 275.7662722182416,366.65208358258934 265.80725334089124,367.5564855952906 256.03155222763263,369.66258809617574 246.19615952661647,367.85564304532386 236.21287729998016,367.27764998020336 226.6663889598822,370.2549911384138 216.6665822436876,370.19281687726715 206.68247116212493,370.7563112525873 196.97777332403015,368.34408409262113 187.02953097394706,369.3601914412871 177.06239132208276,370.17020820669046 167.14307489545075,371.43794699222497 157.25118047382136,372.9043796539375 147.29897406776564,373.88089778037613 137.49928867939596,375.8724213903225 127.60276426912024,377.30727490090004 117.85331192537076,379.53172516938383 108.07104663769685,381.60712533358594 98.30723360148367,383.76767040228356 88.33369747688992,384.4947035318061 78.37922683141788,385.4478636277163 68.52549750498352,387.151981687408 58.54778653574286,386.48468579030197 48.54801183387753,386.5518118801197 38.56619594976284,387.1545984556468 28.587172726663272,387.80197432238845 18.833481366494183,385.5961853817681 8.839086856623497,385.2614042875189 -1.1388928035763115,384.5981382016688 2.3939485431270104,393.9532989174996 3.3054670924297267,403.9116689615518 12.729604104587846,400.56717474327735 22.70720228726422,399.8981945454739 32.69001430502265,400.48425274915155 42.633973141359164,399.42704763128415 52.60081047915202,400.24077576891875 62.47204055570326,398.64114556921936 72.4311651816707,399.5443823512697 82.13486157598106,397.128129821618 92.12641429275675,396.71718662859445 102.10467966849626,397.3761404140133 112.06926734067785,398.2169688884399 122.0672693103046,398.0170773795161 131.6066704715457,401.017048293527 141.58548991049506,400.36653879717346 151.56040728436486,399.65870874379175 160.6355765108164,395.4585535667457 170.25201336108495,398.2015705744942 180.23522002898014,397.6222739094832 190.06508235545266,395.78548142185804 199.85059883050707,397.84549776073464 209.66286781935983,399.77406647623286 219.66142017566503,399.9442157584057 229.40847485115,397.70928283925423 239.386826172405,398.36693389384817 249.33922734819984,397.3924028086399 259.170599266512,395.5637075896865 269.03659578607346,397.1953057865478 278.48074233964894,393.9077389241726 288.4410836220933,394.79745884484123 298.41506295639346,395.5183861913564 307.90056229176434,398.6846619782515 317.8875202222207,399.1952217644618 327.36932237999787,396.0178914636004 337.28319849032073,394.7082882911969 347.28268258453926,394.8098651068106 357.2670895171563,395.3680928416181 367.14864207391327,396.9026673976597 376.6785898161443,393.8728000688241 386.6651619197389,393.35474831493644 396.5493405829399,394.87231615655753 406.25668448018496,397.2738728310127 415.83243760231335,400.15570421817756 425.8136578008401,399.54313312146957 435.6653971032151,401.2587183621493 445.30610030820094,403.9151900283593 455.129540576248,405.7860244144319 465.0649987140845,406.9203398869964 474.9805787080936,408.21697915155914 484.90370470159064,406.97941278275977 494.64641313488727,404.7256088019817 493.10868483493056,414.60667107663176 493.65358609067687,424.5918141713243 483.6536837377147,424.63600615273526 473.6949740078044,425.54380597394555 463.7140133124073,426.1605908610322 453.72069580526625,425.7950704081594 443.8492420446319,427.39331965394643 433.8498209223889,427.2857221630834 423.8572891860621,426.89931629032657 413.8580274062553,427.02082291111617 403.9261716969865,428.1862593831147 394.0024124089966,426.95378155611974 384.4319322182469,424.0544870008067 374.47649650249406,424.9975138877575 364.6639115975073,423.0705532025265 354.76131294426017,421.678238614257 345.6173078401334,425.72634566023584 335.6887053581835,426.91917957802104 325.73854154543426,427.9162954687057 315.81384651770514,426.69137563191276 305.818229249525,426.39534281606495 295.8459812722814,425.6508495116223 285.895886173818,424.6530481628886 275.9954099795817,426.060375817474 266.06408989515705,427.2303678604823 256.2480179513552,429.13948587519656 246.25159449227803,429.4069144204398 236.25334451625727,429.5939903862956 226.25696043057366,429.3250941024027 216.32214932612533,430.46506266290345 206.42336201885266,429.04590451619197 196.52694828495885,427.61028785161966 186.82056674442055,425.20484456825227 176.8829220135046,424.08984806507436 166.88716742191818,423.7984889313945 156.94289784394886,422.7442107135252 146.98873143563185,421.78787859781784 137.04110099238068,422.80995910565593 127.24550533201781,420.7984160017976 117.60764754747508,418.1316394223052 108.08595774058752,415.07591966725346 98.086110824001,415.0205875352241 88.09908054365259,414.51144494281596 78.12045970354714,413.85789606980563 68.12046050297177,413.8618946310242 58.167737911194116,412.8906516073073 48.16954949100584,413.0809889772927 38.17418192654356,413.3853362317496 28.553468936661744,410.6573550063158 18.556815924632836,410.3986494650274 8.557369896347812,410.29339203101506 -1.3468068090902516,408.9123475757356 -1.582927328122735,418.90955954210364 -2.040846312462828,428.8990695502963 7.958538305047235,428.7881314094109 17.732543606721215,426.6741729512455 27.7323975053768,426.62011737296956 37.53618248850978,424.64887410931686 47.52945675112553,425.0155749576138 57.31761701345836,422.9681573942212 67.1898963373001,424.5612992435387 77.10451919156422,425.86523699423986 87.09254402474869,426.3544812396741 97.09101689564257,426.17972355028905 107.0646323778704,426.9056672207382 116.48227692771587,423.5429345324673 126.2996063025106,421.64029322449767 136.2962371818582,421.38073386312936 146.27808685599123,421.98296063354906 156.27712676466967,421.84439330458537 166.12380389745127,420.0999881215055 176.12109173028824,420.3328743327968 186.08975626391697,419.5418449932823 195.916338561984,417.6875849415863 205.89980672205422,418.2623575025739 215.89309205358737,417.8959584270232 225.67584238360152,419.9690710579741 235.60845565927667,421.12803331615225 245.52636082891107,422.4067659098321 255.51060567436406,422.96788520734856 265.4020047718448,421.4981151932453 275.2689700307519,419.8723856402384 284.9411344496916,417.3328511449033 293.7050314305657,422.1488774850125 303.5280854690491,420.27601620957444 313.52138015761534,419.90987242979145 323.5016047701855,419.2812893544158 333.4895723782912,418.7908782417447 343.4376625663833,417.7732822464767 352.91069112995586,414.5698887592917 362.75931560053573,412.83651169774527 372.4661996313971,410.4330969579619 382.46375166353204,410.2118428851083 392.39253625407144,409.0205257339403 402.32069970974726,407.82404322366983 412.3136023773698,408.2007344439313 422.261917067824,407.1853355963386 432.1298829175716,408.80498061553754 442.10717698228206,408.1314799501384 452.0994566017285,408.5243514390449 461.8331304770983,406.23184344823153 471.767483935589,407.37579334301427 481.7424892883084,406.6692042026935 491.7170518578435,407.38201662291954 491.1414025837244,417.3654342698582 491.44407176609474,427.3608527886619 481.45127202253263,426.9814410267655 471.4738742402963,427.6534034476085 461.74859223828173,425.32555251138194 451.88124751839416,423.7021276813062 441.91668414541357,422.86101128873406 432.1280603766859,424.90621169805826 422.31155738057316,426.8131120434643 412.37860662370593,427.96917833120517 402.38774775083726,428.3966581347301 392.4183032831428,427.61551985916327 382.54047641045406,429.17389602466017 372.75075949744854,427.1339345634522 362.75076146569955,427.12766040881894 353.36148855807687,430.56881635794167 343.3958793799481,431.39744999761365 334.39663420626385,435.7579071185954 324.482579862549,437.0661603318035 314.5284720987647,438.0231026639059 304.5851687488403,439.08645514139516 294.60127714043495,439.6538248194826 284.6249238313357,440.34111999044245 274.67856774138,441.37552829077686 265.0204383118988,438.7831286450068 255.2444030270727,436.6785778354905 245.44232677120004,438.65830030948956 235.68084218085323,436.4872594088105 226.07857146736907,439.2794623285432 216.17947231804294,440.6964436381626 206.53168757024568,438.0658069357328 197.28593019038018,441.8757899373566 187.33620753560598,440.87428152846894 177.57456921160545,443.04463109280283 167.57772732424635,443.2959322649896 157.58267286731632,443.61039435014925 148.01819979771454,440.6913440078526 138.11811167320872,442.1013990163607 128.11883712537073,442.22185032170637 118.17865814302633,441.1296773505345 108.18831172873092,441.56897055828415 98.2910646927815,442.99883107924086 88.29159847125982,443.1021523483333 78.29293028967267,442.93895126219496 68.41173179464641,441.4020985360397 58.54688167276243,443.0406137397426 48.57758938538783,443.82369182581914 38.5934697575386,443.2603488958061 28.597725715221358,443.5520697220756 18.602953829360814,443.87538837234445 8.602997862617677,443.905064342393 -1.3233459866411295,445.1165501187362 0.06784992850081317,455.01930599403136 -0.7006109926415255,464.9897356644456 9.079188960771472,462.90274911172827 18.829938674173153,465.1215055261634 28.8212373327714,465.5385799975625 38.522420641022954,463.1122571790362 48.50766157165078,463.655362654349 58.50250508915434,463.9764593074256 68.39564169392649,465.4344881546428 78.14916714522293,467.6410105929861 88.12443355021318,466.9381164690437 98.03225770258607,465.5834871597281 107.96465890042776,464.4227087807458 117.78779383725545,462.5502718624825 127.68528569464365,461.1221069795175 137.6703723821659,461.6680408973738 147.6703294335013,461.69734911205046 157.62586811544375,460.75540986117085 167.52559218548083,459.3428011619451 177.5032963763515,460.01019840458395 187.45696365564137,459.04868517368476 197.2582334142531,457.0649737231651 207.25399399260377,456.7738200519001 217.24110416474628,456.2662469936242 227.03083127780965,454.226334482816 236.90499860588557,455.8077324647162 246.77338262577337,457.4248276493059 256.7730744344815,457.503337080943 266.76990999045904,457.7548899913678 276.71871021575663,458.76552052579615 286.7185339949229,458.7061539895951 296.5724877465877,460.4089738450265 306.0713305957113,463.53499120384805 316.07013655769634,463.68952060096166 326.0344374774912,464.5337404655558 335.89416582104167,466.2027991797383 345.87311344751953,465.55425907456987 355.6394106712279,463.4049711603559 365.48851664547357,465.13561020651156 375.0383843800729,462.1691263869605 384.454430291994,465.5363328529488 394.3151241336002,467.19967796509786 404.3086325478624,467.5599411662041 414.3081513991699,467.6580367438078 423.74818175461445,470.9574043935682 433.58362900541186,469.1507562881583 443.3365848314905,466.94171743504614 453.2707231847056,465.7959010539535 463.25809474723656,465.29349755879394 473.0719891538952,463.37321722119884 483.0676266477948,463.6685663206526 493.06422090694576,463.9295322531221 494.62036446924304,473.80771109405833 491.591079743515,483.3378440443624 481.9460959124896,485.9787315654921 472.24499728098766,488.40539292255676 462.2710572754576,487.6839216715096 452.27898990615574,488.0821548787298 442.31113110852334,487.28103629171375 432.3816554514105,488.4665797007898 422.5777978789426,490.43746191410537 412.65449960402447,491.673646102245 402.7404969012244,492.9822905951739 392.79124904761784,491.9760763299671 382.8336728808848,492.8962267979397 372.9403317492051,491.43958639886586 363.0039987920849,490.3129598568179 353.20289648396505,488.3284212339213 343.3520406534397,486.607770366893 333.4652056770476,485.10760565940575 323.5742328975146,483.634969426476 313.62339357730457,484.625321294936 303.63603037468215,485.1278909507089 294.2469725433011,488.56963368353814 284.2626552118762,488.00980565154185 274.3462006096869,489.2997390307199 264.37590115767773,488.529590449428 254.427135082727,487.5186237902796 244.76216503039893,490.0854026836792 234.9509975718637,492.0195673872603 224.9734808528433,492.68976147979504 215.02281439895938,493.68184873581095 205.02795496347417,493.3612479483941 195.27298037575522,495.56135494419175 185.273390572593,495.47078028717203 175.79422341900823,498.6559631821405 166.63803346776274,502.6764339974445 156.73253864738095,501.30487562705355 147.04490605297192,503.7847495584751 137.10262790632913,504.8576452918942 127.47057957796565,507.54532923910045 117.83416212003146,510.2173057690163 107.86346642073204,510.98230725396377 97.89444955505516,511.76888384390895 88.0718537819464,509.8936205882284 78.10906922147795,509.03169031164475 68.12163225629344,509.53279196447176 58.227245860376065,508.0832686468652 48.456124922499185,505.95601792882934 38.48728493292484,505.1672028286548 28.5176950445804,505.94648291836603 18.708300723699143,504.0033454920725 9.279193641786264,500.6728891212698 -0.6405057581597156,499.40815048632925 -3.974862886477018,508.8358788734244 -5.744437096289355,518.6780639517476 4.097942037039477,520.4465585080901 13.838403880207865,518.1830649512668 23.567673648054686,515.8719375673994 33.56713661144171,515.7683014547205 42.96206193048901,512.3426076199588 52.885047744778824,511.1039177760499 62.72050876826348,512.9104909009232 72.62362946362344,511.5218943097084 82.56134187559759,512.6362874256666 92.16354748193234,509.84386061486686 102.11014974836368,508.8118221691571 111.88130080478602,510.9389345386798 121.87176665135027,511.3755031686032 131.8532911919049,511.9830950104719 141.22265787833587,515.4780868409628 150.8560817330102,518.1608363328445 160.68792133490962,516.3346572500263 170.30939841522752,519.0599423347317 180.22649332855445,517.7749409806214 190.226425469132,517.7381010044526 200.22637470915492,517.7699631601455 209.97490215946584,519.9984632275753 219.6965114074188,517.6553213987233 229.6517635171059,518.6002845898428 239.5915992673698,519.6955769059739 249.44750962458937,521.3870351615782 259.4378034119894,520.9465467492043 269.2177910672047,523.0326535211211 279.1069535389445,521.5479092308362 288.819763896358,523.9272610251114 298.7925639521762,524.6643221125883 308.3657087432824,521.7738379302209 318.3292355513955,522.6271453449384 328.322185065883,523.0025917471113 338.294455214956,522.2583954867688 348.1758014883876,520.7224932032433 358.1631507411651,520.2196464044619 367.71045328798533,517.244917159727 377.09003070619804,520.7124130077065 386.81212452182916,518.3712825457145 396.7163681336244,516.9907179951726 406.4302537406363,519.365676187202 416.3552813524041,520.5878983051684 426.24172158512266,522.0906622669683 435.7414147665391,525.2140945871811 445.72005290905605,524.5608099472988 455.4808192912415,522.3865423390228 465.3248942047418,524.1455730656999 475.1861514974368,525.8055744534308 485.1627243548882,525.1214735690843 487.78241962839655,534.7722350247394 485.21618460347145,544.4373494988079 475.28882455525655,543.2342192177879 465.6997199233888,546.0713079296706 455.83284475045747,544.4450317164179 446.28480756868356,547.417402146809 436.33585181983085,548.4265005103845 426.6113266704631,550.7575111537135 416.7004213869806,552.08941072269 406.85233573641295,553.8258464453941 396.93472132429713,555.1068321489023 387.0495493968981,553.5957477813827 377.06857718507126,552.9791492841899 367.15515171996793,551.6661391746169 357.41571278225234,549.3982482648706 347.44616306463666,550.1780421017203 337.4475630157066,550.010718876987 327.5110140856907,548.8859987511777 318.14312300236315,545.3870536743134 308.31988893819164,543.5151368704728 298.73559750511464,540.6618304155251 288.96245680923056,538.5438783531653 279.20661989746486,536.3475982819925 269.8970837060777,539.9989728041763 260.06677833060286,538.1645529435907 250.0767201974761,537.7187519826813 240.07736482889186,537.6052081023297 230.13827467467434,538.7072457179927 220.1779150648108,539.5967604408607 210.21587943491616,538.726216870033 200.37022720546804,536.976036257421 190.85822990076332,540.0617950417867 180.86866119653877,539.6051583113573 170.93753098284463,540.776760922592 161.13515169841122,542.754982438022 151.16894202337426,541.9336026761581 141.1926318679767,542.6215239531306 131.28773981086752,543.9974285054217 121.4172151015246,545.6014054261568 111.43456502317697,545.0125952587293 101.434587123834,545.0336193556699 91.69481497153544,547.3000788018787 81.84953753974064,549.0523665325303 71.8568420470659,549.4345141357909 61.8928214228125,548.586992454975 52.133523384947864,550.7678413282653 42.18573153705333,549.7473329495818 32.33427938402446,551.4645663281833 23.922278404115637,546.0573267816112 14.115859495577809,548.0154248869859 4.252471265279091,549.662717398474 -5.739275084682333,549.2565094738436 -3.8605638139631906,559.0784463480692 -5.585283331835968,568.9285906406503 3.5909861811017434,572.9030186279122 13.552336723182787,572.0246705318923 23.54465430877676,572.4165751996744 33.47573064459012,571.2445159809282 43.475730644375275,571.2444504293705 52.952716014980645,574.4361190032253 62.74758315659539,576.4512065145051 72.53786283072097,574.4139475956625 81.92899986666826,577.8500129576804 91.58341705835085,580.4562034129126 101.5225893825231,581.557499699299 111.41093931752954,580.0673535444344 121.40982801113637,580.2164337002614 131.24739459666404,578.4213616473038 141.1911651585142,579.4803361575174 151.16539643271568,578.7629028932058 159.9069774771501,573.9064884912437 169.68697631242713,575.9925428486323 179.67754292493672,576.4267994099057 189.37964329493406,578.8494525857642 199.37487018046482,578.5405197342203 209.36572875034003,578.9680066191085 219.0472383702476,581.4716782189068 229.0085535765147,582.3504269664975 238.98721098783741,583.0034172171551 246.4434734963388,589.6670610705071 256.4361227299595,589.2837057603566 266.4287558147016,589.6674817806046 275.6647184768021,593.5011476116711 285.498375757369,591.6847818752751 295.2207302325844,589.344734128271 304.6974756005589,586.1523530058839 314.6242582392934,587.3602381176886 324.5236767110862,588.774986830474 334.3824897199826,590.4494437739679 343.9145926403418,587.4263635706524 353.65529417719114,589.6888254090093 363.28858624079913,592.3720481014496 373.2861488758016,592.1512736482114 383.28587588329077,592.2251639431881 393.1686199733678,593.7520461423269 403.1339437351911,594.5841052279934 413.0280494612153,596.0355430951635 422.7259561668869,593.5961567936339 432.71810824872597,593.2000548201486 442.34208461271214,590.4836088064322 452.2396825500003,591.9110383394705 462.16740656586734,593.1111616101292 472.16489329717774,592.8869762910916 482.14222740321054,593.5598835184234 485.6008946203691,602.9427200341553 483.66659371302353,612.753860640621 473.7227427603009,613.8120800082557 463.727029264501,613.5193143854704 454.0455443982132,611.0155470672395 444.1924923325295,612.7235766310721 434.5591805663309,610.0404246757741 424.5631429223643,609.7589439119504 414.56334747491866,609.6949829141101 404.64282714918585,608.4366997716014 395.0404422987003,611.228510148967 385.13115787513806,609.8846045671098 375.1321317164755,609.7450485626481 365.4072766011351,607.4154149035427 355.4193734036488,607.9071360823051 345.4533310830764,608.7305439184106 335.4884798785617,607.8928444067235 325.4893870861602,608.0275415816934 315.84204624165204,610.6598057458464 305.85172802894175,611.0997398418074 296.26249977317974,608.2630690010336 286.2647309265049,608.4742989431775 276.4591312058403,610.4364951917986 266.5907766626467,608.8192201348495 257.4620620384484,612.9016911157565 248.59707456055327,617.5290010272238 238.59707899428685,617.5384177491422 228.60550358335985,617.1280267066486 218.61800447562337,616.6281651528532 208.8224688371865,618.6400005228857 198.82829845456212,618.9814069713798 189.32768063105095,622.1020256554842 179.34008678626319,621.604060604946 170.004229051491,625.1876008037011 160.00996171410353,625.5261571340661 150.0275689320934,624.9330008766833 140.81138315079502,628.8139697820719 130.88157394944716,629.9967162573688 121.04103970180714,628.2179847652588 111.6522933099352,624.7753925458533 102.22888166203076,628.1219299973303 92.25860829050256,627.3514438540443 82.649237638766,630.1191135737804 73.11145711185397,633.1242329758105 63.760040695535814,629.5814923687924 53.87474225062264,628.0712358822984 44.04074991713535,629.8857867316584 34.05309573949099,629.3890332437157 24.158982330952945,627.9376477473752 14.167441167491162,627.5264237465572 5.43946584895536,622.6455993449802 -4.466224474607593,621.2754536543066 1.8145960357105198,629.0569248337923 2.4725627382317903,639.0352553463767 12.311036324441764,637.245161076946 22.2985976009156,636.7465432386366 32.29854346930483,636.7794465710674 42.17223946453073,635.1951084146564 51.82291461848661,632.5750952328539 61.273107298927066,635.8452417590129 71.1667773124496,637.299646676333 81.03277384341926,635.6680485484552 90.89519468202013,637.3211230181423 100.75941480376355,638.9634267019329 110.28378218539416,642.0107904773511 119.9531570466024,639.4606552273233 129.77213829559122,641.3547532269014 139.66206367776797,639.8750992352614 149.26642968186255,642.6600864272234 159.25537534241522,642.1900177189198 167.75385073114506,636.9197315723094 177.7534776059472,637.0061165521087 186.81815725546167,632.7833706620889 196.8040839443094,632.2530234503882 206.80307307609334,632.1108392653788 216.75503540195882,631.1318367809313 226.1022456736164,627.5780134682976 235.73292242776995,624.8854189468358 245.52072926707118,622.83631248876 255.50235832331146,622.2304400734613 265.01081803776384,625.3270824258545 274.86109411062176,627.0510491565319 284.79460627954893,625.8998167778279 294.31406911042666,628.9624671678557 303.7605345120366,625.6815692090362 313.62077712121373,627.3475871225558 323.6116116525345,626.9195387984524 333.59494383674746,627.4966683330098 343.4735014788514,629.0504054123221 353.3359524632871,627.3975108060014 363.1449539689715,629.3426302011751 373.1449280940702,629.3198816329652 381.4581515430194,634.8777873435581 391.4305283685658,634.1350219369147 400.9535042896999,637.1867312293441 410.82876427550434,638.7612915529802 420.42004071948656,635.9315537249984 429.87245516479396,639.1952726396943 439.5386462089076,636.6330956944586 448.0879521181334,631.4456716255708 457.87136814333365,633.5156404364118 467.53218998245893,636.0979884750542 477.53138198559344,636.2251076492596 487.511050043251,635.5877494619187 483.7372407925885,644.8483306391244 482.00657698190076,654.6974322618296 472.13471596048055,656.2931640606491 462.29404391969877,654.5151950547958 452.7519581654726,657.5066160313543 442.84508597127024,658.8681898735458 433.17310948602005,661.4084400322444 424.5835322619431,666.5289051587362 414.99444786298363,669.3660622551326 405.43716409402333,666.4235587360916 395.7947980866246,669.0739884709387 385.88497657608286,670.4139278834514 376.2846554149507,673.2128265245453 366.50750042369606,671.1134837042837 356.5075008517458,671.1105577864857 346.5793088215584,669.914312405419 336.5826430704252,670.1725252248526 326.9892263083573,672.9949984008588 317.2710627107165,675.3523902413233 307.47960415753687,673.3208048009922 297.48058793934354,673.4610712200176 287.6590792922769,671.5801225509692 280.4992687617123,678.5613196665373 270.86490343866893,675.881953170117 260.9376562383352,677.0860142248256 252.31428659086095,672.0226659331297 242.3920620250389,673.2674388704149 232.39230058416382,673.198365535561 222.52220472390906,671.5917517956154 212.75030609289215,673.715427181622 202.97682375624032,671.5990522112646 193.10084360898693,673.1690891952421 183.59284049257283,670.0710451771139 173.78007811847206,668.1449884309528 163.8533229111358,666.9368779005698 154.00947842677027,668.6971976918653 144.0227121733299,669.2114931314179 134.0495515853142,668.4793265618108 125.25861690526223,673.2458208134658 115.34935851554924,674.589918341885 105.61090702816769,672.3177910065633 96.0871901409418,675.3671871192336 86.57155172094795,672.292674888011 76.68917213931839,673.8219145044842 66.72035039426858,673.0328688686543 57.110977425086816,675.80053054219 47.1809363415026,674.6197324737932 37.24478763729144,673.491482090322 27.627816256814775,670.7503397249764 18.170188750264433,667.5017581964715 8.635611855378297,664.4864898111526 -1.3513612078392896,663.9762261199436 1.6000996730652859,673.5307474930156 -1.5783605208843983,683.012170951309 7.844435504612772,679.6639004930165 17.778550812150087,678.5178843253501 27.592931963270125,680.435675403789 37.525584784236145,681.5942986981154 46.66840851713778,685.6450732153022 56.66840288657446,685.6344613712315 65.7054182278556,681.3528315738939 75.67946445583861,680.6328302946882 85.66908361565665,681.0883618981983 95.62698687189203,680.1717579818546 104.95105755321624,683.7858561998988 114.93005361710752,683.1380618213786 124.23181513611283,679.4669267593641 134.157237467999,680.685939283375 143.70923222685778,677.7263115826777 152.73520640809264,682.0311681516799 162.71021695066446,682.737684022401 172.04293632431407,679.145978425793 181.64631726722473,681.9343604773312 189.78354846023336,687.7468873384759 198.43848825553297,682.7376940761092 208.16030591067303,685.0799710623359 218.08012587265128,686.3437637359726 228.06955095941765,686.8035315424606 238.02918322649387,687.7011534587564 247.94638227176324,688.985350911062 257.78225219102086,687.1810053423188 267.1077071076991,690.7915303175823 276.49005156721347,687.3315285194585 285.2040353942966,692.2372889968293 294.41484946273386,696.1309895755435 303.93656875795466,693.0753617083091 313.936558764497,693.0612242031189 323.2536051357484,696.6933925521842 333.1711035449221,695.4115090535633 343.1620658104171,694.986452575604 353.1066322512858,693.9349782282479 362.6431669148775,696.9440489502674 372.5168839154761,695.3598417062208 382.51685083096714,695.3341183883011 392.4170079352595,696.743689000342 402.4022419574868,696.2004565258395 412.14608106622063,693.9515458066002 421.5356295395329,690.5111418379769 430.75602896142095,686.640194344036 440.2827995697478,683.6003519507004 449.28536101099854,679.2467456873246 459.1048441024285,677.355251088569 469.0739733018292,678.1404026698938 479.07297048833095,678.2820192802561 481.2202378844097,688.0487609441755 483.85396548480276,697.69570237278 474.1902418716142,700.267170033067 464.84313034548785,703.8212530537851 455.36200940498776,707.0006155231507 445.5363815965767,705.1413043145094 436.2049106735056,708.7362522156449 426.20501342640284,708.6909195851595 416.3356341704404,710.3019295484987 408.28868182640286,704.3650483830392 399.37496829773767,708.8977860909692 389.38777042442655,708.3919416096019 379.4259187106486,709.2645872608831 369.6290081553195,711.2697165761348 359.6630386997595,710.4454272999433 349.6713330147422,710.0382203451992 340.06033304352735,712.8002267813446 330.1225402937881,711.6865503187981 320.1743972573569,710.6694711052145 310.75628693859613,707.3080431313242 300.88352083622084,708.8981656070441 291.61539175221964,705.142931488871 281.628663800861,705.6579701530035 272.9371809804203,710.6034859382361 263.03080577543045,709.2383008599546 253.0330869935492,709.4518872790427 243.29870526000826,711.7413877192489 233.595689105231,709.3224049784814 223.67181898176995,710.5539900436219 214.0240965252152,707.9231249005007 204.02644028530352,708.1396190310332 194.21875184110513,706.18788970002 184.37655373993655,704.4183879234305 174.45318084318077,703.1828028992686 164.81597440694117,705.8519323650874 155.10445239548827,703.4673275296763 145.10461468584683,703.4103557749801 136.44732151049462,698.4052309138003 126.52573865880447,697.1553534329855 116.71846149978602,695.2015584779825 106.91828973215488,697.1906872633872 96.97476430790806,698.2519610910854 86.97796982884347,697.9987810299749 77.44380397881586,701.0153488717725 67.90948124337842,704.0314208166241 57.91352141438778,704.3156515278523 47.91559941627929,704.5195037285723 37.92958983311196,703.9907196470323 28.35420635524948,701.1076602907445 18.40907976115315,702.1538232930525 8.567529924748289,700.3807195686304 -1.4253019730846095,700.7592835152145 -0.9175983339614692,710.7463870500148 -1.5900929946383475,720.7237489724552 6.788651970936574,715.2651197670729 16.78693515399275,715.4504124852677 26.628516431828654,713.6774832842702 36.29328997406138,711.1099645643077 44.93675231076209,706.0809926182698 54.86036786559026,704.8473580208414 63.51721850179942,699.8414677840938 73.22346142924589,702.2474703263608 83.20114035782697,701.5796955154036 92.11807715748434,697.0533020160582 101.94172071621583,695.1835353913177 111.72031122199478,697.2761814962025 121.58264432860972,695.6225836931782 131.55182471917652,694.8380823609052 141.49872846303626,693.8089536467062 151.49231326908588,693.4508157901568 160.38677434248015,688.8804151278653 170.38596857157518,688.753471168447 180.2647698159039,687.201283687809 187.05143551389622,694.5457488625984 197.03374949737716,693.9512679670258 206.95291568626908,692.6823542122169 216.57435239628143,695.4077818181581 226.5648611271804,694.9721956638424 236.5398462369535,695.6790705182577 246.2434004335102,693.262246992535 255.31504174461108,697.4700164637309 265.16181953176624,695.7261795417719 275.1069361908865,696.7724369845121 284.611132189506,699.8821408964343 294.575000219628,699.0328271273756 304.5750002109658,699.032410901633 314.44117144801703,700.6629522599502 324.2600016621977,702.5578330543785 333.80023291245004,699.5605029604936 343.78739351188676,700.0670828269102 353.44094104089345,697.4576729117745 363.2250969259715,695.3912040355287 373.06162165665484,693.590431639401 382.4906178428311,696.9212019588726 391.513068813408,701.2334378619207 398.98093177143267,707.884078646098 408.9796848837809,707.7261666506511 418.7049094905476,705.3980759419501 428.34066772246183,702.7237230676837 437.34994691234596,707.0634106691963 446.44128684460867,702.8983730659992 456.4021384907229,702.0143852357079 466.2774605003942,700.4402139599882 475.10694262481013,705.1349179351735 477.8991171821471,714.737196895991 474.87099111242304,724.2676980636032 465.53604082824586,720.6817946639088 455.54688314786557,721.1473361083579 445.631252296124,719.8510858192582 436.54030335863337,724.016976770296 426.54333694834713,724.2632745405026 416.56135967203375,724.8633825767454 409.0456460952966,731.459900554622 399.1128450514736,730.3025486531553 389.1619892723011,729.312362174703 380.25938556520157,733.8668816042738 371.0270428422663,737.7092568912889 361.245154306187,739.7864320566803 351.3541436410016,741.258813807854 341.39071832885037,742.113305498384 331.74652653483133,744.757083976278 322.1399805366775,747.5345421641459 312.1765903929824,746.6796405063403 302.26452662239154,748.0028909768635 292.2689737534183,748.3010903121432 282.2895355794607,748.9420378389785 272.37092870262035,747.6687595415525 262.38020742065737,748.0994430287358 252.66822515068583,745.7167134201233 242.67236130564183,745.4291269264517 232.97895973305856,742.971899636875 223.57924987667022,739.5593559205666 214.39945977437836,743.5256455819334 204.729085794936,740.9793017132221 195.94301036932734,736.2038563292274 186.3095314538736,738.886408096763 176.30992749952327,738.9754067267593 166.35963677401517,739.9712553487232 156.43531417415048,738.7433217455447 146.54055750053922,737.2963281830071 136.71471253245707,739.1544914328898 127.37896483352762,735.5706645813339 117.66375863274432,737.940214850111 107.67121752095758,738.3263781954091 98.0769686083082,735.5067349906532 89.52830321712538,730.3182554417301 79.63060274967073,731.7449738640363 69.86827447134786,729.5777298569486 59.88714734588709,728.9636441093602 50.84774687507327,733.2402361086338 41.201390746764105,735.8761066376682 31.762016748564896,739.1773516334418 21.860629464981677,740.5782548636818 11.928285281862223,741.7395209951319 1.92858985292448,741.661474031824 -7.441605125890559,738.1687034898346 -8.618646259719164,748.0991905961791 -15.367983344244838,755.4779742980805 -5.3940553612166084,754.756336861852 4.333003246931671,757.0767529524807 14.25750456807442,758.3032412429408 23.274952306233274,762.6259297917 33.21188663788751,761.5046198040554 42.89904576716548,763.9863425935802 51.75344954392588,768.6338724491154 61.52561918438997,766.5114444720118 71.52315178379685,766.2893140513198 81.41141377407817,767.7800436752146 91.32832195934687,766.4936020539388 100.99301786094966,763.9257910933068 109.55059448045108,769.0995597778696 119.52738914561418,768.4187013423831 128.23270031164455,773.3398351042907 138.11913304507615,771.8370218067278 148.10026183901965,771.2229631786537 157.8218643053869,773.5661331438765 167.80318750332677,772.9552426313727 177.44964730514695,770.3197515401589 187.22238440642744,768.1999379754188 197.18967535776477,769.0080908640412 206.9950024198599,767.0445325620433 216.9915886698991,767.3058051123182 224.83135634179246,761.0979034659698 234.69455555187724,759.449479569582 244.6802479422345,758.9147389921417 254.5647928783592,757.3995586709484 264.13338662892903,754.4940443212065 273.7917599483145,751.9025534716409 283.7895709656829,752.1117778989599 292.8318867822476,756.3822023127044 301.9833666734744,752.351021865184 311.9497916686626,751.5322588864856 321.5325264677202,754.3907888882401 331.48332829730566,755.3815173819851 341.4794592368416,755.1033695082704 351.39017502560176,753.7700606339207 361.390097609276,753.8094093381275 371.3856020470897,753.5095910037226 379.3540816319638,747.4677921734532 389.1294077248464,745.3599497272991 397.5024929729755,739.8926429472142 406.77773006808087,743.6302861658189 416.48131931028433,746.0469689788073 426.2090789189894,743.7294934136187 435.92527562461623,746.0949788981579 443.40012616687477,752.737765163792 453.2297267876725,750.8995726723448 462.4958220656416,754.659822437932 461.42232034833086,764.6020351726772 462.12404389172525,774.5773839920743 452.65757825238234,777.8001201431018 442.7933064825462,779.4421135812172 432.8618754224902,780.6111632377135 425.13101645028746,786.954176681804 415.2546209311159,785.3867547383287 405.3001490154688,786.3399015688818 395.3928400888054,784.9815091985942 385.4701013000893,786.2221763299832 379.1729154415939,778.4539429231162 370.3577241779971,783.1754260572815 360.73849674333115,785.9086409336074 350.95660335683203,783.8314886100729 343.3067094239838,777.3910598342715 333.73710940481544,780.2932582205182 325.17413685382036,775.1284251069602 315.5420185243653,777.8158581735455 306.2693460170587,774.0718570287486 296.27184800012327,773.8481755557278 288.3820767412112,767.7039498533269 279.74757089223516,762.6596155321307 269.9316750798836,764.5696389354058 263.4913633317502,756.9196464787523 254.04248549200526,760.1935902121686 244.08574868841845,761.1227792263633 235.4902886251574,756.0121954729273 225.72700049979701,758.175111324549 215.9075115064051,760.0665752836703 205.91502179643837,759.6790841273723 196.0050092032137,758.3405586692176 186.07092293778067,757.1942907812721 176.31469021086443,759.3888119085909 166.33174953778266,758.8049493239618 156.51006393163019,756.9249248948925 147.48931481018647,752.6091300332276 137.5366792088078,751.6369959960855 128.21980817164206,755.2696140708109 118.22016363239966,755.1852986582234 108.38921150495437,757.0162493041663 99.14531660963543,753.2017497086366 90.35566206332724,757.9706041786917 80.49325184836859,756.3174663284568 70.98873115758897,759.4261777075562 61.692571571439586,755.7408803045176 51.953197972916115,753.4727088144438 41.97436548940213,752.8223994527042 32.086383391511646,751.329814436098 22.136296156688093,752.327694198094 12.336639208012452,750.3360306501339 2.3377232477923133,750.4832706598289 -7.427856258906127,748.3307240521218 -7.601646817857725,758.3292137801567 -0.8869942167769844,765.7395741254301 8.983086178377352,764.1328653798294 17.868068341572823,768.7216660902218 26.844830383403718,773.1282229370518 36.839436873580944,773.4566146338215 46.83159922940301,773.060771918981 56.77618758870864,772.0095048910747 66.5806171808747,773.9775395381931 76.41561658061299,775.7866240600293 85.94627418935745,772.7589904056912 95.73101470907609,774.8226892601214 104.99023886897776,778.5998267949079 114.54366395334254,775.6448193232711 124.52644166047531,775.0581769705783 134.42058382453834,776.5093664266143 144.16390925686616,778.7605015890942 154.07676425908534,777.4431915629507 163.9391533171689,775.7899274984425 173.83314931010963,774.3377418038178 183.76000413181157,775.545033545218 193.6692706399413,776.8890712198605 203.6690845782376,776.8280695850068 212.76463753146965,772.6722403687189 222.1840544503881,769.314475500895 231.9845927214449,771.3017977187426 241.25776525015425,767.5590352025267 251.23249120657934,768.2695576118987 261.1683212040271,767.1385040049388 270.9898794365536,765.2578142684083 280.98952768204646,765.3416889750387 289.6345278239788,770.3680169136028 299.59339239553736,771.27411649166 309.55028423969503,770.3465903175027 318.4980161169088,765.8813809995096 328.3688119279917,767.4836887277277 337.73793615776185,770.979330466684 347.5564401962726,772.8759006461786 356.893046459584,776.4574901653577 366.7811637425471,777.949179341549 375.9546192394755,773.9682605724865 385.95362218863573,773.8270514272979 395.81798284714193,775.4685107776671 405.5625383951167,777.7143151263215 415.4428010410275,776.1714573727294 425.44081970094766,775.9724024157748 435.3748348396577,777.119286552852 444.5878244275726,781.0078367779322 454.0932908544148,784.1136551899093 463.8878579162871,786.1302007684884 473.81048529382645,787.3717586312183 483.2962074564208,784.2061504662576 486.6864235894471,793.6139363147645 486.9749534492218,803.6097729740951 477.50556805508825,800.3956260799146 467.58260204238815,799.1567776183184 457.7375618819428,797.4031572947541 448.82971682898017,801.9474170268128 439.8656079902353,806.3796571745412 430.4781436357229,802.9335705545097 420.4787357176739,803.0423882390013 411.3183523116858,807.0532953502791 401.6999364020996,804.3172260181499 391.73277563873694,803.5074690686371 385.7322526932451,795.5078613044635 376.4934579059302,791.6810256824537 366.55271513581584,790.5939961619625 356.56398119609554,791.0685425574601 346.59059816636943,790.3394122931235 336.5957977478252,790.6618477028857 327.6000934758778,795.0296050967513 318.02163775797175,792.1567692051431 308.05889537934814,791.2943515005607 301.57566596416297,798.908006099377 291.7743163703873,800.8913230535204 282.1113347953909,803.465577718716 272.58238921867564,800.4325600471554 262.58334697929564,800.5709590901234 253.65539049987066,796.0663400050627 244.87951994173193,800.8605131294704 235.44521688037304,804.1762220651935 226.00189531336483,800.8862862326768 216.21300677242994,802.9302189940839 206.7609724288493,806.1950385553724 196.89754334009922,807.842086402643 187.1810954628852,810.2065399651777 177.32429321737786,808.5202868723825 167.93497221825518,805.0792621448581 159.15218206572618,809.8607469703742 149.19387728967683,810.7729782937305 139.19397741077898,810.7282299751145 129.19731107603528,810.4700397510508 119.5379895860734,807.8820852781976 109.54507676746205,807.5056634408487 99.7105127923835,809.3171135285097 90.31442755833808,812.7396246350737 81.9129966148926,818.1632726788278 71.98088376338362,819.3265156907947 61.98098623166044,819.2812458880926 52.397314232123755,816.4258595735466 42.467655927453976,817.6098722223398 35.01600011625027,810.9410773033643 25.0188864059156,811.1813218925618 15.133952492351032,812.6939624726273 13.941124151914197,822.6225656246447 16.943198270688438,832.161305110834 26.91921167809401,832.8535164190805 34.66668823348508,826.5308107463748 44.41640817668144,828.7540878386957 54.413963688618935,828.9751846177955 64.38959390402816,829.6728964533082 74.37641960209903,830.1860362747519 83.4975230798392,826.0865885865436 93.05679647291183,823.1505551745244 101.73773879919872,828.1145495669145 111.60353583015424,829.7473535796452 121.40803734024844,827.77967724992 131.31070514034798,829.1714999544595 141.2194463041309,830.5194051993316 149.1915777374523,836.5563846104153 158.5213224972184,840.1558099419949 168.42851157491793,841.5150761332579 178.31777789047575,840.0310236611487 186.61886351560787,845.6070417246259 196.61319408783368,845.2703572832379 206.19941988699867,842.4235564599587 215.39182606823397,838.4865946111231 224.98567835070784,835.665602164825 234.91288185492013,834.4611808988408 244.5924927468939,836.97218328434 254.13747479774912,839.9543498874746 263.41776783673896,843.6794218479173 273.40490344218153,844.1864942278601 283.0271614010662,846.9090209536572 290.3493822366712,853.7196803956373 299.8972238123447,856.6926790915402 308.5175193983828,861.7612591697606 317.28880229672967,856.9586977368201 326.9877698565457,854.5235327991545 336.67916818044733,852.0584164677259 342.9908483508337,844.3019550692046 352.9878637297113,844.5462571659697 361.94058998139815,849.0014443295305 371.78344046885775,847.2355750587417 381.7624454273178,847.8832324056693 391.3640650528621,845.0887913942393 401.2314115661351,843.4653774645838 411.1866874815623,844.4100898270068 420.4107382968128,840.5478512847004 429.6623964893847,844.3434830750374 437.7054865937793,838.4013705237145 447.64844894442956,839.4679068304341 457.51592778881604,837.8452974333254 466.32121840863954,842.585219067746 476.00378390401636,845.0848041188573 483.70902494712493,838.7106955170531 490.90551818331784,845.6540725845491 494.1654523672763,855.1077929694695 484.30381757766384,856.765550272667 474.3234532270016,857.3919107344067 464.3239562029358,857.2916148436701 454.57239787061627,855.0764150577885 445.5809273574769,859.45288144191 437.3111406772021,865.0752144330045 427.34616489573057,864.2389981483716 417.4177268170987,865.433199688637 407.4236017978087,865.7759315062463 397.64924988930807,867.8882867720076 387.665741089521,868.4623530091045 378.8563076335946,863.7301355388687 370.27047657592374,868.8568796371376 361.0849829589165,872.8099426282773 351.3104711973032,870.6983271751034 342.63114722971727,865.7315036966929 332.65439152770944,866.4129328290711 323.51834083412064,870.4789600946186 315.6405203336419,876.6385009997704 305.6778211845086,875.7755840490394 296.523844127972,879.8010907312349 289.0153511407883,873.1963550770687 281.88168058174426,866.1884492304531 271.9098256422746,865.4387098983022 262.0391271969239,863.8358024770979 252.04677079932728,864.2267163082803 242.7550655217898,860.5302026757636 232.7550707055369,860.5403847637376 222.75727770274693,860.3303012723246 213.75771361044985,855.9705024067074 203.97253263929517,853.9088929961371 196.36718597398826,847.4159197095368 187.80449363240064,852.5812173643982 177.97373250293174,854.413193241784 168.41961902812722,857.3659742547544 158.80670405950443,854.6106401904296 148.94036220702978,856.2401488434006 139.1391819084599,854.2559954332718 129.8811865331047,858.036143794104 119.8860797935645,858.3489396783448 112.64952831782995,851.447322278123 104.08947263646593,846.2776562606759 95.96783353899824,852.111949565823 86.04083035981952,850.9058783073247 76.4139462159992,848.199755309111 66.54750552344149,849.8286653926457 57.20827956211468,853.4034183132375 47.44826624536646,851.2257727826477 37.453855213704244,850.8914852863387 27.621251324806536,849.0694258021193 28.145129805684522,859.0556939407821 21.16195901647205,866.2135795034808 30.65748323807823,863.0774959974353 40.50797651298669,861.3547707607876 50.34689837522086,863.1423995222619 60.022455734529544,865.6689762154829 68.8865709602882,861.0399956296008 77.87861956440965,865.4152741237217 86.61104265127845,860.5424118199088 96.61101770014862,860.5647506196527 106.55364291215437,859.4950759524816 116.25012691600728,857.0500405819757 125.47786287715093,860.903466204901 132.30536683217287,853.5969492683463 141.98176938852802,851.0736114852972 151.48934883501772,847.9742675113752 161.02662602447754,850.980983961493 169.59754148759092,856.1326252654043 179.23340860093586,858.8065858062421 188.0705993076535,863.4867631974424 195.20419437933427,856.4787805095863 205.18789264093238,857.0495422999707 214.04501783292716,852.4072009366787 223.95948221611442,851.1020588009281 233.9230330142506,851.955086053107 243.91757853402663,852.2853281659953 252.78647158405425,856.9051480831752 260.4946395454766,850.5345792955 270.0721254613017,847.6585119228238 278.76598833645414,842.71718130162 287.1739401265833,837.3036476409817 296.5639472870361,840.7427995025087 306.5436808523638,841.3791311495852 315.1034406196872,846.5492871168373 324.25977702471016,850.5694243829081 334.2569475936463,850.807291185125 343.68961887974694,847.4869429491154 353.09630607996496,850.8802062629851 362.8063125840199,848.4894378318711 371.9425850302653,844.4239088640766 381.1470741182387,840.5152798679478 391.1380288590921,840.9405131759318 400.1780637971418,845.2157638491485 410.176377672802,845.3993929421063 419.27681743002273,849.5445100966866 429.27173478694266,849.8633000405999 439.16114466148474,848.3802045165996 444.9790425014018,856.5135964734826 453.0258162770345,862.4507196660558 463.00220410341365,863.1375136218197 472.5832383637475,860.2732890317591 481.04697484570926,854.9473933546068 479.65055108633453,864.8494133850983 480.54127323577427,874.8096650913805 470.67384714394046,873.1867349258473 460.7373568908572,872.0614965287149 450.85309282718885,870.5444850193077 441.63747735762996,866.662162065556 431.6975693487834,865.5675256986885 422.0147344716362,868.0660670215209 412.37428910234087,870.7234742318732 402.5807371698288,868.7020043346969 393.27250782349205,872.356709033574 383.5852387081695,869.8754156032602 373.8943863456183,867.4081538645638 363.8955595631396,867.5613301485872 354.2652711238918,870.2553131806218 346.1268304837001,876.066146506925 336.8866531404889,879.8896426382172 328.45448335330224,885.2653763258227 318.4549167276488,885.1722779954503 308.57385765713644,886.7100268842629 299.08582669038657,889.8687083139097 289.54614707031794,886.869622995609 279.5563352202223,886.4183368339675 269.55771481040205,886.2522347559396 259.74688854277696,884.316340144532 250.39424155182326,880.7768494661144 241.91898842916973,886.0843992310203 232.2216984461961,883.6425624252286 224.1499039831226,889.5456238467196 214.53190159177956,892.2831464493878 205.1495601007251,888.8231366018241 195.43923608636788,886.4336580946604 185.70723933138692,884.1340409175981 175.72743166023503,883.498872556596 166.91931176504448,878.7642105927438 158.33114442696296,883.8870400621981 148.38782261085774,884.9502198500825 138.38918844326622,884.7849480053187 130.80849421086822,878.2632093602266 121.44366837870298,874.7560684829291 112.09346402090783,871.2101301772801 102.44453157329279,873.8365540999098 95.37262843535719,866.7663217128056 85.50793975783434,865.12683481272 76.11810666970355,868.5664619112648 69.28628474406197,861.2639822518394 60.501293875934266,866.0414225127859 50.95753431083179,869.0274990964513 40.99087533687085,869.8434089546855 31.570792400756073,873.1993048822612 21.73965284445607,871.3693608873386 11.786282477625086,870.4047789360816 11.39016736835735,880.3969304971924 5.250602390385071,888.2903291239727 13.510271839795166,882.6531436040096 22.28222784273926,887.4544754903109 31.828917323554492,884.477779342416 40.42695508622368,889.5840251876251 48.08633431921602,896.013170524698 54.7343867861133,903.4833377515665 64.71001754853576,902.7856337370943 73.81480186254625,898.6500681656943 83.74265915897331,899.8490883914536 93.74074613423295,899.6534948456924 101.72501713651339,893.6325799183626 111.36381537666453,896.295955311667 120.79741873786213,892.9782561656319 129.43294252913822,898.0208476472319 138.81374173448455,901.4850367686532 148.76062475202485,900.4557077467325 158.7597462989136,900.5882531749639 168.72025135162335,899.7003685569285 178.58005859920814,898.031776024141 182.79603212929084,907.0996074734811 192.21308075361233,903.7352063072757 202.2110239685949,903.9380152567435 211.55798458853695,907.4924951299813 221.45893011351157,906.0884731531288 231.194743112536,903.8050666523001 240.03149092289254,899.1240530722986 249.0921522383056,903.3554141449769 258.7535725565029,905.9355221727783 268.60560639128937,907.6494152027609 277.1151191506761,902.3969688586433 286.9452666706075,904.2322344351705 296.8906425434164,905.2760250025501 306.8139761747141,904.0401246659713 315.5676464728473,899.2055350958443 325.5654884931187,898.9977974302782 335.0604180193283,895.859913861324 345.0561158287084,896.1532145663253 355.0534211883498,896.3853471708553 364.97671201245356,895.1491031737991 374.45870218405787,898.3258723479129 384.4557719988199,898.0838080614652 394.26833469195805,900.0108818517581 404.1509800570421,901.5384029115091 413.47600712688535,905.15003275781 422.8582071777373,901.68963939783 432.7782257962276,900.4274070068631 442.2126599511032,903.7427429140249 452.1968310318168,904.3051732039648 461.3575274315632,908.3153654028094 470.98679801660643,911.0129843529247 472.6094294481257,920.8804595739448 469.43791727968477,930.3642093895731 459.4824159803725,931.3065436611515 450.0907955331305,927.8717998024415 442.31154926657166,921.5882237884006 433.10129094298526,917.6932088188777 426.4203052270127,910.2524810411015 417.99420380036526,915.6377214951435 408.1955094042653,917.634115276901 398.2431202789991,918.6087694203195 388.35055256781203,920.0706531638434 378.4435819621593,918.709795559708 368.5344594326239,920.0548943273282 359.3450499170323,916.1109429134851 349.989374480901,912.5794648753587 340.1039857101525,911.069799729984 330.784316923915,914.6952340094643 320.98489069430514,912.7024355825195 311.2887308460465,910.2561150399458 301.3727309344458,908.962690997671 291.373335727459,908.852711479173 282.6618002042708,903.9426046750159 272.8631101548141,905.9390197908368 262.95329328627747,907.2789935338885 253.25068121712442,904.8583905025085 243.4393242312453,902.9251874361855 233.92362419633892,899.8508659101115 223.97775453854302,900.8899408593498 215.1164326559923,905.5242665377876 206.1276679460026,909.9062876455008 196.25314722102695,911.4854774542404 186.67196469838072,908.6217488589054 177.09061322311763,905.7585855894648 169.22494058064146,911.9336316525644 159.41578963896598,909.9892659967715 149.42089967463988,910.308913616837 140.1415104441668,914.0362364509072 133.1957146807157,906.8420776249967 123.24247676360338,905.8761299217758 113.69880708863181,902.8897660566334 107.80938699852385,894.8080130907088 98.03535744089024,896.9218593969724 88.14092235568086,898.3710503245516 79.59355422698061,893.1804339765174 70.72031220853889,897.7918953590034 60.723986701588004,897.5208301286932 50.72542126744533,897.351451088764 41.35100852412545,893.8700166548156 31.461190907460647,892.3896425436171 22.01609503842937,895.674481051795 12.644320314588532,892.1859514868382 3.1202632302635447,889.137618064373 6.877829710331429,898.4048017869432 9.372143566663688,908.0887265277757 19.169025792975056,906.083458804058 28.21093388923672,901.812171178674 37.38690807150329,905.7872809641236 47.30969711990237,904.5470158711006 57.252848877374156,903.4822468220174 66.46940770490826,899.6021639132894 76.3548777942539,898.0930313436809 84.77291340639158,903.490871322115 94.36297540918012,906.3247221972797 102.49573640498224,900.5059423780083 111.78230739907235,896.7965490082341 121.48597265475078,899.2129265875332 131.3036177862565,897.3119152588393 141.07883514163416,895.2035685949523 150.53794455804902,891.9593045723593 159.2600444620994,887.0679884648312 169.25335161985862,887.4337917598932 179.14694053920087,885.9788353017584 188.20349359781002,890.2189823153178 198.20021338955314,889.962870219993 207.52131868932145,886.3411308601507 217.16856175157974,888.9737533734839 225.86219682976008,893.9154847631319 235.46580478382307,891.1278846726135 243.40393969404323,885.0462718809978 253.23530181704328,883.2175240015896 261.9217885292632,878.2632381198074 270.0000837808477,884.1574001321911 278.6136830187847,879.0774485410624 288.5346267532219,877.8225081368474 296.9762712411682,883.1833511991956 306.4219461012534,886.4665244260533 316.2280738941127,884.5069689381652 325.77944182248365,881.5453189424893 335.7551683915438,880.8489861058747 345.71268234351584,879.9281626177498 354.1069115754468,885.3629501574605 364.0892825405139,884.7694268506009 372.77565507461617,879.8149407825214 382.0678191115902,883.5103010504745 391.28619876330043,887.3860560216942 401.24830510660047,886.5163220366267 410.8120284992982,889.4378276190218 420.81009258735764,889.6345876023926 429.75557305530634,885.1648695802409 439.7507279293694,884.8536155947354 448.800267677759,880.5985209609679 458.50527301326383,878.1875312393344 467.86244041868133,874.6600082915717 477.7808831582418,875.9345645367254 477.0654488808598,885.9089393940659 481.91857346707553,894.6523472966327 472.5358635938186,898.1113580561254 462.5358689362105,898.1216947774999 452.6944106740651,896.3480828485675 442.6982575806953,896.0707322871592 436.0785274036139,903.5660089586796 427.2747394511377,898.8232968982827 419.50227571281545,892.5313331796599 411.2951128765111,886.8179735569524 401.5125599722543,884.7439295180235 391.84359929558246,882.1922243169913 382.157430582915,884.6778098958324 372.18363445491565,883.9543523662537 363.11127283607243,888.1605685586219 353.12219988140674,887.693212691678 344.5915372681836,892.9112386957677 334.84293032137884,890.6830864126616 324.9354573968734,892.0402821429052 315.3660801143106,889.1373494147886 305.3906424097021,888.4368905641236 295.5459261959828,890.1923285924609 286.0656383662277,887.0104827971721 277.06358305230447,891.365135495731 267.11524890448175,892.3803436927352 257.3275030575026,894.4297414664587 247.73275807484225,891.6117867617635 237.7369615567503,891.9017039376956 227.79066088610313,890.866762891508 217.99351966986842,888.8627608982067 211.78403092073324,896.7012715650594 202.4099340332046,900.1835563815592 192.41983983791914,899.7385642812657 183.1660527682726,895.9481256694896 173.40676830692976,893.7672160421571 164.64680221548952,888.944043426874 154.68298825727325,889.793991311191 144.6904597320591,889.4075024073636 134.87404066308474,891.3148347492161 125.01363791564623,892.9799046151097 115.51771908182016,896.1147930503474 105.73451096531836,898.1857442688008 95.76124235712167,898.9164379589052 86.07256065090337,901.3922099184344 76.07308125730887,901.2901714106106 68.41375326340174,907.7193777910086 58.54844654143044,906.0836139689891 48.57165186119528,905.4027557543575 38.71807932194558,903.6977313516745 28.876028449917754,905.4680518402913 19.065827698172573,907.4071137811427 9.768830225114863,903.7239306488564 10.361734027017793,913.7063384286301 3.4523943006646576,920.9355171195907 11.9012140931365,915.5859896531376 21.85195352472786,914.5946346387392 30.84527411554091,910.2219712912063 40.35069571427309,907.1160156845764 49.85206080587422,903.997672952274 59.66643481895292,902.0798453449522 69.1767103946905,905.1709064044477 78.14083505384627,900.7386982532983 87.84251285971136,903.1630430619393 96.21584555529148,897.6961152620568 106.08363752505078,896.0754112046934 114.71269164985667,901.1290658140994 124.54117770981348,902.9732083707459 134.48150434020351,904.0640367170765 144.16331118789918,906.566558677802 153.8972067567869,908.8581251843622 163.58112006035873,911.3524834442968 172.03520696697126,916.6936831761401 181.17884570786723,912.644748677289 191.17481415886598,912.3608213509584 200.84938526420936,914.8911719052602 210.40001043181616,917.8552162551099 220.15013592262002,920.0767141537307 228.8059935087723,925.0843213116705 238.60444326389748,923.0867271596246 247.1721977342316,917.9298304827394 255.895886905676,922.8183115597226 265.89588638609126,922.815087944656 275.6543000615723,920.6302853132534 285.6532697745507,920.7738286131349 295.50308945196224,919.0472561928533 304.6983722329646,922.9774946814697 314.06669267806114,926.4752899925171 323.9884977227583,927.7234024293676 333.75371897063394,929.877573727115 343.75286230261787,930.008465386288 352.9158112709163,934.0135079833597 358.7432337001072,925.8869374993385 367.66369600125694,921.36749590399 377.66241136170333,921.2072113421228 387.5249797430747,919.5550173696203 396.8058232426113,915.8313170678896 406.4977336615369,918.2944192646166 415.73634031128165,914.4671294700893 425.6982977995318,915.338566789864 435.68585378049397,915.8372906885766 445.68317172999826,916.0688804476749 455.1343015632212,912.8014433976978 465.10425309813337,912.0268038741111 473.9156747360553,916.7553183045386 471.75110190868935,926.5182392032773 467.9815365506115,935.780548689101 457.98670324335194,936.1019630013122 450.232022547193,942.4158308571214 440.40682804664436,944.2774304452143 430.4251152523211,944.8819217120197 421.75916727144323,939.8917969046909 412.7809609934605,935.4881833850923 402.9260347534455,933.791000777397 393.5113373053531,937.1619757047558 383.5246275682996,936.6465839820429 373.57977087832205,937.6953095971631 363.62750862942494,938.6712584324911 354.8286173667214,943.4230488894788 345.0015123638439,941.5715610384736 335.002229915588,941.6913546944043 325.5190366627697,938.518178725489 317.19150584389894,944.0546243777787 308.1974975838108,948.4258731029678 307.12865532882415,938.4831583713689 297.74620764233106,941.9428802402797 287.81276924837164,940.7910114658906 277.9667707695616,939.0427798006726 268.734015943154,942.8841647482466 261.043919761504,936.4917926754576 251.0473889609902,936.7551782376636 241.06538664040676,936.1554869238472 233.6132895748095,929.4871850916776 224.11321376541912,932.6094534363008 214.3041962571354,934.5544921305645 204.40022745936983,935.937026778552 195.88029498234252,941.1725545061927 185.9415369933412,940.0675252594928 176.12129830701346,938.1799574743386 166.14836305057193,937.444728006196 156.49291410769848,934.8423625991933 147.09062965728174,931.4369188522711 137.1829184283912,930.0814638714929 127.22984974879549,931.0491538317856 118.40608182510609,926.3437187159998 108.79458508043626,929.1039959352663 100.32487087890908,923.7876116992983 90.3548543229447,924.561413918083 80.82244451000844,921.539301551172 73.3922454587941,914.8466083668602 67.24806391395221,922.7364140136442 57.277831554732074,923.5074306821798 47.40901537716297,925.1218863964533 39.667285820341654,918.792145211457 29.80033883114104,920.4179856440655 25.224307256332963,911.5264202573431 17.04700385910896,917.2824352981287 15.648596988403074,927.1841754595328 17.193104496625345,937.0641803460217 26.97012510848191,939.1641489065796 36.691233203189185,936.81892878663 46.513294858956954,934.9408699935416 53.737191198339154,928.0260076176254 63.72692721223109,928.4789693960909 71.82221031079669,922.608160971855 80.35480209594516,917.3932901749879 90.34818237445471,917.7570904073907 100.33526639760153,917.2490030973685 109.42397976091556,921.4197691420558 117.86022748027946,916.0504373011721 127.70512798748405,917.8048414744579 137.6140220886751,919.1516219656223 147.53391935058994,917.8884361863109 156.9726640733007,914.585392429486 166.9671765405915,914.2541515184129 176.28942570755416,917.8729455812278 186.16712309784552,916.3137489079913 195.54388650957532,919.7888471685367 205.47818673214664,918.6444350540345 212.97986369784286,925.2569113452845 222.97923342919844,925.3691832280056 232.95221155335133,924.6345354653548 240.76089281989522,918.3875764549621 249.02662892218544,912.7592901538491 258.8993562197953,914.3496535422066 268.85400489891055,913.3983546010794 278.7846763675378,914.5738392595043 288.37626707283744,911.7451668249495 298.356418939805,911.1154298066124 308.0170907762779,908.5325206583883 317.9407384252276,909.7658970565305 327.89901197189016,908.8533248841294 335.0006644157783,915.8936751997186 344.5881748516269,913.0512038027658 353.50998192651264,917.5679901070444 362.5502232386953,913.2931758400257 372.3608590093019,911.3563160679993 381.7459668348886,907.9038168135298 390.385966192552,912.9387359886085 400.2189047878406,914.7589883286109 410.20240166755946,915.3332618284724 420.1542160984631,916.3137665621978 429.14025516981883,911.9261588076157 437.46270891694707,917.4702334487899 445.816113608023,922.9675628064973 455.81508150678,922.8238931867915 465.81492723821447,922.8794390913421 475.4475260323405,925.5651495134467 485.4205927350425,924.8317052119098 486.2581079200574,934.7965719102089 488.3077335068286,944.584270054004 478.4125103249078,946.0280699639562 468.61067727377105,948.0089962214537 459.07437262122045,944.9991966311583 449.16877783126046,946.3700328201746 439.3293272275964,948.1547489931431 429.6720475195878,950.7503122540338 421.58063859718055,956.6264590910681 413.64119742584734,950.5465516997554 403.8672710888949,948.4322281767751 394.518767565971,944.8818082182519 384.764095601038,947.0832565725289 376.56985452906883,941.351379632603 366.58834565469147,940.7435304813118 358.38316135709414,935.0273297638367 348.38331826132725,935.0833481540632 338.38506836612413,935.2704284391572 328.6286079350321,937.4639370114076 318.6338749665279,937.1394175385013 308.67824905181897,936.1984007233614 300.570134912223,930.3453258819396 292.57885732350667,924.333713577401 282.5859542071987,923.9570342600996 273.8615845370189,919.0697677584601 269.6708083483134,928.1492718713607 259.8642180436415,930.1065114060917 249.91887280104956,929.0624290311545 240.6013849340577,925.4313933870909 230.75802328289905,923.6683756887966 220.76077959005988,923.9031490816408 210.94704547786847,925.824248447944 201.5029590577307,929.1119880497022 194.51219511766038,921.9615181676446 185.5968602396472,917.431970285915 177.06013867788167,912.2238626663581 167.0602373592908,912.1794372407023 157.30979915802084,914.399562210882 147.578518995442,912.0969145180293 137.57905082269417,912.2000467739085 127.59343846392412,912.7362797646678 117.59398048451735,912.8403956524007 107.94339605689729,915.4607429968147 98.60222136582632,919.0304005981674 88.65372710590933,920.0440385810776 80.29087706730523,925.5269884469636 70.60322482397525,923.0471912753579 61.21379579343816,919.6064613410988 51.72884028704631,922.7743658601408 44.51828671888345,929.703140444485 34.65387693065126,928.0619763668167 24.703709920543638,927.0648923829086 24.617811300110198,937.0645234474533 29.92089228691134,945.5425734618982" fill="none" stroke="#c49fd4" stroke-width="3" /></svg>