<svg version="1.1" xmlns="http://www.w3.org/2000/svg" xmlns:xlink="http://www.w3.org/1999/xlink" xmlns:ev="http://www.w3.org/2001/xml-events" width="515.367983344284" height="956.6264590905813" viewBox="-15.367983344283969 0.0 515.367983344284 956.6264590905813"><path d="M 0.0,0.0 10.0,0.0 20.0,0.0 30.0,0.0 40.0,0.0 50.0,0.0 60.0,0.0 70.0,0.0 80.0,0.0 90.0,0.0 100.0,0.0 110.0,0.0 120.0,0.0 130.0,0.0 140.0,0.0 150.0,0.0 160.0,0.0 170.0,0.0 180.0,0.0 190.0,0.0 200.0,0.0 210.0,0.0 220.0,0.0 230.0,0.0 240.0,0.0 250.0,0.0 260.0,0.0 270.0,0.0 280.0,0.0 290.0,0.0 300.0,0.0 310.0,0.0 320.0,0.0 330.0,0.0 340.0,0.0 350.0,0.0 360.0,0.0 370.0,0.0 380.0,0.0 390.0,0.0 400.0,0.0 410.0,0.0 420.0,0.0 430.0,0.0 440.0,0.0 450.0,0.0 460.0,0.0 470.0,0.0 480.0,0.0 490.0,0.0 500.0,0.0 500.0,10.0 500.0,20.0 490.0,20.0 480.0,20.0 470.0,20.0 460.0,20.0 450.0,20.0 440.0,20.0 430.0,20.0 420.0,20.0 410.0,20.0 400.0,20.0 390.0,20.0 380.0,20.0 370.0,20.0 360.0,20.0 350.0,20.0 340.0,20.0 330.0,20.0 320.0,20.0 310.0,20.0 300.0,20.0 290.0,20.0 280.0,20.0 270.0,20.0 260.0,20.0 250.0,20.0 240.0,20.0 230.0,20.0 220.0,20.0 210.0,20.0 200.0,20.0 190.0,20.0 180.0,20.0 170.0,20.0 160.0,20.0 150.0,20.0 140.0,20.0 130.0,20.0 120.0,20.0 110.0,20.0 100.0,20.0 90.0,20.0 80.0,20.0 70.0,20.0 60.0,20.0 50.0,20.0 40.0,20.0 30.0,20.0 20.0,20.0 10.0,20.0 0.0,20.0 6.123233995736766e-16,30.0 1.2246467991473533e-15,40.0 9.999965258056893,39.97364022657181 19.996879881782093,40.2220310596339 29.995864811180283,40.36451046750687 39.9951420221835,40.48474048668584 49.98654577695654,40.07019132300647 59.98577591184643,40.19427480099588 69.9853053244184,40.291287826451786 79.98484471760153,40.19530905703482 89.98424521953781,40.08581201654265 99.98424521140728,40.08540876663304 109.97971406775812,40.38641099539614 119.97801855801985,40.20227159164945 129.97773980825832,40.12760622130082 139.97491544061126,40.36526012067706 149.97461227084003,40.28739290349052 159.97441018963778,40.22381945614077 169.9743956286026,40.24088463975857 179.9720489488292,40.02425572072478 189.97197526807,40.06264334575418 199.96974680828586,39.851540930681274 209.96855337745384,40.006031035099355 219.9685533620438,40.00658619340791 229.96061294670517,40.40501467704948 239.96049281894298,40.4540303971099 249.95765223183113,40.69236560915772 259.95506538453077,40.46492274989766 269.9550426630967,40.44360542913621 279.95488361802103,40.50000468639027 289.9502423059152,40.804643325335626 299.9459391648823,40.51131023201797 309.94444455508795,40.684197368693965 319.9439119369131,40.78740628214136 329.94033020943823,41.05502862935075 339.93955726316227,41.179360154206314 349.9395531334515,41.18844828920727 359.93913867635433,41.097404507600665 369.93676587267873,40.87957328092562 379.9367077059519,40.91368092160826 389.9366517361306,40.880223586189636 399.93043593046326,41.23275369427538 409.9298672892426,41.12611176509274 419.929710943336,41.18203039962809 429.92596169443567,40.908222216516364 439.9257234987985,40.83920152392647 449.92561962715644,40.88478026954212 459.9245856057588,41.028583464054286 469.921391864418,41.28129798051948 479.92138889582776,41.27359267091996 489.9194877837376,41.078609011153496 499.91916850527514,41.158518130224294 499.828938459089,51.15811104887679 499.7431289434168,61.15774287845032 489.7438758603903,61.279963096028084 479.7458322936506,61.08216310215892 469.74584406054885,61.06682237772636 459.7465899900376,60.944682976367794 449.7490622585186,60.722333572256254 439.74962764255747,60.6159974959826 429.7497526747014,60.56599122391343 419.7568106330761,60.19034597541808 409.75690109086787,60.14781189904898 399.7570345051223,60.19946717263443 389.7570535994766,60.179925250477176 379.7604020763376,59.921162183324164 369.7604235406702,59.900442960550755 359.76083439539747,59.80979570056379 349.76301198620376,59.601116343116146 339.7634125919202,59.690625861289895 329.76795263673614,59.991923528574624 319.7680891876174,59.93966456781444 309.7681695731161,59.89956838954231 299.76873261715326,60.00568419291035 289.76988830041137,59.85365679551758 279.7704505246477,59.74761827124556 269.77195835808897,59.921268480758265 259.7723673808828,59.83082353298509 249.77242595442215,59.865050238277774 239.7757755902656,60.123858075888286 229.77608807114822,60.044804170176775 219.77609118489016,60.05269561041696 209.77693716651214,60.182768346817575 199.77735368542807,60.09149839102397 189.77771653595326,60.006311074813404 179.7782245561334,60.10710862199732 169.77846867839833,60.037234551680086 159.78003796053946,59.860081566449274 149.78081151695943,59.984462151790915 139.7810324813771,59.91798479077139 129.78103249294367,59.91750382157881 119.7888522253846,59.52211350732822 109.79413408892161,59.847089464373695 99.79487037026357,59.72574250426018 89.79501321418869,59.779192088897375 79.79502850529204,59.79667985128236 69.80053554460002,59.46485089130797 59.800535656545286,59.46634718846426 49.80818336403664,59.07532843904537 39.808481118202245,59.15249705089324 29.808668242106144,59.091321540575926 19.809035199170772,59.176989542975065 9.80976177896706,59.297534422615406 -0.1902322746866023,59.28662906194352 -0.1409144397208807,69.28650744876175 -0.176255814630859,79.28644499792772 9.796760266811587,78.55231269425873 19.772340645163077,79.2507367166468 29.772170742429925,79.1924441288157 39.753669603961,79.80045767903792 49.747490924672434,79.44898163477096 59.74696956346003,79.55109408470058 69.68600541630045,80.65362132515892 79.68139734214732,80.35007520227961 89.66777842229631,79.82835408708266 99.66595885950377,79.63759784198966 109.66459880210371,79.80251993949327 119.66167022883161,80.04451764382267 129.65152790226009,80.49478830091928 139.6511254726139,80.4050752529619 149.63548922671157,79.84607576650335 159.63433626626292,79.69422755395135 169.62496676985634,80.12701172726274 179.62364572372027,80.28955149949813 189.6003234800694,79.60698212868772 199.6003159949595,79.59474684600733 209.5884085852682,80.08260584963438 219.56087037334467,80.82422966623884 229.55894834846742,81.020282728866 239.55836551182603,81.12824750612847 249.54899627264257,80.69546927073971 259.5446645690233,80.40116448190986 269.54465115917236,80.41754119829457 279.5431085676863,80.59318131368039 289.54105786987105,80.79568995780171 299.5396646831414,80.62877143389399 309.5315814033467,80.22677609003915 319.5278960965104,79.95531236273953 329.5197420497831,79.55156188773216 339.51722007357563,79.7761351804111 349.4846641362771,78.96987290489704 359.483987440927,78.8535395516182 369.4827544327449,79.01057025986667 379.4686446885128,79.54160302699077 389.46861371720047,79.56649128300795 399.46250633611726,79.91593415610862 409.46153642404363,79.77665996343939 419.45816061653414,79.51684319316966 429.4553899080674,79.28145735563892 439.4411813203877,79.81434558935119 449.4351597865581,80.16132457678893 459.433712543052,80.3314503408774 469.3662202484382,81.49131700668167 479.3662138760595,81.48002774037812 489.36386942676165,81.69655369612789 499.3632930196015,81.80392134003702 499.4407449623239,91.8036213953671 498.63312916464633,101.77095587973862 488.64695474363737,101.24529397966761 478.65888449871136,101.73361025261396 468.65985850978007,101.87317841759648 458.6609762654595,101.72366633042377 448.66471293269984,101.45031786760636 438.6757886625316,101.9208409008832 428.70676783042074,102.7073672189046 418.72890068710035,103.3723238116584 408.7289314951169,103.39714636958804 398.72899638401685,103.43317099711668 388.7297224394875,103.31266961846724 378.73333132510294,103.58130447892523 368.742460890824,104.00851398894545 358.76738475377454,104.71410314707248 348.76804493968405,104.59919761045867 338.7688792138597,104.47002800296931 328.77488588988615,104.12347722693127 318.7786955456827,103.84747251238198 308.778917138397,103.91404431709437 298.79000623992465,103.44323749643335 288.7901195326228,103.49083834860431 278.79277997200694,103.72149330681118 268.79443096466116,103.90319946330342 258.7965145038451,104.10732305954753 248.82507654255795,104.8625879032952 238.82522542599244,104.80802008747581 228.82560584692746,104.72079466698176 218.8264053748614,104.84724592017288 208.82950969004108,105.09639781525088 198.83035187278767,104.9666174405396 188.84830457649264,104.36767522752646 178.84831349237936,104.35432166415578 168.84988340000746,104.53150994805746 158.85201448744374,104.73794930281352 148.85204413255673,104.76229886914808 138.86178806488397,105.20364193562496 128.86188365514025,105.2473660249589 118.86190646043332,105.22600940206995 108.88263058185349,104.58253994732114 98.8880531514272,104.25326500564891 88.89456648343199,103.89239907957423 78.89766303762681,104.14123938026658 68.90039712776144,103.90741395940002 58.90830512579544,104.30502862744795 48.90889802409168,104.19613595369873 38.909966242882604,104.04997428044916 28.913544573726963,104.3174697242149 18.93788897196798,103.62012094842586 8.939850113239844,103.42208312536644 -1.0381014079936168,104.08577238994341 -1.2310739358065312,114.08391029674934 -1.0888651764428496,124.08289907905927 8.911134797595013,124.08361966397722 18.90816122164926,124.32746936514785 28.90607064135935,124.53193754182105 38.8491259087929,123.46626782339898 48.83073974864726,122.86014477316266 58.82255802914917,123.26457950142877 68.79935791107769,123.94536148999107 78.74974951332935,124.94020165898283 88.70521290742438,125.88293630289569 98.64735024537212,124.80873652939674 108.63923492692524,125.21152743116069 118.58893985626116,124.20984294034118 128.55327002493397,125.05371751021346 138.55239019111724,125.18636705686562 148.53454431789095,124.5892079580199 158.479220046711,125.63964817460398 168.47353598810025,125.9767666459046 178.42455090962687,124.98818077125625 188.42337037003665,125.14183427147833 198.41604355568018,124.75910381159726 208.4158737621752,124.81737765881331 218.4129074617519,124.5738264126092 228.38705907015168,125.29236638550958 238.35930345630527,124.54782498113518 248.3579224831357,124.7140102882614 258.3128402515271,125.66248918869346 268.3034674652241,125.22962907625914 278.30285921775,125.33992222889222 288.30229988146294,125.44568806876462 298.29577994656853,125.08463933474467 308.29002643474837,125.42381057984763 318.289897324738,125.47462576988572 328.2776903256592,124.98067134815311 338.23516193731024,125.90195257729212 348.2265731252963,126.31632254795426 358.2261903415595,126.22882667255789 368.22063434067934,125.8955262848333 378.2122021584254,125.48495041683603 388.19143909842313,126.12902346811525 398.1911449873919,126.05232839576587 408.18825164043096,126.29286647541628 418.1877852466544,126.19628667417845 428.18257728050133,126.51898188664705 438.1823928954924,126.45825572934804 448.17439584339525,126.85810206120595 458.1739357281944,126.76217452443484 468.16450330777513,127.19640883656406 478.15830665340644,127.54839561024794 488.15812025765644,127.48733924074959 498.1479889432875,127.03731297057439 498.64003585336,137.02520012643913 499.0277875146569,147.01767973107988 489.0410703754128,147.53292800204113 479.0513440178027,147.07975331158445 469.05137378801754,147.10415420113225 459.0851474228763,146.2829769737548 449.1562795919323,145.0923537774221 439.1562876346733,145.07967092463534 429.1891184020353,145.88932362052105 419.19111291145464,146.08903894371403 409.1911907357057,146.12849118020674 399.2215444228185,146.90704907525034 389.2224045311863,147.03820328818293 379.2235331839915,146.88796420456768 369.22642640050367,147.12849686252102 359.2345194589267,147.53073518847484 349.24241015420466,147.9279147983333 339.2861367689904,146.99377333213326 329.2864861354752,147.0773628508493 319.2959263519606,147.51177649246432 309.29783240275583,147.70701322793067 299.31031446974885,147.20752795501042 289.3167399593176,147.56595298825908 279.31992242030543,147.31368509157227 269.3271841513236,146.93265768097635 259.33487566538895,146.54052106968123 249.36171918584336,145.80829853895878 239.36587277364475,146.09649032186746 229.3834558530641,145.50374043894453 219.3920715592722,145.91875838285617 209.39422694688324,146.12637125944326 199.41383122989149,145.50051078597298 189.42310038969745,145.07004908175782 179.42310045000784,145.06895080683992 169.44255188633363,145.692369099915 159.4468758563362,145.39832709044265 149.45232242037093,145.72832953836559 139.46402059842023,146.21188585733617 129.4697783844029,146.5511830243649 119.4706112483558,146.4221226299932 109.5322161570148,147.5304109536749 99.53400017276303,147.34152704156978 89.53441475573355,147.25046943600412 79.53909794395857,147.55647896567325 69.55383318263162,147.01381180598665 59.558957528670305,146.69371703587754 49.56399581911785,147.01111335687085 39.57014891751207,147.3618612824022 29.576772275049308,146.9979611836394 19.60826278754073,147.7909420140832 9.609779346624832,147.96509390678165 -0.38476244012216654,148.295448977831 -0.4213501239021676,158.29538204467678 -0.531893461028455,168.29477103454096 9.468073558654131,168.32045381594253 19.436705113630012,169.11189864733578 29.435437621284912,169.27110995461342 39.43301978460866,169.05122160205522 49.397311392139486,168.2068918323025 59.38461598931475,168.7106247806409 69.37781919062924,169.07925708692704 79.32656914914685,170.09038233282672 89.3129573327902,169.56879720498242 99.31294032508228,169.58724046579042 109.31285637671459,169.5462653476521 119.3126693260534,169.4851018108361 129.31266669521926,169.49235554610715 139.24111480411636,168.2982373991311 149.22453355159968,168.87386758631612 159.21413747147702,169.32973327264432 169.18301027666615,170.11813354786028 179.05994016248462,171.68218470770952 189.0574609211115,171.45952200130228 199.0574290866779,171.43428933084238 209.05742675408482,171.441119547265 218.96564409214741,172.79286996125256 228.89269491910423,171.58719094965127 238.88694501171562,171.92625596751196 248.8342719140932,170.90122548150913 258.67230104398993,169.10869017103332 268.57294712055136,167.70255814783334 278.5264550888519,166.73939714105512 288.49861829519716,167.48502505497325 298.48024818577943,166.8791663854512 308.4789874132796,166.72037765647522 318.4460151910765,165.90898547224853 328.4369204382737,166.33538005655743 338.40734280783226,165.56682441601686 348.3650623174824,166.48542235153198 358.3410374253313,165.79265929854898 368.32678566674855,165.2589627002537 378.32641853520465,165.34465106639618 388.32640365417376,165.36190274446926 398.27698084016475,166.35488495258556 408.27662753684785,166.43894410744227 418.2410969742416,165.59671561632715 428.23344655447806,165.20562756185814 438.2254524739144,164.8058554943634 448.2126445544397,165.31181433329476 458.20905522882094,165.5797203412831 468.2087078642229,165.49637064843196 478.190284980902,166.10309815216644 488.1834791751599,165.73422175572782 498.18302689153916,165.63911409118464 498.0568356724267,175.63831784829543 496.9919866061048,185.5814610367421 486.99222320243865,185.6502496309979 476.99522194706634,185.89512898922152 467.0218647441427,186.62461243858257 457.0333324356211,186.1458407585307 447.0417466670389,186.55597955097258 437.044625026887,186.31606516622998 427.13261833198385,187.6397431029637 417.1591263377184,186.91210484096564 407.20232791850424,187.84063337533289 397.2170497826605,188.3830543832603 387.2443455526601,187.64469786982588 377.2877114850247,188.5749870953911 367.2878653311134,188.6304568899111 357.2879997028098,188.5786165979275 347.3122889687997,189.27517625176543 337.3562062326781,188.3390050326492 327.4108981622281,187.29456863734256 317.505479240624,188.6666750426655 307.55660094192433,189.6765367152037 297.5725157642112,189.11258355742547 287.61386334756133,190.02101189491532 277.61754385042747,190.29229866425877 267.6179528572926,190.20185547757907 257.6296151592923,189.7190407815448 247.63082974721806,189.8748941847523 237.6310507042703,189.80841793167707 227.64574949887555,190.3504140917574 217.68642362049513,189.44939908177014 207.69240170985458,189.79512447805533 197.69521425527145,189.55796841567056 187.70159283927248,189.91508323430267 177.70186832631794,189.84085611650843 167.70255745633327,189.95825341377943 157.70320067000515,190.0716723703687 147.72823590091923,190.77883420156078 137.743688776056,190.22311960630068 127.79237620822903,189.23753441089175 117.79381691648979,189.06779316789212 107.80688373997788,188.55674940471175 97.82399489089019,187.97200140192697 87.84497344052016,187.3245982098937 77.84721595790882,187.11283107625647 67.84831385583394,186.96465296342373 57.86650030177205,186.36182780473635 47.86661576103286,186.31377396112924 37.889721642529615,186.99317351086074 27.889735502473044,186.9765242262966 17.97651370733889,188.29107115983572 7.976514555706128,188.29519030344383 -2.019321572015487,188.00664202717908 -2.881128562639024,197.96943725296347 -2.986738062329742,207.96887956909165 6.980478527793391,208.77794906275346 16.980478516792076,208.7774799931292 26.94061903533811,207.8855153913554 36.864865412688665,206.65696590450335 46.829079579287225,205.81172271928588 56.75809800635457,204.62235604960114 66.74281065724682,205.17508860618926 76.74116942890242,204.99392052606086 86.72878703766342,205.4914087180486 96.72858171956592,205.5554892907237 106.68710479791113,206.46533438636678 116.64433623775453,207.38920778320974 126.62848276350184,206.8263417668187 136.6256176214185,206.58697879426964 146.6148092183251,206.12216567021738 156.51488439838857,204.71201978092395 166.49752934271427,205.3009169837776 176.44376566186324,206.33647629334996 186.44376408835384,206.33086646398556 196.43450367997676,205.90060792266615 206.38922324265928,206.85116482698382 216.18057227779994,204.81905162343193 226.17937296796333,204.97392175737758 236.17859124237714,205.09895735482422 246.16618530241027,204.60099662144185 256.0925401934757,205.81239192299333 266.056680483893,206.65850555181837 276.05408361444785,206.43062258805972 286.05379742033386,206.35496678608123 296.04806496940097,206.01641670460998 306.0380802518992,205.56965652794713 315.97298620694283,204.4305148930138 325.9005650302077,205.63183862451305 335.86035264605727,206.52773518504293 345.8361046437099,207.2237036335585 355.7905391618556,206.27016631181888 365.6261207021947,208.07608318790707 375.4771891668627,209.79551626436705 385.47584257871057,209.95961973703763 395.4447262582097,209.17135697335058 405.4161552949623,208.41597431204156 415.40948556398763,208.7811456884968 425.3777614139716,207.98523326955475 435.3777168490625,207.95537868538622 445.3326237154865,208.90397200226352 455.24629330887876,207.59280641659197 465.09350150122674,209.33421125652882 475.0001837033496,210.6971667752977 484.94196767216164,209.61970145452298 494.86597138997405,208.38919334449474 495.1132783997368,218.38613483891805 496.0119067255297,228.3456763510602 486.0145548258714,228.57579587304642 476.2671739888838,230.80930585035284 466.2691655354574,231.0088727945426 456.3926723870783,229.442066140861 446.44010884113936,230.4149375938534 436.4429479920506,230.65321255571 426.52731988434147,231.94948383503694 416.54282650438654,231.39280444289432 406.54475957231455,231.58941985889405 396.6878326868174,229.9038954971704 386.6894616815416,229.72340383292797 376.6947355896647,230.048135026924 366.7062631367137,229.5681162182933 356.7160194642622,230.00973977410032 346.7842425494993,231.17584753729483 336.7877139384141,230.91237889066926 326.78887828150624,231.06497478232063 316.78993150424725,230.91984261654594 306.79529869556217,230.59225290432013 296.8052133501769,231.03744364088004 286.8119799156636,230.66963183665771 276.926737195014,229.1590106552078 266.97342987897184,230.12424299636783 257.0881514273995,228.6138556503932 247.0903961232031,228.82572560440408 237.11276635997032,229.49423462293055 227.33625676869474,227.3918882642882 217.33717181430174,227.2566104951182 207.40859573569168,226.06355682857512 197.4340380229726,225.3506764489625 187.5413905358536,226.81202024684103 177.54194635755903,226.70658721041102 167.5524523277109,227.1648546297516 157.62092846587547,228.33311563731516 147.74021334197323,229.87307298746805 137.74061175202885,229.78380909565226 127.7538748551211,229.26894391724022 117.75968569319778,228.92808764885933 107.7632468822999,229.194941728788 97.78751618584876,229.89121543350672 87.82457644459555,230.75135013932754 77.83630966060991,231.23562965771487 67.8769182265854,232.1359197575601 57.87849155653252,232.31330105188238 47.878511502060164,232.33327378717496 37.90906409145322,233.11437450228314 27.911114373249955,233.31686260632733 17.93311820361135,233.97988028231902 7.933118965246599,233.98378319206853 -2.0570915452936607,233.54141009716892 -2.212528876129422,243.54020198600142 -2.624441669855284,253.53171477688375 7.226288660401624,251.81034556589015 17.218426300828508,251.41387945792587 27.2142273695962,251.7036396926421 37.19169534310701,252.3745590898622 47.052004190660206,250.70893325226714 57.05061492706126,250.87561661054167 66.97091699620829,252.13561933152184 76.9691678363435,251.94858955385072 86.96867550615094,251.84936072002583 96.95755170645727,252.3209031411865 106.9542034986011,252.57965581581513 116.92925827729312,253.28554685704873 126.92897075693261,253.36137775142703 136.92769568315074,253.52106447543548 146.8941457806061,252.7026071125068 156.89255302969067,252.5241344774809 166.806574372565,253.83263774955648 176.80428880789464,253.618847970564 186.80273088105122,253.44233703681596 196.7894879424764,252.92786313458706 206.75553042851138,253.75126896802885 216.71550431210326,252.85744558605245 226.6700829462505,253.80947721188213 236.62198425039583,252.82985461488337 246.56069634895613,251.7244127023745 256.5583709923908,251.94005528634978 266.55744180028825,252.0763746857506 276.5525874252327,252.38792554219984 286.49074772945596,253.4983172602706 296.4814195021859,253.06648681949852 306.47066118749666,253.53022225317702 316.42530808114464,252.57890462862446 326.3384988403046,253.89368558852027 336.316574184885,254.55551065443814 346.3007950631344,255.11705624860582 356.29885967818626,255.31378945182212 366.26503882028027,254.492039302634 376.25916302568316,254.14928375274397 386.24536067450924,254.67450420034706 396.24534049498897,254.65441465086525 406.24450089173365,254.78399613169168 416.14328335271193,253.36480418194384 426.1414852178917,253.55443398739604 436.11524555416474,252.8304831917015 446.05096372916273,251.69844770329354 456.049651782031,251.53646862615923 465.8612648329817,249.60456559070076 475.8345191677874,250.33545407280943 485.79474222018933,251.22649657819346 495.7945856548576,251.17053871795764 496.83339444435404,261.116436178663 497.8217660445506,271.06747238500475 487.8230182616104,271.22572147078034 478.1433974743088,273.73668571067697 468.14518337372624,273.5477021163838 458.1693799062827,272.8524718099802 448.1747133170745,273.1790292636791 438.1881129010227,273.6965349449174 428.1899284192071,273.5059908093965 418.1966692190651,273.1388797107123 408.26223951974055,271.99559210508585 398.26225807666407,271.97632715957343 388.288333505732,272.69801175367076 378.29999740841055,273.1808595629708 368.30181249728156,272.99033795560615 358.43430670983764,271.3678924142209 348.4399304858129,271.70321896051445 338.500611626466,272.8031919657432 328.5420947731879,273.7131051940103 318.7820905536035,275.8907914968773 308.78805361893757,275.54550067954585 298.88949491776987,276.9662524662901 288.9728070597295,278.25439140530045 279.18613970396933,280.3089332198416 269.25459478704374,281.4770152217104 259.2723052236234,280.88212441489867 249.3664474803179,282.251059172071 239.5338301563346,284.07304615339206 229.53557251557558,283.8863802780854 219.5419540629285,284.2435780145173 209.55219412434602,283.79114418566246 199.58225003153825,283.0164088848741 189.58225399209073,283.02530894294534 179.67445762612627,284.3801414678655 169.67529797993905,284.5097808525492 159.68901685717145,283.9861499357235 149.70764686350896,284.5962753733297 139.82073037950389,286.0959028064974 129.8873174877381,284.94381412861657 119.8967705639052,285.37852341387884 109.90595168525323,285.8069369220358 99.90596565584833,285.7902213093611 89.96413289549585,284.7132062838474 79.96794316375404,284.43717938838296 69.97403097102017,284.7860620103711 59.999533375018935,284.07234098128083 50.25122627149486,281.8428772306488 40.356642602848765,280.3947011280418 30.381457455906855,279.6906547629282 20.450438557274133,280.8632005552109 11.212468478165796,277.0343745187476 1.2911453117527607,278.28631166876596 1.6803980369708946,288.2787329126843 2.4126642842777795,298.2518861824909 12.21578141267667,300.2264480495623 22.202604297288403,300.739642624159 32.050988543174405,299.00490121824726 42.04564520407985,299.3317623976777 52.023330862067155,299.9994366523817 62.015761860399635,299.61043441130306 71.90485174405359,298.12520672740635 81.86564571283806,297.2405692245686 91.8514066811374,296.70711080633026 101.85136811751376,296.73488257231617 111.8312015932661,296.10011978492787 121.79088685000073,296.99715355618895 131.7236151356328,295.8391773889883 141.50072589798458,293.7396285944362 151.45995252293997,292.83751716407977 161.32446753164743,294.47804867642117 171.2999605681345,293.7783782690166 180.89380654883746,296.59939214678286 190.87578427810422,297.19949264871775 200.77476318058794,295.7816715428718 210.72286227844194,294.7641626538313 220.7184421821782,295.0614544095595 230.61511858732348,293.62764963489843 240.1972441361322,296.48822125030455 250.12405579089562,295.28057462531297 260.08947042102966,296.11154469066486 269.93077960128437,297.8859836495008 279.92988965684884,297.75257414193453 289.85596614752234,296.53889976167477 299.85040176618827,296.2053481699513 309.8406116880617,296.6477345586451 319.783428436519,297.71562739343597 329.7831883628091,297.7849196481497 339.6372210904944,296.08255687784884 349.63708740282675,296.1342650540023 359.60326782802304,295.31253046641683 369.249640576887,292.6767207635028 379.21334770628147,291.82552146859376 389.06060114339084,290.0843724958355 399.0349092856275,290.8007362886884 408.7541435164695,293.15371014447805 418.4974012802959,295.40513816856344 428.472889834193,294.705403853935 438.4565905039255,294.13468418791484 448.42120477874954,294.97519733711164 458.3372632554128,296.2681723126603 468.3241801131625,295.75680974422755 478.32266177762955,295.58255589113656 487.9613642212245,298.24627794942944 497.96050255374945,298.11500492466365 498.5530871848307,308.0974316564261 498.40658985677123,318.0963585254892 488.4316595728479,317.38871042730153 478.50945503554425,318.6336430037534 468.5140597264227,318.93707769918433 458.61541620302904,320.35723839318206 448.6211943907227,320.69713597543245 438.8829587814465,318.42408357431486 428.92398921804875,317.51913869460304 418.92462837231847,317.6321991955578 408.9895393261998,318.7697428851332 398.99677581427426,319.1501077030775 389.07905866909744,317.869917628024 379.1025950040407,318.5556090599402 369.25918789694225,316.79284517219924 359.3996777130555,318.4631921223365 349.4059555497347,318.8174763618269 339.6317726457476,316.7043392249125 329.9311366850918,319.13284945936323 320.0363553171021,317.68602477071437 310.29107247939027,319.92867106761435 300.2916780596592,320.0387221405345 290.2938996185903,320.24949747898046 280.344565719713,319.2441343760912 271.0780849350971,323.0034340274018 261.3513248448839,325.32510113261645 251.3752252692971,326.0160694806447 241.37532686049042,325.9709938381556 231.4348113316597,327.0600994441807 221.43845178978233,327.3299066151704 211.54327484491768,328.7740233797774 201.55528956457601,329.26407443801367 191.60875343935325,330.29675014201683 181.61319713318815,329.998666042671 171.63841555519286,329.2889249129019 161.79126411110212,327.54719920627025 151.82340439642022,328.3483063828836 141.83095007149743,328.73670896311694 131.8311202023818,328.6783772501051 121.83761073184732,329.03861114958914 111.83781246075395,329.1021291583573 102.0193905978007,330.9991247095069 92.0297029891613,330.5450966467218 82.09214722104387,331.6608857645914 72.1604148871041,332.82737316142646 62.34805598037485,334.755484331855 52.44848476548899,333.34180482029547 42.44996025798194,333.51358279554466 32.54841095897908,332.1138251453009 22.553944223237686,331.78120724416124 12.769701901609402,333.8472668250199 2.8572207519696953,335.16738706879977 1.932554915532556,345.12454495099314 2.866649083023063,355.0808227738675 12.750986508766497,353.5642893406563 22.74785014932707,353.3138550138602 32.744797562729985,353.06678738413785 42.645158556161945,351.6586495358677 52.63479158736966,351.2034222280274 62.61248188641448,350.5358173326388 71.9656928839497,346.9978173276097 81.94107327340275,347.6990919426609 91.87696953209375,346.56862056463757 101.71156338361259,348.37990844227267 111.58289829904436,346.7809253318623 121.34066330755856,344.5932274462721 131.2034907585714,346.24387418968735 140.95958611910234,344.0487424587366 150.92016115205467,343.1616432461756 160.88540022353789,343.99471602101823 170.87480954161143,343.5346057342553 180.60885105749358,341.24365925581407 190.60540471655406,341.5061758105767 200.6017240532928,341.2348831310902 210.44148313485616,343.017897773989 220.40772554591987,343.83888023659995 229.52278406191823,347.95175128368203 239.25988062783136,345.67382449247856 249.25983483339607,345.64356087391894 259.14913439562133,344.1597299642222 269.0194343909287,345.7650891148907 278.9536685281088,346.9100747513446 288.8982965834223,347.9609662021956 298.8394540474965,346.87773572141964 308.78537834627366,345.83918392059616 318.38649012587814,343.04299855557827 328.10297249194474,345.40731038567105 338.07780587928113,346.1163230053605 348.0711734669849,345.7521743310084 357.98634674566347,347.05192001912525 367.9314319961856,348.09847597073366 377.83886033065966,349.45599716661246 387.5830201507242,347.20847644345116 397.5333904132845,346.2134228579815 407.5296672380711,346.4862774753778 417.5173559893492,346.98233534255974 427.4281703103175,348.3149116050263 437.32916571966354,346.91124145000117 447.3275883630166,347.08884957167436 456.8572320711441,350.11967302350155 466.8106003823576,351.0842761861185 476.7368150210913,352.2968201835837 486.7367791346131,352.2700297323829 496.6793953197727,353.33978830075284 494.18710105785084,363.0242330092527 494.0382062560856,373.02312446470955 484.1838845819564,371.3224350918997 474.2584467842761,372.5413216839902 464.2923708912179,371.71832029042866 454.3719635081492,370.4591470084871 444.4270373352837,371.5072135217656 434.5443531725921,369.9799434930925 424.588765935179,370.9213694106545 414.65190484056046,372.0433282273034 404.65190497914443,372.0449930635123 395.0135472286655,369.3800240442209 385.0228622547674,368.94849912915026 375.1081013286943,367.6456116517316 365.1602578882437,368.6656169871503 355.16084331877164,368.5574122375799 345.295476859696,370.1928157437965 335.3272535444564,370.9893858521445 325.39524449298364,369.8252569067687 315.3953882090034,369.87886940289104 305.5999998315653,367.8663171588114 295.60399345741376,368.1489062030468 285.6078122522887,368.42524171343905 275.76627221821565,366.65208358238095 265.80725334086515,367.5564855950808 256.0315522276065,369.6625880959655 246.19615952658975,367.85564304511684 236.21287729995333,367.27764997999816 226.6663889598537,370.25499113820314 216.6665822436591,370.1928168770553 206.68247116209682,370.7563112523824 196.9777733240018,368.3440840924173 187.02953097391784,369.36019144107496 177.06239132205354,370.1702082064782 167.14307489542128,371.43794699201055 157.25118047379127,372.9043796537189 147.29897406773478,373.8808977801497 137.49928867936367,375.8724213900891 127.60276426908916,377.30727490067494 117.85331192534066,379.531725169163 108.07104663766702,381.6071253333663 98.30723360145541,383.7676704020709 88.33369747686142,384.49470353159006 78.37922683138882,385.44786362749426 68.5254975049535,387.1519816871804 58.54778653571284,386.48468579007465 48.548011833847575,386.5518118799003 38.566195949732915,387.15459845542773 28.587172726633042,387.80197432216454 18.83348136646577,385.59618538153626 8.839086856595173,385.26140428728473 -1.1388928036042323,384.59813820142875 2.39394854310056,393.95329891725896 3.30546709240677,403.91166896131085 12.729604104567427,400.56717474304355 22.707202287243682,399.89819454523854 32.69001430500161,400.4842527489246 42.63397314133874,399.42704763106315 52.600810479132186,400.2407757686904 62.472040555684494,398.64114556899773 72.4311651816513,399.54438235105505 82.1348615759603,397.128129821398 92.12641429273572,396.71718662836815 102.10467966847534,397.37614041378527 112.06926734065686,398.2169688882126 122.06726931028345,398.017077379282 131.60667047152236,401.0170482932999 141.58548991047192,400.3665387969493 151.56040728434144,399.65870874356364 160.63557651078955,395.45855356651015 170.252013361058,398.2015705742589 180.2352200289527,397.62227390923954 190.06508235542438,395.7854814216098 199.85059883047802,397.84549776049 209.66286781933007,399.7740664759917 219.66142017563524,399.9442157581647 229.40847485112005,397.7092828390126 239.3868261723746,398.36693389361307 249.33922734816935,397.3924028084037 259.1705992664817,395.56370758945144 269.03659578604237,397.19530578631765 278.48074233961904,393.9077389239457 288.4410836220627,394.79745884462204 298.41506295636225,395.5183861911455 307.90056229173433,398.6846619780371 317.8875202221908,399.1952217642445 327.36932237996535,396.01789146337524 337.28319849028776,394.7082882909681 347.28268258450623,394.8098651065892 357.26708951712334,395.3680928413954 367.1486420738808,396.90266739743373 376.6785898161105,393.8728000685939 386.66516191970476,393.35474831469975 396.5493405829067,394.87231615631435 406.25668448015233,397.27387283076695 415.8324376022823,400.15570421792637 425.8136578008088,399.543133121215 435.66539710318386,401.25871836189486 445.3061003081716,403.91519002809787 455.12954057621744,405.78602441417684 465.0649987140544,406.9203398867366 474.9805787080644,408.2169791512926 484.90370470156233,406.9794127825005 494.64641313486004,404.7256088017271 493.1086848349038,414.6066710763772 493.6535860906575,424.59181417106936 483.6536837376953,424.63600615247816 473.69497400778425,425.5438059736803 463.714013312387,426.1605908607639 453.7206958052458,425.7950704078963 443.84924204461026,427.39331965367586 433.84982092236726,427.2857221628096 423.85728918604025,426.89931629005804 413.8580274062334,427.0208229108422 403.92617169696393,428.1862593828351 394.002412408975,426.9537815558327 384.4319322182257,424.0544870005183 374.47649650247206,424.9975138874608 364.66391159748497,423.0705532022315 354.76131294423885,421.67823861395476 345.6173078401152,425.72634565994053 335.6887053581653,426.91917957772563 325.7385415454164,427.9162954684133 315.81384651768764,426.69137563161775 305.81822924950774,426.395342815762 295.8459812722639,425.6508495113223 285.89588617380065,424.6530481625871 275.99540997956314,426.06037581716384 266.0640898951391,427.2303678601776 256.2480179513386,429.1394858748987 246.25159449226123,429.406914420135 236.25334451624056,429.5939903859948 226.25696043055706,429.3250941020984 216.3221493261084,430.46506266259615 206.42336201883552,429.04590451588626 196.52694828494117,427.6102878513177 186.820566744401,425.20484456795793 176.88292201348446,424.08984806478554 166.88716742189825,423.7984889310985 156.9428978439283,422.74421071323525 146.98873143561195,421.7878785975211 137.04110099236047,422.8099591053561 127.24550533199648,420.79841600150326 117.6076475474525,418.13163942201544 108.08595774056265,415.0759196669709 98.08611082397618,415.02058753493355 88.09908054362747,414.51144494253185 78.12045970352254,413.8578960695135 68.12046050294717,413.8618946307252 58.16773791117011,412.8906516070024 48.16954949098198,413.08098897699506 38.17418192651975,413.38533623145315 28.55346893663603,410.65735500602614 18.55681592460731,410.3986494647308 8.557369896322216,410.29339203072607 -1.3468068091169805,408.9123475754548 -1.5829273281572664,418.90955954182266 -2.040846312495364,428.8990695500154 7.958538305014636,428.78813140912507 17.732543606687937,426.67417295095663 27.73239750534354,426.62011737268574 37.536182488475,424.6488741090255 47.52945675109069,425.01557495732357 57.31761701342405,422.9681573939335 67.1898963372652,424.5612992432546 77.10451919152885,425.86523699395923 87.09254402471323,426.35448123939494 97.09101689560724,426.1797235500177 107.0646323778357,426.90566722045827 116.4822769276812,423.5429345321875 126.29960630247655,421.64029322422107 136.2962371818243,421.380733862859 146.27808685595735,421.9829606332781 156.27712676463582,421.84439330431826 166.12380389741722,420.09998812123723 176.1210917302544,420.3328743325199 186.08975626388258,419.54184499299873 195.91633856194872,417.68758494129804 205.89980672201892,418.26235750228585 215.89309205355232,417.8959584267422 225.67584238356537,419.9690710576982 235.60845565924063,421.1280333158754 245.52636082887418,422.4067659095618 255.51060567432714,422.9678852070787 265.40200477180696,421.4981151929692 275.26897003071366,419.87238563995993 284.9411344496535,417.33285114462535 293.7050314305282,422.14887748473336 303.52808546901247,420.2760162093001 313.52138015757873,419.90987242951735 323.5016047701494,419.28128935414975 333.48957237825493,418.79087824147507 343.437662566347,417.77328224620686 352.9106911299214,414.56988875902755 362.75931560050213,412.8365116974859 372.46619963136334,410.43309695770176 382.4637516634984,410.2118428848522 392.3925362540375,409.02052573368206 402.3206997097127,407.8240432234063 412.31360237733503,408.20073444367364 422.26191706778957,407.1853355960839 432.1298829175361,408.8049806152889 442.107176982246,408.13147994988157 452.0994566016927,408.5243514387817 461.83313047706264,406.23184344796897 471.7674839355538,407.37579334274767 481.74248928827313,406.6692042024263 491.7170518578082,407.38201662265294 491.14140258368803,417.3654342695915 491.44407176605523,427.3608527883953 481.45127202249284,426.98144102650616 471.4738742402564,427.6534034473479 461.748592238241,425.3255525111248 451.8812475183532,423.70212768105034 441.9166841453731,422.86101128847196 432.1280603766446,424.9062116977922 422.31155738053224,426.8131120431999 412.3786066236654,427.9691783309439 402.387747750797,428.396658134475 392.41830328310283,427.61551985890435 382.5404764104137,429.1738960243986 372.7507594974068,427.1339345631971 362.75076146565783,427.12766040856417 353.36148855803475,430.5688163576858 343.3958793799061,431.3974499973591 334.39663420622185,435.75790711834094 324.48257986250746,437.06616033155206 314.5284720987224,438.02310266364583 304.5851687487976,439.0864551411317 294.6012771403921,439.6538248192156 284.6249238312923,440.34111999016716 274.6785677413361,441.3755282904972 265.02043831185546,438.783128644725 255.24440302702868,436.678577835212 245.44232677115585,438.65830030921023 235.6808421808093,436.48725940853 226.07857146732314,439.27946232825593 216.17947231799616,440.6964436378692 206.53168757019728,438.06580693544544 197.28593019033283,441.87578993707183 187.3362075355594,440.8742815281764 177.57456921155986,443.0446310925147 167.57772732420088,443.2959322647055 157.5826728672706,443.6103943498569 148.01819979766975,440.6913440075571 138.11811167316475,442.10139901607096 128.1188371253267,442.2218503214113 118.17865814298162,441.1296773502457 108.1883117286861,441.56897055799254 98.29106469273711,442.9988310789521 88.29159847121538,443.10215234803945 78.29293028962826,442.9389512618996 68.4117317946016,441.402098535747 58.54688167271833,443.04061373945416 48.57758938534319,443.8236918255237 38.593469757493565,443.26034889551767 28.597725715176317,443.5520697217868 18.60295382931562,443.8753883720507 8.602997862572483,443.9050643420968 -1.3233459866857373,445.1165501184447 0.06784992845555471,455.0193059937399 -0.7006109926827415,464.98973566415447 9.079188960729205,462.90274911143223 18.8299386741323,465.1215055258611 28.8212373327302,465.53857999726836 38.52242064098213,463.1122571787436 48.507661571610384,463.6553626540484 58.50250508911382,463.9764593071289 68.39564169388687,465.4344881543399 78.14916714518378,467.6410105926811 88.12443355017382,466.9381164687357 98.03225770254602,465.58348715941526 107.96465890038772,464.42270878043297 117.78779383721658,462.5502718621759 127.68528569460544,461.1221069792156 137.67037238212782,461.6680408970691 147.6703294334632,461.69734911174726 157.6258681154059,460.75540986087043 167.52559218544184,459.3428011616367 177.50329637631194,460.0101984042838 187.45696365560136,459.04868517338 197.25823341421423,457.064973722866 207.25399399256503,456.7738200516061 217.2411041647072,456.2662469933235 227.0308312777712,454.22633448251827 236.9049986058484,455.80773246441044 246.77338262573537,457.4248276490051 256.7730744344434,457.5033370806476 266.76990999042073,457.75488999108046 276.71871021571746,458.76552052551676 286.71853399488367,458.7061539893084 296.5724877465497,460.40897384473266 306.0713305956718,463.5349912035589 316.0701365576568,463.68952060067636 326.0344374774515,464.5337404652722 335.8941658210032,466.2027991794472 345.8731134474814,465.55425907428423 355.63941067119146,463.4049711600781 365.48851664543605,465.1356102062398 375.03838438003766,462.16912638669595 384.4544302919567,465.5363328526899 394.31512413356353,467.199677964835 404.3086325478258,467.55994116593786 414.30815139913335,467.65803674354055 423.74818175457864,470.9574043932988 433.583629005377,469.150756287894 443.3365848314564,466.94171743478506 453.27072318467066,465.7959010536853 463.2580947472018,465.2934975585302 473.07198915385885,463.373217220927 483.06762664775846,463.66856632038116 493.0642209069095,463.92953225284765 494.6203644692149,473.8077110937826 491.59107974348905,483.3378440440873 481.94609591246524,485.97873156522274 472.24499728096293,488.405392922286 462.2710572754329,487.6839216712389 452.2789899061311,488.0821548784604 442.3111311084987,487.28103629144414 432.3816554513853,488.466579700515 422.5777978789169,490.4374619138281 412.65449960399826,491.6736461019639 402.74049690119824,492.982290594893 392.79124904759175,491.9760763296858 382.833672880859,492.89622679766137 372.94033174917854,491.43958639859255 363.0039987920578,490.3129598565491 353.20289648393896,488.32842123364776 343.35204065341463,486.6077703666138 333.4652056770228,485.1076056591248 323.5742328974909,483.6349694261881 313.62339357728007,484.6253212946396 303.6360303746578,485.1278909504156 294.24697254327447,488.5696336832384 284.26265521184945,488.0098056512447 274.34620060966,489.299739030422 264.375901157651,488.52959044912774 254.42713508269978,487.51862378998464 244.7621650303737,490.08540268339164 234.9509975718382,492.01956738697146 224.97348085281806,492.68976147950997 215.0228143989338,493.68184873552246 205.02795496344842,493.36124794811116 195.27298037573107,495.5613549439158 185.2733905725689,495.47078028689214 175.79422341898245,498.65596318185555 166.6380334677386,502.6764339971633 156.73253864735756,501.30487562676717 147.04490605294936,503.7847495581919 137.10262790630648,504.8576452916102 127.47057957794296,507.5453292388163 117.8341621200067,510.2173057687246 107.86346642070744,510.98230725367415 97.89444955503012,511.7688838436137 88.07185378192219,509.8936205879288 78.10906922145439,509.03169031133774 68.12163225626992,509.5327919641654 58.22724586035143,508.0832686465665 48.4561249224754,505.9560179285269 38.48728493290106,505.16720282835234 28.517695044556053,505.9464829180561 18.70830072367351,504.00334549176915 9.279193641758672,500.672889120972 -0.6405057581865634,499.4081504860257 -3.9748628864976197,508.835878873123 -5.744437096304839,518.678063951447 4.097942037024863,520.4465585077846 13.838403880193786,518.1830649509636 23.56767364804065,515.8719375670964 33.56713661142773,515.7683014544245 42.962061930472636,512.3426076196564 52.88504774476281,511.10391777575046 62.72050876824646,512.910490900629 72.62362946360753,511.52189430942224 82.56134187558149,512.636287425382 92.16354748191516,509.8438606145785 102.11014974834575,508.8118221688617 111.88130080476711,510.9389345383889 121.87176665133109,511.37550316831823 131.85329119188617,511.98309501017957 141.22265787831762,515.4780868406691 150.85608173299067,518.1608363325554 160.68792133488952,516.3346572497343 170.3093984152069,519.0599423344413 180.2264933285328,517.7749409803231 190.22642546911032,517.7381010041527 200.22637470913324,517.7699631598374 209.97490215944495,519.9984632272635 219.6965114073963,517.6553213984049 229.6517635170839,518.6002845895188 239.5915992673483,519.6955769056452 249.447509624567,521.3870351612545 259.4378034119669,520.9465467488778 269.21779106718355,523.032653520788 279.10695353892373,521.5479092305058 288.819763896338,523.9272610247779 298.7925639521561,524.664322112255 308.36570874326355,521.7738379298918 318.32923555137705,522.6271453446042 328.3221850658647,523.0025917467717 338.2944552149377,522.2583954864302 348.1758014883686,520.7224932029002 358.16315074114607,520.219646404118 367.71045328796725,517.2449171593864 377.0900307061807,520.7124130073638 386.8121245218117,518.3712825453713 396.71636813360647,516.9907179948261 406.4302537406183,519.3656761868556 416.35528135238604,520.5878983048225 426.2417215851053,522.0906622666172 435.7414147665197,525.2140945868363 445.72005290903707,524.5608099469606 455.48081929122077,522.3865423386768 465.3248942047214,524.1455730653519 475.18615149741703,525.805574453079 485.1627243548685,525.1214735687336 487.7824196283819,534.7722350243872 485.2161846034497,544.4373494984537 475.2888245552346,543.2342192174356 465.6997199233681,546.0713079293224 455.8328447504359,544.4450317160749 446.28480756866287,547.4174021464686 436.3358518198103,548.4265005100448 426.6113266704445,550.7575111533821 416.7004213869629,552.0894107223647 406.85233573639533,553.8258464450694 396.93472132427985,555.1068321485799 387.04954939688105,553.5957477810588 377.0685771850539,552.9791492838708 367.15515171994963,551.6661391743052 357.4157127822338,549.39824826456 347.446163064618,550.1780421014082 337.447563015688,550.010718876672 327.5110140856715,548.8859987508683 318.14312300234513,545.387053674001 308.31988893817385,543.5151368701595 298.73559750509634,540.6618304152134 288.96245680921356,538.5438783528477 279.2066198974494,536.3475982816684 269.897083706061,539.9989728038489 260.066778330586,538.1645529432645 250.07672019745903,537.7187519823597 240.0773648288748,537.6052081020081 230.13827467465646,538.7072457176635 220.17791506479355,539.5967604405383 210.21587943489882,538.7262168697118 200.37022720545124,536.9760362570968 190.8582299007487,540.0617950414692 180.86866119652387,539.6051583110465 170.9375309828303,540.7767609222856 161.13515169839667,542.7549824377145 151.16894202336044,541.9336026758419 141.19263186796306,542.6215239528165 131.2877398108528,543.9974285050997 121.41721510151116,545.6014054258426 111.43456502316327,545.0125952584198 101.43458712382034,545.0336193553667 91.69481497151997,547.3000788015678 81.84953753972395,549.0523665322123 71.85684204704944,549.4345141354783 61.892821422796715,548.5869924546547 52.13352338493186,550.7678413279439 42.18573153703669,549.7473329492669 32.33427938400736,551.4645663278656 23.922278404094953,546.0573267812991 14.115859495558764,548.0154248866819 4.25247126525969,549.6627173981677 -5.739275084701983,549.256509473544 -3.8605638139837763,559.0784463477698 -5.585283331849,568.9285906403522 3.590986181088226,572.9030186276151 13.552336723169931,572.0246705316031 23.544654308763743,572.4165751993887 33.47573064457724,571.2445159806439 43.475730644362365,571.2444504290901 52.95271601496979,574.4361190029387 62.747583156584426,576.4512065142188 72.5378628307096,574.4139475953745 81.92899986665454,577.8500129573987 91.58341705833513,580.4562034126382 101.52258938250657,581.5574996990316 111.41093931751257,580.0673535441642 121.40982801111929,580.2164336999971 131.2473945966468,578.4213616470388 141.1911651584975,579.4803361572472 151.16539643269903,578.7629028929364 159.90697747713307,573.9064884909736 169.68697631240826,575.9925428483707 179.67754292491816,576.4267994096365 189.37964329491402,578.8494525855009 199.37487018044465,578.5405197339531 209.36572875032,578.9680066188372 219.04723837022905,581.4716782186297 229.00855357649624,582.350426966219 238.98721098781934,583.0034172168706 246.443473496321,589.6670610702223 256.43612272994176,589.2837057600749 266.42875581468354,589.6674817803308 275.66471847678633,593.5011476113915 285.498375757354,591.6847818749995 295.22073023256746,589.3447341279874 304.69747560054446,586.1523530056077 314.6242582392795,587.3602381174074 324.5236767110732,588.7749868301862 334.3824897199704,590.4494437736753 343.9145926403289,587.4263635703574 353.65529417717903,589.6888254087106 363.288586240785,592.3720481011582 373.28614887578726,592.1512736479125 383.2858758832764,592.2251639428905 393.16861997335246,593.7520461420355 403.1339437351751,594.5841052277098 413.02804946119915,596.0355430948805 422.7259561668693,593.5961567933454 432.7181082487085,593.2000548198638 442.34208461269367,590.4836088061438 452.23968254998243,591.9110383391777 462.1674065658493,593.1111616098375 472.1648932971597,592.8869762908004 482.14222740319246,593.5598835181318 485.6008946203456,602.9427200338656 483.6665937129949,612.7538606403303 473.722742760273,613.8120800079715 463.72702926447306,613.5193143851899 454.0455443981846,611.015547066962 444.19249233250076,612.7235766307938 434.55918056630367,610.0404246754905 424.563142922337,609.7589439116688 414.56334747489143,609.6949829138208 404.6428271491581,608.4366997713162 395.04044229867276,611.2285101486823 385.13115787511117,609.8846045668204 375.13213171644867,609.7450485623548 365.40727660110787,607.415414903251 355.419373403622,607.9071360820213 345.4533310830494,608.7305439181241 335.48847987853543,607.8928444064284 325.489387086134,608.0275415814006 315.8420462416271,610.6598057455581 305.851728028917,611.0997398415232 296.2624997731527,608.2630690007575 286.264730926478,608.4742989429088 276.45913120581383,610.4364951915318 266.5907766626205,608.8192201345812 257.4620620384201,612.9016911154835 248.5970745605281,617.5290010269566 238.5970789942617,617.5384177488697 228.60550358333458,617.1280267063797 218.61800447559824,616.6281651525817 208.8224688371629,618.6400005226213 198.8282984545387,618.9814069711211 189.32768063102702,622.102025655224 179.3400867862397,621.6040606046773 170.0042290514675,625.1876008034324 160.00996171408028,625.5261571338037 150.02756893207055,624.933000876415 140.81138315077473,628.8139697818096 130.8815739494279,629.9967162571148 121.04103970178821,628.217984765003 111.65229330991667,624.7753925455964 102.22888166201317,628.1219299970761 92.25860829048517,627.3514438537877 82.6492376387475,630.1191135735198 73.1114571118343,633.1242329755461 63.76004069551702,629.5814923685257 53.874742250602566,628.0712358820402 44.04074991711539,629.8857867314008 34.053095739471246,629.3890332434543 24.15898233093349,627.9376477471119 14.167441167472022,627.5264237462868 5.439465848939166,622.6455993447046 -4.466224474623115,621.2754536540264 1.814596035691439,629.0569248335149 2.472562738221222,639.0352553460988 12.311036324430514,637.2451610766644 22.298597600904206,636.7465432383526 32.29854346929342,636.7794465707829 42.17223946451887,635.1951084143691 51.82291461847598,632.5750952325712 61.27310729891736,635.8452417587275 71.16677731244035,637.2996466760444 81.03277384340889,635.6680485481598 90.89519468201021,637.3211230178442 100.75941480375474,638.9634267016281 110.28378218538737,642.0107904770399 119.95315704659606,639.460655227014 129.77213829558627,641.3547532265848 139.66206367776363,639.875099234949 149.26642968185695,642.6600864269152 159.2553753424092,642.1900177186035 167.75385073113983,636.9197315719945 177.75347760594187,637.006116551802 186.81815725545331,632.7833706617758 196.80408394430125,632.2530234500797 206.80307307608518,632.1108392650718 216.75503540195126,631.1318367806307 226.10224567360854,627.5780134679962 235.7329224277628,624.8854189465369 245.52072926706234,622.8363124884532 255.5023583233026,622.2304400731545 265.01081803775577,625.3270824255452 274.8610941106146,627.0510491562175 284.79460627954194,625.8998167775152 294.31406911042205,628.9624671675356 303.7605345120346,625.6815692087237 313.62077712121095,627.3475871222478 323.6116116525319,626.9195387981483 333.59494383674485,627.4966683327053 343.47350147884816,629.0504054120216 353.33595246328275,627.3975108056944 363.1449539689655,629.3426302008764 373.14492809406426,629.3198816326606 381.4581515430126,634.8777873432547 391.43052836855924,634.1350219366154 400.95350428969437,637.1867312290417 410.82876427549826,638.7612915526812 420.4200407194785,635.9315537246925 429.8724551647831,639.1952726393965 439.53864620889823,636.6330956941666 448.08795211812003,631.4456716252722 457.87136814332,633.5156404361146 467.53218998244637,636.0979884747529 477.5313819855808,636.2251076489599 487.51105004323813,635.5877494616167 483.7372407925692,644.8483306388196 482.00657698187894,654.6974322615243 472.1347159604583,656.2931640603415 462.29404391967734,654.5151950544838 452.7519581654497,657.5066160310375 442.8450859712463,658.8681898732211 433.1731094859972,661.4084400319238 424.58353226192355,666.528905158421 414.99444786296283,669.3660622548131 405.4371640940051,666.4235587357639 395.7947980866078,669.073988470616 385.88497657606604,670.413927883128 376.2846554149359,673.212826524229 366.50750042367997,671.1134837039732 356.50750085172973,671.1105577861749 346.5793088215433,669.9143124051005 336.5826430704101,670.1725252245345 326.9892263083443,672.9949984005478 317.2710627107055,675.3523902410207 307.47960415752726,673.3208048006828 297.48058793933404,673.4610712197159 287.65907929226796,671.5801225506646 280.49926876169803,678.5613196662272 270.8649034386564,675.8819531698007 260.9376562383232,677.0860142245135 252.31428659085327,672.0226659328102 242.39206202503152,673.2674388700976 232.39230058415643,673.1983655352484 222.5222047239013,671.5917517953053 212.75030609288623,673.7154271813201 202.97682375623478,671.5990522109612 193.1008436089813,673.1690891949379 183.59284049256885,670.0710451768048 173.78007811846797,668.1449884306445 163.8533229111314,666.9368779002642 154.00947842676442,668.6971976915514 144.02271217332384,669.2114931310996 134.04955158530794,668.4793265614953 125.25861690525443,673.2458208131474 115.34935851554133,674.5899183415656 105.61090702815895,672.3177910062476 96.08719014093526,675.3671871189247 86.57155172094302,672.2926748876972 76.68917213931228,673.8219145041627 66.72035039426291,673.0328688683276 57.11097742508129,675.8005305418637 47.180936341496725,674.61973247347 37.24478763728519,673.4914820900023 27.62781625681052,670.7503397246496 18.170188750257893,667.5017581961515 8.635611855372328,664.4864898108309 -1.3513612078456667,663.9762261196302 1.600099673051778,673.5307474927043 -1.5783605208916427,683.0121709509999 7.844435504605308,679.6639004927068 17.77855081214275,678.5178843250417 27.59293196326374,680.4356754034756 37.52558478423002,681.5942986977996 46.66840851713079,685.6450732149883 56.668402886567456,685.6344613709148 65.70541822784573,681.3528315735712 75.67946445582841,680.6328302943612 85.66908361564677,681.0883618978637 95.62698687188139,680.1717579815117 104.95105755320405,683.7858561995598 114.93005361709503,683.1380618210352 124.23181513609897,679.4669267590173 134.1572374679847,680.6859392830316 143.70923222684326,677.7263115823338 152.73520640807718,682.031168151338 162.71021695064866,682.7376840220636 172.04293632430023,679.1459784254607 181.64631726721183,681.9343604769956 189.78354846021884,687.7468873381424 198.4384882555175,682.7376940757742 208.16030591065646,685.0799710620054 218.08012587263488,686.3437637356406 228.06955095940137,686.8035315421257 238.0291832264774,687.7011534584233 247.9463822717464,688.9853509107317 257.7822521910055,687.1810053419968 267.10770710768116,690.7915303172668 276.49005156719596,687.3315285191443 285.20403539427593,692.2372889965206 294.41484946271083,696.1309895752403 303.9365687579292,693.0753617079982 313.93655876447156,693.0612242028092 323.2536051357229,696.6933925518745 333.17110354489586,695.4115090532475 343.1620658103908,694.9864525752868 353.10663225126007,693.9349782279363 362.6431669148496,696.9440489499624 372.5168839154489,695.3598417059201 382.51685083093986,695.3341183879936 392.4170079352313,696.7436890000408 402.4022419574582,696.2004565255314 412.146081066194,693.9515458063005 421.53562953950393,690.5111418376708 430.75602896139407,686.640194343735 440.2827995697233,683.600351950407 449.28536101097154,679.246745687026 459.10484410240014,677.3552510882636 469.07397330180044,678.1404026695928 479.07297048830213,678.2820192799559 481.2202378843741,688.0487609438767 483.8539654847738,697.6957023724794 474.19024187158453,700.2671700327636 464.8431303454557,703.821253053475 455.36200940495695,707.0006155228446 445.53638159654685,705.1413043141981 436.20491067347484,708.7362522153313 426.2050134263721,708.6909195848482 416.33563417040915,710.3019295481844 408.2886818263681,704.3650483827296 399.3749682977003,708.8977860906546 389.3877704243893,708.3919416092848 379.4259187106114,709.264587260566 369.6290081552812,711.269716575812 359.6630386997217,710.4454272996145 349.6713330147045,710.0382203448675 340.060333043488,712.800226781007 330.1225402937486,711.6865503184621 320.1743972573179,710.6694711048732 310.7562869385551,707.3080431309886 300.88352083617895,708.898165606703 291.6153917521791,705.1429314885265 281.6286638008204,705.6579701526582 272.93718098037596,710.6034859378842 263.0308057753862,709.238300859602 253.0330869935051,709.4518872786948 243.29870525996327,711.7413877188973 233.59568910518504,709.3224049781336 223.67181898172313,710.5539900432672 214.024096525168,707.9231249001475 204.02644028525634,708.1396190306809 194.2187518410577,706.187889699669 184.37655373988983,704.4183879230754 174.4531808431337,703.1828028989165 164.81597440689407,705.8519323647351 155.10445239544177,703.4673275293217 145.10461468580036,703.4103557746222 136.4473215104512,698.4052309134371 126.52573865876153,697.1553534326184 116.7184614997447,695.2015584776074 106.91828973211304,697.1906872630094 96.97476430786601,698.2519610907055 86.97796982880165,697.9987810295867 77.44380397877465,701.0153488713862 67.90948124333812,704.0314208162406 57.913521414347635,704.3156515274742 47.915599416239274,704.5195037281999 37.92958983307219,703.9907196466553 28.354206355207484,701.107660290375 18.409079761110853,702.1538232926799 8.56752992470603,700.3807195682576 -1.4253019731271568,700.7592835148339 -0.9175983340084863,710.7463870496344 -1.5900929946787805,720.7237489720752 6.788651970894284,715.2651197666901 16.78693515395043,715.4504124848863 26.62851643178709,713.677483283893 36.29328997401844,711.1099645639252 44.936752310723506,706.0809926178948 54.86036786555155,704.8473580204654 63.517218501762585,699.8414677837211 73.22346142921104,702.2474703259801 83.20114035779257,701.5796955150296 92.11807715745067,697.0533020156856 101.9417207161829,695.1835353909491 111.72031122196069,697.2761814958394 121.58264432857658,695.6225836928209 131.55182471914324,694.8380823605461 141.49872846300383,693.8089536463553 151.49231326905357,693.450815789809 160.3867743424517,688.8804151275251 170.38596857154684,688.7534711681153 180.26476981587456,687.201283687471 187.05143551386996,694.5457488622576 197.03374949735107,693.9512679666876 206.95291568624404,692.682354211887 216.57435239625642,695.4077818178281 226.56486112715504,694.9721956635049 236.53984623692847,695.6790705179159 246.24340043348678,693.2622469921997 255.31504174458516,697.470016463401 265.1618195317396,695.7261795414377 275.1069361908604,696.7724369841723 284.6111321894811,699.8821408960907 294.575000219603,699.0328271270309 304.5750002109408,699.0324109012835 314.4411714479911,700.6629522596064 324.26000166217034,702.5578330540421 333.80023291242486,699.5605029601641 343.7873935118614,700.0670828265846 353.4409410408665,697.4576729114428 363.22509692594605,695.391204035204 373.061621656629,693.5904316390742 382.4906178428028,696.9212019585527 391.51306881337973,701.2334378616006 398.9809317714003,707.8840786457824 408.9796848837486,707.7261666503372 418.70490949051634,705.3980759416409 428.3406677224329,702.7237230673829 437.34994691231645,707.0634106688966 446.44128684457615,702.898373065693 456.40213849069005,702.0143852353976 466.2774605003626,700.4402139596858 475.10694262478177,705.1349179348649 477.89911718212574,714.7371968956804 474.8709911123965,724.2676980632909 465.5360408282185,720.6817946635986 455.54688314783795,721.1473361080413 445.63125229609744,719.8510858189334 436.54030335860836,724.0169767699745 426.5433369483223,724.2632745401884 416.5613596720085,724.8633825764241 409.0456460952682,731.4599005542971 399.1128450514451,730.3025486528308 389.161989272272,729.3123621743845 380.2593855651706,733.8668816039516 371.0270428422354,737.7092568909668 361.2451543061543,739.78643205635 351.354143640968,741.2588138075176 341.39071832881746,742.113305498055 331.7465265347994,744.7570839759525 322.13998053664386,747.5345421638145 312.17659039294847,746.6796405060117 302.26452662235766,748.0028909765354 292.2689737533845,748.3010903118169 282.28953557942737,748.9420378386608 272.37092870258726,747.6687595412332 262.3802074206243,748.0994430284157 252.66822515065166,745.7167134198077 242.67236130560784,745.4291269261304 232.97895973302306,742.9718996365597 223.5792498766342,739.5593559202528 214.39945977434422,743.5256455816237 204.72908579490132,740.9793017129143 195.94301036929633,736.2038563289129 186.30953145384478,738.8864080964564 176.30992749949442,738.9754067264477 166.359636773986,739.9712553484084 156.4353141741212,738.7433217452309 146.54055750051015,737.2963281826918 136.71471253242785,739.1544914325736 127.3789648334957,735.5706645810247 117.66375863271409,737.9402148498087 107.67121752092766,738.3263781951143 98.076968608277,735.5067349903628 89.5283032170972,730.3182554414348 79.63060274964144,731.7449738637332 69.86827447131702,729.5777298566526 59.88714734585669,728.9636441090572 50.84774687504368,733.2402361083325 41.20139074673257,735.8761066373598 31.76201674853126,739.1773516331275 21.860629464948897,740.5782548633733 11.928285281829478,741.7395209948237 1.928589852891795,741.6614740315096 -7.441605125921793,738.1687034895162 -8.618646259757815,748.0991905958599 -15.367983344283969,755.4779742977609 -5.394055361256031,754.7563368615284 4.333003246891499,757.0767529521602 14.25750456803483,758.3032412426155 23.274952306195473,762.6259297913709 33.21188663784995,761.5046198037286 42.89904576712891,763.9863425932494 51.753449543891975,768.6338724487796 61.52561918435628,766.511444471677 71.5231517837631,766.2893140509826 81.4114137740452,767.7800436748722 91.32832195931498,766.4936020536048 100.99301786091942,763.925791092979 109.55059448042104,769.0995597775415 119.52738914558407,768.4187013420541 128.23270031161314,773.339835103964 138.11913304504546,771.8370218064057 148.10026183898947,771.2229631783404 157.82186430535805,773.5661331435575 167.8031875032978,772.9552426310519 177.449647305117,770.3197515398346 187.22238440639597,768.1999379750877 197.18967535773365,769.008090863706 206.99500241982884,767.0445325617084 216.99158866986818,767.305805111978 224.83135634175957,761.097903465627 234.69455555184476,759.4494795692416 244.68024794220233,758.9147389918074 254.56479287832641,757.3995586706101 264.1333866288978,754.4940443208734 273.7917599482832,751.9025534713072 283.7895709656514,752.1117778986332 292.8318867822139,756.3822023123822 301.9833666734439,752.3510218648689 311.949791668632,751.5322588861687 321.53252646768954,754.3907888879232 331.48332829727576,755.3815173816608 341.4794592368119,755.1033695079548 351.3901750255718,753.7700606336028 361.39009760924597,753.8094093378088 371.3856020470598,753.5095910034074 379.354081631929,747.4677921731316 389.1294077248127,745.3599497269829 397.50249297294647,739.8926429469051 406.7777300680491,743.6302861655165 416.4813193102537,746.0469689785001 426.2090789189568,743.7294934133032 435.925275624582,746.0949788978489 443.40012616684237,752.737765163481 453.22972678764046,750.8995726720358 462.49582206560865,754.6598224376253 461.4223203482926,764.6020351723699 462.12404389168165,774.5773839917673 452.65757825233754,777.8001201427912 442.7933064825023,779.4421135809121 432.8618754224468,780.6111632374129 425.13101645024653,786.9541766815064 415.2546209310738,785.3867547380383 405.3001490154274,786.3399015685984 395.3928400887635,784.9815091983145 385.470101300048,786.2221763297083 379.1729154415469,778.453942922846 370.3577241779527,783.175426057016 360.7384967432869,785.9086409333424 350.95660335678826,783.8314886098055 343.3067094239396,777.3910598340046 333.73710940476883,780.2932582202433 325.17413685377323,775.1284251066862 315.5420185243205,777.8158581732797 306.2693460170117,774.0718570284884 296.27184800007643,773.8481755554627 288.382076741166,767.7039498530597 279.7475708921871,762.6596155318683 269.9316750798369,764.5696389351502 263.49136333170804,756.919646478493 254.04248549196268,760.1935902119081 244.08574868837513,761.1227792260946 235.4902886251175,756.0121954726528 225.72700049975612,758.17511132427 215.9075115063635,760.0665752833876 205.91502179639664,759.6790841270935 196.00500920317123,758.3405586689444 186.07092293773744,757.1942907810055 176.31469021082017,759.3888119083197 166.33174953773866,758.8049493236866 156.51006393158661,756.9249248946152 147.48931481013994,752.6091300329566 137.53667920876202,751.6369959958071 128.2198081715937,755.2696140705259 118.22016363235134,755.1852986579371 108.38921150490572,757.0162493038781 99.14531660958635,753.2017497083494 90.3556620632804,757.9706041784086 80.49325184832139,756.317466328176 70.98873115753922,759.4261777072676 61.692571571387155,755.7408803042358 51.95319797286195,753.4727088141694 41.97436548934773,752.8223994524336 32.08638339145715,751.3298144358282 22.13629615663291,752.3276941978173 12.336639207956383,750.3360306498616 2.3377232477361325,750.4832706595481 -7.427856258962496,748.3307240518419 -7.60164681790611,758.3292137798769 -0.8869942168211828,765.7395741251464 8.983086178332492,764.1328653795416 17.868068341530087,768.72166608993 26.844830383362265,773.1282229367573 36.83943687353931,773.4566146335318 46.83159922936154,773.0607719186954 56.776187588667334,772.0095048907908 66.58061718083182,773.977539537917 76.41561658057152,775.7866240597455 85.94627418931762,772.7589904054124 95.7310147090346,774.8226892598503 104.99023886893816,778.5998267946321 114.54366395330278,775.6448193229947 124.52644166043599,775.0581769703097 134.42058382449946,776.5093664263427 144.1639092568276,778.7605015888213 154.07676425904722,777.4431915626812 163.93915331713086,775.7899274981737 173.83314931007064,774.3377418035425 183.76000413177303,775.5450335449389 193.66927063990332,776.8890712195772 203.66908457819963,776.8280695847242 212.76463753143406,772.6722403684415 222.18405445035074,769.3144755006126 231.98459272140667,771.3017977184646 241.2577652501155,767.5590352022475 251.23249120654015,768.2695576116256 261.1683212039876,767.1385040046629 270.98987943651287,765.257814268126 280.98952768200564,765.3416889747609 289.6345278239377,770.3680169133255 299.59339239549547,771.2741164913913 309.55028423965234,770.3465903172256 318.4980161168653,765.8813809992309 328.36881192794704,767.4836887274565 337.7379361577168,770.979330466414 347.55644019622906,772.8759006459005 356.89304645954115,776.4574901650778 366.781163742504,777.9491793412705 375.9546192394312,773.9682605722053 385.9536221885914,773.8270514270147 395.8179828470977,775.4685107773832 405.5625383950708,777.7143151260445 415.44280104098084,776.1714573724475 425.4408197009009,775.9724024154863 435.3748348396105,777.1192865525672 444.58782442752533,781.0078367776476 454.0932908543652,784.1136551896319 463.88785791623906,786.1302007682033 473.8104852937791,787.3717586309277 483.29620745637305,784.2061504659658 486.6864235893926,793.6139363144753 486.97495344917235,803.6097729738058 477.5055680550394,800.3956260796234 467.5826020423388,799.1567776180315 457.73756188189486,797.4031572944594 448.8297168289288,801.9474170265113 439.8656079901816,806.3796571742351 430.47814363567016,802.9335705542012 420.4787357176211,803.042388238685 411.3183523116297,807.0532953499552 401.699936402043,804.3172260178277 391.7327756386803,803.5074690683158 385.73225269319283,795.5078613041389 376.493457905876,791.6810256821337 366.55271513576247,790.5939961616357 356.5639811960423,791.0685425571352 346.590598166316,790.3394122928012 336.59579774777154,790.6618477025548 327.6000934758274,795.0296050964271 318.02163775791985,792.1567692048238 308.05889537929687,791.2943515002345 301.57566596410743,798.9080060990472 291.77431637033266,800.891323053195 282.11133479533436,803.4655777183832 272.5823892186194,800.4325600468217 262.58334697923954,800.5709590897976 253.65539049981658,796.0663400047329 244.87951994167597,800.8605131291372 235.44521688031998,804.1762220648685 226.0018953133134,800.8862862323471 216.21300677237966,802.9302189937596 206.7609724288016,806.1950385550556 196.897543340052,807.842086402329 187.1810954628386,810.2065399648662 177.32429321733042,808.520286872076 167.93497221820923,805.0792621445477 159.1521820656763,809.8607469700564 149.1938772896272,810.7729782934157 139.1939774107294,810.7282299747995 129.19731107598557,810.4700397507412 119.53798958602373,807.882085277888 109.54507676741241,807.5056634405387 99.71051279233518,809.3171135282068 90.31442755828995,812.7396246347713 81.91299661484761,818.1632726785301 71.98088376333902,819.3265156905004 61.98098623161585,819.2812458878004 52.397314232081335,816.4258595732472 42.46765592741064,817.6098722220327 35.0160001162085,810.9410773030554 25.01888640587377,811.1813218922495 15.133952492308138,812.6939624723079 13.941124151870508,822.6225656243253 16.94319827064911,832.1613051105131 26.919211678055184,832.8535164187521 34.66668823345006,826.530810746051 44.416408176645604,828.7540878383754 54.41396368858295,828.975184617481 64.3895939039918,829.6728964529989 74.37641960206275,830.1860362744405 83.49752307980204,826.0865885862303 93.05679647287528,823.150555174213 101.7377387991662,828.114549566596 111.60353583012055,829.7473535793335 121.40803734021608,827.7796772496151 131.31070514031492,829.1714999541596 141.21944630409743,830.5194051990347 149.1915777374228,836.5563846101132 158.52132249718755,840.1558099416962 168.42851157488724,841.5150761329581 178.3177778904442,840.0310236608434 186.61886351557283,845.6070417243259 196.6131940877988,845.2703572829435 206.19941988696456,842.4235564596669 215.39182606819864,838.4865946108284 224.98567835067234,835.6656021645298 234.91288185488426,834.4611808985427 244.5924927468576,836.9721832840435 254.1374747977118,839.9543498871814 263.4177678366991,843.6794218476305 273.40490344214203,844.1864942275666 283.0271614010276,846.9090209533606 290.34938223663534,853.7196803953377 299.89722381231,856.6926790912369 308.51751939835066,861.7612591694528 317.28880229669414,856.9586977365062 326.9877698565109,854.5235327988437 336.679168180414,852.0584164674208 342.9908483508069,844.3019550689048 352.9878637296847,844.5462571656634 361.9405899813705,849.0014443292263 371.78344046883126,847.2355750584438 381.76244542729154,847.8832324053681 391.36406505283463,845.0887913939339 401.2314115661062,843.4653774642701 411.18668748153266,844.4100898267009 420.41073829678254,840.5478512843931 429.6623964893561,844.343483074726 437.70548659374725,838.4013705233983 447.64844894439767,839.4679068301162 457.515927788785,837.8452974330128 466.3212184086109,842.5852190674289 476.00378390398595,845.0848041185468 483.70902494709435,838.7106955167424 490.90551818328953,845.654072584236 494.16545236724477,855.1077929691575 484.3038175776333,856.7655502723609 474.3234532269715,857.3919107341064 464.3239562029057,857.2916148433627 454.5723978705848,855.0764150574876 445.58092735744304,859.4528814416042 437.31114067717215,865.0752144327043 427.3461648957009,864.2389981480679 417.4177268170687,865.4331996883307 407.42360179777893,865.7759315059459 397.64924988927703,867.8882867717012 387.66574108948976,868.4623530087937 378.8563076335664,863.7301355385523 370.27047657589463,868.8568796368196 361.08498295888876,872.8099426279625 351.31047119727504,870.6983271747906 342.6311472296927,865.731503696374 332.6543915276845,866.4129328287466 323.5183408340975,870.4789600942981 315.64052033361776,876.6385009994485 305.67782118448395,875.7755840487238 296.52384412794765,879.80109073092 289.0153511407654,873.1963550767523 281.88168058172533,866.1884492301327 271.9098256422561,865.4387098979762 262.0391271969053,863.8358024767729 252.04677079930846,864.2267163079484 242.75506552176876,860.5302026754373 232.7550707055159,860.5403847634096 222.75727770272587,860.330301272001 213.75771361042555,855.9705024063904 203.97253263927232,853.9088929958133 196.36718597396586,847.4159197092125 187.8044936323757,852.5812173640697 177.97373250290715,854.4131932414573 168.41961902810326,857.3659742544297 158.80670405948234,854.6106401900986 148.94036220700687,856.2401488430645 139.13918190843611,854.25599543294 129.8811865330835,858.0361437937785 119.88607979354322,858.348939678016 112.64952831780823,851.4473222777947 104.08947263644477,846.2776562603467 95.96783353897384,852.1119495654892 86.04083035979593,850.9058783069844 76.413946215977,848.1997553087658 66.54750552341937,849.828665392301 57.208279562093864,853.4034183128961 47.448266245346026,851.2257727823047 37.45385521368367,850.8914852860006 27.62125132478517,849.0694258017857 28.1451298056643,859.0556939404485 21.161959016451835,866.2135795031471 30.657483238055264,863.0774959970934 40.50797651296231,861.3547707604376 50.34689837519606,863.1423995219142 60.022455734504966,865.6689762151342 68.88657096026012,861.0399956292454 77.8786195643781,865.4152741233735 86.61104265125103,860.542411819568 96.61101770012118,860.5647506193063 106.55364291212673,859.4950759521336 116.25012691597806,857.0500405816215 125.47786287711983,860.9034662045511 132.30536683214677,853.5969492680013 141.98176938850096,851.0736114849485 151.48934883498876,847.9742675110207 161.02662602444892,850.9809839611374 169.59754148756588,856.1326252650426 179.2334086009093,858.8065858058857 188.0705993076247,863.4867631970903 195.20419437929945,856.478780509228 205.18789264089753,857.0495422996128 214.0450178328907,852.4072009363177 223.9594822160784,851.102058800571 233.9230330142153,851.9550860527415 243.91757853399113,852.285328165635 252.7864715840199,856.9051480828126 260.49463954543967,850.5345792951342 270.0721254612644,847.6585119224571 278.7659883364208,842.7171813012603 287.1739401265481,837.3036476406191 296.56394728699803,840.742799502154 306.5436808523262,841.3791311492234 315.1034406196492,846.5492871164761 324.2597770246738,850.569424382543 334.2569475936097,850.8072911847672 343.68961887971307,847.4869429487654 353.0963060799313,850.8802062626345 362.806312583987,848.4894378315237 371.94258503023445,844.4239088637337 381.1470741182081,840.5152798676055 391.13802885906154,840.9405131755871 400.1780637971087,845.2157638488093 410.176377672769,845.39939294176 419.2768174299879,849.5445100963443 429.2717347869076,849.8633000402649 439.1611446614486,848.3802045162577 444.9790425013692,856.513596473138 453.0258162770048,862.4507196657072 463.0022041033841,863.1375136214688 472.58323836371875,860.2732890314107 481.04697484568345,854.9473933542631 479.650551086313,864.8494133847552 480.54127323575915,874.8096650910368 470.6738471439248,873.1867349255072 460.73735689084236,872.0614965283671 450.85309282717463,870.5444850189559 441.6374773576137,866.6621620652093 431.6975693487676,865.5675256983383 422.01473447161976,868.0660670211682 412.37428910232467,870.7234742315212 402.5807371698124,868.7020043343463 393.2725078234756,872.3567090332234 383.5852387081518,869.8754156029149 373.8943863456003,867.4081538642195 363.89555956312176,867.5613301482485 354.26527112387197,870.2553131802758 346.12683048367757,876.0661465065753 336.88665314046517,879.8896426378645 328.45448335328257,885.2653763254764 318.4549167276291,885.1722779951115 308.57385765711683,886.7100268839248 299.08582669036593,889.8687083135684 289.54614707029805,886.8696229952653 279.5563352202023,886.4183368336274 269.55771481038187,886.2522347556082 259.74688854275547,884.3163401442073 250.3942415518022,880.7768494657887 241.91898842914767,886.0843992306928 232.2216984461747,883.6425624248984 224.14990398310493,889.5456238463945 214.53190159176316,892.2831464490671 205.1495601007103,888.8231366014991 195.4392360863551,886.4336580943271 185.70723933137253,884.1340409172717 175.72743166022076,883.4988725562685 166.91931176503203,878.764210592413 158.33114442694676,883.887040061861 148.38782261084117,884.9502198497416 138.38918844324974,884.7849480049738 130.8084942108471,878.2632093598871 121.44366837868331,874.7560684825859 112.09346402088995,871.2101301769322 102.44453157327649,873.8365540995677 95.37262843534394,866.7663217124606 85.50793975781987,865.1268348123824 76.11810666969116,868.5664619109328 69.28628474404326,861.2639822515133 60.501293875916375,866.0414225124613 50.95753431081189,869.0274990961202 40.99087533685105,869.8434089543555 31.570792400735463,873.1993048819288 21.739652844434474,871.3693608870116 11.786282477604283,870.4047789357465 11.39016736833791,880.3969304968574 5.250602390360305,888.2903291236335 13.510271839775053,882.6531436036772 22.2822278427214,887.4544754899744 31.82891732353556,884.4777793420761 40.426955086204536,889.5840251872855 48.08633431919638,896.013170524359 54.73438678609123,903.4833377512297 64.71001754851393,902.7856337367612 73.81480186252395,898.6500681653603 83.7426591589518,899.8490883911129 93.74074613421149,899.6534948453558 101.72501713649467,893.6325799180296 111.36381537664401,896.2959553113404 120.79741873784064,892.9782561653027 129.4329425291186,898.0208476468995 138.813741734462,901.4850367683287 148.760624752002,900.4557077464052 158.75974629889078,900.5882531746321 168.720251351601,899.7003685566025 178.58005859918632,898.0317760238181 182.7960321292764,907.0996074731548 192.21308075359624,903.7352063069449 202.2110239685789,903.9380152564065 211.55798458851956,907.4924951296479 221.45893011349307,906.0884731527875 231.19474311251588,903.8050666519521 240.03149092287197,899.1240530719497 249.09215223828633,903.3554141446251 258.7535725564858,905.9355221724181 268.6056063912722,907.6494152024007 277.11511915065597,902.3969688582783 286.94526667058796,904.2322344348025 296.89064254339615,905.2760250021886 306.81397617469383,904.0401246656098 315.56764647282733,899.2055350954835 325.56548849309854,898.9977974299087 335.06041801930763,895.859913860953 345.05611582868767,896.1532145659546 355.053421188329,896.3853471704839 364.9767120124332,895.1491031734313 374.45870218403815,898.325872347543 384.45577199880034,898.0838080611027 394.2683346919381,900.0108818513974 404.15098005702276,901.5384029111442 413.4760071268677,905.1500327574404 422.8582071777179,901.6896393974555 432.7782257962076,900.4274070064847 442.21265995108206,903.7427429136496 452.1968310317954,904.3051732035941 461.35752743154137,908.3153654024395 470.9867980165868,911.0129843525467 472.6094294481143,920.8804595735654 469.43791727967744,930.3642093891951 459.4824159803653,931.306543660775 450.0907955331231,927.8717998020655 442.3115492665609,921.5882237880288 433.10129094297264,917.6932088185105 426.4203052270017,910.2524810407328 417.9942038003572,915.6377214947794 408.195509404258,917.6341152765405 398.24312027899117,918.6087694199524 388.350552567804,920.0706531634754 378.44358196215165,918.7097955593376 368.53445943261664,920.0548943269605 359.34504991702505,916.1109429131175 349.9893744808917,912.5794648749966 340.10398571014224,911.069799729628 330.78431692390694,914.695234009114 320.9848906942976,912.7024355821667 311.2887308460371,910.2561150396007 301.3727309344363,908.962690997327 291.37333572744956,908.8527114788235 282.66180020426305,903.9426046746635 272.863110154805,905.9390197904775 262.95329328626894,907.2789935335329 253.25068121711757,904.8583905021463 243.4393242312393,902.925187435819 233.92362419633304,899.8508659097446 223.97775453853652,900.8899408589767 215.11643265598522,905.5242665374134 206.12766794599636,909.9062876451281 196.2531472210219,911.4854774538746 186.6719646983733,908.6217488585478 177.09061322310933,905.7585855891102 169.22494058063353,911.9336316522102 159.41578963895964,909.9892659964095 149.42089967463374,910.3089136164806 140.14151044416062,914.0362364505505 133.1957146807063,906.8420776246433 123.24247676359363,905.8761299214262 113.69880708862419,902.8897660562772 107.80938699851684,894.808013090352 98.03535744088352,896.9218593966168 88.14092235567409,898.3710503241955 79.59355422697375,893.1804339761616 70.72031220853142,897.7918953586465 60.72398670158067,897.5208301283325 50.72542126743815,897.3514510883963 41.35100852411745,893.8700166544502 31.461190907452036,892.3896425432561 22.016095038420147,895.674481051432 12.64432031457974,892.1859514864741 3.120263230253931,889.1376180640115 6.87782971031648,898.4048017865838 9.372143566653484,908.0887265274151 19.16902579296586,906.0834588037025 28.21093388922437,901.8121711783119 37.38690807149338,905.7872809637558 47.309697119893194,904.547015870739 57.25284887736443,903.4822468216508 66.4694077048969,899.6021639129191 76.35487779424247,898.0930313433105 84.77291340637933,903.4908713217459 94.36297540916622,906.324722196916 102.4957364049717,900.5059423776494 111.78230739906431,896.7965490078816 121.48597265474332,899.2129265871782 131.30361778625021,897.3119152584908 141.0788351416271,895.2035685946004 150.53794455803987,891.9593045720013 159.2600444620866,887.0679884644667 169.25335161984583,887.4337917595273 179.14694053918913,885.9788353013997 188.2034935978011,890.2189823149531 198.20021338954427,889.962870219632 207.52131868930977,886.3411308597825 217.16856175156883,888.9737533731129 225.86219682974902,893.9154847627611 235.4658047838119,891.1278846722424 243.40393969403544,885.0462718806311 253.2353018170358,883.2175240012249 261.9217885292599,878.2632381194501 270.0000837808469,884.1574001318303 278.61368301878383,879.0774485407014 288.5346267532204,877.8225081364817 296.9762712411706,883.1833511988235 306.42194610125665,886.4665244256786 316.22807389411423,884.5069689377822 325.77944182248547,881.5453189421073 335.75516839154585,880.8489861054964 345.7126823435176,879.9281626173688 354.1069115754478,885.3629501570807 364.0892825405149,884.7694268502217 372.77565507461594,879.8149407821402 382.06781911158805,883.510301050098 391.2861987632998,887.3860560213141 401.2483051065991,886.5163220362386 410.81202849929537,889.4378276186386 420.8100925873547,889.6345876020143 429.7555730553061,885.1648695798681 439.75072792936913,884.8536155943618 448.8002676777589,880.5985209605948 458.50527301326525,878.1875312389675 467.86244041868173,874.6600082912022 477.78088315824203,875.934564536357 477.0654488808561,885.9089393936972 481.91857346707087,894.6523472962646 472.53586359381154,898.1113580557508 462.5358689362034,898.1216947771338 452.694410674059,896.3480828481967 442.6982575806892,896.0707322867903 436.07852740360323,903.5660089583066 427.2747394511259,898.8232968979117 419.5022757128084,892.5313331792831 411.29511287650854,886.8179735565692 401.5125599722523,884.7439295176379 391.8435992955806,882.1922243166055 382.15743058291235,884.6778098954434 372.1836344549134,883.9543523658594 363.11127283606805,888.1605685582231 353.12219988140254,887.6932126912765 344.59153726817874,892.9112386953651 334.8429303213722,890.6830864122671 324.9354573968672,892.0402821425139 315.3660801143062,889.1373494143913 305.39064240969816,888.4368905637203 295.5459261959799,890.1923285920633 286.06563836622695,887.0104827967682 277.0635830523021,891.3651354953237 267.11524890448,892.3803436923334 257.3275030575015,894.4297414660597 247.7327580748403,891.6117867613674 237.7369615567485,891.9017039373044 227.79066088610108,890.8667628911197 217.99351966986524,888.8627608978243 211.78403092072693,896.7012715646745 202.40993403319933,900.1835563811771 192.4198398379142,899.7385642808772 183.16605276826863,895.9481256690989 173.40676830692476,893.767216041771 164.64680221548048,888.9440434264953 154.68298825726473,889.7939913108178 144.69045973205084,889.4075024069845 134.87404066307587,891.3148347488337 125.01363791563652,892.9799046147222 115.51771908181202,896.1147930499645 105.73451096531032,898.1857442684183 95.76124235711372,898.9164379585235 86.07256065089467,901.3922099180496 76.07308125730025,901.2901714102214 68.41375326339495,907.7193777906216 58.54844654142359,906.0836139686027 48.57165186118884,905.4027557539655 38.7180793219381,903.6977313512888 28.87602844991062,905.4680518399073 19.06582769816572,907.4071137807599 9.768830225106319,903.7239306484779 10.361734027012574,913.7063384282515 3.452394300656067,920.9355171192087 11.901214093123793,915.5859896527492 21.851953524714425,914.5946346383438 30.84527411552422,910.2219712908043 40.35069571425686,907.1160156841759 49.852060805856,903.9976729518675 59.66643481893411,902.0798453445428 69.17671039467047,905.170906404042 78.14083505382945,900.7386982528991 87.84251285969576,903.1630430615352 96.21584555527922,897.6961152616577 106.08363752503791,896.075411204291 114.71269164984531,901.1290658136943 124.54117770980072,902.9732083703481 134.48150434019072,904.0640367166786 144.1633111878855,906.5665586774074 153.8972067567713,908.8581251839755 163.58112006034222,911.3524834439137 172.03520696695682,916.6936831757536 181.17884570785304,912.6447486769032 191.17481415885197,912.3608213505798 200.84938526419606,914.8911719048788 210.40001043180044,917.8552162547361 220.15013592260425,920.0767141533571 228.80599350875545,925.0843213112987 238.6044432638801,923.0867271592507 247.1721977342152,917.9298304823672 255.89588690566208,922.818311559346 265.89588638607734,922.8150879442761 275.65430006155657,920.6302853128653 285.65326977453486,920.773828612752 295.5030894519468,919.047256192473 304.6983722329484,922.9774946810911 314.06669267804523,926.4752899921377 323.9884977227428,927.723402428985 333.75371897061933,929.8775737267281 343.7528623026032,930.0084653859049 352.9158112708982,934.0135079829843 358.7432337000871,925.8869374989617 367.66369600124017,921.3674959036199 377.66241136168657,921.2072113417531 387.5249797430568,919.5550173692441 396.8058232425927,915.8313170675117 406.497733661519,918.2944192642357 415.7363403112638,914.4671294697087 425.6982977995143,915.3385667894794 435.6858537804763,915.837290688195 445.6831717299804,916.0688804472994 455.13430156320163,912.8014433973173 465.1042530981133,912.0268038737245 473.9156747360389,916.755318304145 471.75110190867593,926.5182392028844 467.98153655060565,935.7805486887112 457.9867032433462,936.1019630009263 450.2320225471828,942.4158308567299 440.406828046634,944.2774304448222 430.42511525231066,944.8819217116251 421.759167271433,939.8917969042959 412.78096099345186,935.4881833846941 402.92603475343554,933.7910007770065 393.5113373053444,937.1619757043688 383.52462756829067,936.6465839816613 373.57977087831364,937.6953095967858 363.6275086294172,938.67125843212 354.82861736671134,943.4230488891033 345.00151236383294,941.571561038103 335.002229915577,941.6913546940306 325.51903666276,938.5181787251115 317.19150584389087,944.0546243774036 308.19749758379913,948.4258731025851 307.1286553288168,938.4831583709857 297.74620764232566,941.9428802399018 287.8127692483666,940.7910114655101 277.96677076955564,939.0427798002976 268.7340159431477,942.8841647478705 261.0439197614976,936.4917926750818 251.0473889609839,936.7551782372916 241.06538664040076,936.1554869234707 233.61328957479887,929.4871850913063 224.1132137654085,932.6094534359294 214.3041962571249,934.5544921301937 204.4002274593583,935.9370267781737 195.880294982329,941.1725545058111 185.9415369933284,940.0675252591047 176.12129830699968,938.1799574739558 166.14836305055812,937.4447280058139 156.49291410768683,934.8423625988033 147.09062965727006,931.4369188518813 137.18291842837954,930.0814638711031 127.22984974878305,931.0491538313873 118.40608182509045,926.3437187156076 108.79458508042059,929.1039959348738 100.32487087889633,923.7876116989012 90.3548543229316,924.561413917681 80.82244450999345,921.539301550776 73.39224545877968,914.8466083664637 67.24806391393193,922.736414013243 57.277831554711256,923.5074306817713 47.40901537714253,925.121886396047 39.6672858203173,918.7921452110554 29.80033883111676,920.4179856436642 25.224307256314596,911.5264202569389 17.04700385908575,917.2824352977175 15.648596988379015,927.1841754591214 17.19310449659449,937.0641803456114 26.97012510845189,939.1641489061653 36.69123320316036,936.8189287862207 46.513294858926905,934.9408699931261 53.737191198308324,928.0260076172092 63.7269272122002,928.4789693956751 71.82221031076845,922.608160971443 80.35480209591553,917.3932901745737 90.34818237442495,917.7570904069794 100.33526639757132,917.2490030969489 109.42397976088824,921.4197691416298 117.86022748025144,916.050437300745 127.70512798745465,917.8048414740384 137.61402208864484,919.151621965209 147.5339193505591,917.8884361858933 156.9726640732706,914.5853924290707 166.96717654056116,914.2541515179902 176.28942570752082,917.8729455808126 186.16712309781292,916.313748907581 195.54388650954485,919.7888471681206 205.4781867321155,918.6444350536126 212.97986369781418,925.2569113448598 222.97923342916974,925.3691832275813 232.9522115533223,924.6345354649261 240.76089281986202,918.3875764545282 249.02662892215292,912.7592901534163 258.89935621976286,914.3496535417735 268.85400489887763,913.3983546006419 278.784676367504,914.5738392590741 288.3762670728016,911.7451668245127 298.3564189397686,911.1154298061673 308.0170907762408,908.5325206579408 317.94073842519106,909.7658970560786 327.8990119718541,908.8533248836833 335.0006644157469,915.8936751992678 344.58817485159693,913.0512038023202 353.50998192648495,917.5679901065942 362.55022323866433,913.2931758395687 372.36085900927026,911.3563160675391 381.7459668348564,907.9038168130683 390.38596619252195,912.9387359881433 400.218904787811,914.758988328143 410.2024016675302,915.333261828 420.15421609843463,916.3137665617169 429.14025516979103,911.9261588071363 437.46270891692365,917.4702334483039 445.81611360800326,922.9675628060056 455.8150815067602,922.8238931862916 465.81492723819457,922.8794390908502 475.44752603232007,925.5651495129566 485.42059273502235,924.8317052114242 486.2581079200359,934.7965719097233 488.3077335068087,944.5842700535181 478.41251032488873,946.0280699634756 468.6106772737512,948.0089962209693 459.0743726212011,944.9991966306725 449.16877783124005,946.3700328196809 439.32932722757675,948.1547489926533 429.6720475195675,950.7503122535413 421.5806385971644,956.6264590905813 413.641197425833,950.5465516992663 403.8672710888821,948.4322281762791 394.5187675659592,944.8818082177534 384.7640956010279,947.0832565720381 376.5698545290546,941.3513796321182 366.588345654677,940.7435304808305 358.38316135707953,935.0273297633557 348.3833182613127,935.0833481535863 338.38506836610964,935.2704284386834 328.62860793501835,937.463937010937 318.63387496651427,937.1394175380277 308.67824905180476,936.198400722894 300.5701349122106,930.3453258814698 292.578857323499,924.3337135769249 282.5859542071911,923.9570342596228 273.86158453701256,919.0697677579811 269.6708083483001,928.1492718708785 259.86421804362874,930.1065114056123 249.91887280103634,929.0624290306799 240.60138493404625,925.431393386612 230.75802328288864,923.6683756883118 220.7607795900495,923.9031490811557 210.94704547785693,925.8242484474528 201.50295905771935,929.1119880492115 194.51219511765225,921.9615181671509 185.5968602396375,917.4319702854244 177.06013867787047,912.22386266587 167.06023735927965,912.179437240211 157.30979915800924,914.3995622103886 147.5785189954308,912.0969145175343 137.57905082268297,912.2000467734131 127.59343846391269,912.736279764168 117.59398048450595,912.8403956519011 107.94339605688457,915.46074299631 98.60222136581412,919.0304005976641 88.65372710589767,920.0440385805796 80.2908770672958,925.526988446469 70.60322482396606,923.0471912748625 61.21379579342702,919.6064613406087 51.728840287037436,922.7743658596575 44.51828671887003,929.7031404439969 34.65387693063762,928.06197636633 24.703709920530294,927.0648923824192 24.617811300093603,937.0645234469639 29.92089228688951,945.542573461412" fill="none" stroke="#c49fd4" stroke-width="3" /></svg>