<svg version="1.1" xmlns="http://www.w3.org/2000/svg" xmlns:xlink="http://www.w3.org/1999/xlink" xmlns:ev="http://www.w3.org/2001/xml-events" width="848.5281374238568" height="848.5281374238568" viewBox="-424.2640687119276 -424.2640687119284 848.5281374238568 848.5281374238568"><path d="M 0,0 30.0,0.0 60.0,0.0 90.0,0.0 120.0,0.0 150.0,0.0 180.0,0.0 210.0,0.0 240.0,0.0 270.0,0.0 300.0,0.0 300.0,30.0 300.0,60.0 300.0,90.0 300.0,120.0 300.0,150.0 300.0,180.0 300.0,210.0 300.0,240.0 300.0,270.0 300.0,300.0 270.0,300.0 240.0,300.0 210.0,300.0 180.0,300.0 150.0,300.0 120.0,300.0 90.0,300.0 60.0,300.0 30.0,300.0 0.0,300.00000000000006 -4.824367949029909e-15,270.00000000000006 -9.648735898059818e-15,240.00000000000006 -1.4473103847089727e-14,210.00000000000006 -1.9297471796119635e-14,180.00000000000006 -2.4121839745149544e-14,150.00000000000006 -2.8946207694179453e-14,120.00000000000006 -3.377057564320936e-14,90.00000000000006 -3.859494359223927e-14,60.00000000000006 -4.341931154126918e-14,30.000000000000057 -5.510910596163089e-14,5.684341886080802e-14 21.213203435596373,21.213203435596476 42.4264068711928,42.426406871192896 63.63961030678924,63.639610306789315 84.85281374238566,84.85281374238573 106.06601717798209,106.06601717798216 127.27922061357852,127.27922061357859 148.49242404917496,148.492424049175 169.70562748477138,169.70562748477144 190.9188309203678,190.91883092036787 212.13203435596424,212.13203435596427 190.9188309203678,233.3452377915607 169.70562748477138,254.55844122715712 148.49242404917496,275.77164466275354 127.27922061357853,296.98484809834997 106.0660171779821,318.1980515339464 84.85281374238568,339.4112549695428 63.639610306789244,360.62445840513925 42.42640687119281,381.8376618407357 21.213203435596377,403.0508652763321 -1.4210854715202004e-13,424.2640687119284 -21.213203435596554,403.050865276332 -42.42640687119297,381.83766184073556 -63.63961030678938,360.62445840513914 -84.85281374238579,339.4112549695427 -106.0660171779822,318.1980515339463 -127.27922061357862,296.98484809834986 -148.49242404917504,275.77164466275343 -169.70562748477147,254.558441227157 -190.9188309203679,233.34523779156058 -212.1320343559643,212.13203435596404 -190.91883092036787,190.9188309203676 -169.70562748477144,169.70562748477118 -148.492424049175,148.49242404917476 -127.27922061357859,127.27922061357835 -106.06601717798216,106.06601717798193 -84.85281374238573,84.85281374238552 -63.6396103067893,63.63961030678911 -42.42640687119287,42.4264068711927 -21.213203435596434,21.21320343559628 5.684341886080802e-14,-1.4210854715202004e-13 7.200306535503092e-14,29.999999999999858 8.716271184925383e-14,59.99999999999986 1.0232235834347673e-13,89.99999999999986 1.1748200483769964e-13,119.99999999999986 1.3264165133192254e-13,149.99999999999986 1.4780129782614545e-13,179.99999999999986 1.6296094432036835e-13,209.99999999999986 1.7812059081459126e-13,239.99999999999986 1.9328023730881417e-13,269.9999999999999 2.221707367457007e-13,299.9999999999999 -29.999999999999776,299.9999999999999 -59.99999999999977,299.9999999999999 -89.99999999999977,299.9999999999999 -119.99999999999977,299.9999999999999 -149.99999999999977,299.9999999999999 -179.99999999999977,299.9999999999999 -209.99999999999977,299.9999999999999 -239.99999999999977,299.9999999999999 -269.9999999999998,299.9999999999999 -299.9999999999998,300.00000000000006 -299.9999999999997,270.00000000000006 -299.99999999999966,240.00000000000006 -299.9999999999996,210.00000000000006 -299.99999999999955,180.00000000000006 -299.9999999999995,150.00000000000006 -299.99999999999943,120.00000000000006 -299.9999999999994,90.00000000000006 -299.9999999999993,60.00000000000006 -299.99999999999926,30.000000000000057 -299.99999999999943,5.684341886080802e-14 -269.99999999999943,3.479977647615566e-14 -239.99999999999943,1.2756134091503308e-14 -209.99999999999943,-9.287508293149047e-15 -179.99999999999943,-3.1331150677801405e-14 -149.99999999999943,-5.337479306245376e-14 -119.99999999999943,-7.541843544710611e-14 -89.99999999999943,-9.746207783175846e-14 -59.99999999999943,-1.1950572021641083e-13 -29.99999999999943,-1.4154936260106318e-13 5.684341886080801e-13,-1.6359300498571555e-13 -21.21320343559582,21.2132034355963 -42.426406871192206,42.42640687119276 -63.6396103067886,63.63961030678922 -84.85281374238498,84.85281374238568 -106.06601717798137,106.06601717798213 -127.27922061357775,127.27922061357859 -148.49242404917413,148.49242404917504 -169.70562748477053,169.7056274847715 -190.91883092036693,190.91883092036795 -212.13203435596333,212.13203435596444 -233.34523779155975,190.918830920368 -254.55844122715618,169.70562748477158 -275.7716446627526,148.49242404917516 -296.984848098349,127.27922061357873 -318.19805153394543,106.0660171779823 -339.41125496954186,84.85281374238588 -360.6244584051383,63.63961030678945 -381.8376618407347,42.426406871193024 -403.05086527633114,21.213203435596597 -424.2640687119276,1.7053025658242404e-13 -403.05086527633125,-21.21320343559629 -381.8376618407349,-42.426406871192754 -360.6244584051385,-63.639610306789216 -339.41125496954214,-84.85281374238568 -318.1980515339458,-106.06601717798213 -296.9848480983494,-127.27922061357859 -275.77164466275303,-148.49242404917504 -254.55844122715664,-169.7056274847715 -233.34523779156024,-190.91883092036795 -212.13203435596375,-212.13203435596446 -190.91883092036733,-190.91883092036804 -169.7056274847709,-169.7056274847716 -148.49242404917447,-148.49242404917518 -127.27922061357805,-127.27922061357876 -106.06601717798162,-106.06601717798233 -84.8528137423852,-84.8528137423859 -63.63961030678877,-63.63961030678948 -42.42640687119234,-42.42640687119305 -21.213203435595915,-21.21320343559663 5.115907697472721e-13,-2.2737367544323206e-13 -29.99999999999949,-1.9705438245478625e-13 -59.99999999999949,-1.6673508946634044e-13 -89.99999999999949,-1.3641579647789463e-13 -119.99999999999949,-1.0609650348944881e-13 -149.9999999999995,-7.5777210501003e-14 -179.9999999999995,-4.5457917512557185e-14 -209.9999999999995,-1.5138624524111367e-14 -239.9999999999995,1.518066846433445e-14 -269.9999999999995,4.549996145278027e-14 -299.9999999999995,1.032809603265533e-13 -299.9999999999995,-29.999999999999897 -299.9999999999995,-59.9999999999999 -299.9999999999995,-89.9999999999999 -299.9999999999995,-119.9999999999999 -299.9999999999995,-149.9999999999999 -299.9999999999995,-179.9999999999999 -299.9999999999995,-209.9999999999999 -299.9999999999995,-239.9999999999999 -299.9999999999995,-269.9999999999999 -299.9999999999993,-299.9999999999999 -269.9999999999993,-299.99999999999994 -239.99999999999932,-300.0 -209.99999999999932,-300.00000000000006 -179.99999999999932,-300.0000000000001 -149.99999999999932,-300.00000000000017 -119.99999999999932,-300.0000000000002 -89.99999999999932,-300.0000000000003 -59.99999999999932,-300.00000000000034 -29.999999999999318,-300.0000000000004 6.821210263296962e-13,-300.0000000000002 6.706353202329153e-13,-270.0000000000002 6.591496141361344e-13,-240.00000000000023 6.476639080393535e-13,-210.00000000000023 6.361782019425727e-13,-180.00000000000023 6.246924958457918e-13,-150.00000000000023 6.132067897490109e-13,-120.00000000000023 6.0172108365223e-13,-90.00000000000023 5.902353775554492e-13,-60.00000000000023 5.787496714586683e-13,-30.000000000000227 5.349777162410373e-13,-2.2737367544323206e-13 -21.213203435595897,-21.213203435596643 -42.42640687119233,-42.42640687119306 -63.63961030678876,-63.63961030678948 -84.8528137423852,-84.85281374238589 -106.06601717798162,-106.0660171779823 -127.27922061357805,-127.27922061357872 -148.49242404917447,-148.49242404917513 -169.7056274847709,-169.70562748477155 -190.91883092036733,-190.91883092036798 -212.13203435596384,-212.13203435596438 -190.91883092036738,-233.34523779156078 -169.70562748477093,-254.55844122715718 -148.49242404917447,-275.7716446627536 -127.27922061357802,-296.98484809835 -106.06601717798156,-318.19805153394645 -84.85281374238511,-339.4112549695429 -63.63961030678866,-360.6244584051393 -42.42640687119221,-381.83766184073573 -21.213203435595766,-403.05086527633216 6.536993168992922e-13,-424.2640687119284 21.21320343559717,-403.0508652763321 42.426406871193684,-381.8376618407358 63.6396103067902,-360.6244584051395 84.85281374238672,-339.41125496954317 106.06601717798323,-318.19805153394685 127.27922061357974,-296.98484809835054 148.49242404917626,-275.7716446627542 169.70562748477278,-254.55844122715789 190.9188309203693,-233.34523779156154 212.1320343559658,-212.13203435596503 190.91883092036943,-190.91883092036855 169.70562748477306,-169.70562748477207 148.4924240491767,-148.49242404917558 127.27922061358032,-127.27922061357911 106.06601717798395,-106.06601717798264 84.85281374238758,-84.85281374238618 63.639610306791205,-63.639610306789706 42.42640687119483,-42.42640687119324 21.21320343559845,-21.213203435596764 2.0747847884194925e-12,-2.5579538487363607e-13 1.9700403482541987e-12,-30.000000000000256 1.865295908088905e-12,-60.000000000000256 1.7605514679236109e-12,-90.00000000000026 1.6558070277583168e-12,-120.00000000000026 1.5510625875930228e-12,-150.00000000000026 1.4463181474277288e-12,-180.00000000000026 1.3415737072624348e-12,-210.00000000000026 1.2368292670971407e-12,-240.00000000000026 1.1320848269318467e-12,-270.0000000000002 1.0458957829447394e-12,-300.0000000000002 30.000000000001044,-300.0000000000003 60.000000000001044,-300.00000000000034 90.00000000000105,-300.0000000000004 120.00000000000105,-300.00000000000045 150.00000000000105,-300.0000000000005 180.00000000000105,-300.00000000000057 210.00000000000105,-300.0000000000006 240.00000000000105,-300.0000000000007 270.000000000001,-300.00000000000074 300.000000000001,-300.00000000000074 300.000000000001,-270.00000000000074 300.000000000001,-240.00000000000074 300.000000000001,-210.00000000000074 300.000000000001,-180.00000000000074 300.000000000001,-150.00000000000074 300.000000000001,-120.00000000000074 300.000000000001,-90.00000000000074 300.000000000001,-60.00000000000074 300.000000000001,-30.00000000000074 300.000000000001,-7.389644451905042e-13 270.000000000001,-7.959290907699537e-13 240.00000000000102,-8.528937363494032e-13 210.00000000000102,-9.098583819288527e-13 180.00000000000102,-9.668230275083023e-13 150.00000000000102,-1.0237876730877518e-12 120.00000000000102,-1.0807523186672013e-12 90.00000000000102,-1.1377169642466508e-12 60.00000000000102,-1.1946816098261003e-12 30.000000000001023,-1.2516462554055499e-12 1.0231815394945443e-12,-1.2536874892143454e-12 21.213203435597464,-21.213203435597666 42.426406871193905,-42.426406871194075 63.639610306790345,-63.63961030679049 84.85281374238679,-84.8528137423869 106.06601717798323,-106.06601717798331 127.27922061357967,-127.27922061357972 148.49242404917612,-148.49242404917612 169.70562748477255,-169.70562748477255 190.91883092036898,-190.91883092036898 212.13203435596543,-212.13203435596535 233.3452377915618,-190.91883092036886 254.55844122715817,-169.70562748477238 275.7716446627545,-148.4924240491759 296.9848480983509,-127.27922061357941 318.19805153394725,-106.06601717798293 339.4112549695436,-84.85281374238645 360.62445840514,-63.63961030678996 381.83766184073636,-42.42640687119348 403.05086527633273,-21.213203435597 424.26406871192916,-5.684341886080801e-13 403.0508652763328,21.213203435595915 381.8376618407364,42.4264068711924 360.62445840514005,63.63961030678888 339.4112549695437,84.85281374238537 318.1980515339473,106.06601717798185 296.98484809835094,127.27922061357833 275.77164466275457,148.49242404917482 254.5584412271582,169.7056274847713 233.34523779156183,190.91883092036778 212.13203435596552,212.1320343559643 190.91883092036906,190.9188309203679 169.7056274847726,169.7056274847715 148.49242404917615,148.4924240491751 127.2792206135797,127.2792206135787 106.06601717798324,106.0660171779823 84.85281374238679,84.8528137423859 63.63961030679033,63.63961030678951 42.426406871193876,42.42640687119311 21.213203435597425,21.213203435596707 1.0231815394945443e-12,2.8421709430404007e-13" fill="none" stroke="#705273" stroke-width="3" /></svg>