<svg version="1.1" xmlns="http://www.w3.org/2000/svg" xmlns:xlink="http://www.w3.org/1999/xlink" xmlns:ev="http://www.w3.org/2001/xml-events" width="838.0813480004526" height="838.0813480004523" viewBox="-419.04067400022643 -419.0406740002262 838.0813480004526 838.0813480004523"><path d="M 0.0,0.0 30.0,0.0 60.0,0.0 90.0,0.0 120.0,0.0 150.0,0.0 180.0,0.0 210.0,0.0 240.0,0.0 270.0,0.0 300.0,0.0 300.0,-30.0 300.0,-60.0 300.0,-90.0 300.0,-120.0 300.0,-150.0 300.0,-180.0 300.0,-210.0 300.0,-240.0 300.0,-270.0 300.0,-300.0 270.0,-300.0 240.0,-300.0 210.0,-300.0 180.0,-300.0 150.0,-300.0 120.0,-300.0 90.0,-300.0 60.0,-300.0 30.0,-300.0 0.0,-300.00000000000006 -4.824367949029909e-15,-270.00000000000006 -9.648735898059818e-15,-240.00000000000006 -1.4473103847089727e-14,-210.00000000000006 -1.9297471796119635e-14,-180.00000000000006 -2.4121839745149544e-14,-150.00000000000006 -2.8946207694179453e-14,-120.00000000000006 -3.377057564320936e-14,-90.00000000000006 -3.859494359223927e-14,-60.00000000000006 -4.341931154126918e-14,-30.000000000000057 -5.510910596163089e-14,-5.684341886080802e-14 24.27050983124837,-17.633557568774243 48.541019662496794,-35.26711513754843 72.81152949374521,-52.90067270632262 97.08203932499364,-70.5342302750968 121.35254915624208,-88.167787843871 145.6230589874905,-105.80134541264519 169.89356881873894,-123.43490298141938 194.16407864998737,-141.06846055019358 218.4345884812358,-158.70201811896777 242.7050983124842,-176.33557568774194 225.07154074371002,-200.60608551899037 207.43798317493582,-224.8765953502388 189.80442560616163,-249.14710518148723 172.17086803738744,-273.41761501273567 154.53731046861324,-297.6881248439841 136.90375289983905,-321.95863467523253 119.27019533106485,-346.22914450648096 101.63663776229066,-370.4996543377294 84.00308019351647,-394.77016416897783 66.36952262474233,-419.0406740002262 42.0990127934939,-401.40711643145204 17.82850296224547,-383.7735588626779 -6.4420068690029595,-366.1400012939037 -30.71251670025139,-348.50644372512954 -54.98302653149982,-330.8728861563554 -79.25353636274825,-313.2393285875812 -103.52404619399668,-295.60577101880705 -127.79455602524511,-277.9722134500329 -152.06506585649353,-260.3386558812587 -176.33557568774194,-242.70509831248432 -158.70201811896774,-218.4345884812359 -141.06846055019355,-194.16407864998746 -123.43490298141936,-169.89356881873903 -105.80134541264516,-145.6230589874906 -88.16778784387097,-121.35254915624216 -70.53423027509677,-97.08203932499373 -52.90067270632258,-72.8115294937453 -35.26711513754839,-48.54101966249687 -17.633557568774197,-24.270509831248447 -5.684341886080802e-14,-5.684341886080802e-14 9.270509831248374,-28.531695488854663 18.541019662496804,-57.06339097770927 27.811529493745233,-85.59508646656387 37.082039324993666,-114.12678195541848 46.3525491562421,-142.65847744427307 55.62305898749053,-171.19017293312768 64.89356881873896,-199.7218684219823 74.16407864998739,-228.2535639108369 83.43458848123582,-256.7852593996915 92.70509831248424,-285.3169548885461 64.17340282362963,-294.5874647197945 35.64170733477503,-303.85797455104296 7.110011845920425,-313.1284843822914 -21.421683642934177,-322.3989942135398 -49.95337913178878,-331.66950404478825 -78.48507462064339,-340.9400138760367 -107.016770109498,-350.2105237072851 -135.5484655983526,-359.48103353853355 -164.08016108720722,-368.751543369782 -192.6118565760618,-378.0220532010304 -201.88236640731023,-349.4903577121758 -211.15287623855866,-320.9586622233212 -220.4233860698071,-292.4269667344666 -229.69389590105553,-263.895271245612 -238.96440573230396,-235.36357575675737 -248.2349155635524,-206.83188026790276 -257.50542539480085,-178.30018477904815 -266.7759352260493,-149.76848929019354 -276.0464450572977,-121.23679380133893 -285.31695488854615,-92.70509831248438 -256.78525939969154,-83.43458848123595 -228.25356391083693,-74.16407864998752 -199.72186842198232,-64.89356881873908 -171.1901729331277,-55.62305898749065 -142.6584774442731,-46.35254915624222 -114.1267819554185,-37.08203932499379 -85.59508646656388,-27.81152949374535 -57.06339097770928,-18.541019662496915 -28.53169548885468,-9.270509831248479 -1.1368683772161603e-13,-2.842170943040401e-14 -9.270509831248523,-28.53169548885464 -18.541019662496932,-57.063390977709254 -27.81152949374534,-85.59508646656387 -37.08203932499375,-114.12678195541848 -46.35254915624216,-142.6584774442731 -55.62305898749057,-171.1901729331277 -64.89356881873898,-199.72186842198232 -74.16407864998739,-228.25356391083693 -83.43458848123579,-256.78525939969154 -92.70509831248424,-285.3169548885462 -121.23679380133885,-276.0464450572978 -149.76848929019346,-266.77593522604934 -178.30018477904807,-257.5054253948009 -206.83188026790268,-248.2349155635525 -235.36357575675729,-238.9644057323041 -263.89527124561187,-229.6938959010557 -292.4269667344665,-220.4233860698073 -320.9586622233211,-211.1528762385589 -349.4903577121757,-201.88236640731049 -378.0220532010304,-192.6118565760621 -368.751543369782,-164.0801610872075 -359.48103353853355,-135.5484655983529 -350.2105237072851,-107.01677010949828 -340.9400138760367,-78.48507462064367 -331.66950404478825,-49.95337913178906 -322.3989942135398,-21.421683642934454 -313.1284843822914,7.110011845920155 -303.85797455104296,35.641707334774765 -294.5874647197945,64.17340282362937 -285.3169548885463,92.70509831248404 -256.7852593996917,83.43458848123564 -228.2535639108371,74.16407864998723 -199.7218684219825,64.89356881873883 -171.19017293312788,55.623058987490424 -142.65847744427327,46.35254915624202 -114.12678195541866,37.082039324993616 -85.59508646656406,27.81152949374521 -57.063390977709446,18.5410196624968 -28.531695488854833,9.270509831248393 -1.7053025658242404e-13,-2.842170943040401e-14 -24.270509831248585,-17.633557568774236 -48.541019662497,-35.267115137548444 -72.81152949374541,-52.90067270632265 -97.08203932499383,-70.53423027509686 -121.35254915624225,-88.16778784387107 -145.62305898749065,-105.80134541264528 -169.89356881873906,-123.43490298141948 -194.16407864998746,-141.0684605501937 -218.43458848123586,-158.70201811896789 -242.7050983124843,-176.33557568774214 -260.3386558812585,-152.06506585649373 -277.9722134500327,-127.79455602524533 -295.60577101880693,-103.52404619399692 -313.23932858758116,-79.25353636274852 -330.8728861563554,-54.98302653150011 -348.5064437251296,-30.712516700251697 -366.1400012939038,-6.442006869003286 -383.77355886267804,17.828502962245125 -401.40711643145227,42.099012793493536 -419.04067400022643,66.36952262474199 -394.770164168978,84.0030801935162 -370.49965433772957,101.6366377622904 -346.22914450648113,119.27019533106461 -321.9586346752327,136.90375289983882 -297.68812484398427,154.53731046861304 -273.41761501273584,172.17086803738727 -249.14710518148743,189.8044256061615 -224.87659535023903,207.4379831749357 -200.60608551899062,225.07154074370993 -176.3355756877423,242.7050983124841 -158.70201811896808,218.4345884812357 -141.06846055019386,194.1640786499873 -123.43490298141965,169.89356881873888 -105.80134541264545,145.62305898749048 -88.16778784387124,121.35254915624208 -70.53423027509703,97.08203932499367 -52.90067270632282,72.81152949374527 -35.267115137548615,48.54101966249686 -17.633557568774403,24.270509831248447 -1.9895196601282805e-13,-2.842170943040401e-14 -30.0000000000002,-4.5418326123347947e-14 -60.0000000000002,-6.241494281629189e-14 -90.0000000000002,-7.941155950923583e-14 -120.0000000000002,-9.640817620217976e-14 -150.0000000000002,-1.134047928951237e-13 -180.0000000000002,-1.3040140958806763e-13 -210.0000000000002,-1.4739802628101156e-13 -240.0000000000002,-1.643946429739555e-13 -270.0000000000002,-1.8139125966689943e-13 -300.0000000000002,-2.282618538629322e-13 -300.0000000000002,29.999999999999773 -300.0000000000002,59.99999999999977 -300.0000000000002,89.99999999999977 -300.0000000000002,119.99999999999977 -300.0000000000002,149.99999999999977 -300.0000000000002,179.99999999999977 -300.0000000000002,209.99999999999977 -300.0000000000002,239.99999999999977 -300.0000000000002,269.9999999999998 -300.00000000000045,299.9999999999998 -270.00000000000045,299.9999999999998 -240.00000000000045,299.9999999999998 -210.00000000000045,299.9999999999998 -180.00000000000045,299.9999999999998 -150.00000000000045,299.9999999999998 -120.00000000000045,299.9999999999998 -90.00000000000045,299.9999999999998 -60.000000000000455,299.9999999999998 -30.000000000000455,299.9999999999998 -4.547473508864641e-13,300.0 -4.2626502809673936e-13,270.0 -3.977827053070146e-13,240.0 -3.6930038251728984e-13,210.0 -3.408180597275651e-13,180.0 -3.123357369378403e-13,150.0 -2.8385341414811557e-13,120.0 -2.553710913583908e-13,90.0 -2.2688876856866602e-13,60.0 -1.9840644577894124e-13,30.0 -1.9979810049230502e-13,0.0 -24.270509831248635,17.633557568774172 -48.54101966249707,35.267115137548345 -72.81152949374551,52.90067270632252 -97.08203932499394,70.53423027509669 -121.35254915624238,88.16778784387085 -145.62305898749082,105.80134541264502 -169.89356881873925,123.43490298141919 -194.1640786499877,141.06846055019335 -218.43458848123612,158.70201811896752 -242.7050983124846,176.3355756877417 -225.07154074371044,200.60608551899014 -207.43798317493628,224.87659535023857 -189.8044256061621,249.147105181487 -172.17086803738795,273.41761501273544 -154.53731046861378,297.68812484398387 -136.90375289983962,321.9586346752323 -119.27019533106545,346.22914450648074 -101.63663776229129,370.49965433772917 -84.00308019351712,394.7701641689776 -66.3695226247429,419.0406740002261 -42.09901279349446,401.4071164314519 -17.82850296224602,383.77355886267776 6.4420068690024195,366.1400012939036 30.71251670025086,348.50644372512943 54.9830265314993,330.87288615635526 79.25353636274774,313.2393285875811 103.52404619399618,295.60577101880693 127.79455602524462,277.97221345003277 152.06506585649305,260.3386558812586 176.3355756877415,242.70509831248438 158.70201811896735,218.43458848123595 141.06846055019318,194.16407864998752 123.43490298141901,169.89356881873908 105.80134541264485,145.62305898749065 88.16778784387068,121.35254915624222 70.53423027509652,97.08203932499379 52.90067270632235,72.81152949374535 35.267115137548174,48.541019662496915 17.633557568774002,24.270509831248475 -1.9895196601282805e-13,-2.842170943040401e-14 -9.270509831248651,28.531695488854567 -18.541019662497103,57.06339097770916 -27.811529493745553,85.59508646656376 -37.08203932499401,114.12678195541835 -46.35254915624246,142.65847744427293 -55.623058987490914,171.19017293312754 -64.89356881873937,199.72186842198215 -74.16407864998781,228.25356391083676 -83.43458848123626,256.78525939969137 -92.7050983124847,285.316954888546 -64.1734028236301,294.5874647197944 -35.641707334775504,303.85797455104284 -7.1100118459209085,313.1284843822913 21.421683642933687,322.3989942135397 49.95337913178828,331.66950404478814 78.48507462064288,340.9400138760366 107.01677010949747,350.210523707285 135.54846559835207,359.48103353853344 164.08016108720665,368.75154336978187 192.61185657606129,378.02205320103053 201.88236640730975,349.4903577121759 211.1528762385582,320.9586622233213 220.42338606980667,292.4269667344667 229.69389590105513,263.8952712456121 238.9644057323036,235.36357575675748 248.23491556355205,206.83188026790287 257.5054253948005,178.30018477904827 266.77593522604894,149.76848929019366 276.0464450572974,121.23679380133906 285.3169548885458,92.70509831248455 256.7852593996912,83.4345884812361 228.2535639108366,74.16407864998766 199.72186842198198,64.89356881873921 171.19017293312737,55.62305898749076 142.65847744427276,46.352549156242304 114.12678195541817,37.08203932499385 85.59508646656357,27.811529493745397 57.06339097770898,18.541019662496943 28.53169548885438,9.270509831248491 -1.7053025658242404e-13,0.0 9.270509831248216,28.53169548885462 18.541019662496602,57.06339097770924 27.811529493744988,85.59508646656386 37.082039324993374,114.12678195541848 46.352549156241764,142.6584774442731 55.623058987490154,171.1901729331277 64.89356881873854,199.72186842198232 74.16407864998693,228.25356391083693 83.43458848123532,256.78525939969154 92.70509831248371,285.3169548885462 121.23679380133834,276.04644505729783 149.76848929019295,266.77593522604946 178.30018477904756,257.5054253948011 206.83188026790216,248.2349155635527 235.36357575675677,238.96440573230433 263.8952712456114,229.69389590105595 292.426966734466,220.42338606980758 320.95866222332063,211.1528762385592 349.49035771217524,201.88236640731083 378.0220532010299,192.61185657606234 368.75154336978153,164.08016108720773 359.48103353853315,135.54846559835312 350.2105237072848,107.0167701094985 340.9400138760364,78.48507462064387 331.669504044788,49.95337913178925 322.39899421353965,21.421683642934628 313.1284843822913,-7.110011845919992 303.8579745510429,-35.64170733477461 294.5874647197945,-64.17340282362923 285.31695488854604,-92.70509831248387 256.7852593996914,-83.43458848123548 228.25356391083682,-74.16407864998709 199.7218684219822,-64.8935688187387 171.1901729331276,-55.62305898749031 142.658477444273,-46.35254915624192 114.12678195541837,-37.08203932499353 85.59508646656374,-27.81152949374514 57.06339097770912,-18.54101966249675 28.5316954888545,-9.270509831248363 -1.7053025658242404e-13,-2.842170943040401e-14 24.270509831248226,17.6335575687742 48.54101966249662,35.26711513754843 72.81152949374501,52.90067270632266 97.08203932499342,70.53423027509689 121.35254915624182,88.16778784387111 145.62305898749023,105.80134541264533 169.89356881873863,123.43490298141955 194.16407864998703,141.06846055019378 218.43458848123544,158.702018118968 242.70509831248384,176.3355756877423 260.3386558812581,152.0650658564939 277.9722134500323,127.79455602524551 295.60577101880654,103.52404619399712 313.23932858758076,79.25353636274873 330.872886156355,54.98302653150034 348.5064437251292,30.71251670025195 366.1400012939034,6.442006869003556 383.77355886267765,-17.828502962244837 401.40711643145187,-42.09901279349323 419.0406740002262,-66.3695226247417 394.77016416897783,-84.00308019351593 370.49965433772945,-101.63663776229015 346.2291445064811,-119.27019533106437 321.9586346752327,-136.9037528998386 297.6881248439843,-154.53731046861282 273.41761501273595,-172.17086803738704 249.14710518148755,-189.80442560616126 224.87659535023914,-207.43798317493548 200.60608551899074,-225.0715407437097 176.3355756877422,-242.70509831248404 158.70201811896797,-218.43458848123564 141.06846055019375,-194.16407864998723 123.43490298141951,-169.89356881873883 105.80134541264528,-145.62305898749042 88.16778784387104,-121.35254915624203 70.5342302750968,-97.08203932499364 52.90067270632257,-72.81152949374525 35.26711513754833,-48.541019662496865 17.633557568774098,-24.27050983124847 -1.4210854715202004e-13,-2.842170943040401e-14" fill="none" stroke="#2819fc" stroke-width="3" /></svg>