<?xml version="1.0" encoding="UTF-8" standalone="no"?>
<!-- Created with Inkscape (http://www.inkscape.org/) -->

<svg
   version="1.1"
   id="svg1"
   width="45.307331"
   height="87.400665"
   viewBox="0 0 45.30733 87.400664"
   sodipodi:docname="gallery02_1.pdf"
   xmlns:inkscape="http://www.inkscape.org/namespaces/inkscape"
   xmlns:sodipodi="http://sodipodi.sourceforge.net/DTD/sodipodi-0.dtd"
   xmlns="http://www.w3.org/2000/svg"
   xmlns:svg="http://www.w3.org/2000/svg">
  <defs
     id="defs1" />
  <sodipodi:namedview
     id="namedview1"
     pagecolor="#ffffff"
     bordercolor="#000000"
     borderopacity="0.25"
     inkscape:showpageshadow="2"
     inkscape:pageopacity="0.0"
     inkscape:pagecheckerboard="0"
     inkscape:deskcolor="#d1d1d1">
    <inkscape:page
       x="-1417.933"
       y="-1436.6398"
       inkscape:label="1"
       id="page1"
       width="2878.6667"
       height="2878.6667"
       margin="0"
       bleed="0" />
  </sodipodi:namedview>
  <g
     id="g1"
     inkscape:groupmode="layer"
     inkscape:label="1"
     transform="translate(-1417.933,-1436.6397)">
    <path
       id="path1"
       d="m 10804.4,10775.6 v 0 -36"
       style="fill:none;stroke:#0000ff;stroke-width:7.205;stroke-linecap:round;stroke-linejoin:round;stroke-miterlimit:10;stroke-dasharray:none;stroke-opacity:1"
       transform="matrix(0.13333333,0,0,-0.13333333,0,2878.6667)" />
    <path
       id="path2"
       d="m 10804.4,10775.6 v 36"
       style="fill:none;stroke:#0000ff;stroke-width:7.205;stroke-linecap:round;stroke-linejoin:round;stroke-miterlimit:10;stroke-dasharray:none;stroke-opacity:1"
       transform="matrix(0.13333333,0,0,-0.13333333,0,2878.6667)" />
    <path
       id="path3"
       d="m 10804.4,10775.6 v -216.2 h -36"
       style="fill:none;stroke:#0000ff;stroke-width:7.205;stroke-linecap:round;stroke-linejoin:round;stroke-miterlimit:10;stroke-dasharray:none;stroke-opacity:1"
       transform="matrix(0.13333333,0,0,-0.13333333,0,2878.6667)" />
    <path
       id="path4"
       d="m 10804.4,10559.4 h 36"
       style="fill:none;stroke:#0000ff;stroke-width:7.205;stroke-linecap:round;stroke-linejoin:round;stroke-miterlimit:10;stroke-dasharray:none;stroke-opacity:1"
       transform="matrix(0.13333333,0,0,-0.13333333,0,2878.6667)" />
    <path
       id="path5"
       d="m 10804.4,10559.4 v -144.1 h -36"
       style="fill:none;stroke:#0000ff;stroke-width:7.205;stroke-linecap:round;stroke-linejoin:round;stroke-miterlimit:10;stroke-dasharray:none;stroke-opacity:1"
       transform="matrix(0.13333333,0,0,-0.13333333,0,2878.6667)" />
    <path
       id="path6"
       d="m 10804.4,10415.3 h 36"
       style="fill:none;stroke:#0000ff;stroke-width:7.205;stroke-linecap:round;stroke-linejoin:round;stroke-miterlimit:10;stroke-dasharray:none;stroke-opacity:1"
       transform="matrix(0.13333333,0,0,-0.13333333,0,2878.6667)" />
    <path
       id="path7"
       d="m 10804.4,10415.3 135.1,-233.9 -31.2,-18.1"
       style="fill:none;stroke:#0000ff;stroke-width:7.205;stroke-linecap:round;stroke-linejoin:round;stroke-miterlimit:10;stroke-dasharray:none;stroke-opacity:1"
       transform="matrix(0.13333333,0,0,-0.13333333,0,2878.6667)" />
    <path
       id="path8"
       d="m 10939.5,10181.4 31.2,18"
       style="fill:none;stroke:#0000ff;stroke-width:7.205;stroke-linecap:round;stroke-linejoin:round;stroke-miterlimit:10;stroke-dasharray:none;stroke-opacity:1"
       transform="matrix(0.13333333,0,0,-0.13333333,0,2878.6667)" />
    <path
       id="path9"
       d="m 10939.5,10181.4 -135.1,233.9 31.2,18.1"
       style="fill:none;stroke:#0000ff;stroke-width:7.205;stroke-linecap:round;stroke-linejoin:round;stroke-miterlimit:10;stroke-dasharray:none;stroke-opacity:1"
       transform="matrix(0.13333333,0,0,-0.13333333,0,2878.6667)" />
    <path
       id="path10"
       d="m 10804.4,10415.3 -31.2,-18"
       style="fill:none;stroke:#0000ff;stroke-width:7.205;stroke-linecap:round;stroke-linejoin:round;stroke-miterlimit:10;stroke-dasharray:none;stroke-opacity:1"
       transform="matrix(0.13333333,0,0,-0.13333333,0,2878.6667)" />
    <path
       id="path11"
       d="m 10804.4,10415.3 -135.1,-233.9 -31.2,18"
       style="fill:none;stroke:#0000ff;stroke-width:7.205;stroke-linecap:round;stroke-linejoin:round;stroke-miterlimit:10;stroke-dasharray:none;stroke-opacity:1"
       transform="matrix(0.13333333,0,0,-0.13333333,0,2878.6667)" />
    <path
       id="path12"
       d="m 10669.3,10181.4 31.2,-18.1"
       style="fill:none;stroke:#0000ff;stroke-width:7.205;stroke-linecap:round;stroke-linejoin:round;stroke-miterlimit:10;stroke-dasharray:none;stroke-opacity:1"
       transform="matrix(0.13333333,0,0,-0.13333333,0,2878.6667)" />
    <path
       id="path13"
       d="m 10669.3,10181.4 135.1,233.9 31.2,-18"
       style="fill:none;stroke:#0000ff;stroke-width:7.205;stroke-linecap:round;stroke-linejoin:round;stroke-miterlimit:10;stroke-dasharray:none;stroke-opacity:1"
       transform="matrix(0.13333333,0,0,-0.13333333,0,2878.6667)" />
    <path
       id="path14"
       d="m 10804.4,10415.3 -31.2,18.1"
       style="fill:none;stroke:#0000ff;stroke-width:7.205;stroke-linecap:round;stroke-linejoin:round;stroke-miterlimit:10;stroke-dasharray:none;stroke-opacity:1"
       transform="matrix(0.13333333,0,0,-0.13333333,0,2878.6667)" />
    <path
       id="path15"
       d="m 10804.4,10415.3 -63.6,-38.1 38.4,-5.5 24,-30.5 1.2,74.1"
       style="fill:#0000ff;fill-opacity:1;fill-rule:evenodd;stroke:#0000ff;stroke-width:7.205;stroke-linecap:round;stroke-linejoin:round;stroke-miterlimit:10;stroke-dasharray:none;stroke-opacity:1"
       transform="matrix(0.13333333,0,0,-0.13333333,0,2878.6667)" />
  </g>
</svg>
