<?xml version="1.0" encoding="UTF-8" standalone="no"?>
<!-- Created with Inkscape (http://www.inkscape.org/) -->

<svg
   version="1.1"
   id="svg1"
   width="209.49133"
   height="290.694"
   viewBox="0 0 209.49133 290.694"
   sodipodi:docname="gallery04.pdf"
   xmlns:inkscape="http://www.inkscape.org/namespaces/inkscape"
   xmlns:sodipodi="http://sodipodi.sourceforge.net/DTD/sodipodi-0.dtd"
   xmlns="http://www.w3.org/2000/svg"
   xmlns:svg="http://www.w3.org/2000/svg">
  <defs
     id="defs1" />
  <sodipodi:namedview
     id="namedview1"
     pagecolor="#ffffff"
     bordercolor="#000000"
     borderopacity="0.25"
     inkscape:showpageshadow="2"
     inkscape:pageopacity="0.0"
     inkscape:pagecheckerboard="0"
     inkscape:deskcolor="#d1d1d1">
    <inkscape:page
       x="-1317.589"
       y="-1172.5331"
       inkscape:label="1"
       id="page1"
       width="2878.6667"
       height="2878.6667"
       margin="0"
       bleed="0" />
  </sodipodi:namedview>
  <g
     id="g1"
     inkscape:groupmode="layer"
     inkscape:label="1"
     transform="translate(-1317.589,-1172.5331)">
    <path
       id="path1"
       d="m 10804.4,10775.6 v 0 -36"
       style="fill:none;stroke:#0000ff;stroke-width:7.205;stroke-linecap:round;stroke-linejoin:round;stroke-miterlimit:10;stroke-dasharray:none;stroke-opacity:1"
       transform="matrix(0.13333333,0,0,-0.13333333,0,2878.6667)" />
    <path
       id="path2"
       d="m 10804.4,10775.6 v 36"
       style="fill:none;stroke:#0000ff;stroke-width:7.205;stroke-linecap:round;stroke-linejoin:round;stroke-miterlimit:10;stroke-dasharray:none;stroke-opacity:1"
       transform="matrix(0.13333333,0,0,-0.13333333,0,2878.6667)" />
    <path
       id="path3"
       d="m 10804.4,10775.6 -174.9,-127.1 -21.1,29.2"
       style="fill:none;stroke:#0000ff;stroke-width:7.205;stroke-linecap:round;stroke-linejoin:round;stroke-miterlimit:10;stroke-dasharray:none;stroke-opacity:1"
       transform="matrix(0.13333333,0,0,-0.13333333,0,2878.6667)" />
    <path
       id="path4"
       d="m 10629.5,10648.5 21.2,-29.1"
       style="fill:none;stroke:#0000ff;stroke-width:7.205;stroke-linecap:round;stroke-linejoin:round;stroke-miterlimit:10;stroke-dasharray:none;stroke-opacity:1"
       transform="matrix(0.13333333,0,0,-0.13333333,0,2878.6667)" />
    <path
       id="path5"
       d="m 10629.5,10648.5 88,197.5 32.9,-14.6"
       style="fill:none;stroke:#0000ff;stroke-width:7.205;stroke-linecap:round;stroke-linejoin:round;stroke-miterlimit:10;stroke-dasharray:none;stroke-opacity:1"
       transform="matrix(0.13333333,0,0,-0.13333333,0,2878.6667)" />
    <path
       id="path6"
       d="m 10717.5,10846 -33,14.7"
       style="fill:none;stroke:#0000ff;stroke-width:7.205;stroke-linecap:round;stroke-linejoin:round;stroke-miterlimit:10;stroke-dasharray:none;stroke-opacity:1"
       transform="matrix(0.13333333,0,0,-0.13333333,0,2878.6667)" />
    <path
       id="path7"
       d="m 10717.5,10846 -174.9,127.1 21.2,29.1"
       style="fill:none;stroke:#0000ff;stroke-width:7.205;stroke-linecap:round;stroke-linejoin:round;stroke-miterlimit:10;stroke-dasharray:none;stroke-opacity:1"
       transform="matrix(0.13333333,0,0,-0.13333333,0,2878.6667)" />
    <path
       id="path8"
       d="m 10542.6,10973.1 -21.2,-29.2"
       style="fill:none;stroke:#0000ff;stroke-width:7.205;stroke-linecap:round;stroke-linejoin:round;stroke-miterlimit:10;stroke-dasharray:none;stroke-opacity:1"
       transform="matrix(0.13333333,0,0,-0.13333333,0,2878.6667)" />
    <path
       id="path9"
       d="m 10542.6,10973.1 215,-22.6 -3.8,-35.9"
       style="fill:none;stroke:#0000ff;stroke-width:7.205;stroke-linecap:round;stroke-linejoin:round;stroke-miterlimit:10;stroke-dasharray:none;stroke-opacity:1"
       transform="matrix(0.13333333,0,0,-0.13333333,0,2878.6667)" />
    <path
       id="path10"
       d="m 10757.6,10950.5 3.7,35.8"
       style="fill:none;stroke:#0000ff;stroke-width:7.205;stroke-linecap:round;stroke-linejoin:round;stroke-miterlimit:10;stroke-dasharray:none;stroke-opacity:1"
       transform="matrix(0.13333333,0,0,-0.13333333,0,2878.6667)" />
    <path
       id="path11"
       d="m 10757.6,10950.5 66.7,205.5 34.3,-11.1"
       style="fill:none;stroke:#0000ff;stroke-width:7.205;stroke-linecap:round;stroke-linejoin:round;stroke-miterlimit:10;stroke-dasharray:none;stroke-opacity:1"
       transform="matrix(0.13333333,0,0,-0.13333333,0,2878.6667)" />
    <path
       id="path12"
       d="m 10824.3,11156 -34.2,11.2"
       style="fill:none;stroke:#0000ff;stroke-width:7.205;stroke-linecap:round;stroke-linejoin:round;stroke-miterlimit:10;stroke-dasharray:none;stroke-opacity:1"
       transform="matrix(0.13333333,0,0,-0.13333333,0,2878.6667)" />
    <path
       id="path13"
       d="m 10824.3,11156 45,-211.4 -35.2,-7.5"
       style="fill:none;stroke:#0000ff;stroke-width:7.205;stroke-linecap:round;stroke-linejoin:round;stroke-miterlimit:10;stroke-dasharray:none;stroke-opacity:1"
       transform="matrix(0.13333333,0,0,-0.13333333,0,2878.6667)" />
    <path
       id="path14"
       d="m 10869.3,10944.6 35.2,7.5"
       style="fill:none;stroke:#0000ff;stroke-width:7.205;stroke-linecap:round;stroke-linejoin:round;stroke-miterlimit:10;stroke-dasharray:none;stroke-opacity:1"
       transform="matrix(0.13333333,0,0,-0.13333333,0,2878.6667)" />
    <path
       id="path15"
       d="m 10869.3,10944.6 h 216.1 v -36"
       style="fill:none;stroke:#0000ff;stroke-width:7.205;stroke-linecap:round;stroke-linejoin:round;stroke-miterlimit:10;stroke-dasharray:none;stroke-opacity:1"
       transform="matrix(0.13333333,0,0,-0.13333333,0,2878.6667)" />
    <path
       id="path16"
       d="m 11085.4,10944.6 v 36"
       style="fill:none;stroke:#0000ff;stroke-width:7.205;stroke-linecap:round;stroke-linejoin:round;stroke-miterlimit:10;stroke-dasharray:none;stroke-opacity:1"
       transform="matrix(0.13333333,0,0,-0.13333333,0,2878.6667)" />
    <path
       id="path17"
       d="m 11085.4,10944.6 -187.2,-108.1 -18,31.2"
       style="fill:none;stroke:#0000ff;stroke-width:7.205;stroke-linecap:round;stroke-linejoin:round;stroke-miterlimit:10;stroke-dasharray:none;stroke-opacity:1"
       transform="matrix(0.13333333,0,0,-0.13333333,0,2878.6667)" />
    <path
       id="path18"
       d="m 10898.2,10836.5 18.1,-31.2"
       style="fill:none;stroke:#0000ff;stroke-width:7.205;stroke-linecap:round;stroke-linejoin:round;stroke-miterlimit:10;stroke-dasharray:none;stroke-opacity:1"
       transform="matrix(0.13333333,0,0,-0.13333333,0,2878.6667)" />
    <path
       id="path19"
       d="m 10898.2,10836.5 66.8,-205.5 -34.2,-11.2"
       style="fill:none;stroke:#0000ff;stroke-width:7.205;stroke-linecap:round;stroke-linejoin:round;stroke-miterlimit:10;stroke-dasharray:none;stroke-opacity:1"
       transform="matrix(0.13333333,0,0,-0.13333333,0,2878.6667)" />
    <path
       id="path20"
       d="m 10965,10631 34.3,11.1"
       style="fill:none;stroke:#0000ff;stroke-width:7.205;stroke-linecap:round;stroke-linejoin:round;stroke-miterlimit:10;stroke-dasharray:none;stroke-opacity:1"
       transform="matrix(0.13333333,0,0,-0.13333333,0,2878.6667)" />
    <path
       id="path21"
       d="m 10965,10631 -160.6,144.6 24.1,26.8"
       style="fill:none;stroke:#0000ff;stroke-width:7.205;stroke-linecap:round;stroke-linejoin:round;stroke-miterlimit:10;stroke-dasharray:none;stroke-opacity:1"
       transform="matrix(0.13333333,0,0,-0.13333333,0,2878.6667)" />
    <path
       id="path22"
       d="m 10804.4,10775.6 -24.1,-26.8"
       style="fill:none;stroke:#0000ff;stroke-width:7.205;stroke-linecap:round;stroke-linejoin:round;stroke-miterlimit:10;stroke-dasharray:none;stroke-opacity:1"
       transform="matrix(0.13333333,0,0,-0.13333333,0,2878.6667)" />
    <path
       id="path23"
       d="m 10804.4,10775.6 v 0 h 36"
       style="fill:none;stroke:#0000ff;stroke-width:7.205;stroke-linecap:round;stroke-linejoin:round;stroke-miterlimit:10;stroke-dasharray:none;stroke-opacity:1"
       transform="matrix(0.13333333,0,0,-0.13333333,0,2878.6667)" />
    <path
       id="path24"
       d="m 10804.4,10775.6 h -36"
       style="fill:none;stroke:#0000ff;stroke-width:7.205;stroke-linecap:round;stroke-linejoin:round;stroke-miterlimit:10;stroke-dasharray:none;stroke-opacity:1"
       transform="matrix(0.13333333,0,0,-0.13333333,0,2878.6667)" />
    <path
       id="path25"
       d="m 10804.4,10775.6 -64.8,230.6 34.6,9.7"
       style="fill:none;stroke:#0000ff;stroke-width:7.205;stroke-linecap:round;stroke-linejoin:round;stroke-miterlimit:10;stroke-dasharray:none;stroke-opacity:1"
       transform="matrix(0.13333333,0,0,-0.13333333,0,2878.6667)" />
    <path
       id="path26"
       d="m 10739.6,11006.2 -34.7,-9.8"
       style="fill:none;stroke:#0000ff;stroke-width:7.205;stroke-linecap:round;stroke-linejoin:round;stroke-miterlimit:10;stroke-dasharray:none;stroke-opacity:1"
       transform="matrix(0.13333333,0,0,-0.13333333,0,2878.6667)" />
    <path
       id="path27"
       d="m 10739.6,11006.2 93.6,-93.7 -25.4,-25.5"
       style="fill:none;stroke:#0000ff;stroke-width:7.205;stroke-linecap:round;stroke-linejoin:round;stroke-miterlimit:10;stroke-dasharray:none;stroke-opacity:1"
       transform="matrix(0.13333333,0,0,-0.13333333,0,2878.6667)" />
    <path
       id="path28"
       d="m 10833.2,10912.5 25.5,25.5"
       style="fill:none;stroke:#0000ff;stroke-width:7.205;stroke-linecap:round;stroke-linejoin:round;stroke-miterlimit:10;stroke-dasharray:none;stroke-opacity:1"
       transform="matrix(0.13333333,0,0,-0.13333333,0,2878.6667)" />
    <path
       id="path29"
       d="m 10833.2,10912.5 -93.6,-93.7 -25.5,25.5"
       style="fill:none;stroke:#0000ff;stroke-width:7.205;stroke-linecap:round;stroke-linejoin:round;stroke-miterlimit:10;stroke-dasharray:none;stroke-opacity:1"
       transform="matrix(0.13333333,0,0,-0.13333333,0,2878.6667)" />
    <path
       id="path30"
       d="m 10739.6,10818.8 25.4,-25.5"
       style="fill:none;stroke:#0000ff;stroke-width:7.205;stroke-linecap:round;stroke-linejoin:round;stroke-miterlimit:10;stroke-dasharray:none;stroke-opacity:1"
       transform="matrix(0.13333333,0,0,-0.13333333,0,2878.6667)" />
    <path
       id="path31"
       d="m 10739.6,10818.8 -93.7,93.7 25.5,25.5"
       style="fill:none;stroke:#0000ff;stroke-width:7.205;stroke-linecap:round;stroke-linejoin:round;stroke-miterlimit:10;stroke-dasharray:none;stroke-opacity:1"
       transform="matrix(0.13333333,0,0,-0.13333333,0,2878.6667)" />
    <path
       id="path32"
       d="m 10645.9,10912.5 -25.5,-25.5"
       style="fill:none;stroke:#0000ff;stroke-width:7.205;stroke-linecap:round;stroke-linejoin:round;stroke-miterlimit:10;stroke-dasharray:none;stroke-opacity:1"
       transform="matrix(0.13333333,0,0,-0.13333333,0,2878.6667)" />
    <path
       id="path33"
       d="m 10645.9,10912.5 93.7,93.7 25.4,-25.5"
       style="fill:none;stroke:#0000ff;stroke-width:7.205;stroke-linecap:round;stroke-linejoin:round;stroke-miterlimit:10;stroke-dasharray:none;stroke-opacity:1"
       transform="matrix(0.13333333,0,0,-0.13333333,0,2878.6667)" />
    <path
       id="path34"
       d="m 10739.6,11006.2 -25.5,25.4"
       style="fill:none;stroke:#0000ff;stroke-width:7.205;stroke-linecap:round;stroke-linejoin:round;stroke-miterlimit:10;stroke-dasharray:none;stroke-opacity:1"
       transform="matrix(0.13333333,0,0,-0.13333333,0,2878.6667)" />
    <path
       id="path35"
       d="m 10739.6,11006.2 216.1,151.3 20.7,-29.6"
       style="fill:none;stroke:#0000ff;stroke-width:7.205;stroke-linecap:round;stroke-linejoin:round;stroke-miterlimit:10;stroke-dasharray:none;stroke-opacity:1"
       transform="matrix(0.13333333,0,0,-0.13333333,0,2878.6667)" />
    <path
       id="path36"
       d="m 10955.7,11157.5 -20.6,29.5"
       style="fill:none;stroke:#0000ff;stroke-width:7.205;stroke-linecap:round;stroke-linejoin:round;stroke-miterlimit:10;stroke-dasharray:none;stroke-opacity:1"
       transform="matrix(0.13333333,0,0,-0.13333333,0,2878.6667)" />
    <path
       id="path37"
       d="m 10955.7,11157.5 93.7,-93.7 -25.5,-25.5"
       style="fill:none;stroke:#0000ff;stroke-width:7.205;stroke-linecap:round;stroke-linejoin:round;stroke-miterlimit:10;stroke-dasharray:none;stroke-opacity:1"
       transform="matrix(0.13333333,0,0,-0.13333333,0,2878.6667)" />
    <path
       id="path38"
       d="m 11049.4,11063.8 25.5,25.5"
       style="fill:none;stroke:#0000ff;stroke-width:7.205;stroke-linecap:round;stroke-linejoin:round;stroke-miterlimit:10;stroke-dasharray:none;stroke-opacity:1"
       transform="matrix(0.13333333,0,0,-0.13333333,0,2878.6667)" />
    <path
       id="path39"
       d="m 11049.4,11063.8 -93.7,-93.7 -25.5,25.5"
       style="fill:none;stroke:#0000ff;stroke-width:7.205;stroke-linecap:round;stroke-linejoin:round;stroke-miterlimit:10;stroke-dasharray:none;stroke-opacity:1"
       transform="matrix(0.13333333,0,0,-0.13333333,0,2878.6667)" />
    <path
       id="path40"
       d="m 10955.7,10970.1 25.5,-25.4"
       style="fill:none;stroke:#0000ff;stroke-width:7.205;stroke-linecap:round;stroke-linejoin:round;stroke-miterlimit:10;stroke-dasharray:none;stroke-opacity:1"
       transform="matrix(0.13333333,0,0,-0.13333333,0,2878.6667)" />
    <path
       id="path41"
       d="m 10955.7,10970.1 -93.6,93.7 25.4,25.5"
       style="fill:none;stroke:#0000ff;stroke-width:7.205;stroke-linecap:round;stroke-linejoin:round;stroke-miterlimit:10;stroke-dasharray:none;stroke-opacity:1"
       transform="matrix(0.13333333,0,0,-0.13333333,0,2878.6667)" />
    <path
       id="path42"
       d="m 10862.1,11063.8 -25.5,-25.5"
       style="fill:none;stroke:#0000ff;stroke-width:7.205;stroke-linecap:round;stroke-linejoin:round;stroke-miterlimit:10;stroke-dasharray:none;stroke-opacity:1"
       transform="matrix(0.13333333,0,0,-0.13333333,0,2878.6667)" />
    <path
       id="path43"
       d="m 10862.1,11063.8 93.6,93.7 25.5,-25.5"
       style="fill:none;stroke:#0000ff;stroke-width:7.205;stroke-linecap:round;stroke-linejoin:round;stroke-miterlimit:10;stroke-dasharray:none;stroke-opacity:1"
       transform="matrix(0.13333333,0,0,-0.13333333,0,2878.6667)" />
    <path
       id="path44"
       d="m 10955.7,11157.5 -25.5,25.4"
       style="fill:none;stroke:#0000ff;stroke-width:7.205;stroke-linecap:round;stroke-linejoin:round;stroke-miterlimit:10;stroke-dasharray:none;stroke-opacity:1"
       transform="matrix(0.13333333,0,0,-0.13333333,0,2878.6667)" />
    <path
       id="path45"
       d="m 10955.7,11157.5 -166.8,137.5 23,27.8"
       style="fill:none;stroke:#0000ff;stroke-width:7.205;stroke-linecap:round;stroke-linejoin:round;stroke-miterlimit:10;stroke-dasharray:none;stroke-opacity:1"
       transform="matrix(0.13333333,0,0,-0.13333333,0,2878.6667)" />
    <path
       id="path46"
       d="m 10788.9,11295 -22.9,-27.8"
       style="fill:none;stroke:#0000ff;stroke-width:7.205;stroke-linecap:round;stroke-linejoin:round;stroke-miterlimit:10;stroke-dasharray:none;stroke-opacity:1"
       transform="matrix(0.13333333,0,0,-0.13333333,0,2878.6667)" />
    <path
       id="path47"
       d="m 10788.9,11295 -243.9,201.1 22.9,27.8"
       style="fill:none;stroke:#0000ff;stroke-width:7.205;stroke-linecap:round;stroke-linejoin:round;stroke-miterlimit:10;stroke-dasharray:none;stroke-opacity:1"
       transform="matrix(0.13333333,0,0,-0.13333333,0,2878.6667)" />
    <path
       id="path48"
       d="m 10545,11496.1 -22.9,-27.8"
       style="fill:none;stroke:#0000ff;stroke-width:7.205;stroke-linecap:round;stroke-linejoin:round;stroke-miterlimit:10;stroke-dasharray:none;stroke-opacity:1"
       transform="matrix(0.13333333,0,0,-0.13333333,0,2878.6667)" />
    <path
       id="path49"
       d="m 10545,11496.1 144.1,-144.1 -25.4,-25.5"
       style="fill:none;stroke:#0000ff;stroke-width:7.205;stroke-linecap:round;stroke-linejoin:round;stroke-miterlimit:10;stroke-dasharray:none;stroke-opacity:1"
       transform="matrix(0.13333333,0,0,-0.13333333,0,2878.6667)" />
    <path
       id="path50"
       d="m 10689.1,11352 25.5,25.5"
       style="fill:none;stroke:#0000ff;stroke-width:7.205;stroke-linecap:round;stroke-linejoin:round;stroke-miterlimit:10;stroke-dasharray:none;stroke-opacity:1"
       transform="matrix(0.13333333,0,0,-0.13333333,0,2878.6667)" />
    <path
       id="path51"
       d="m 10689.1,11352 -144.1,-144.1 -25.4,25.5"
       style="fill:none;stroke:#0000ff;stroke-width:7.205;stroke-linecap:round;stroke-linejoin:round;stroke-miterlimit:10;stroke-dasharray:none;stroke-opacity:1"
       transform="matrix(0.13333333,0,0,-0.13333333,0,2878.6667)" />
    <path
       id="path52"
       d="m 10545,11207.9 25.5,-25.5"
       style="fill:none;stroke:#0000ff;stroke-width:7.205;stroke-linecap:round;stroke-linejoin:round;stroke-miterlimit:10;stroke-dasharray:none;stroke-opacity:1"
       transform="matrix(0.13333333,0,0,-0.13333333,0,2878.6667)" />
    <path
       id="path53"
       d="m 10545,11207.9 -144.1,144.1 25.5,25.5"
       style="fill:none;stroke:#0000ff;stroke-width:7.205;stroke-linecap:round;stroke-linejoin:round;stroke-miterlimit:10;stroke-dasharray:none;stroke-opacity:1"
       transform="matrix(0.13333333,0,0,-0.13333333,0,2878.6667)" />
    <path
       id="path54"
       d="m 10400.9,11352 -25.4,-25.5"
       style="fill:none;stroke:#0000ff;stroke-width:7.205;stroke-linecap:round;stroke-linejoin:round;stroke-miterlimit:10;stroke-dasharray:none;stroke-opacity:1"
       transform="matrix(0.13333333,0,0,-0.13333333,0,2878.6667)" />
    <path
       id="path55"
       d="m 10400.9,11352 144.1,144.1 25.5,-25.5"
       style="fill:none;stroke:#0000ff;stroke-width:7.205;stroke-linecap:round;stroke-linejoin:round;stroke-miterlimit:10;stroke-dasharray:none;stroke-opacity:1"
       transform="matrix(0.13333333,0,0,-0.13333333,0,2878.6667)" />
    <path
       id="path56"
       d="m 10545,11496.1 -25.4,25.5"
       style="fill:none;stroke:#0000ff;stroke-width:7.205;stroke-linecap:round;stroke-linejoin:round;stroke-miterlimit:10;stroke-dasharray:none;stroke-opacity:1"
       transform="matrix(0.13333333,0,0,-0.13333333,0,2878.6667)" />
    <path
       id="path57"
       d="m 10545,11496.1 210.3,50.2 8.3,-35"
       style="fill:none;stroke:#0000ff;stroke-width:7.205;stroke-linecap:round;stroke-linejoin:round;stroke-miterlimit:10;stroke-dasharray:none;stroke-opacity:1"
       transform="matrix(0.13333333,0,0,-0.13333333,0,2878.6667)" />
    <path
       id="path58"
       d="m 10755.3,11546.3 -8.4,35"
       style="fill:none;stroke:#0000ff;stroke-width:7.205;stroke-linecap:round;stroke-linejoin:round;stroke-miterlimit:10;stroke-dasharray:none;stroke-opacity:1"
       transform="matrix(0.13333333,0,0,-0.13333333,0,2878.6667)" />
    <path
       id="path59"
       d="m 10755.3,11546.3 272.5,65.1 8.3,-35.1"
       style="fill:none;stroke:#0000ff;stroke-width:7.205;stroke-linecap:round;stroke-linejoin:round;stroke-miterlimit:10;stroke-dasharray:none;stroke-opacity:1"
       transform="matrix(0.13333333,0,0,-0.13333333,0,2878.6667)" />
    <path
       id="path60"
       d="m 11027.8,11611.4 -8.4,35"
       style="fill:none;stroke:#0000ff;stroke-width:7.205;stroke-linecap:round;stroke-linejoin:round;stroke-miterlimit:10;stroke-dasharray:none;stroke-opacity:1"
       transform="matrix(0.13333333,0,0,-0.13333333,0,2878.6667)" />
    <path
       id="path61"
       d="m 11027.8,11611.4 136.9,-136.9 -25.5,-25.5"
       style="fill:none;stroke:#0000ff;stroke-width:7.205;stroke-linecap:round;stroke-linejoin:round;stroke-miterlimit:10;stroke-dasharray:none;stroke-opacity:1"
       transform="matrix(0.13333333,0,0,-0.13333333,0,2878.6667)" />
    <path
       id="path62"
       d="m 11164.7,11474.5 25.4,25.4"
       style="fill:none;stroke:#0000ff;stroke-width:7.205;stroke-linecap:round;stroke-linejoin:round;stroke-miterlimit:10;stroke-dasharray:none;stroke-opacity:1"
       transform="matrix(0.13333333,0,0,-0.13333333,0,2878.6667)" />
    <path
       id="path63"
       d="m 11164.7,11474.5 -136.9,-136.9 -25.5,25.5"
       style="fill:none;stroke:#0000ff;stroke-width:7.205;stroke-linecap:round;stroke-linejoin:round;stroke-miterlimit:10;stroke-dasharray:none;stroke-opacity:1"
       transform="matrix(0.13333333,0,0,-0.13333333,0,2878.6667)" />
    <path
       id="path64"
       d="m 11027.8,11337.6 25.4,-25.5"
       style="fill:none;stroke:#0000ff;stroke-width:7.205;stroke-linecap:round;stroke-linejoin:round;stroke-miterlimit:10;stroke-dasharray:none;stroke-opacity:1"
       transform="matrix(0.13333333,0,0,-0.13333333,0,2878.6667)" />
    <path
       id="path65"
       d="m 11027.8,11337.6 -136.9,136.9 25.4,25.4"
       style="fill:none;stroke:#0000ff;stroke-width:7.205;stroke-linecap:round;stroke-linejoin:round;stroke-miterlimit:10;stroke-dasharray:none;stroke-opacity:1"
       transform="matrix(0.13333333,0,0,-0.13333333,0,2878.6667)" />
    <path
       id="path66"
       d="m 10890.9,11474.5 -25.5,-25.5"
       style="fill:none;stroke:#0000ff;stroke-width:7.205;stroke-linecap:round;stroke-linejoin:round;stroke-miterlimit:10;stroke-dasharray:none;stroke-opacity:1"
       transform="matrix(0.13333333,0,0,-0.13333333,0,2878.6667)" />
    <path
       id="path67"
       d="m 10890.9,11474.5 136.9,136.9 25.4,-25.5"
       style="fill:none;stroke:#0000ff;stroke-width:7.205;stroke-linecap:round;stroke-linejoin:round;stroke-miterlimit:10;stroke-dasharray:none;stroke-opacity:1"
       transform="matrix(0.13333333,0,0,-0.13333333,0,2878.6667)" />
    <path
       id="path68"
       d="m 11027.8,11611.4 -25.5,25.4"
       style="fill:none;stroke:#0000ff;stroke-width:7.205;stroke-linecap:round;stroke-linejoin:round;stroke-miterlimit:10;stroke-dasharray:none;stroke-opacity:1"
       transform="matrix(0.13333333,0,0,-0.13333333,0,2878.6667)" />
    <path
       id="path69"
       d="m 11027.8,11611.4 -183.9,113.6 18.9,30.6"
       style="fill:none;stroke:#0000ff;stroke-width:7.205;stroke-linecap:round;stroke-linejoin:round;stroke-miterlimit:10;stroke-dasharray:none;stroke-opacity:1"
       transform="matrix(0.13333333,0,0,-0.13333333,0,2878.6667)" />
    <path
       id="path70"
       d="m 10843.9,11725 -19,-30.7"
       style="fill:none;stroke:#0000ff;stroke-width:7.205;stroke-linecap:round;stroke-linejoin:round;stroke-miterlimit:10;stroke-dasharray:none;stroke-opacity:1"
       transform="matrix(0.13333333,0,0,-0.13333333,0,2878.6667)" />
    <path
       id="path71"
       d="m 10843.9,11725 -183.9,113.5 18.9,30.7"
       style="fill:none;stroke:#0000ff;stroke-width:7.205;stroke-linecap:round;stroke-linejoin:round;stroke-miterlimit:10;stroke-dasharray:none;stroke-opacity:1"
       transform="matrix(0.13333333,0,0,-0.13333333,0,2878.6667)" />
    <path
       id="path72"
       d="m 10660,11838.5 -19,-30.6"
       style="fill:none;stroke:#0000ff;stroke-width:7.205;stroke-linecap:round;stroke-linejoin:round;stroke-miterlimit:10;stroke-dasharray:none;stroke-opacity:1"
       transform="matrix(0.13333333,0,0,-0.13333333,0,2878.6667)" />
    <path
       id="path73"
       d="m 10660,11838.5 -122.2,75.5 19,30.6"
       style="fill:none;stroke:#0000ff;stroke-width:7.205;stroke-linecap:round;stroke-linejoin:round;stroke-miterlimit:10;stroke-dasharray:none;stroke-opacity:1"
       transform="matrix(0.13333333,0,0,-0.13333333,0,2878.6667)" />
    <path
       id="path74"
       d="m 10537.8,11914 -18.9,-30.7"
       style="fill:none;stroke:#0000ff;stroke-width:7.205;stroke-linecap:round;stroke-linejoin:round;stroke-miterlimit:10;stroke-dasharray:none;stroke-opacity:1"
       transform="matrix(0.13333333,0,0,-0.13333333,0,2878.6667)" />
    <path
       id="path75"
       d="m 10537.8,11914 129.7,-129.7 -25.5,-25.5"
       style="fill:none;stroke:#0000ff;stroke-width:7.205;stroke-linecap:round;stroke-linejoin:round;stroke-miterlimit:10;stroke-dasharray:none;stroke-opacity:1"
       transform="matrix(0.13333333,0,0,-0.13333333,0,2878.6667)" />
    <path
       id="path76"
       d="m 10667.5,11784.3 25.5,25.5"
       style="fill:none;stroke:#0000ff;stroke-width:7.205;stroke-linecap:round;stroke-linejoin:round;stroke-miterlimit:10;stroke-dasharray:none;stroke-opacity:1"
       transform="matrix(0.13333333,0,0,-0.13333333,0,2878.6667)" />
    <path
       id="path77"
       d="m 10667.5,11784.3 -129.7,-129.7 -25.4,25.5"
       style="fill:none;stroke:#0000ff;stroke-width:7.205;stroke-linecap:round;stroke-linejoin:round;stroke-miterlimit:10;stroke-dasharray:none;stroke-opacity:1"
       transform="matrix(0.13333333,0,0,-0.13333333,0,2878.6667)" />
    <path
       id="path78"
       d="m 10537.8,11654.6 25.5,-25.5"
       style="fill:none;stroke:#0000ff;stroke-width:7.205;stroke-linecap:round;stroke-linejoin:round;stroke-miterlimit:10;stroke-dasharray:none;stroke-opacity:1"
       transform="matrix(0.13333333,0,0,-0.13333333,0,2878.6667)" />
    <path
       id="path79"
       d="m 10537.8,11654.6 -129.7,129.7 25.5,25.5"
       style="fill:none;stroke:#0000ff;stroke-width:7.205;stroke-linecap:round;stroke-linejoin:round;stroke-miterlimit:10;stroke-dasharray:none;stroke-opacity:1"
       transform="matrix(0.13333333,0,0,-0.13333333,0,2878.6667)" />
    <path
       id="path80"
       d="m 10408.1,11784.3 -25.4,-25.5"
       style="fill:none;stroke:#0000ff;stroke-width:7.205;stroke-linecap:round;stroke-linejoin:round;stroke-miterlimit:10;stroke-dasharray:none;stroke-opacity:1"
       transform="matrix(0.13333333,0,0,-0.13333333,0,2878.6667)" />
    <path
       id="path81"
       d="m 10408.1,11784.3 129.7,129.7 25.5,-25.5"
       style="fill:none;stroke:#0000ff;stroke-width:7.205;stroke-linecap:round;stroke-linejoin:round;stroke-miterlimit:10;stroke-dasharray:none;stroke-opacity:1"
       transform="matrix(0.13333333,0,0,-0.13333333,0,2878.6667)" />
    <path
       id="path82"
       d="m 10537.8,11914 -25.4,25.5"
       style="fill:none;stroke:#0000ff;stroke-width:7.205;stroke-linecap:round;stroke-linejoin:round;stroke-miterlimit:10;stroke-dasharray:none;stroke-opacity:1"
       transform="matrix(0.13333333,0,0,-0.13333333,0,2878.6667)" />
    <path
       id="path83"
       d="m 10537.8,11914 213.7,32.5 5.4,-35.6"
       style="fill:none;stroke:#0000ff;stroke-width:7.205;stroke-linecap:round;stroke-linejoin:round;stroke-miterlimit:10;stroke-dasharray:none;stroke-opacity:1"
       transform="matrix(0.13333333,0,0,-0.13333333,0,2878.6667)" />
    <path
       id="path84"
       d="m 10751.5,11946.5 -5.4,35.7"
       style="fill:none;stroke:#0000ff;stroke-width:7.205;stroke-linecap:round;stroke-linejoin:round;stroke-miterlimit:10;stroke-dasharray:none;stroke-opacity:1"
       transform="matrix(0.13333333,0,0,-0.13333333,0,2878.6667)" />
    <path
       id="path85"
       d="m 10751.5,11946.5 213.7,32.6 5.4,-35.6"
       style="fill:none;stroke:#0000ff;stroke-width:7.205;stroke-linecap:round;stroke-linejoin:round;stroke-miterlimit:10;stroke-dasharray:none;stroke-opacity:1"
       transform="matrix(0.13333333,0,0,-0.13333333,0,2878.6667)" />
    <path
       id="path86"
       d="m 10965.2,11979.1 -5.4,35.6"
       style="fill:none;stroke:#0000ff;stroke-width:7.205;stroke-linecap:round;stroke-linejoin:round;stroke-miterlimit:10;stroke-dasharray:none;stroke-opacity:1"
       transform="matrix(0.13333333,0,0,-0.13333333,0,2878.6667)" />
    <path
       id="path87"
       d="m 10965.2,11979.1 213.7,32.6 5.4,-35.6"
       style="fill:none;stroke:#0000ff;stroke-width:7.205;stroke-linecap:round;stroke-linejoin:round;stroke-miterlimit:10;stroke-dasharray:none;stroke-opacity:1"
       transform="matrix(0.13333333,0,0,-0.13333333,0,2878.6667)" />
    <path
       id="path88"
       d="m 11178.9,12011.7 -5.5,35.6"
       style="fill:none;stroke:#0000ff;stroke-width:7.205;stroke-linecap:round;stroke-linejoin:round;stroke-miterlimit:10;stroke-dasharray:none;stroke-opacity:1"
       transform="matrix(0.13333333,0,0,-0.13333333,0,2878.6667)" />
    <path
       id="path89"
       d="m 11178.9,12011.7 115.5,17.6 5.4,-35.7"
       style="fill:none;stroke:#0000ff;stroke-width:7.205;stroke-linecap:round;stroke-linejoin:round;stroke-miterlimit:10;stroke-dasharray:none;stroke-opacity:1"
       transform="matrix(0.13333333,0,0,-0.13333333,0,2878.6667)" />
    <path
       id="path90"
       d="m 11294.4,12029.3 -5.5,35.6"
       style="fill:none;stroke:#0000ff;stroke-width:7.205;stroke-linecap:round;stroke-linejoin:round;stroke-miterlimit:10;stroke-dasharray:none;stroke-opacity:1"
       transform="matrix(0.13333333,0,0,-0.13333333,0,2878.6667)" />
    <path
       id="path91"
       d="m 11294.4,12029.3 93.6,-93.7 -25.5,-25.5"
       style="fill:none;stroke:#0000ff;stroke-width:7.205;stroke-linecap:round;stroke-linejoin:round;stroke-miterlimit:10;stroke-dasharray:none;stroke-opacity:1"
       transform="matrix(0.13333333,0,0,-0.13333333,0,2878.6667)" />
    <path
       id="path92"
       d="m 11388,11935.6 25.5,25.5"
       style="fill:none;stroke:#0000ff;stroke-width:7.205;stroke-linecap:round;stroke-linejoin:round;stroke-miterlimit:10;stroke-dasharray:none;stroke-opacity:1"
       transform="matrix(0.13333333,0,0,-0.13333333,0,2878.6667)" />
    <path
       id="path93"
       d="m 11388,11935.6 -93.6,-93.7 -25.5,25.5"
       style="fill:none;stroke:#0000ff;stroke-width:7.205;stroke-linecap:round;stroke-linejoin:round;stroke-miterlimit:10;stroke-dasharray:none;stroke-opacity:1"
       transform="matrix(0.13333333,0,0,-0.13333333,0,2878.6667)" />
    <path
       id="path94"
       d="m 11294.4,11841.9 25.4,-25.4"
       style="fill:none;stroke:#0000ff;stroke-width:7.205;stroke-linecap:round;stroke-linejoin:round;stroke-miterlimit:10;stroke-dasharray:none;stroke-opacity:1"
       transform="matrix(0.13333333,0,0,-0.13333333,0,2878.6667)" />
    <path
       id="path95"
       d="m 11294.4,11841.9 -93.7,93.7 25.5,25.5"
       style="fill:none;stroke:#0000ff;stroke-width:7.205;stroke-linecap:round;stroke-linejoin:round;stroke-miterlimit:10;stroke-dasharray:none;stroke-opacity:1"
       transform="matrix(0.13333333,0,0,-0.13333333,0,2878.6667)" />
    <path
       id="path96"
       d="m 11200.7,11935.6 -25.5,-25.5"
       style="fill:none;stroke:#0000ff;stroke-width:7.205;stroke-linecap:round;stroke-linejoin:round;stroke-miterlimit:10;stroke-dasharray:none;stroke-opacity:1"
       transform="matrix(0.13333333,0,0,-0.13333333,0,2878.6667)" />
    <path
       id="path97"
       d="m 11200.7,11935.6 93.7,93.7 25.4,-25.5"
       style="fill:none;stroke:#0000ff;stroke-width:7.205;stroke-linecap:round;stroke-linejoin:round;stroke-miterlimit:10;stroke-dasharray:none;stroke-opacity:1"
       transform="matrix(0.13333333,0,0,-0.13333333,0,2878.6667)" />
    <path
       id="path98"
       d="m 11294.4,12029.3 -25.5,25.4"
       style="fill:none;stroke:#0000ff;stroke-width:7.205;stroke-linecap:round;stroke-linejoin:round;stroke-miterlimit:10;stroke-dasharray:none;stroke-opacity:1"
       transform="matrix(0.13333333,0,0,-0.13333333,0,2878.6667)" />
    <path
       id="path99"
       d="m 11294.4,12029.3 -211.4,45.4 7.6,35.2"
       style="fill:none;stroke:#0000ff;stroke-width:7.205;stroke-linecap:round;stroke-linejoin:round;stroke-miterlimit:10;stroke-dasharray:none;stroke-opacity:1"
       transform="matrix(0.13333333,0,0,-0.13333333,0,2878.6667)" />
    <path
       id="path100"
       d="m 11083,12074.7 -7.5,-35.3"
       style="fill:none;stroke:#0000ff;stroke-width:7.205;stroke-linecap:round;stroke-linejoin:round;stroke-miterlimit:10;stroke-dasharray:none;stroke-opacity:1"
       transform="matrix(0.13333333,0,0,-0.13333333,0,2878.6667)" />
    <path
       id="path101"
       d="m 11083,12074.7 -211.3,45.4 7.6,35.2"
       style="fill:none;stroke:#0000ff;stroke-width:7.205;stroke-linecap:round;stroke-linejoin:round;stroke-miterlimit:10;stroke-dasharray:none;stroke-opacity:1"
       transform="matrix(0.13333333,0,0,-0.13333333,0,2878.6667)" />
    <path
       id="path102"
       d="m 10871.7,12120.1 -7.6,-35.3"
       style="fill:none;stroke:#0000ff;stroke-width:7.205;stroke-linecap:round;stroke-linejoin:round;stroke-miterlimit:10;stroke-dasharray:none;stroke-opacity:1"
       transform="matrix(0.13333333,0,0,-0.13333333,0,2878.6667)" />
    <path
       id="path103"
       d="m 10871.7,12120.1 -211.3,45.3 7.5,35.3"
       style="fill:none;stroke:#0000ff;stroke-width:7.205;stroke-linecap:round;stroke-linejoin:round;stroke-miterlimit:10;stroke-dasharray:none;stroke-opacity:1"
       transform="matrix(0.13333333,0,0,-0.13333333,0,2878.6667)" />
    <path
       id="path104"
       d="m 10660.4,12165.4 -7.6,-35.2"
       style="fill:none;stroke:#0000ff;stroke-width:7.205;stroke-linecap:round;stroke-linejoin:round;stroke-miterlimit:10;stroke-dasharray:none;stroke-opacity:1"
       transform="matrix(0.13333333,0,0,-0.13333333,0,2878.6667)" />
    <path
       id="path105"
       d="m 10660.4,12165.4 -211.4,45.4 7.6,35.3"
       style="fill:none;stroke:#0000ff;stroke-width:7.205;stroke-linecap:round;stroke-linejoin:round;stroke-miterlimit:10;stroke-dasharray:none;stroke-opacity:1"
       transform="matrix(0.13333333,0,0,-0.13333333,0,2878.6667)" />
    <path
       id="path106"
       d="m 10449,12210.8 -7.5,-35.2"
       style="fill:none;stroke:#0000ff;stroke-width:7.205;stroke-linecap:round;stroke-linejoin:round;stroke-miterlimit:10;stroke-dasharray:none;stroke-opacity:1"
       transform="matrix(0.13333333,0,0,-0.13333333,0,2878.6667)" />
    <path
       id="path107"
       d="m 10449,12210.8 -127.3,27.4 7.5,35.2"
       style="fill:none;stroke:#0000ff;stroke-width:7.205;stroke-linecap:round;stroke-linejoin:round;stroke-miterlimit:10;stroke-dasharray:none;stroke-opacity:1"
       transform="matrix(0.13333333,0,0,-0.13333333,0,2878.6667)" />
    <path
       id="path108"
       d="m 10321.7,12238.2 -7.6,-35.2"
       style="fill:none;stroke:#0000ff;stroke-width:7.205;stroke-linecap:round;stroke-linejoin:round;stroke-miterlimit:10;stroke-dasharray:none;stroke-opacity:1"
       transform="matrix(0.13333333,0,0,-0.13333333,0,2878.6667)" />
    <path
       id="path109"
       d="m 10321.7,12238.2 144.1,-144.1 -25.5,-25.5"
       style="fill:none;stroke:#0000ff;stroke-width:7.205;stroke-linecap:round;stroke-linejoin:round;stroke-miterlimit:10;stroke-dasharray:none;stroke-opacity:1"
       transform="matrix(0.13333333,0,0,-0.13333333,0,2878.6667)" />
    <path
       id="path110"
       d="m 10465.8,12094.1 25.5,25.5"
       style="fill:none;stroke:#0000ff;stroke-width:7.205;stroke-linecap:round;stroke-linejoin:round;stroke-miterlimit:10;stroke-dasharray:none;stroke-opacity:1"
       transform="matrix(0.13333333,0,0,-0.13333333,0,2878.6667)" />
    <path
       id="path111"
       d="m 10465.8,12094.1 -144.1,-144.1 -25.5,25.5"
       style="fill:none;stroke:#0000ff;stroke-width:7.205;stroke-linecap:round;stroke-linejoin:round;stroke-miterlimit:10;stroke-dasharray:none;stroke-opacity:1"
       transform="matrix(0.13333333,0,0,-0.13333333,0,2878.6667)" />
    <path
       id="path112"
       d="m 10321.7,11950 25.4,-25.5"
       style="fill:none;stroke:#0000ff;stroke-width:7.205;stroke-linecap:round;stroke-linejoin:round;stroke-miterlimit:10;stroke-dasharray:none;stroke-opacity:1"
       transform="matrix(0.13333333,0,0,-0.13333333,0,2878.6667)" />
    <path
       id="path113"
       d="m 10321.7,11950 -144.1,144.1 25.5,25.5"
       style="fill:none;stroke:#0000ff;stroke-width:7.205;stroke-linecap:round;stroke-linejoin:round;stroke-miterlimit:10;stroke-dasharray:none;stroke-opacity:1"
       transform="matrix(0.13333333,0,0,-0.13333333,0,2878.6667)" />
    <path
       id="path114"
       d="m 10177.6,12094.1 -25.5,-25.5"
       style="fill:none;stroke:#0000ff;stroke-width:7.205;stroke-linecap:round;stroke-linejoin:round;stroke-miterlimit:10;stroke-dasharray:none;stroke-opacity:1"
       transform="matrix(0.13333333,0,0,-0.13333333,0,2878.6667)" />
    <path
       id="path115"
       d="m 10177.6,12094.1 144.1,144.1 25.4,-25.5"
       style="fill:none;stroke:#0000ff;stroke-width:7.205;stroke-linecap:round;stroke-linejoin:round;stroke-miterlimit:10;stroke-dasharray:none;stroke-opacity:1"
       transform="matrix(0.13333333,0,0,-0.13333333,0,2878.6667)" />
    <path
       id="path116"
       d="m 10321.7,12238.2 -25.5,25.5"
       style="fill:none;stroke:#0000ff;stroke-width:7.205;stroke-linecap:round;stroke-linejoin:round;stroke-miterlimit:10;stroke-dasharray:none;stroke-opacity:1"
       transform="matrix(0.13333333,0,0,-0.13333333,0,2878.6667)" />
    <path
       id="path117"
       d="m 10321.7,12238.2 208,58.8 9.8,-34.7"
       style="fill:none;stroke:#0000ff;stroke-width:7.205;stroke-linecap:round;stroke-linejoin:round;stroke-miterlimit:10;stroke-dasharray:none;stroke-opacity:1"
       transform="matrix(0.13333333,0,0,-0.13333333,0,2878.6667)" />
    <path
       id="path118"
       d="m 10529.7,12297 -9.8,34.7"
       style="fill:none;stroke:#0000ff;stroke-width:7.205;stroke-linecap:round;stroke-linejoin:round;stroke-miterlimit:10;stroke-dasharray:none;stroke-opacity:1"
       transform="matrix(0.13333333,0,0,-0.13333333,0,2878.6667)" />
    <path
       id="path119"
       d="m 10529.7,12297 208,58.8 9.8,-34.7"
       style="fill:none;stroke:#0000ff;stroke-width:7.205;stroke-linecap:round;stroke-linejoin:round;stroke-miterlimit:10;stroke-dasharray:none;stroke-opacity:1"
       transform="matrix(0.13333333,0,0,-0.13333333,0,2878.6667)" />
    <path
       id="path120"
       d="m 10737.7,12355.8 -9.8,34.6"
       style="fill:none;stroke:#0000ff;stroke-width:7.205;stroke-linecap:round;stroke-linejoin:round;stroke-miterlimit:10;stroke-dasharray:none;stroke-opacity:1"
       transform="matrix(0.13333333,0,0,-0.13333333,0,2878.6667)" />
    <path
       id="path121"
       d="m 10737.7,12355.8 208,58.8 9.8,-34.7"
       style="fill:none;stroke:#0000ff;stroke-width:7.205;stroke-linecap:round;stroke-linejoin:round;stroke-miterlimit:10;stroke-dasharray:none;stroke-opacity:1"
       transform="matrix(0.13333333,0,0,-0.13333333,0,2878.6667)" />
    <path
       id="path122"
       d="m 10945.7,12414.6 -9.8,34.6"
       style="fill:none;stroke:#0000ff;stroke-width:7.205;stroke-linecap:round;stroke-linejoin:round;stroke-miterlimit:10;stroke-dasharray:none;stroke-opacity:1"
       transform="matrix(0.13333333,0,0,-0.13333333,0,2878.6667)" />
    <path
       id="path123"
       d="m 10945.7,12414.6 208,58.7 9.8,-34.6"
       style="fill:none;stroke:#0000ff;stroke-width:7.205;stroke-linecap:round;stroke-linejoin:round;stroke-miterlimit:10;stroke-dasharray:none;stroke-opacity:1"
       transform="matrix(0.13333333,0,0,-0.13333333,0,2878.6667)" />
    <path
       id="path124"
       d="m 11153.7,12473.3 -9.8,34.7"
       style="fill:none;stroke:#0000ff;stroke-width:7.205;stroke-linecap:round;stroke-linejoin:round;stroke-miterlimit:10;stroke-dasharray:none;stroke-opacity:1"
       transform="matrix(0.13333333,0,0,-0.13333333,0,2878.6667)" />
    <path
       id="path125"
       d="m 11153.7,12473.3 162.3,45.9 9.8,-34.7"
       style="fill:none;stroke:#0000ff;stroke-width:7.205;stroke-linecap:round;stroke-linejoin:round;stroke-miterlimit:10;stroke-dasharray:none;stroke-opacity:1"
       transform="matrix(0.13333333,0,0,-0.13333333,0,2878.6667)" />
    <path
       id="path126"
       d="m 11316,12519.2 -9.8,34.7"
       style="fill:none;stroke:#0000ff;stroke-width:7.205;stroke-linecap:round;stroke-linejoin:round;stroke-miterlimit:10;stroke-dasharray:none;stroke-opacity:1"
       transform="matrix(0.13333333,0,0,-0.13333333,0,2878.6667)" />
    <path
       id="path127"
       d="m 11316,12519.2 108,-108.1 -25.4,-25.4"
       style="fill:none;stroke:#0000ff;stroke-width:7.205;stroke-linecap:round;stroke-linejoin:round;stroke-miterlimit:10;stroke-dasharray:none;stroke-opacity:1"
       transform="matrix(0.13333333,0,0,-0.13333333,0,2878.6667)" />
    <path
       id="path128"
       d="m 11424,12411.1 25.5,25.5"
       style="fill:none;stroke:#0000ff;stroke-width:7.205;stroke-linecap:round;stroke-linejoin:round;stroke-miterlimit:10;stroke-dasharray:none;stroke-opacity:1"
       transform="matrix(0.13333333,0,0,-0.13333333,0,2878.6667)" />
    <path
       id="path129"
       d="m 11424,12411.1 -108,-108 -25.5,25.4"
       style="fill:none;stroke:#0000ff;stroke-width:7.205;stroke-linecap:round;stroke-linejoin:round;stroke-miterlimit:10;stroke-dasharray:none;stroke-opacity:1"
       transform="matrix(0.13333333,0,0,-0.13333333,0,2878.6667)" />
    <path
       id="path130"
       d="m 11316,12303.1 25.4,-25.5"
       style="fill:none;stroke:#0000ff;stroke-width:7.205;stroke-linecap:round;stroke-linejoin:round;stroke-miterlimit:10;stroke-dasharray:none;stroke-opacity:1"
       transform="matrix(0.13333333,0,0,-0.13333333,0,2878.6667)" />
    <path
       id="path131"
       d="m 11316,12303.1 -108.1,108 25.5,25.5"
       style="fill:none;stroke:#0000ff;stroke-width:7.205;stroke-linecap:round;stroke-linejoin:round;stroke-miterlimit:10;stroke-dasharray:none;stroke-opacity:1"
       transform="matrix(0.13333333,0,0,-0.13333333,0,2878.6667)" />
    <path
       id="path132"
       d="m 11207.9,12411.1 -25.5,-25.4"
       style="fill:none;stroke:#0000ff;stroke-width:7.205;stroke-linecap:round;stroke-linejoin:round;stroke-miterlimit:10;stroke-dasharray:none;stroke-opacity:1"
       transform="matrix(0.13333333,0,0,-0.13333333,0,2878.6667)" />
    <path
       id="path133"
       d="m 11207.9,12411.1 108.1,108.1 25.4,-25.5"
       style="fill:none;stroke:#0000ff;stroke-width:7.205;stroke-linecap:round;stroke-linejoin:round;stroke-miterlimit:10;stroke-dasharray:none;stroke-opacity:1"
       transform="matrix(0.13333333,0,0,-0.13333333,0,2878.6667)" />
    <path
       id="path134"
       d="m 11316,12519.2 -25.5,25.5"
       style="fill:none;stroke:#0000ff;stroke-width:7.205;stroke-linecap:round;stroke-linejoin:round;stroke-miterlimit:10;stroke-dasharray:none;stroke-opacity:1"
       transform="matrix(0.13333333,0,0,-0.13333333,0,2878.6667)" />
    <path
       id="path135"
       d="m 11316,12519.2 -212.6,39 6.5,35.4"
       style="fill:none;stroke:#0000ff;stroke-width:7.205;stroke-linecap:round;stroke-linejoin:round;stroke-miterlimit:10;stroke-dasharray:none;stroke-opacity:1"
       transform="matrix(0.13333333,0,0,-0.13333333,0,2878.6667)" />
    <path
       id="path136"
       d="m 11103.4,12558.2 -6.5,-35.5"
       style="fill:none;stroke:#0000ff;stroke-width:7.205;stroke-linecap:round;stroke-linejoin:round;stroke-miterlimit:10;stroke-dasharray:none;stroke-opacity:1"
       transform="matrix(0.13333333,0,0,-0.13333333,0,2878.6667)" />
    <path
       id="path137"
       d="m 11103.4,12558.2 -212.6,39 6.5,35.4"
       style="fill:none;stroke:#0000ff;stroke-width:7.205;stroke-linecap:round;stroke-linejoin:round;stroke-miterlimit:10;stroke-dasharray:none;stroke-opacity:1"
       transform="matrix(0.13333333,0,0,-0.13333333,0,2878.6667)" />
    <path
       id="path138"
       d="m 10890.8,12597.2 -6.5,-35.5"
       style="fill:none;stroke:#0000ff;stroke-width:7.205;stroke-linecap:round;stroke-linejoin:round;stroke-miterlimit:10;stroke-dasharray:none;stroke-opacity:1"
       transform="matrix(0.13333333,0,0,-0.13333333,0,2878.6667)" />
    <path
       id="path139"
       d="m 10890.8,12597.2 -212.7,38.9 6.5,35.5"
       style="fill:none;stroke:#0000ff;stroke-width:7.205;stroke-linecap:round;stroke-linejoin:round;stroke-miterlimit:10;stroke-dasharray:none;stroke-opacity:1"
       transform="matrix(0.13333333,0,0,-0.13333333,0,2878.6667)" />
    <path
       id="path140"
       d="m 10678.1,12636.1 -6.5,-35.4"
       style="fill:none;stroke:#0000ff;stroke-width:7.205;stroke-linecap:round;stroke-linejoin:round;stroke-miterlimit:10;stroke-dasharray:none;stroke-opacity:1"
       transform="matrix(0.13333333,0,0,-0.13333333,0,2878.6667)" />
    <path
       id="path141"
       d="m 10678.1,12636.1 -212.6,39 6.5,35.4"
       style="fill:none;stroke:#0000ff;stroke-width:7.205;stroke-linecap:round;stroke-linejoin:round;stroke-miterlimit:10;stroke-dasharray:none;stroke-opacity:1"
       transform="matrix(0.13333333,0,0,-0.13333333,0,2878.6667)" />
    <path
       id="path142"
       d="m 10465.5,12675.1 -6.5,-35.4"
       style="fill:none;stroke:#0000ff;stroke-width:7.205;stroke-linecap:round;stroke-linejoin:round;stroke-miterlimit:10;stroke-dasharray:none;stroke-opacity:1"
       transform="matrix(0.13333333,0,0,-0.13333333,0,2878.6667)" />
    <path
       id="path143"
       d="m 10465.5,12675.1 -212.6,39 6.5,35.4"
       style="fill:none;stroke:#0000ff;stroke-width:7.205;stroke-linecap:round;stroke-linejoin:round;stroke-miterlimit:10;stroke-dasharray:none;stroke-opacity:1"
       transform="matrix(0.13333333,0,0,-0.13333333,0,2878.6667)" />
    <path
       id="path144"
       d="m 10252.9,12714.1 -6.5,-35.4"
       style="fill:none;stroke:#0000ff;stroke-width:7.205;stroke-linecap:round;stroke-linejoin:round;stroke-miterlimit:10;stroke-dasharray:none;stroke-opacity:1"
       transform="matrix(0.13333333,0,0,-0.13333333,0,2878.6667)" />
    <path
       id="path145"
       d="m 10252.9,12714.1 -233.8,42.9 6.5,35.4"
       style="fill:none;stroke:#0000ff;stroke-width:7.205;stroke-linecap:round;stroke-linejoin:round;stroke-miterlimit:10;stroke-dasharray:none;stroke-opacity:1"
       transform="matrix(0.13333333,0,0,-0.13333333,0,2878.6667)" />
    <path
       id="path146"
       d="m 10019.1,12757 -6.5,-35.5"
       style="fill:none;stroke:#0000ff;stroke-width:7.205;stroke-linecap:round;stroke-linejoin:round;stroke-miterlimit:10;stroke-dasharray:none;stroke-opacity:1"
       transform="matrix(0.13333333,0,0,-0.13333333,0,2878.6667)" />
    <path
       id="path147"
       d="m 10019.1,12757 108,-108.1 -25.4,-25.5"
       style="fill:none;stroke:#0000ff;stroke-width:7.205;stroke-linecap:round;stroke-linejoin:round;stroke-miterlimit:10;stroke-dasharray:none;stroke-opacity:1"
       transform="matrix(0.13333333,0,0,-0.13333333,0,2878.6667)" />
    <path
       id="path148"
       d="m 10127.1,12648.9 25.5,25.5"
       style="fill:none;stroke:#0000ff;stroke-width:7.205;stroke-linecap:round;stroke-linejoin:round;stroke-miterlimit:10;stroke-dasharray:none;stroke-opacity:1"
       transform="matrix(0.13333333,0,0,-0.13333333,0,2878.6667)" />
    <path
       id="path149"
       d="m 10127.1,12648.9 -108,-108.1 -25.51,25.5"
       style="fill:none;stroke:#0000ff;stroke-width:7.205;stroke-linecap:round;stroke-linejoin:round;stroke-miterlimit:10;stroke-dasharray:none;stroke-opacity:1"
       transform="matrix(0.13333333,0,0,-0.13333333,0,2878.6667)" />
    <path
       id="path150"
       d="m 10019.1,12540.8 25.4,-25.5"
       style="fill:none;stroke:#0000ff;stroke-width:7.205;stroke-linecap:round;stroke-linejoin:round;stroke-miterlimit:10;stroke-dasharray:none;stroke-opacity:1"
       transform="matrix(0.13333333,0,0,-0.13333333,0,2878.6667)" />
    <path
       id="path151"
       d="m 10019.1,12540.8 -108.11,108.1 25.47,25.5"
       style="fill:none;stroke:#0000ff;stroke-width:7.205;stroke-linecap:round;stroke-linejoin:round;stroke-miterlimit:10;stroke-dasharray:none;stroke-opacity:1"
       transform="matrix(0.13333333,0,0,-0.13333333,0,2878.6667)" />
    <path
       id="path152"
       d="m 9910.99,12648.9 -25.47,-25.5"
       style="fill:none;stroke:#0000ff;stroke-width:7.205;stroke-linecap:round;stroke-linejoin:round;stroke-miterlimit:10;stroke-dasharray:none;stroke-opacity:1"
       transform="matrix(0.13333333,0,0,-0.13333333,0,2878.6667)" />
    <path
       id="path153"
       d="m 9910.99,12648.9 108.11,108.1 25.4,-25.5"
       style="fill:none;stroke:#0000ff;stroke-width:7.205;stroke-linecap:round;stroke-linejoin:round;stroke-miterlimit:10;stroke-dasharray:none;stroke-opacity:1"
       transform="matrix(0.13333333,0,0,-0.13333333,0,2878.6667)" />
    <path
       id="path154"
       d="m 10019.1,12757 -25.51,25.4"
       style="fill:none;stroke:#0000ff;stroke-width:7.205;stroke-linecap:round;stroke-linejoin:round;stroke-miterlimit:10;stroke-dasharray:none;stroke-opacity:1"
       transform="matrix(0.13333333,0,0,-0.13333333,0,2878.6667)" />
    <path
       id="path155"
       d="m 10019.1,12757 -71.36,-20.4 35.66,-15.3 15.29,-35.7 20.41,71.4"
       style="fill:#0000ff;fill-opacity:1;fill-rule:evenodd;stroke:#0000ff;stroke-width:7.205;stroke-linecap:round;stroke-linejoin:round;stroke-miterlimit:10;stroke-dasharray:none;stroke-opacity:1"
       transform="matrix(0.13333333,0,0,-0.13333333,0,2878.6667)" />
  </g>
</svg>
