<svg version="1.1" xmlns="http://www.w3.org/2000/svg" xmlns:xlink="http://www.w3.org/1999/xlink" xmlns:ev="http://www.w3.org/2001/xml-events" width="571.5994365901806" height="544.9327886971914" viewBox="-285.7997182950896 -244.9327886971914 571.5994365901806 544.9327886971914"><path d="M 0.0,0.0 0.0,0.0 -6.093467170257369,49.6273075820661 -12.186934340514737,99.2546151641322 -18.280401510772105,148.8819227461983 -24.373868681029474,198.5092303282644 -29.948856535945108,243.91386275044835 13.321614325082688,218.8605924755931 56.59208518611048,193.80732220073787 99.86255604713827,168.75405192588264 143.13302690816607,143.7007816510274 186.40349776919388,118.64751137617216 229.67396863022168,93.59424110131692 273.533920188497,68.19966603046389 230.14334623152251,43.354986686903715 186.75277227454802,18.510307343343545 143.36219831757353,-6.334372000216625 99.97162436059902,-31.179051343776795 56.581050403624516,-56.023730687336965 27.825735148998515,-72.48851835372214 60.724321910091845,-34.83638708439271 93.62290867118517,2.815744184936719 126.5214954322785,40.46787545426615 170.2643318076829,90.5311510976844 170.43636574545337,40.531447055317756 170.60839968322384,-9.468256987048889 170.7804336209943,-59.467961029415534 170.95246755876477,-109.46766507178218 171.12450149653523,-159.46736911414882 171.2965354343057,-209.46707315651548 171.41814145298062,-244.81047703551263 126.88701667341853,-222.07330645808435 82.35589189385644,-199.33613588065606 37.824767114294346,-176.59896530322777 -6.7063576652677455,-153.86179472579948 -51.23748244482984,-131.1246241483712 -111.47172382160811,-100.36959095382748 -61.642999107755344,-96.23459477594797 -11.81427439390258,-92.09959859806845 38.014450319950186,-87.96460242018894 95.68621527384097,-83.17875792937848 53.190996146473296,-109.52560501431455 10.69577701910562,-135.87245209925064 -31.799442108262056,-162.21929918418672 -74.29466123562973,-188.5661462691228 -116.78988036299741,-214.9129933540589 -165.20925203022009,-244.932788697188 -168.688353818577,-195.05397705590838 -172.16745560693394,-145.17516541462874 -175.64655739529087,-95.29635377334911 -179.1256591836478,-45.417542132069485 -182.60476097200473,4.46126950921014 -186.08386276036165,54.340081150489766 -189.01102660051413,96.30592828803033 -150.8859502851151,63.95660749230111 -112.76087396971604,31.60728669657189 -74.635797654317,-0.7420340991573298 -17.817352384165826,-48.95277334996128 -63.48800376923643,-28.60107558138804 -109.15865515430703,-8.249377812814807 -154.82930653937763,12.102319955758428 -200.4999579244482,32.45401772433166 -264.92375315107915,61.16246767618508 -223.48574062562918,89.14265920413303 -182.0477281001792,117.12285073208096 -140.60971557472922,145.1030422600289 -99.17170304927924,173.08323378797684 -57.73369052382926,201.06342531592477 -16.295677998379276,229.0436168438727 27.157291382501562,258.38436780263027 26.9606196743346,208.38475460173433 26.763947966167635,158.3851414008384 26.56727625800067,108.38552819994246 26.370604549833708,58.38591499904653 26.142740551763914,0.45632323373253514 13.745876344301458,48.89512749046183 1.3490121368390007,97.33393174719113 -11.047852070623456,145.77273600392044 -23.444716278085913,194.21154026064974 -31.983834186628417,227.57680537729402 12.929791072409923,205.60486267550561 57.84341633144827,183.6329199737172 102.75704159048661,161.6609772719288 147.67066684952493,139.6890345701404 192.58429210856326,117.71709186835199 237.4979173676016,95.74514916656358 279.90381056766466,74.99999999999876 239.03050602027128,46.20116364545083 198.1572014728779,17.4023272909029 157.2838969254845,-11.396509063645034 116.41059237809112,-40.19534541819297 75.53728783069775,-68.9941817727409 38.436900231253325,-95.1346664484494 65.01579950878363,-52.784198762780335 91.59469878631393,-10.433731077111275 118.17359806384422,31.916736608557784 150.49837643502607,83.42261228688093 154.44721226112674,33.578789243112475 158.3960480872274,-16.265033800655985 162.34488391332806,-66.10885684442445 166.29371973942872,-115.9526798881929 170.2425555655294,-165.79650293196136 174.19139139163005,-215.6403259757298 176.33557568774208,-242.70509831248413 130.15154036316557,-223.54694388314857 83.96750503858907,-204.38878945381302 37.78346971401257,-185.23063502447746 -8.40056561056393,-166.0724805951419 -54.58460093514043,-146.91432616580636 -100.76863625971693,-127.75617173647079 -125.84617496605968,-117.35345668856998 -77.35515513691942,-105.16243556932297 -28.864135307779165,-92.97141445007595 19.62688452136109,-80.78039333082894 78.60078906881655,-65.9538931178877 38.580922370697955,-95.92738589842327 -1.4389443274206428,-125.90087867895883 -41.45881102553924,-155.8743714594944 -81.47867772365784,-185.84786424002996 -121.49854442177644,-215.82135702056553 -157.82427297785125,-243.0280683981021 -164.84175877601965,-193.5229687307698 -171.85924457418804,-144.0178690634375 -178.87673037235643,-94.5127693961052 -185.89421617052483,-45.007669728772896 -192.91170196869322,4.4974299385594065 -199.92918776686162,54.00252960589171 -206.55485540276916,100.74353430644022 -164.31765668992517,73.98500211777693 -122.08045797708118,47.22646992911364 -79.84325926423719,20.467937740450353 -37.60606055139319,-6.290594448212936 -8.512540295006358,-24.722212121411474 -56.1257731420922,-9.458527839784516 -103.73900598917804,5.805156441842442 -151.3522388362639,21.0688407234694 -198.96547168334973,36.33252500509636 -254.13020126588546,54.017041797588995 -214.7144077025574,84.78057894423561 -175.29861413922933,115.54411609088224 -135.88282057590126,146.30765323752885 -96.4670270125732,177.07119038417548 -57.05123344924514,207.8347275308221 -17.63543988591708,238.59826467746873 23.69697850114987,270.85770368554927 28.939585859459196,221.13331260746162 34.18219321776852,171.40892152937397 39.42480057607784,121.68453045128634 44.66740793438717,71.9601393731987 52.062718766667984,1.8180702011642988 33.07798291946928,48.07366234754254 14.093247072270572,94.32925449392079 -4.891488774928135,140.58484664029902 -33.184761312370405,209.52033700011683 13.177705946364256,190.79811411706268 59.54017320509892,172.07589123400854 105.90264046383358,153.3536683509544 152.26510772256825,134.63144546790025 198.6275749813029,115.90922258484609 244.99004224003755,97.18699970179193 283.99739125011547,81.43494150850901 245.80830575611066,49.16120994347937 207.61922026210584,16.887478378449728 169.43013476810103,-15.386253186579914 131.2410492740962,-47.65998475160956 93.0519637800914,-79.93371631663919 49.53903309903393,-116.70664832698151 68.86957090347573,-70.59449907983574 88.20010870791754,-24.48234983268997 107.53064651235934,21.629799414455803 129.90381056767475,75.0000000000041 137.76727047193455,25.62221148802133 145.63073037619435,-23.75557702396145 153.49419028045415,-73.13336553594422 161.35765018471395,-122.511154047927 169.22111008897375,-171.88894255990976 179.85748058880924,-238.6789382450734 132.35809765686804,-223.0645659847226 84.85871472492684,-207.45019372437181 37.359331792985635,-191.83582146402102 -10.14005113895557,-176.22144920367023 -57.639434070896776,-160.60707694331944 -105.13881700283798,-144.99270468296865 -138.7148132436173,-133.95533804881987 -92.73928604742409,-114.30207116944081 -46.76375885123087,-94.64880429006175 -0.7882316550376487,-74.99553741068269 60.34205269487252,-48.86403080251941 23.304933761527778,-82.45349077313037 -13.732185171816965,-116.04295074374133 -50.76930410516171,-149.6324107143523 -87.80642303850645,-183.22187068496325 -124.8435419718512,-216.8113306555742 -149.388366663674,-239.0713614089218 -159.8441317624148,-190.1768118537827 -170.29989686115562,-141.28226229864362 -180.75566195989643,-92.38771274350452 -191.21142705863724,-43.49316318836542 -201.66719215737805,5.401386366773679 -212.12295725611887,54.29593592191278 -222.72116295183136,103.85658391762729 -177.40577359999952,82.72567083059091 -132.09038424816768,61.59475774355454 -86.77499489633584,40.46384465651816 -41.459605544503994,19.33293156948179 -2.0893147311642537e-12,-6.43024955208199e-12 -49.081359172385014,9.540449768822214 -98.16271834476794,19.080899537650858 -147.24407751715086,28.6213493064795 -196.32543668953377,38.161799075308146 -241.23057421523825,46.89047358942764 -204.03218741516991,80.30125058536865 -166.83380061510158,113.71202758130966 -129.63541381503325,147.12280457725066 -92.43702701496491,180.53358157319167 -55.23864021489657,213.94435856913267 -18.04025341482823,247.35513556507368 19.664893088821014,281.22107303713614 29.8851625253873,232.276756792612 40.105431961953585,183.33244054808785 50.32570139851987,134.3881243035637 60.54597083508615,85.44380805903957 70.76624027165244,36.49949181451544 77.53930277889349,4.0636626657967 51.89622038289621,46.98722641849662 26.253137986898935,89.91079017119654 0.6100555909016592,132.83435392389646 -33.485669114683844,189.9066664678498 14.120036638018362,174.61952220258112 61.72574239072057,159.33237793731246 109.33144814342278,144.0452336720438 156.93715389612498,128.75808940677513 204.54285964882718,113.47094514150646 252.14856540152937,98.1838008762378 285.79971829508906,87.3777426350519 250.41450971979552,52.05229834792407 215.02930114450197,16.726854060796242 179.64409256920842,-18.598590226331588 144.25888399391488,-53.92403451345942 108.87367541862133,-89.24947880058724 61.01049646136945,-137.0318186463883 72.47580414615436,-88.36410121796135 83.94111183093926,-39.6963837895344 95.40641951572417,8.971333638892546 108.67636639311606,65.29934878463354 120.60196210703121,16.74237022471644 132.52755782094636,-31.81460833520066 144.4531535348615,-80.37158689511776 156.37874924877667,-128.92856545503486 168.30434496269183,-177.48554401495196 181.89245823949204,-232.8117298826685 133.3797878252321,-220.70715185295637 84.86711741097218,-208.60257382324426 36.354446996712255,-196.49799579353214 -12.158223417547674,-184.39341776382003 -60.670893831807604,-172.2888397341079 -109.18356424606753,-160.1842617043958 -149.9999999999966,-149.99999999999494 -107.45267116619766,-123.737387618349 -64.90534233239873,-97.47477523670307 -22.358013498599803,-71.21216285505713 41.05098940371184,-32.07254797499921 7.582367201082775,-69.2188981033454 -25.88625500154629,-106.3652482316916 -59.35487720417535,-143.5115983600378 -92.82349940680442,-180.657948488384 -140.03490537340113,-233.0572198258499 -153.84059876975627,-185.00097330319858 -167.6462921661114,-136.94472678054728 -181.45198556246655,-88.88848025789598 -195.25767895882169,-40.83223373524467 -209.06337235517682,7.224012787406636 -222.86906575153196,55.28025931005794 -237.34607214910395,105.67327966609412 -189.8543891022913,90.03550356521941 -142.36270605547864,74.39772746434471 -94.87102300866599,58.75995136347001 -47.37933996185334,43.122175262595306 7.644561925051177,25.004235389717742 -42.254320221921006,28.182530606116117 -92.15320236889319,31.360825822514492 -142.05208451586537,34.53912103891287 -191.95096666283757,37.71741625531124 -226.32195202065492,39.906666467848886 -191.5463192544239,75.83235874661005 -156.7706864881929,111.75805102537123 -121.99505372196188,147.6837433041324 -87.21942095573087,183.60943558289358 -52.44378818949985,219.53512786165476 -17.66815542326883,255.46082014041593 15.165795533579734,289.38061755434285 29.924570788881795,241.60846507024934 44.68334604418386,193.83631258615583 59.44212129948592,146.06416010206232 74.20089655478799,98.29200761796879 88.95967181009004,50.51985513387527 102.35609983390903,7.1574357443561345 70.29174314184539,45.52248533280464 38.22738644978174,83.88753492125315 6.163029757718093,122.25258450970165 -32.83306307754187,168.91146651218364 15.791487003557847,157.26444417123207 64.41603708465757,145.6174218302805 113.0405871657573,133.97039948932894 161.66513724685703,122.32337714837738 210.28968732795676,110.67635480742581 258.91423740905645,99.02933246647424 285.31695488854723,92.70509831248067 252.82481549423153,54.70166586776119 220.33267609991583,16.698233423041714 187.84053670560013,-21.305199021677765 155.34839731128443,-59.308631466397244 122.85625791696873,-97.31206391111672 90.36411852265303,-135.31549635583622 72.72116295183082,-155.95103721770474 76.11136207785701,-106.06610412277224 79.5015612038832,-56.18117102783975 82.89176032990939,-6.29623793290726 87.01485941835142,54.37291881122614 103.15452612106583,7.0494451567563985 119.29419282378024,-40.274028497713346 135.43385952649464,-87.5975021521831 151.57352622920905,-134.92097580665285 167.71319293192346,-182.2444494611226 182.36304561761364,-225.19960649026538 133.11237561973755,-216.57571498118972 83.86170562186146,-207.95182347211406 34.611035623985366,-199.3279319630384 -14.639634373890729,-190.70404045396273 -63.890304371766824,-182.08014894488707 -113.14097436964292,-173.4562574358114 -159.64175536685786,-165.31387702911715 -121.14086676527444,-133.41275515404098 -82.63997816369101,-101.51163327896482 -44.13908956210758,-69.61051140388867 -5.638200960524145,-37.70938952881251 20.881701318846318,-15.735490601853362 -8.348223186749077,-56.30162812315546 -37.57814769234447,-96.86776564445756 -66.80807219793986,-137.43390316575966 -96.03799670353526,-178.00004068706176 -129.9038105676742,-225.0000000000082 -146.9815229774363,-178.00689690126129 -164.05923538719838,-131.01379380251436 -181.13694779696047,-84.02069070376743 -198.21466020672256,-37.02758760502051 -215.29237261648464,9.965515493726414 -232.37008502624673,56.958618592473336 -250.27821500668784,106.23679931623188 -201.36745408451117,95.85713332865426 -152.4566931623345,85.47746734107663 -103.54593224015781,75.09780135349901 -54.63517131798114,64.71813536592138 14.359177360364983,50.076402528209705 -35.49911097604272,46.31460984869751 -85.35739931245043,42.55281716918531 -135.21568764885814,38.79102448967311 -209.52033700013263,33.18476131237838 -177.38765464357053,71.49260286697765 -145.25497228700843,109.80044442157691 -113.12228993044633,148.10828597617618 -80.98960757388423,186.41612753077544 -48.85692521732213,224.7239690853747 -16.72424286076003,263.03181063997397 10.310788478656146,295.2623504213029 29.203854771451986,248.96924028538723 48.09692106424782,202.67613014947153 66.98998735704366,156.38302001355584 85.8830536498395,110.08990987764014 104.77611994263533,63.796799741724435 126.30302149884095,11.050082550220214 88.42122616894778,43.683954257145885 50.53943083905461,76.31782596407156 12.657635509161437,108.95169767099723 -31.18675362266441,146.72214011007168 18.204256646903215,138.94215909778987 67.59526691647083,131.16217808550806 116.98627718603845,123.38219707322627 166.37728745560608,115.60221606094447 215.7682977251737,107.82223504866268 282.57617758779315,97.29878080131687 253.04791055343404,56.949289528841305 223.51964351907492,16.599798256365744 193.9913764847158,-23.749693016109816 164.46310945035668,-64.09918428858538 134.93484241599757,-104.44867556106094 105.40657538163846,-144.7981668335365 84.53386248002346,-173.32010298632915 80.04971417686849,-123.52158479557058 75.56556587371352,-73.723066604812 71.08141757055856,-23.924548414053433 65.11917466534489,42.2888864904308 85.61955027614381,-3.3152207787194286 106.11992588694274,-48.919328047869655 126.62030149774166,-94.52343531701987 147.1206771085406,-140.1275425861701 167.62105271933953,-185.73164985532034 181.2068320665141,-215.95389311788705 131.47434299607954,-210.78866990304843 81.74185392564499,-205.6234466882098 32.009364855210436,-200.4582234733712 -17.723124215224118,-195.29300025853257 -67.45561328565867,-190.12777704369395 -117.18810235609322,-184.96255382885533 -167.59810525407346,-179.7269639338883 -133.4981872509462,-143.15927885293195 -99.39826924781892,-106.59159377197561 -65.29835124469164,-70.02390869101927 -31.198433241564373,-33.456223610062935 1.0939793958767789e-11,-7.948225558660885e-12 -24.24048101230892,-43.73098535697607 -48.48096202462878,-87.4619707139442 -72.72144303694864,-131.19295607091232 -96.9619240492685,-174.92394142788044 -119.13983745473126,-214.93395632360307 -139.420440946651,-169.23169027471297 -159.70104443857076,-123.52942422582288 -179.9816479304905,-77.82715817693278 -200.26225142241026,-32.124892128042696 -220.54285491433,13.577373920847393 -240.82345840624976,59.27963996973748 -261.3803478744748,105.60451545920512 -211.67330003151966,100.19994380752267 -161.9662521885645,94.79537215584023 -112.25920434560938,89.39080050415778 -62.55215650265424,83.98622885247534 -12.845108659699108,78.58165720079289 20.09618943232961,74.99999999998147 -28.65069382580669,63.87609004809715 -77.39757708394299,52.752180096212825 -126.1444603420793,41.6282701443285 -190.95961345659765,26.837623469637617 -161.70970318077107,67.38935276514479 -132.4597929049445,107.94108206065198 -103.20988262911793,148.49281135615917 -73.95997235329136,189.04454065166635 -44.7100620774648,229.59626994717354 -15.46015180163823,270.1479992426807 5.215798428527764,298.81289184421456 27.877661609551545,254.2433960296492 50.53952479057533,209.67390021508385 73.2013879715991,165.1044044005185 95.8632511526229,120.53490858595313 118.52511433364668,75.96541277138778 149.17828430521877,15.679269490143925 106.4355094320406,41.62257683791301 63.69273455886244,67.5658841856821 20.949959685684277,93.50919153345117 -28.520527069065988,123.5359749215274 21.34511554559194,119.87295886543218 71.21075816024987,116.20994280933697 121.0764007749078,112.54692675324175 170.94204338956573,108.88391069714653 220.80768600422365,105.22089464105132 277.62497351949986,101.04722665003546 251.1215961068223,58.6494556505929 224.61821869414473,16.25168465115034 198.11484128146716,-26.146086348292215 171.6114638687896,-68.54385734773477 145.10808645611203,-110.94162834717733 118.60470904343445,-153.33939934661987 96.30592828803067,-189.01102660051674 84.47654732243653,-140.43051871956885 72.64716635684239,-91.85001083862096 60.81778539124826,-43.269502957673076 43.188259107470266,29.130848595586663 68.17416441468686,-14.178556110306097 93.16006972190344,-57.48796081619886 118.14597502912002,-100.79736552209161 143.13188033633662,-144.10677022798438 178.37742201894193,-205.19975085212386 128.40702173628438,-203.47954865732868 78.43662145362683,-201.7593464625335 28.466221170969277,-200.03914426773832 -21.504179111688273,-198.31894207294314 -71.47457939434582,-196.59873987814797 -121.44497967700337,-194.8785376833528 -173.84523106693493,-193.0746892663118 -144.2970850529072,-152.73975320421178 -114.74893903887946,-112.40481714211177 -85.20079302485172,-72.06988108001175 -55.652647010823976,-31.734945017911734 -21.418141453012932,14.997144099841057 -39.86048241299689,-31.47736568687641 -58.30282337298084,-77.95187547359387 -76.74516433296479,-124.42638526031135 -95.18750529294874,-170.90089504702883 -107.89082456236062,-202.91312912246875 -131.3119267915823,-158.73788752303494 -154.73302902080397,-114.56264592360114 -178.15413125002564,-70.38740432416733 -201.57523347924732,-26.21216272473353 -224.996335708469,17.963078874700273 -248.41743793769066,62.138320474134076 -270.5308334614786,103.847057334023 -220.53610417398693,103.12107973765855 -170.54137488649525,102.39510214129409 -120.54664559900358,101.66912454492963 -70.55191631151192,100.94314694856517 -20.55718702402025,100.21716935220071 24.82264842198509,99.55820501075864 -21.57311311864302,80.91864195082685 -67.96887465927112,62.279078890895065 -114.36463619989922,43.639515830963276 -170.79032537173316,20.970415107236473 -144.68753656003966,63.61598247656724 -118.58474774834616,106.261549845898 -92.48195893665266,148.90711721522877 -66.37917012495916,191.55268458455953 -40.27638131326566,234.1982519538903 -14.173592501572159,276.84381932322106 3.380582248219624e-12,300.0 26.10278881169264,257.3544326306666 52.2055776233819,214.70886526133327 78.30836643507115,172.06329789199992 104.41115524676042,129.41773052266657 130.51394405844968,86.77216315333322 156.61673287013895,44.12659578399987 170.79032537170613,20.970415107229247 124.39456383107716,39.609978167158886 77.9988022904482,58.24954122708853 31.603040749819222,76.88910428701817 -24.822648421977856,99.55820501072712 25.17208086551374,100.28418260709641 75.16681015300533,101.0101602034657 125.16153944049692,101.73613779983499 175.1562687279885,102.46211539620428 225.1509980154801,103.18809299257357 270.5308334614891,103.84705733402005 247.1097312322662,59.6718157345869 223.68862900304327,15.49657413515375 200.26752677382035,-28.6786674642794 176.84642454459743,-72.85390906371255 153.4253223153745,-117.0291506631457 130.00422008615158,-161.20439226257884 107.89082456236191,-202.91312912246832 89.44848360237108,-156.43861933575357 71.00614264238024,-109.96410954903882 52.5638016823894,-63.48959976232408 34.12146072239857,-17.015089975609342 21.418141452984766,14.99714409982152 50.96628746701722,-25.33779196227505 80.51443348104966,-65.67272802437162 110.06257949508212,-106.0076640864682 139.61072550911456,-146.34260014856477 173.84523106694192,-193.0746892663283 123.87483078428421,-194.79489146111905 73.9044305016265,-196.5150936559098 23.9340302189688,-198.23529585070054 -26.036370063688906,-199.95549804549128 -76.00677034634661,-201.67570024028203 -125.97717062900432,-203.39590243507277 -178.37742201893718,-205.19975085210908 -153.39151671172013,-161.8903461462166 -128.40561140450308,-118.5809414403241 -103.41970609728602,-75.2715367344316 -78.43380079006897,-31.962132028539116 -43.18825910747068,29.13084859558657 -55.01764007306693,-19.449659285360795 -66.84702103866317,-68.03016716630816 -78.67640200425942,-116.61067504725553 -96.30592828804578,-189.01102660053587 -122.80930570071942,-146.61325560109086 -149.31268311339306,-104.21548460164584 -175.8160605260667,-61.817713602200826 -202.31943793874035,-19.41994260275581 -228.822815351414,22.977828396689205 -255.32619276408764,65.37559939613422 -277.6249735194921,101.0472266500397 -227.75933090483412,104.71024270613441 -177.89368829017616,108.37325876222911 -128.0280456755182,112.03627481832382 -78.16240306086024,115.69929087441852 -28.296760446202278,119.36230693051323 28.520527069065327,123.53597492152785 -14.222247804115288,97.59266757376281 -56.965022677295906,71.64936022599777 -99.70779755047653,45.706052878232725 -149.17828430524753,15.679269490150347 -126.51642112421996,60.24876530471378 -103.85455794319239,104.81826111927721 -81.19269476216482,149.38775693384065 -58.53083158113726,193.95725274840407 -35.868968400109694,238.5267485629675 -5.2157984285295225,298.81289184421456 24.034111847294206,258.26116254870533 53.284022123117936,217.7094332531961 82.53393239894166,177.15770395768686 111.78384267476538,136.60597466217763 141.0337529505891,96.0542453666684 170.28366322641284,55.502516071159164 190.9596134565726,26.837623469629712 142.2127301984385,37.9615334215236 93.46584694030437,49.08544337341749 44.718963682170255,60.20935332531138 -20.096189432337443,75.00000000001317 29.610858410618366,80.40457165168941 79.31790625357418,85.80914330336564 129.02495409653,91.21371495504188 178.7320019394858,96.61828660671812 228.4390497824416,102.02285825839435 261.38034787448794,105.60451545920358 241.0997443825641,59.90224941031531 220.81914089064026,14.19998336142703 200.53853739871641,-31.502282687461246 180.25793390679257,-77.20454873634952 159.97733041486873,-122.9068147852378 139.6967269229449,-168.60908083412608 119.13983745471702,-214.9339563235888 94.89935644240411,-171.20297096661682 70.6588754300912,-127.47198560964485 46.41839441777829,-83.74100025267288 22.17791340546538,-40.010014895700905 1.6409690938151955e-11,1.192233833799096e-11 34.099918003138896,-36.56768508094887 68.19983600626139,-73.13537016190966 102.29975400938389,-109.70305524287045 136.3996720125064,-146.27074032383123 167.5981052540744,-179.7269639338872 117.86561618363984,-184.89218714872572 68.13312711320529,-190.05741036356426 18.40063804277073,-195.2226335784028 -31.33185102766383,-200.38785679324133 -81.0643400980984,-205.55308000807986 -130.79682916853295,-210.7183032229184 -181.206832066516,-215.95389311788563 -160.70645645571673,-170.34978584873556 -140.20608084491747,-124.7456785795855 -119.7057052341182,-79.14157131043544 -99.20532962331893,-33.53746404128537 -78.70495401251966,12.066643227864702 -65.11917466534479,42.2888864904315 -69.60332296850223,-7.50963170032685 -74.08747127165967,-57.3081498910852 -78.5716195748171,-107.10666808184355 -84.53386248003623,-173.32010298635169 -114.06212951439227,-132.97061171387386 -143.5903965487483,-92.62112044139604 -173.1186635831043,-52.27162916891823 -202.64693061746033,-11.922137896440418 -232.17519765181635,28.427353376037395 -261.70346468617237,68.77684464851521 -282.57617758779236,97.29878080131921 -233.185167318224,105.07876181359634 -183.79415704865562,112.85874282587348 -134.40314677908725,120.63872383815061 -85.01213650951888,128.41870485042773 -35.62112623995052,136.19868586270485 31.186753622659534,146.72214011004274 -6.6950417072364665,114.08826840312035 -44.576837037132464,81.45439669619796 -82.45863236702846,48.82052498927557 -126.30302149884074,11.050082550219447 -107.40995520604442,57.34319268613497 -88.5168889132481,103.63630282205048 -69.62382262045178,149.929412957966 -50.730756327655456,196.22252309388153 -31.83769003485914,242.51563322979706 -10.310788478649696,295.262350421309 21.82189387790617,256.9545088667045 53.95457623446204,218.6466673121 86.0872585910179,180.3388257574955 118.21994094757378,142.030984202891 150.35262330412965,103.72314264828651 182.48530566068553,65.41530109368202 209.52033700008687,33.18476131236019 159.6620486636795,36.9465539918771 109.80376032727216,40.70834667139402 59.94547199086481,44.470139350910934 -14.359177360365196,50.07640252820933 34.55158356181144,60.456068515787095 83.46234448398808,70.83573450336486 132.3731054061647,81.21540049094263 181.28386632834133,91.5950664785204 250.27821500670194,106.23679931623539 233.20050259693397,59.2436962174906 216.122790187166,12.250593118745812 199.04507777739803,-34.74250997999898 181.96736536763007,-81.73561307874377 164.8896529578621,-128.72871617748856 147.81194054809413,-175.72181927623336 129.90381056764897,-224.9999999999836 100.67388606205984,-184.43386247867699 71.4439615564707,-143.8677249573704 42.21403705088155,-103.3015874360638 12.984112545292405,-62.7354499147572 -20.881701318819555,-15.735490601832918 17.619187282758826,-47.636612476915175 56.12007588433721,-79.53773435199744 94.6209644859156,-111.4388562270797 133.12185308749397,-143.33997810216195 159.6417553668716,-165.31387702913412 110.39108536899477,-173.93776853820557 61.14041537111793,-182.56166004727703 11.889745373241098,-191.18555155634849 -37.360924624635736,-199.80944306541994 -86.61159462251257,-208.4333345744914 -135.8622646203894,-217.05722608356285 -182.3630456176132,-225.19960649025447 -166.22337891489582,-177.87613283578574 -150.08371221217843,-130.552659181317 -133.94404550946103,-83.22918552684828 -117.80437880674364,-35.905711872379555 -101.66471210402625,11.417761782089173 -87.01485941833762,54.372918811218526 -83.62466029232174,4.48798571628533 -80.23446116630585,-45.396947378647866 -76.84426204028996,-95.28188047358105 -72.72116295185785,-155.95103721775354 -105.21330234616596,-117.94760477302756 -137.70544174047407,-79.94417232830159 -170.19758113478218,-41.94073988357562 -202.6897205290903,-3.9373074388496434 -235.1818599233984,34.06612500587633 -267.6739993177065,72.0695574506023 -285.3169548885425,92.70509831249521 -236.6924048074423,104.35212065344479 -188.0678547263421,115.99914299439436 -139.44330464524188,127.64616533534394 -90.81875456414168,139.2931876762935 -42.19420448304149,150.9402100172431 6.430345598058707,162.58723235819267 32.83306307754332,168.91146651218364 0.7687063854721785,130.5464169237414 -31.295650306598965,92.18136733529914 -63.36000699867011,53.816317746856896 -102.35609983395653,7.157435744361774 -87.59732457864699,54.92958822845299 -72.83854932333745,102.70174071254421 -58.079774068027895,150.47389319663543 -43.320998812718344,198.24604568072664 -28.562223557408792,246.01819816481785 -15.165795533577782,289.38061755435166 19.609837232650673,253.454925275588 54.38546999887913,217.52923299682436 89.16110276510759,181.6035407180607 123.93673553133604,145.67784843929707 158.7123682975645,109.75215616053342 193.48800106379295,73.82646388176977 226.32195202063326,39.90666646784643 176.42306987366084,36.728371251451755 126.52418772668841,33.55007603505708 76.62530557971598,30.37178081866241 26.726423432743566,27.193485602267735 -7.644561925055849,25.004235389733765 39.847121121757894,40.64201149060516 87.33880416857164,56.27978759147655 134.83048721538538,71.91756369234794 182.3221702621991,87.55533979321933 237.34607214911244,105.67327966609554 223.54037875275677,57.61703314344439 209.7346853564011,9.560786620793237 195.9289919600454,-38.49545990185791 182.12329856368973,-86.55170642450906 168.31760516733405,-134.60795294716021 154.51191177097837,-182.66419946981136 140.03490537340298,-233.05721982585735 106.56628317077897,-195.9108696975066 73.09766096815497,-158.76451956915585 39.62903876553097,-121.6181694408051 6.160416562906974,-84.47181931245436 -41.05098940368633,-32.07254797497779 1.4963394301093729,-58.33516035662895 44.043668263905076,-84.59777273828011 86.59099709770078,-110.86038511993128 149.99999999998883,-149.99999999998536 101.4873295857291,-162.10457802969827 52.97465917146937,-174.20915605941119 4.461988757209639,-186.3137340891241 -44.05068165705009,-198.418312118837 -92.56335207130982,-210.52289014854992 -141.07602248556955,-222.62746817826283 -181.89245823949042,-232.81172988266235 -169.96686252557052,-184.25475132274642 -158.04126681165062,-135.69777276283048 -146.1156710977307,-87.14079420291455 -134.1900753838108,-38.583815642998616 -122.2644796698909,9.973162916917317 -108.67636639308832,65.2993487846202 -97.21105870830213,16.631631356193544 -85.74575102351595,-32.036086072233104 -74.28044333872977,-80.70380350065975 -61.010496461348566,-137.03181864634882 -96.39570503664703,-101.70637435922592 -131.7809136119455,-66.38093007210301 -167.16612218724396,-31.055485784980114 -202.55133076254242,4.269958502142785 -237.93653933784088,39.595402789265684 -285.7997182950896,87.37774263505023 -238.19401254238736,102.66488690031883 -190.58830678968513,117.95203116558744 -142.9826010369829,133.23917543085605 -95.37689528428069,148.52631969612466 -47.77118953157847,163.81346396139327 -0.16548377887625065,179.10060822666188 33.485669114688164,189.90666646784925 7.8425867186900895,146.9831027151498 -17.800495677307985,104.05953896245038 -43.44357807330606,61.13597520975093 -77.53930277889316,4.06366266579733 -67.31903334232668,53.00797891032143 -57.098763905760194,101.95229515484553 -46.87849446919371,150.89661139936962 -36.65822503262723,199.8409276438937 -26.437955596060746,248.7852438884178 -19.664893088815887,281.22107303715393 17.53349371124888,247.81029604120894 54.73188051131365,214.39951904526396 91.93026731137842,180.98874204931897 129.12865411144318,147.577965053374 166.32704091150794,114.167188057429 203.52542771157272,80.75641106148402 241.23057421522094,46.89047358941508 192.14921504283637,37.35002382059494 143.0678558704518,27.8095740517748 93.98649669806724,18.269124282954657 44.90513752568267,8.728674514134514 -8.357258924657167e-12,2.572099820832791e-11 45.3153893518267,21.13091308705521 90.63077870366176,42.261826174084696 135.94616805549683,63.39273926111419 181.26155740733188,84.52365234814367 222.72116295184168,103.85658391762793 212.26539785309808,54.962034362489426 201.80963275435448,6.067484807350922 191.35386765561088,-42.82706474778758 180.8981025568673,-91.72161430292608 170.4423374581237,-140.6161638580646 159.9865723593801,-189.5107134132031 149.38836666366387,-239.07136140892138 112.35124773031984,-205.48190143830962 75.31412879697581,-171.89244146769786 38.27700986363178,-138.3029814970861 1.239890930287757,-104.71352152647435 -35.79722800305627,-71.1240615558626 -60.342052694872116,-48.86403080252038 -14.36652549867896,-68.51729768189959 31.609001697514195,-88.17056456127881 77.58452889370736,-107.82383144065801 138.71481324361602,-133.95533804882086 91.21543031167441,-149.56971030917043 43.7160473797328,-165.18408256952 -3.7833355522088112,-180.79845482986957 -51.28271848415042,-196.41282709021914 -98.78210141609203,-212.0271993505687 -146.28148434803364,-227.64157161091828 -179.85748058881197,-238.6789382450658 -171.99402068454503,-189.30114973308417 -164.1305607802781,-139.92336122110254 -156.26710087601117,-90.54557270912089 -148.40364097174424,-41.16778419713924 -140.5401810674773,8.210004314842408 -129.90381056763545,74.9999999999841 -110.57327276320542,28.887850752833387 -91.2427349587754,-17.224298494317324 -71.91219715434538,-63.336447741468035 -49.539033099049355,-116.70664832700824 -87.72811859305074,-84.43291676197452 -125.91720408705211,-52.159185196940804 -164.1062895810535,-19.885453631907083 -202.29537507505486,12.388277933126638 -240.48446056905624,44.66200949816036 -283.9973912501184,81.4349415085146 -237.6349239913804,100.15716439156039 -191.27245673264235,118.87938727460617 -144.90998947390432,137.60161015765195 -98.54752221516628,156.32383304069774 -52.18505495642824,175.04605592374352 -5.822587697690196,193.7682788067893 33.1847613123687,209.5203370000563 14.200025465164039,163.2647448536805 -4.784710382040622,117.00915270730471 -23.769446229245283,70.75356056092892 -52.06271876667609,1.818070201164275 -46.820111408364866,51.542461279251704 -41.57750405005364,101.26685235733913 -36.334896691742415,150.99124343542655 -31.09228933343119,200.71563451351398 -23.696978501147598,270.85770368554927 15.718815062177917,240.0941665388994 55.13460862550343,209.33062939224953 94.55040218882894,178.56709224559967 133.96619575215445,147.8035550989498 173.38198931547996,117.04001795229992 212.79778287880546,86.27648080565004 254.13020126585798,54.01704179757528 206.51696841876986,38.75335751595541 158.90373557168175,23.489673234335534 111.29050272459364,8.22598895271566 63.67726987750552,-7.0376953289042135 8.512540294994485,-24.722212121379947 50.74973900784256,2.036320067276918 92.98693772069063,28.794852255933783 135.22413643353872,55.55338444459065 177.46133514638677,82.3119166332475 206.5548554027888,100.74353430644949 199.5373696046167,51.238434639117706 192.51988380644462,1.733334971785922 185.50239800827254,-47.77176469554586 178.48491221010045,-97.27686436287765 171.46742641192836,-146.78196403020942 164.44994061375627,-196.2870636975412 157.82427297784392,-243.02806839809907 117.80440627972715,-213.05457561756106 77.78453958161037,-183.08108283702302 37.76467288349361,-153.10759005648498 -2.255193814623155,-123.13409727594696 -42.27506051273992,-93.16060449540893 -78.60078906880692,-65.9538931178747 -30.109769239667663,-78.14491423712569 18.38125058947159,-90.33593535637668 66.87227041861084,-102.52695647562767 125.84617496606526,-117.3534566885738 79.6621396414883,-136.51161111790825 33.478104316911335,-155.6697655472427 -12.705931007665626,-174.82791997657714 -58.88996633224259,-193.98607440591158 -105.07400165681955,-213.14422883524603 -151.25803698139651,-232.30238326458047 -176.3355756877441,-242.70509831248268 -172.38673986163607,-192.8612752687148 -168.43790403552805,-143.0174522249469 -164.48906820942003,-93.17362918117902 -160.540232383312,-43.32980613741115 -156.59139655720398,6.51401690635673 -152.64256073109595,56.35783995012461 -150.49837643498137,83.42261228686128 -123.91947715745374,41.07214460119054 -97.34057787992612,-1.2783230844802063 -70.76167860239849,-43.62879077015095 -38.43690023124598,-95.13466644843477 -79.31020477864058,-66.33583009388857 -120.18350932603519,-37.53699373934238 -161.0568138734298,-8.738157384796185 -201.9301184208244,20.060678969750008 -242.80342296821902,48.8595153242962 -279.90381056765784,74.99999999999837 -234.99018530861855,96.97194270178487 -190.07656004957926,118.94388540357137 -145.16293479053996,140.91582810535786 -100.24930953150069,162.88777080714436 -55.33568427246141,184.85971350893087 -10.422059013422128,206.83165621071737 31.9838341866301,227.57680537727464 19.586969979175798,179.13800112054327 7.190105771721495,130.6991968638119 -5.206758435732809,82.26039260708052 -17.603622643187112,33.82158835034914 -26.142740551716912,0.4563232337311892 -26.339412259893223,50.455936434627084 -26.536083968069534,100.45554963552297 -26.732755676245844,150.45516283641888 -26.929427384422155,200.4547760373148 -27.157291382502823,258.3843678026365 14.280721142946643,230.40417627468779 55.71873366839611,202.42398474673905 97.15674619384558,174.44379321879032 138.59475871929504,146.46360169084159 180.0327712447445,118.48341016289287 221.47078377019398,90.50321863494415 264.92375315108,61.16246767618196 219.25310176601488,40.81076990759648 173.58245038094975,20.459072139010996 127.91179899588461,0.10737437042551079 82.24114761081947,-20.244323398159974 17.817352384193104,-48.95277335003208 55.94242869958103,-16.60345255428976 94.06750501496896,15.745868241452563 132.1925813303569,48.095189037194885 189.01102660050194,96.30592828802722 185.53192481214595,46.427116646747535 182.05282302378995,-3.451694994532147 178.57372123543396,-53.33050663581183 175.09461944707797,-103.20931827709151 171.61551765872198,-153.08812991837118 168.136415870366,-202.96694155965088 165.20925203021483,-244.9327886971827 122.71403290284942,-218.58594161224295 80.21881377548402,-192.23909452730322 37.72359464811862,-165.8922474423635 -4.771624479246782,-139.54540035742377 -47.266843606612184,-113.19855327248403 -95.68621527382102,-83.17875792935764 -45.85749055996903,-87.31375410724654 3.9712341538829605,-91.44875028513543 53.79995886773495,-95.58374646302433 111.47172382161914,-100.36959095384519 66.94059904205477,-123.10676153126902 22.4094742624904,-145.84393210869285 -22.121650517073974,-168.58110268611668 -66.65277529663834,-191.3182732635405 -111.18390007620272,-214.05544384096433 -171.41814145299801,-244.81047703550908 -171.24610751522437,-194.81077299314245 -171.07407357745072,-144.81106895077582 -170.90203963967707,-94.81136490840919 -170.73000570190342,-44.81166086604256 -170.55797176412977,5.188043176324072 -170.38593782635613,55.1877472186907 -170.26433180767899,90.5311510976853 -137.36574504659575,52.87901982834704 -104.46715828551253,15.226888559008785 -71.5685715244293,-22.42524271032947 -27.82573514902239,-72.48851835377774 -71.21630910599096,-47.64383901020718 -114.60688306295953,-22.799159666636626 -157.9974570199281,2.045519676933928 -201.3880309768967,26.890199020504483 -244.77860493386527,51.73487836407504 -273.53392018851144,68.199666030481 -230.26344932748282,93.2529363053348 -186.9929784664542,118.3062065801886 -143.72250760542556,143.3594768550424 -100.45203674439693,168.41274712989622 -57.181565883368314,193.46601740475003 -13.911095022339694,218.51928767960385 29.948856535948337,243.91386275046233 23.855389365683894,194.2865551683971 17.76192219541945,144.65924758633184 11.668455025155009,95.0319400042666 5.574987854890566,45.40463242220137 -3.380582248219624e-11,7.618890891318432e-25 -6.0934671702824685,49.62730758206717 -12.186934340531131,99.25461516413434 -18.280401510779793,148.8819227462015 -24.373868681028455,198.50923032826867 -29.948856535942067,243.91386275050215 13.321614325082063,218.8605924756406 56.59208518610619,193.80732220077905 99.86255604713031,168.7540519259175 143.13302690815445,143.70078165105596 186.40349776917859,118.6475113761944 229.67396863020272,93.59424110133284 273.53392018849206,68.19966603046306 230.14334623151728,43.35498668690337 186.7527722745425,18.510307343343687 143.36219831756773,-6.334372000216 99.97162436059294,-31.179051343775686 56.58105040361815,-56.02373068733537 27.82573514899571,-72.488518353718 60.72432191008562,-34.83638708438559 93.62290867117554,2.8157441849468228 126.52149543226545,40.46787545427924 170.26433180763135,90.53115109766256 170.43636574540997,40.53144705529594 170.6083996831886,-9.468256987070674 170.78043362096722,-59.46796102943729 170.95246755874584,-109.4676650718039 171.12450149652446,-159.46736911417054 171.29653543430308,-209.46707315653714 171.4181414529836,-244.81047703551192 126.88701667342397,-222.0733064580788 82.35589189386434,-199.33613588064568 37.82476711430471,-176.59896530321257 -6.706357665254913,-153.86179472577945 -51.23748244481454,-131.12462414834633 -111.47172382158016,-100.36959095380098 -61.642999107727384,-96.23459477592154 -11.814274393874612,-92.09959859804209 38.01445031997816,-87.96460242016265 95.68621527382159,-83.17875792935617 53.19099614645655,-109.52560501429649 10.695777019091508,-135.8724520992368 -31.79944210827353,-162.21929918417712 -74.29466123563857,-188.56614626911744 -116.78988036300362,-214.91299335405776 -165.20925203021187,-244.93278869718455 -168.68835381856852,-195.0539770559049 -172.16745560692516,-145.17516541462527 -175.6465573952818,-95.29635377334563 -179.12565918363845,-45.41754213206599 -182.6047609719951,4.4612695092136505 -186.08386276035174,54.34008115049329 -189.01102660050344,96.30592828802519 -150.88595028510596,63.956607492294125 -112.76087396970848,31.607286696563065 -74.635797654311,-0.742034099167995 -17.817352384169354,-48.952773349968616 -63.488003769239086,-28.601075581393435 -109.15865515430882,-8.249377812818253 -154.82930653937854,12.10231995575693 -200.49995792444827,32.45401772433211 -264.92375315110513,61.16246767620033 -223.4857406256507,89.14265920414168 -182.04772810019625,117.12285073208304 -140.6097155747418,145.10304226002438 -99.17170304928737,173.08323378796572 -57.733690523832934,201.06342531590707 -16.295677998378494,229.0436168438484 27.157291382510934,258.3843678026017 26.9606196743463,208.38475460170574 26.763947966181668,158.3851414008098 26.567276258017035,108.38552819991386 26.370604549852402,58.38591499901792 26.142740551785444,0.45632323373269323 13.745876344320472,48.89512749046135 1.3490121368554995,97.33393174719001 -11.047852070609473,145.77273600391865 -23.444716278074445,194.2115402606473 -31.98383418662588,227.57680537731906 12.929791072409405,205.6048626755244 57.843416331444686,183.63291997372974 102.75704159047997,161.66097727193508 147.67066684951527,139.68903457014042 192.58429210855056,117.71709186834576 237.49791736758584,95.7451491665511 279.90381056764426,74.99999999998123 239.03050602024913,46.201163645435784 198.157201472854,17.402327290890337 157.2838969254589,-11.39650906365511 116.41059237806377,-40.19534541820056 75.53728783066865,-68.994181772746 38.436900231247314,-95.13466644843484 65.01579950878144,-52.784198762768185 91.59469878631556,-10.433731077101527 118.17359806384968,31.91673660856513 150.49837643503358,83.42261228688135 154.44721226113168,33.57878924311268 158.3960480872298,-16.265033800655985 162.3448839133279,-66.10885684442465 166.293719739426,-115.95267988819332 170.2425555655241,-165.79650293196198 174.1913913916222,-215.64032597573066 176.33557568773315,-242.7050983124906 130.1515403631568,-223.54694388315468 83.96750503858046,-204.38878945381876 37.7834697140041,-185.23063502448284 -8.400565610572258,-166.0724805951469 -54.584600935148615,-146.914326165811 -100.76863625972497,-127.75617173647508 -125.84617496606427,-117.35345668857562 -77.355155136922,-105.16243556933662 -28.86413530777972,-92.97141445009763 19.626884521362555,-80.78039333085863 78.6007890688526,-65.95389311791907 38.58092237072883,-95.92738589844772 -1.4389443273949496,-125.90087867897638 -41.45881102551873,-155.87437145950503 -81.4786777236425,-185.8478642400337 -121.49854442176628,-215.82135702056235 -157.8242729778644,-243.02806839810663 -164.8417587760337,-193.52296873077444 -171.85924457420302,-144.01786906344228 -178.87673037237232,-94.5127693961101 -185.89421617054163,-45.00766972877793 -192.91170196871093,4.497429938554248 -199.92918776688023,54.00252960588642 -206.55485540279034,100.74353430644724 -164.31765668994947,73.98500211777902 -122.08045797710861,47.22646992911079 -79.84325926426774,20.467937740442565 -37.60606055142688,-6.2905944482256615 -8.512540295017528,-24.722212121443246 -56.12577314210117,-9.458527839809415 -103.7390059891848,5.8051564418244155 -151.35223883626844,21.068840723458244 -198.96547168335206,36.33252500509207 -254.13020126588862,54.01704179759376 -214.71440770256038,84.78057894424016 -175.29861413923214,115.54411609088656 -135.8828205759039,146.30765323753297 -96.46702701257567,177.07119038417937 -57.05123344924744,207.83472753082577 -17.63543988591921,238.59826467747217 23.69697850114443,270.8577036855498 28.939585859456336,221.13331260746241 34.182193217768244,171.40892152937505 39.42480057608015,121.68453045128769 44.66740793439206,71.96013937320032 52.06271876667667,1.8180702011649086 33.07798291947603,48.07366234754236 14.093247072275393,94.32925449391982 -4.891488774925243,140.58484664029726 -33.18476131236673,209.52033700010497 13.17770594636783,190.79811411705057 59.54017320510239,172.07589123399617 105.90264046383695,153.35366835094177 152.2651077225715,134.63144546788737 198.62757498130608,115.90922258483297 244.99004224004065,97.18699970177857 283.9973912501108,81.43494150849857 245.808305756096,49.16120994348074 207.61922026208117,16.887478378462916 169.43013476806635,-15.38625318655491 131.24104927405153,-47.659984751572736 93.05196378003673,-79.93371631659056 49.53903309899269,-116.70664832689857 68.86957090345201,-70.59449907976014 88.20010870791134,-24.482349832621715 107.53064651237067,21.62979941451671 129.9038105676874,75.0000000000112 137.76727047194427,25.62221148802795 145.63073037620114,-23.755577023955297 153.494190280458,-73.13336553593854 161.35765018471488,-122.51115404792179 169.22111008897176,-171.88894255990505 179.85748058880475,-238.67893824507865 132.35809765686614,-223.06456598471996 84.85871472492752,-207.45019372436127 37.359331792988904,-191.83582146400258 -10.140051138949715,-176.22144920364389 -57.639434070888335,-160.6070769432852 -105.13881700282695,-144.9927046829265 -138.7148132435848,-133.95533804877866 -92.73928604738933,-114.30207116940488 -46.76375885119385,-94.64880429003111 -0.7882316549983699,-74.99553741065733 60.34205269487224,-48.86403080251931 23.304933761527586,-82.45349077313037 -13.732185171817065,-116.04295074374143 -50.769304105161716,-149.6324107143525 -87.80642303850637,-183.22187068496356 -124.84354197185101,-216.81133065557464 -149.3883666636869,-239.07136140893422 -159.84413176242174,-190.17681185379385 -170.29989686115658,-141.28226229865348 -180.75566195989143,-92.3877127435131 -191.21142705862627,-43.493163188372726 -201.66719215736111,5.401386366767653 -212.12295725609596,54.29593592190803 -222.72116295180186,103.85658391762156 -177.40577359997351,82.72567083057766 -132.09038424814517,61.594757743533755 -86.77499489631683,40.463844656489854 -41.45960554448849,19.332931569445954 -1.2535888386987489e-11,-3.8581497312491305e-11 -49.08135917239353,9.54044976879996 -98.16271834477453,19.0808995376385 -147.24407751715552,28.621349306477043 -196.3254366895365,38.161799075315585 -241.23057421529265,46.89047358945453 -204.03218741522076,80.30125058539159 -166.83380061514887,113.71202758132864 -129.635413815077,147.1228045772657 -92.4370270150051,180.53358157320275 -55.238640214933206,213.9443585691398 -18.04025341486131,247.35513556507686 19.66489308881259,281.2210730371543 29.885162525379748,232.27675679263038 40.105431961946906,183.33244054810643 50.32570139851406,134.3881243035825 60.54597083508122,85.44380805905854 70.76624027164837,36.49949181453459 77.5393027788937,4.063662665798273 51.89622038289599,46.98722641849794 26.253137986898277,89.9107901711976 0.6100555909005649,132.83435392389725 -33.48566911468492,189.90666646784933 14.12003663801707,174.61952220258001 61.725742390719056,159.3323779373107 109.33144814342104,144.04523367204138 156.93715389612302,128.75808940677206 204.54285964882502,113.47094514150272 252.148565401527,98.18380087623339 285.7997182950911,87.37774263504548 250.41450971979208,52.05229834792313 215.02930114449305,16.726854060800775 179.64409256919402,-18.598590226321576 144.25888399389498,-53.92403451344393 108.87367541859597,-89.24947880056628 61.01049646134649,-137.0318186463503 72.47580414615523,-88.36410121792898 83.94111183096396,-39.69638378950764 95.4064195157727,8.971333638913691 108.67636639319862,65.29934878467562 120.60196210709952,16.74237022475502 132.52755782100044,-31.814608335165573 144.45315353490136,-80.37158689508617 156.37874924880228,-128.92856545500678 168.3043449627032,-177.48554401492737 181.89245823949372,-232.8117298826746 133.37978782523444,-220.7071518529599 84.86711741097517,-208.6025738232452 36.354446996715886,-196.4979957935305 -12.158223417543397,-184.3934177638158 -60.67089383180268,-172.2888397341011 -109.18356424606196,-160.1842617043864 -149.99999999999162,-149.99999999998315 -107.45267116619556,-123.73738761833258 -64.9053423323995,-97.474775236682 -22.35801349860344,-71.21216285503144 41.05098940368533,-32.07254797497811 7.582367201060805,-69.21889810332839 -25.88625500156372,-106.36524823167866 -59.35487720418824,-143.51159836002893 -92.82349940681277,-180.6579484883792 -140.03490537340676,-233.05721982585482 -153.84059876975812,-185.00097330320244 -167.64629216610948,-136.94472678055007 -181.45198556246083,-88.88848025789768 -195.2576789588122,-40.832233735245296 -209.06337235516355,7.224012787407091 -222.8690657515149,55.28025931005948 -237.3460721490798,105.67327966608573 -189.85438910226605,90.03550356521428 -142.36270605545235,74.39772746434284 -94.87102300863863,58.75995136347139 -47.37933996182491,43.12217526259994 7.64456192505573,25.00423538973443 -42.25432022191673,28.182530606128395 -92.1532023688892,31.360825822522358 -142.05208451586165,34.53912103891632 -191.9509666628341,37.71741625531028 -226.3219520206334,39.90666646784371 -191.54631925440356,75.83235874660603 -156.77068648817374,111.75805102536836 -121.9950537219439,147.68374330413067 -87.21942095571407,183.60943558289298 -52.44378818948424,219.5351278616553 -17.668155423254404,255.4608201404176 15.165795533581688,289.380617554334 29.92457078888131,241.6084650702397 44.68334604418094,193.83631258614543 59.44212129948056,146.06416010205115 74.20089655478019,98.29200761795687 88.95967181007981,50.519855133862585 102.3560998338935,7.15743574435273 70.29174314183831,45.522485332808316 38.22738644978313,83.88753492126389 6.163029757727955,122.25258450971947 -32.83306307754628,168.91146651223946 15.791487003551083,157.26444417127803 64.41603708464845,145.6174218303166 113.04058716574582,133.97039948935517 161.6651372468432,122.32337714839375 210.28968732794056,110.67635480743232 258.9142374090379,99.02933246647089 285.31695488855195,92.70509831246613 252.82481549424097,54.701665867742626 220.33267609992998,16.69823342301912 187.840536705619,-21.30519902170439 155.34839731130802,-59.3086314664279 122.85625791699702,-97.3120639111514 90.36411852268603,-135.3154963558749 72.7211629518599,-155.95103721775314 76.11136207787503,-106.0661041228199 79.50156120389016,-56.18117102788665 82.8917603299053,-6.296237932953403 87.01485941833651,54.37291881121926 103.1545261210533,7.049445156750323 119.29419282377008,-40.27402849771861 135.43385952648686,-87.59750215218754 151.57352622920362,-134.9209758066565 167.7131929319204,-182.2444494611254 182.36304561760934,-225.19960649025734 133.11237561973354,-216.57571498117997 83.86170562185774,-207.9518234721026 34.611035623981934,-199.32793196302524 -14.63963437389387,-190.70404045394787 -63.89030437176967,-182.0801489448705 -113.14097436964548,-173.45625743579313 -159.64175536684417,-165.3138770291002 -121.14086676525565,-133.41275515403018 -82.63997816366714,-101.51163327896013 -44.13908956207863,-69.61051140389009 -5.638200960490124,-37.70938952882004 20.881701318872636,-15.735490601874398 -8.348223186729008,-56.30162812317199 -37.57814769233065,-96.86776564446959 -66.80807219793229,-137.43390316576716 -96.03799670353393,-178.00004068706477 -129.90381056769945,-225.00000000003283 -146.98152297745708,-178.00689690128428 -164.0592353872147,-131.01379380253573 -181.13694779697232,-84.02069070378718 -198.21466020672995,-37.02758760503863 -215.29237261648757,9.965515493709916 -232.3700850262452,56.958618592458464 -250.27821500668713,106.23679931623403 -201.3674540845131,95.85713332864393 -152.4566931623391,85.47746734105382 -103.54593224016507,75.09780135346372 -54.63517131799105,64.71813536587362 14.35917736034768,50.076402528145096 -35.499110976060685,46.314609848641624 -85.35739931246906,42.55281716913815 -135.2156876488774,38.79102448963468 -209.52033700006209,33.18476131235983 -177.38765464350712,71.49260286696509 -145.25497228695215,109.80044442157035 -113.12228993039719,148.1082859761756 -80.98960757384222,186.41612753078087 -48.856925217287255,224.72396908538613 -16.72424286073229,263.03181063999136 10.310788478654203,295.2623504212971 29.203854771446096,248.9692402853798 48.09692106423799,202.6761301494625 66.98998735702989,156.38302001354518 85.88305364982179,110.08990987762786 104.77611994261369,63.796799741710544 126.30302149881068,11.050082550214697 88.42122616892473,43.68395425714874 50.53943083903878,76.31782596408279 12.657635509152826,108.95169767101683 -31.1867536226651,146.72214011010144 18.20425664690194,138.9421590978159 67.59526691646897,131.16217808553037 116.986277186036,123.38219707324484 166.37728745560304,115.60221606095931 215.76829772517007,107.82223504867378 282.57617758779116,97.29878080132254 253.0479105534326,56.9492895288466 223.519643519074,16.59979825637066 193.99137648471543,-23.749693016105276 164.46310945035685,-64.09918428858121 134.93484241599828,-104.44867556105714 105.4065753816397,-144.7981668335331 84.53386248002211,-173.32010298633003 80.04971417687442,-123.5215847955708 75.56556587372673,-73.72306660481158 71.08141757057903,-23.924548414052353 65.11917466537382,42.28888649044619 85.61955027616793,-3.3152207787062054 106.11992588696202,-48.9193280478586 126.62030149775612,-94.52343531701099 147.1206771085502,-140.12754258616337 167.6210527193443,-185.73164985531577 181.20683206653612,-215.95389311792937 131.47434299610296,-210.78866990307742 81.7418539256698,-205.62344668822547 32.00936485523663,-200.45822347337352 -17.723124215196535,-195.29300025852157 -67.45561328562971,-190.12777704366962 -117.18810235606287,-184.96255382881768 -167.5981052540427,-179.72696393383697 -133.4981872508985,-143.15927885289642 -99.39826924775429,-106.59159377195587 -65.29835124461007,-70.02390869101532 -31.19843324146587,-33.45622361007477 9.34740291078025e-11,-6.791285741084051e-11 -24.240481012242913,-43.730985357026874 -48.4809620245793,-87.46197071398583 -72.72144303691569,-131.1929560709448 -96.96192404925208,-174.92394142790377 -119.13983745471432,-214.93395632358985 -139.42044094663802,-169.23169027470152 -159.70104443856172,-123.52942422581317 -179.98164793048542,-77.82715817692483 -200.26225142240912,-32.12489212803648 -220.54285491433282,13.57737392085187 -240.82345840625652,59.27963996974022 -261.3803478744864,105.60451545920802 -211.67330003153253,100.19994380751389 -161.96625218857866,94.79537215581976 -112.2592043456248,89.39080050412564 -62.55215650267093,83.98622885243151 -12.84510865971707,78.58165720073738 20.096189432313256,74.99999999991795 -28.6506938258272,63.876090048051836 -77.39757708396766,52.752180096185725 -126.14446034210812,41.628270144319615 -190.95961345664858,26.837623469649163 -161.70970318081427,67.38935276515076 -132.45979290497996,107.94108206065236 -103.20988262914565,148.49281135615396 -73.95997235331134,189.04454065165555 -44.71006207747704,229.59626994715717 -15.460151801642738,270.1479992426588 5.215798428542888,298.81289184420837 27.87766160956138,254.24339602964034 50.53952479057987,209.6739002150723 73.20138797159836,165.10440440050428 95.86325115261685,120.53490858593624 118.52511433363534,75.9654127713682 149.17828430518958,15.679269490141744 106.43550943200485,41.622576837900006 63.69273455882012,67.56588418565826 20.949959685635392,93.50919153341653 -28.520527069049308,123.53597492143582 21.34511554560983,119.87295886535713 71.21075816026897,116.20994280927844 121.0764007749281,112.54692675319976 170.94204338958724,108.88391069712107 220.80768600424636,105.22089464104238 277.62497351950185,101.04722665004698 251.12159610682235,58.649455650605624 224.61821869414285,16.25168465116427 198.11484128146336,-26.146086348277088 171.61146386878386,-68.54385734771844 145.10808645610436,-110.94162834715979 118.60470904342486,-153.33939934660114 96.30592828802094,-189.0110266004949 84.47654732243457,-140.43051871954512 72.6471663568482,-91.85001083859535 60.817785391261836,-43.26950295764558 43.188259107498524,29.1308485956043 68.17416441470881,-14.1785561102921 93.1600697219191,-57.4879608161885 118.14597502912939,-100.7973655220849 143.13188033633966,-144.10677022798131 178.37742201893724,-205.19975085212778 128.40702173627972,-203.47954865733217 78.43662145362218,-201.75934646253657 28.466221170964644,-200.03914426774097 -21.504179111692892,-198.31894207294536 -71.47457939435043,-196.59873987814976 -121.44497967700796,-194.87853768335415 -173.8452310669339,-193.07468926631296 -144.29708505290114,-152.73975320421664 -114.74893903886837,-112.40481714212031 -85.2007930248356,-72.06988108002398 -55.65264701080283,-31.734945017927643 -21.418141452985004,14.99714409982222 -39.86048241297601,-31.477365686892455 -58.30282337296701,-77.95187547360713 -76.74516433295801,-124.42638526032181 -95.18750529294901,-170.9008950470365 -107.89082456235481,-202.9131291224468 -131.31192679157562,-158.73788752301255 -154.73302902079644,-114.56264592357829 -178.15413125001726,-70.38740432414403 -201.57523347923808,-26.21216272470977 -224.9963357084589,17.963078874724488 -248.41743793767972,62.138320474158746 -270.5308334614516,103.84705733401964 -220.53610417396015,103.12107973763968 -170.5413748864687,102.39510214125971 -120.54664559897726,101.66912454487975 -70.55191631148583,100.94314694849979 -20.557187023994388,100.21716935211983 24.822648421966978,99.55820501066437 -21.57311311867132,80.91864195075794 -67.96887465930962,62.27907889085152 -114.36463619994791,43.6395158309451 -170.79032537178733,20.97041510725196 -144.6875365600879,63.615982476579084 -118.58474774838845,106.26154984590622 -92.48195893668901,148.90711721523334 -66.37917012498957,191.55268458456047 -40.27638131329013,234.1982519538876 -14.17359250159069,276.8438193232147 -6.911278913583531e-12,300.0 26.10278881169021,257.35443263067145 52.20557762338733,214.7088652613429 78.30836643508445,172.06329789201436 104.41115524678158,129.41773052268582 130.5139440584787,86.77216315335727 156.6167328701758,44.12659578402872 170.79032537176172,20.970415107237095 124.39456383113728,39.60997816717797 77.99880229051283,58.24954122711884 31.603040749888372,76.88910428705971 -24.822648421998803,99.5582050108207 25.172080865493033,100.28418260717356 75.16681015298487,101.01016020352642 125.1615394404767,101.73613779987929 175.15626872796855,102.46211539623215 225.1509980154604,103.18809299258501 270.53083346149964,103.84705733401707 247.10973123226992,59.671815734587526 223.6886290030402,15.496574135157985 200.2675267738105,-28.678667464271555 176.84642454458077,-72.8539090637011 153.42532231535105,-117.02915066313064 130.00422008612134,-161.2043922625602 107.89082456233106,-202.91312912243527 89.44848360235005,-156.43861933571662 71.00614264236904,-109.96410954899798 52.56380168238803,-63.48959976227935 34.12146072240702,-17.015089975560713 21.418141453013117,14.997144099839746 50.96628746704177,-25.337791962259608 80.51443348107041,-65.67272802435896 110.06257949509906,-106.0076640864583 139.61072550912772,-146.34260014855766 173.84523106690824,-193.07468926626657 123.87483078425088,-194.79489146106712 73.90443050159351,-196.51509365586767 23.934030218936144,-198.23529585066822 -26.036370063721222,-199.95549804546877 -76.00677034637859,-201.67570024026932 -125.97717062903595,-203.39590243506987 -178.37742201893022,-205.19975085211524 -153.39151671171467,-161.89034614622187 -128.40561140449913,-118.5809414403285 -103.41970609728358,-75.27153673443513 -78.43380079006803,-31.962132028541767 -43.188259107471104,29.13084859558648 -55.0176400730658,-19.44965928536126 -66.8470210386605,-68.030167166309 -78.6764020042552,-116.61067504725673 -96.30592828803364,-189.01102660051478 -122.80930570070974,-146.6132556010713 -149.31268311338584,-104.21548460162782 -175.81606052606196,-61.81771360218435 -202.31943793873808,-19.419942602740875 -228.8228153514142,22.9778283967026 -255.3261927640903,65.37559939614607 -277.6249735194954,101.047226650048 -227.75933090483736,104.71024270614139 -177.89368829017928,108.37325876223477 -128.0280456755212,112.03627481832815 -78.16240306086314,115.69929087442154 -28.296760446205077,119.36230693051492 28.520527069064656,123.53597492152826 -14.222247804113529,97.59266757375921 -56.965022677291714,71.64936022599016 -99.7077975504699,45.706052878221115 -149.178284305218,15.679269490146357 -126.51642112419412,60.24876530471167 -103.85455794317025,104.81826111927697 -81.19269476214637,149.38775693384227 -58.5308315811225,193.95725274840757 -35.86896840009862,238.52674856297287 -5.215798428522942,298.8128918442235 24.0341118472937,258.26116254870914 53.28402212311035,217.7094332531948 82.53393239892699,177.15770395768044 111.78384267474364,136.6059746621661 141.03375295056028,96.05424536665174 170.28366322637692,55.5025160711374 190.95961345652168,26.83762346961816 142.2127301983918,37.961533421530596 93.46584694026191,49.085443373443034 44.71896368213203,60.20935332535547 -20.096189432350595,75.00000000007756 29.610858410606664,80.40457165174044 79.31790625356392,85.80914330340332 129.02495409652118,91.2137149550662 178.73200193947844,96.61828660672907 228.4390497824357,102.02285825839195 261.3803478745041,105.6045154591946 241.09974438258462,59.90224941030438 220.81914089066515,14.199983361414155 200.5385373987457,-31.502282687476068 180.25793390682622,-77.20454873636629 159.97733041490676,-122.90681478525651 139.6967269229873,-168.60908083414674 119.13983745475292,-214.93395632363615 94.89935644244449,-171.2029709666617 70.65887543013605,-127.47198560968724 46.41839441782761,-83.74100025271278 22.177913405519174,-40.01001489573833 4.3759175835070786e-11,3.179290223464406e-11 34.09991800316044,-36.567685080934424 68.19983600627711,-73.13537016190064 102.29975400939378,-109.70305524286685 136.39967201251045,-146.27074032383308 167.5981052540969,-179.72696393391942 117.86561618366164,-184.89218714875128 68.13312711322638,-190.05741036358313 18.400638042791122,-195.22263357841499 -31.331851027644134,-200.38785679324684 -81.06434009807938,-205.5530800080787 -130.79682916851465,-210.71830322291055 -181.20683206651344,-215.95389311787267 -160.7064564557137,-170.3497858487228 -140.20608084491394,-124.74567857957294 -119.70570523411419,-79.14157131042307 -99.20532962331444,-33.53746404127322 -78.70495401251469,12.06664322787664 -65.11917466534406,42.28888649043312 -69.60332296850372,-7.509631700325031 -74.08747127166338,-57.30814989108318 -78.57161957482303,-107.10666808184133 -84.53386248004496,-173.32010298634714 -114.06212951440126,-132.97061171386952 -143.59039654875758,-92.62112044139191 -173.1186635831139,-52.2716291689143 -202.6469306174702,-11.922137896436695 -232.1751976518265,28.427353376040912 -261.7034646861828,68.77684464851852 -282.57617758779287,97.29878080130857 -233.1851673182255,105.07876181359192 -183.79415704865812,112.85874282587528 -134.40314677909075,120.63872383815864 -85.01213650952337,128.418704850442 -35.62112623995599,136.19868586272537 31.186753622660692,146.72214011007296 -6.695041707231727,114.08826840314642 -44.57683703712415,81.45439669621987 -82.45863236701658,48.82052498929333 -126.30302149884054,11.05008255021868 -107.40995520604416,57.343192686134174 -88.51688891324778,103.63630282204966 -69.6238226204514,149.92941295796516 -50.73075632765503,196.22252309388065 -31.837690034858653,242.51563322979615 -10.310788478651224,295.262350421303 21.821893877909936,256.95450886670295 53.9545762344711,218.6466673121029 86.08725859103225,180.33882575750283 118.21994094759341,142.03098420290277 150.35262330415458,103.72314264830271 182.48530566071574,65.41530109370265 209.52033700013456,33.184761312369 159.6620486637286,36.94655399190429 109.80376032732264,40.70834667143958 59.94547199091667,44.47013935097487 -14.359177360390339,50.076402528306645 34.5515835617903,60.45606851586554 83.46234448397095,70.83573450342443 132.37310540615158,81.21540049098333 181.28386632833224,91.59506647854222 250.2782150066746,106.23679931622553 233.200502596908,59.24369621748024 216.1227901871414,12.250593118734955 199.0450777773748,-34.74250998001033 181.96736536760818,-81.73561307875562 164.88965295784158,-128.7287161775009 147.81194054807497,-175.72181927624618 129.90381056764184,-224.99999999996817 100.67388606205749,-184.4338624786581 71.44396155647314,-143.86772495734806 42.21403705088879,-103.301587436038 12.984112545304438,-62.73544991472795 -20.881701318793013,-15.735490601812181 17.61918728277898,-47.63661247690215 56.120075884350975,-79.53773435199213 94.62096448592297,-111.4388562270821 133.12185308749497,-143.33997810217207 159.64175536687827,-165.3138770291579 110.3910853690007,-173.9377685382252 61.14041537112315,-182.56166004729252 11.889745373245589,-191.18555155635983 -37.36092462463197,-199.80944306542713 -86.61159462250953,-208.43333457449444 -135.8622646203871,-217.05722608356174 -182.36304561760636,-225.19960649024873 -166.22337891488468,-177.87613283578145 -150.083712212163,-130.5526591813142 -133.9440455094413,-83.22918552684693 -117.80437880671963,-35.90571187237967 -101.66471210399794,11.417761782087595 -87.01485941830946,54.37291881120365 -83.62466029229755,4.487985716270181 -80.23446116628564,-45.396947378663285 -76.84426204027373,-95.28188047359674 -72.72116295184945,-155.95103721772634 -105.21330234615968,-117.94760477300218 -137.70544174046992,-79.94417232827803 -170.19758113478017,-41.940739883553874 -202.6897205290904,-3.93730743882972 -235.18185992340065,34.066125005894435 -267.67399931771087,72.06955745061859 -285.3169548885404,92.70509831250163 -236.6924048074428,104.3521206534621 -188.06785472634522,115.99914299442256 -139.44330464524762,127.64616533538302 -90.81875456415003,139.29318767634348 -42.19420448305243,150.94021001730394 6.4303455980451645,162.5872323582644 32.83306307755357,168.91146651226725 0.7687063854958964,130.54641692381375 -31.295650306561775,92.18136733536025 -63.36000699861945,53.81631774690674 -102.35609983392455,7.157435744356009 -87.59732457861998,54.92958822844876 -72.8385493233154,102.70174071254151 -58.079774068010835,150.47389319663426 -43.320998812706264,198.246045680727 -28.56222355740169,246.01819816481975 -15.16579553357902,289.3806175543427 19.60983723265177,253.4549252755813 54.38546999888256,217.52923299681993 89.16110276511336,181.60354071805855 123.93673553134414,145.67784843929718 158.71236829757493,109.7521561605358 193.4880010638057,73.82646388177443 226.32195202065597,39.90666646784518 176.42306987368218,36.728371251472154 126.52418772670839,33.55007603509913 76.6253055797346,30.37178081872611 26.726423432760804,27.193485602353086 -7.644561925085,25.004235389831127 39.847121121735384,40.64201149068233 87.33880416855577,56.279787591533534 134.83048721537614,71.91756369238473 182.32217026219652,87.55533979323593 237.34607214916443,105.67327966610418 223.54037875279667,57.61703314345649 209.7346853564289,9.560786620808798 195.92899196006115,-38.49545990183889 182.1232985636934,-86.55170642448658 168.31760516732564,-134.60795294713427 154.51191177095788,-182.66419946978195 140.03490537336893,-233.05721982582756 106.56628317075027,-195.910869697472 73.0976609681316,-158.76451956911646 39.62903876551294,-121.61816944076091 6.1604165628942695,-84.47181931240536 -41.05098940366173,-32.0725479749552 1.4963394301256585,-58.335160356619824 44.04366826391305,-84.59777273828445 86.59099709770044,-110.86038511994907 150.00000000002365,-150.00000000005255 101.48732958576123,-162.1045780297547 52.974659171498814,-174.20915605945683 4.461988757236398,-186.31373408915897 -44.05068165702602,-198.4183121188611 -92.56335207128843,-210.52289014856325 -141.07602248555085,-222.6274681782654 -181.8924582394854,-232.81172988265877 -169.96686252556154,-184.2547513227438 -158.04126681163768,-135.69777276282883 -146.11567109771383,-87.14079420291387 -134.19007538378997,-38.58381564299891 -122.26447966986612,9.973162916916053 -108.67636639306244,65.29934878460378 -97.21105870829521,16.63163135617267 -85.74575102352799,-32.03608607225844 -74.28044333876076,-80.70380350068956 -61.01049646139148,-137.03181864642642 -96.39570503667912,-101.70637435929268 -131.78091361196675,-66.38093007215895 -167.1661221872544,-31.055485785025205 -202.55133076254202,4.269958502108537 -237.93653933782966,39.59540278924228 -285.799718295088,87.37774263506566 -238.19401254238386,102.66488690032834 -190.58830678967973,117.95203116559102 -142.9826010369756,133.23917543085372 -95.37689528427148,148.52631969611642 -47.771189531567366,163.8134639613791 -0.16548377886324772,179.1006082266418 33.485669114693344,189.90666646782205 7.8425867186622185,146.98310271514237 -17.800495677368907,104.05953896246267 -43.44357807340003,61.13597520978297 -77.53930277905704,4.063662665812091 -67.31903334246336,53.00797891033051 -57.098763905869674,101.95229515484893 -46.87849446927599,150.89661139936734 -36.65822503268231,199.84092764388578 -26.437955596088628,248.78524388840418 -19.664893088824716,281.22107303714154 17.533493711243477,247.81029604120036 54.73188051131167,214.39951904525918 91.93026731137986,180.988742049318 129.12865411144804,147.57796505337683 166.32704091151624,114.16718805743565 203.52542771158443,80.75641106149448 241.23057421523873,46.890473589427124 192.14921504285581,37.35002382059848 143.0678558704729,27.809574051769836 93.98649669808998,18.269124282941192 44.905137525707055,8.728674514112548 2.2748663551572303e-12,-7.001318730541705e-12 45.315389351834874,21.13091308702776 90.63077870366747,42.26182617406252 135.94616805550007,63.39273926109728 181.26155740733267,84.52365234813205 222.72116295182613,103.85658391761456 212.26539785308023,54.96203436247654 201.80963275433433,6.067484807338516 191.35386765558843,-42.827064747799504 180.89810255684253,-91.72161430293752 170.44233745809663,-140.61616385807554 159.98657235935073,-189.51071341321355 149.38836666364,-239.07136140889511 112.35124773030724,-205.48190143827094 75.31412879697447,-171.89244146764676 38.27700986364171,-138.30298149702259 1.2398909303089454,-104.71352152639841 -35.79722800302382,-71.12406155577423 -60.342052694799406,-48.86403080245357 -14.366525498613015,-68.51729768184859 31.609001697573376,-88.17056456124361 77.58452889375977,-107.82383144063863 138.71481324360164,-133.9553380487978 91.21543031166189,-149.56971030915304 43.71604737972214,-165.18408256950826 -3.7833355522176078,-180.7984548298635 -51.28271848415736,-196.4128270902187 -98.7821014160971,-212.02719935057394 -146.28148434803686,-227.64157161092916 -179.8574805888092,-238.67893824507917 -171.99402068455598,-189.30114973309534 -164.13056078030274,-139.92336122111152 -156.2671008760495,-90.5455727091277 -148.40364097179628,-41.167784197143874 -140.54018106754305,8.21000431483995 -129.90381056771284,75.00000000002777 -110.57327276327548,28.887850752880126 -91.24273495883813,-17.224298494267515 -71.91219715440077,-63.33644774141516 -49.53903309906064,-116.70664832703672 -87.72811859305858,-84.43291676199892 -125.91720408705652,-52.15918519696113 -164.10628958105445,-19.88545363192334 -202.2953750750524,12.388277933114452 -240.48446056905033,44.662009498152244 -283.99739125012223,81.43494150852263 -237.6349239913847,100.1571643915697 -191.27245673264719,118.87938727461676 -144.90998947390966,137.60161015766383 -98.54752221517214,156.3238330407109 -52.18505495643461,175.04605592375796 -5.822587697697088,193.76827880680503 33.184761312377226,209.52033700007956 14.200025465192418,163.26474485369562 -4.78471038199239,117.00915270731167 -23.7694462291772,70.75356056092772 -52.06271876657516,1.818070201158962 -46.82011140828265,51.542461279248364 -41.57750404999014,101.26685235733777 -36.33489669169763,150.99124343542718 -31.09228933340512,200.7156345135166 -23.69697850115311,270.85770368550527 15.718815062177384,240.09416653886177 55.13460862550788,209.33062939221827 94.55040218883838,178.56709224557477 133.96619575216886,147.80355509893127 173.38198931549937,117.04001795228777 212.79778287882988,86.27648080564427 254.13020126587296,54.01704179758758 206.51696841878731,38.75335751596005 158.90373557170165,23.489673234332518 111.29050272461599,8.225988952704988 63.677269877530335,-7.037695328922542 8.512540295006493,-24.72221212141206 50.74973900785104,2.0363200672503616 92.98693772069558,28.794852255912783 135.22413643354014,55.5533844445752 177.46133514638467,82.31191663323762 206.55485540277118,100.74353430643514 199.53736960459813,51.238434639103495 192.51988380642507,1.7333349717718534 185.50239800825202,-47.77176469555979 178.48491221007896,-97.27686436289143 171.4674264119059,-146.78196403022307 164.44994061373285,-196.28706369755471 157.82427297782408,-243.02806839808048 117.80440627969094,-213.05457561756432 77.7845395815578,-183.08108283704817 37.76467288342466,-153.10759005653202 -2.255193814708477,-123.13409727601585 -42.27506051284161,-93.16060449549968 -78.60078906892387,-65.95389311798503 -30.109769239775694,-78.14491423720052 18.381250589372485,-90.33593535641602 66.87227041852066,-102.52695647563151 125.8461749660487,-117.35345668855028 79.66213964147389,-136.51161111788994 33.478104316899085,-155.66976554722962 -12.705931007675716,-174.8279199765693 -58.889966332250516,-193.98607440590897 -105.07400165682532,-213.14422883524864 -151.25803698140012,-232.30238326458831 -176.33557568773577,-242.7050983124887 -172.3867398616411,-192.86127526871977 -168.43790403554644,-143.01745222495083 -164.48906820945177,-93.1736291811819 -160.5402323833571,-43.32980613741296 -156.59139655726244,6.514016906355977 -152.64256073116778,56.35783995012491 -150.49837643505776,83.42261228689688 -123.91947715753683,41.072144601221936 -97.3405778800159,-1.2783230844530067 -70.76167860249497,-43.62879077012795 -38.436900231284035,-95.1346664485228 -79.31020477866977,-66.33583009396402 -120.18350932605551,-37.53699373940525 -161.05681387344126,-8.738157384846478 -201.930118420827,20.060678969712292 -242.80342296821274,48.85951532427106 -279.9038105676816,75.0000000000115 -234.99018530863958,96.97194270179241 -190.07656004959756,118.94388540357332 -145.16293479055554,140.91582810535422 -100.24930953151352,162.88777080713513 -55.335684272471504,184.85971350891603 -10.42205901342949,206.83165621069693 31.983834186632205,227.57680537725236 19.58696997915581,179.1380011205266 7.190105771679416,130.69919686380086 -5.206758435796978,82.26039260707513 -17.603622643273372,33.8215883503494 -26.14274055181849,0.4563232337350381 -26.339412259971464,50.45593643463103 -26.536083968124437,100.455549635527 -26.73275567627741,150.455162836423 -26.929427384430383,200.454776037319 -27.157291382484075,258.38436780265545 14.280721142957958,230.40417627469571 55.71873366839999,202.42398474673598 97.15674619384203,174.44379321877625 138.59475871928407,146.46360169081652 180.03277124472612,118.48341016285679 221.47078377016817,90.50321863489705 264.92375315101475,61.162467676144736 219.25310176593138,40.81076990760014 173.582450380848,20.459072139055543 127.91179899576464,0.10737437051094645 82.24114761068128,-20.24432339803365 17.817352384106123,-48.952773349813846 55.942428699527596,-16.60345255411106 94.06750501494906,15.74586824159173 132.19258133037053,48.09518903729452 189.0110266005254,96.3059282880338 185.5319248121658,46.427116646754364 182.0528230238062,-3.45169499452507 178.5737212354466,-53.330506635804504 175.094619447087,-103.20931827708394 171.6155176587274,-153.08812991836336 168.1364158703678,-202.9669415596428 165.2092520302126,-244.9327886971914 122.71403290284547,-218.5859416122545 80.21881377547834,-192.23909452731755 37.723594648111195,-165.8922474423806 -4.771624479255948,-139.54540035744367 -47.26684360662309,-113.19855327250674 -95.68621527384644,-83.17875792937595 -45.85749055999516,-87.31375410727344 3.9712341538561162,-91.44875028517093 53.799958867707396,-95.58374646306842 111.47172382168253,-100.36959095390684 66.94059904211184,-123.1067615313183 22.409474262541153,-145.84393210872977 -22.121650517029536,-168.58110268614124 -66.65277529660023,-191.3182732635527 -111.18390007617091,-214.05544384096416 -171.4181414530052,-244.81047703550763 -171.2461075152191,-194.81077299314103 -171.074073577433,-144.81106895077443 -170.90203963964692,-94.81136490840784 -170.73000570186082,-44.81166086604125 -170.55797176407472,5.188043176325337 -170.38593782628863,55.187747218691925 -170.26433180760276,90.53115109766213 -137.36574504651142,52.879019828330975 -104.46715828542008,15.226888558999818 -71.56857152432875,-22.42524271033134 -27.825735148984382,-72.48851835368615 -71.21630910596156,-47.64383901013062 -114.60688306293872,-22.799159666575093 -157.99745701991588,2.045519676980433 -201.38803097689305,26.89019902053596 -244.7786049338702,51.734878364091486 -273.5339201884798,68.19966603046313 -230.26344932744985,93.25293630531463 -186.9929784664199,118.30620658016613 -143.72250760538998,143.35947685501762 -100.45203674436003,168.4127471298691 -57.18156588333008,193.4660174047206 -13.911095022300131,218.51928767957207 29.948856535946703,243.91386275040355 23.85538936567436,194.2865551683393 17.761922195402015,144.65924758627506 11.66845502512967,95.0319400042108 5.574987854857326,45.404632422146534 -6.761164496439248e-11,3.047556356527373e-24" fill="none" stroke="#7c75df" stroke-width="3" /></svg>