<?xml version="1.0" encoding="UTF-8" standalone="no"?>
<!DOCTYPE svg PUBLIC "-//W3C//DTD SVG 1.1//EN" "http://www.w3.org/Graphics/SVG/1.1/DTD/svg11.dtd">
<svg width="100%" height="100%" viewBox="0 0 3544 1890" version="1.1" xmlns="http://www.w3.org/2000/svg" xmlns:xlink="http://www.w3.org/1999/xlink" xml:space="preserve" xmlns:serif="http://www.serif.com/" style="fill-rule:evenodd;clip-rule:evenodd;stroke-linecap:round;stroke-linejoin:round;stroke-miterlimit:1.5;">
    <g transform="matrix(1,0,0,1,-944.882,-708.661)">
        <rect id="Artboard1" x="944.882" y="708.661" width="3543.31" height="1889.76" style="fill:none;"/>
        <g id="Artboard11" serif:id="Artboard1">
            <g id="prikk" transform="matrix(1,0,0,1,118.992,-2597.76)">
                <path d="M2007.87,4960.63L2125.98,4960.63L2125.98,4015.75L2362.2,4015.75L2362.2,4960.63L2480.32,4960.63" style="fill:none;stroke:black;stroke-width:50.33px;"/>
            </g>
            <g id="strek" transform="matrix(1,0,0,1,-0.191416,-2597.76)">
                <path d="M3188.98,4960.63L3307.09,4960.63L3307.09,4015.75L4015.75,4015.75L4015.75,4960.63L4133.86,4960.63" style="fill:none;stroke:black;stroke-width:50.33px;"/>
            </g>
            <g transform="matrix(0.857143,0,0,1,567.811,-2599.36)">
                <path d="M1653.54,4015.75C1653.54,4015.75 1566.77,3997.19 1559.06,4086.61C1551.34,4176.03 1672.18,4488.19 1488.19,4488.19" style="fill:none;stroke:black;stroke-width:54.04px;"/>
                <g transform="matrix(1,0,0,-1,-4.54747e-13,8976.38)">
                    <path d="M1653.54,4015.75C1653.54,4015.75 1566.77,3997.19 1559.06,4086.61C1551.34,4176.03 1672.18,4488.19 1488.19,4488.19" style="fill:none;stroke:black;stroke-width:54.04px;"/>
                </g>
            </g>
            <g transform="matrix(3.98732e-17,0.651178,-0.302357,1.8514e-17,3721.72,259.931)">
                <path d="M1653.54,4015.75C1653.54,4015.75 1566.77,3997.19 1559.06,4086.61C1551.34,4176.03 1672.18,4488.19 1488.19,4488.19" style="fill:none;stroke:black;stroke-width:99.14px;"/>
                <g transform="matrix(1,0,0,-1,-4.54747e-13,8976.38)">
                    <path d="M1653.54,4015.75C1653.54,4015.75 1566.77,3997.19 1559.06,4086.61C1551.34,4176.03 1672.18,4488.19 1488.19,4488.19" style="fill:none;stroke:black;stroke-width:99.14px;"/>
                </g>
            </g>
            <g transform="matrix(3.98732e-17,0.651178,-0.747475,4.57696e-17,7017.11,246.744)">
                <path d="M1653.54,4015.75C1653.54,4015.75 1566.77,3997.19 1559.06,4086.61C1551.34,4176.03 1672.18,4488.19 1488.19,4488.19" style="fill:none;stroke:black;stroke-width:71.8px;"/>
                <g transform="matrix(1,0,0,-1,-4.54747e-13,8976.38)">
                    <path d="M1653.54,4015.75C1653.54,4015.75 1566.77,3997.19 1559.06,4086.61C1551.34,4176.03 1672.18,4488.19 1488.19,4488.19" style="fill:none;stroke:black;stroke-width:71.8px;"/>
                </g>
            </g>
            <g id="Layer1" transform="matrix(1,0,0,1,944.882,708.661)">
                <g transform="matrix(1,0,0,1,3.74694,-4168.63)">
                    <g transform="matrix(202.843,0,0,202.843,1722.01,4535.43)">
                    </g>
                    <text x="1110.24px" y="4535.43px" style="font-family:'Lato-Regular', 'Lato', sans-serif;font-size:202.843px;">L<tspan x="1210.85px " y="4535.43px ">e</tspan>ngth</text>
                </g>
                <g transform="matrix(1,0,0,1,-886.58,-3308.02)">
                    <g transform="matrix(202.843,0,0,202.843,1713.9,4535.43)">
                    </g>
                    <text x="1110.24px" y="4535.43px" style="font-family:'Lato-Regular', 'Lato', sans-serif;font-size:202.843px;">Height</text>
                </g>
                <g transform="matrix(1,0,0,1,1127.51,-4156.82)">
                    <g transform="matrix(202.843,0,0,202.843,2051.22,4535.43)">
                    </g>
                    <text x="1125.86px" y="4535.43px" style="font-family:'Lato-Regular', 'Lato', sans-serif;font-size:202.843px;">3 × L<tspan x="1540.06px " y="4535.43px ">e</tspan>ngth</text>
                </g>
            </g>
        </g>
    </g>
</svg>
